<?xml version="1.0" encoding="UTF-8"?>
<svg id="Capa_1" data-name="Capa 1" xmlns="http://www.w3.org/2000/svg" viewBox="0 0 200 200">
  <defs>
    <style>
      .cls-1 {
        fill: #fff;
      }
    </style>
  </defs>
  <path class="cls-1" d="m69.88,136.65c-3.49,0-6.98,0-10.47,0-.17,0-.33,0-.5,0-.14,0-.29-.02-.31-.21-.02-.15.09-.21.2-.25,2.46-.83,4.45-2.39,6.36-4.08,1.5-1.33,2.85-2.82,4.14-4.34,2.32-2.75,4.38-5.7,6.32-8.74,2.07-3.24,3.95-6.59,5.66-10.02.97-1.94,1.92-3.9,2.59-5.99.25-.78.6-1.53.79-2.34.06-.24.18-.32.39-.33.17,0,.33,0,.5,0,8.39,0,16.77,0,25.16,0,.56,0,.86-.05.52.71-1.06,2.39-2.17,4.75-3.34,7.09-1.64,3.25-3.44,6.41-5.43,9.46-2.77,4.25-5.89,8.2-9.57,11.7-2.19,2.08-4.58,3.92-7.21,5.41-1.4.79-2.89,1.45-4.48,1.83-.33.08-.66.1-.99.1-3.44,0-6.88,0-10.32,0Z"/>
  <path class="cls-1" d="m97.01,74.42c-.09.46-.22.92-.26,1.39-.16,2.04-.64,4.02-.95,6.03-.48,3.08-1.2,6.13-1.79,9.19-.33,1.7-.6,3.41-.89,5.11-.08.48-.26.76-.81.75-1.98-.02-3.97-.02-5.95,0-.54,0-.65-.17-.56-.67.32-1.93.76-3.84,1.09-5.78.58-3.41,1.34-6.78,1.96-10.18.25-1.37.55-2.74.75-4.13.25-1.69.71-3.34,1.03-5.02.4-2.1.77-4.21,1.11-6.32.19-1.16.15-1.16,1.28-1.16,2.17,0,4.35,0,6.52,0,1.32,0,1.34.02,1.73,1.28.74,2.38,1.63,4.71,2.42,7.07,1.01,3.02,2.1,6.02,2.85,9.12.27,1.13.63,2.25.89,3.47.34-.34.38-.72.42-1.09.28-2.84.77-5.65,1.31-8.45.34-1.77.59-3.55.93-5.32.32-1.68.69-3.35,1.03-5.03.07-.32,0-.78.18-.94.33-.27.83-.1,1.25-.11,1.82-.01,3.63.02,5.45-.02.54,0,.57.19.48.63-.44,2.26-.83,4.54-1.31,6.8-.27,1.24-.43,2.5-.75,3.73-.28,1.06-.4,2.17-.6,3.25-.31,1.68-.62,3.35-.93,5.03-.23,1.26-.42,2.53-.71,3.77-.4,1.69-.63,3.42-1.02,5.12-.26,1.14-.46,2.32-.63,3.49-.06.41-.23.77-.29,1.17-.04.32-.29.27-.49.27-2.25,0-4.49,0-6.74,0-.38,0-.58-.1-.73-.56-.82-2.35-1.63-4.69-2.43-7.05-.85-2.5-1.81-4.95-2.63-7.46-.64-1.96-1.15-3.96-1.69-5.95-.13-.48-.36-.92-.52-1.46Z"/>
  <path class="cls-1" d="m40.08,97.37c.1.01.2.03.3.04.08.36.31.26.54.18.1.02.21.04.31.06.14.32.39.34.69.24.1.02.21.04.31.06.07.38.31.29.55.21.1.02.21.04.31.05.2.2.4.41.71.2.11-.03.21-.02.29.06.77.53,1.63.73,2.54.77,1.1.3,2.2.59,3.3.91,1.34.39,2.67.81,4.01,1.21,1.24.37,2.49.75,3.74,1.09,1.31.37,2.61.78,3.93,1.14,1.83.5,3.66,1.03,5.47,1.61,1.65.53,3.34.95,5.02,1.41.58.16.7.43.46.97-.99,2.17-1.91,4.37-2.97,6.5-1.22,2.45-2.44,4.9-3.87,7.24-1.44,2.36-2.93,4.69-4.8,6.74-1.3,1.43-2.63,2.87-4.43,3.61-2.19.9-4.09.62-5.85-1.47-1.59-1.89-2.42-4.15-3.19-6.45-.51-1.52-.9-3.09-1.24-4.65-.26-1.2-.5-2.42-.73-3.63-.43-2.31-.89-4.61-1.44-6.89-.58-2.39-1.25-4.74-2.27-6.98-.53-1.17-1.24-2.22-1.95-3.27-.11-.53-.72-.71-.95-1.28.46.16.8.43,1.22.31Z"/>
  <path class="cls-1" d="m125.79,97.08c-2.13.11-4.48-.13-6.83-.34-.52-.05-1.01-.25-1.54-.24-.36.01-.24-.28-.23-.47.08-1.26.44-2.48.65-3.72.22-1.31.41-2.63.74-3.92.31-1.21.46-2.45.73-3.67.24-1.08.42-2.18.62-3.27.31-1.66.62-3.31.93-4.97.24-1.28.44-2.58.73-3.85.27-1.21.48-2.43.73-3.64.24-1.15.47-2.32.62-3.49.06-.43.26-.81.32-1.24.03-.17.16-.29.36-.28.98.04,1.91-.27,2.87-.36,2.88-.28,5.77-.37,8.65-.18,3.36.22,6.56,1.12,9.25,3.26,1.91,1.52,3.25,3.44,4,5.83.86,2.73.82,5.52.45,8.24-.55,4.05-2.22,7.69-5.13,10.66-1.72,1.75-3.75,3.05-6.05,3.94-3.75,1.46-7.66,1.8-11.87,1.7Zm14.99-20.79c-.16-1.16-.46-2.28-1.06-3.31-1.32-2.27-3.46-3.06-5.89-3.27-.97-.09-1.96.05-2.93-.03-.86-.08-1.02.37-1.14,1.05-.3,1.68-.67,3.35-.99,5.04-.29,1.54-.59,3.08-.88,4.62-.23,1.25-.48,2.51-.68,3.77-.33,2.01-.78,4-1.19,6-.09.44.04.59.49.6,1.93.03,3.84,0,5.75-.51,2.22-.6,4.02-1.75,5.49-3.49,1.9-2.24,2.66-4.91,3.01-7.74.16-.03.26-.12.26-.28,0-.72,0-1.43,0-2.15,0-.17-.09-.26-.25-.29Z"/>
  <path class="cls-1" d="m79.16,96.93c-1.1,0-2.2-.01-3.3,0-.55,0-.77-.17-.8-.77-.14-2.42-.35-4.84-.52-7.26-.02-.36-.18-.44-.49-.44-2.6,0-5.21,0-7.81,0-.4,0-.61.18-.79.57-.96,2.12-2.02,4.2-2.84,6.37-.54,1.42-1.3,1.59-2.54,1.54-1.86-.07-3.73-.02-5.59-.02-.82,0-.82-.04-.48-.76,1.12-2.32,2.2-4.65,3.33-6.96.94-1.93,1.93-3.83,2.88-5.75,1.24-2.53,2.44-5.08,3.67-7.61,1.34-2.76,2.7-5.51,4.05-8.27.57-1.16,1.17-2.3,1.68-3.49.14-.33.28-.44.59-.44,2.91,0,5.83,0,8.74,0,.37,0,.47.13.5.49.15,1.83.41,3.65.6,5.47.25,2.41.54,4.81.85,7.21.5,3.88.91,7.76,1.36,11.65.27,2.32.6,4.63.8,6.96.13,1.52.19,1.51-1.36,1.51-.84,0-1.67,0-2.51,0Zm-6.16-25.66c-.34.88-.64,1.77-1.02,2.63-1.17,2.62-2.34,5.25-3.59,7.84-.32.67-.05.66.44.66,1.53,0,3.05-.02,4.58,0,.59.01.77-.14.7-.78-.26-2.22-.44-4.45-.64-6.67-.11-1.22-.08-2.45-.47-3.68Z"/>
  <path class="cls-1" d="m24.34,116.78c1.14.03,1.63-.75,2.07-1.45.72-1.15,1.15-2.44,1.64-3.71,1.24-3.23,2.28-6.56,4.16-9.5.71-1.11,1.52-2.14,2.86-2.66,1.27-.49,2.36-.28,3.39.51,1.77,1.34,2.63,3.29,3.46,5.25.73,1.72,1.24,3.53,1.66,5.34.53,2.29,1.02,4.59,1.43,6.91.21,1.18.4,2.36.72,3.52.16.6.19,1.24.37,1.84.16.53-.18.55-.55.44-2.55-.76-5.09-1.53-7.64-2.29-1.79-.53-3.59-1.01-5.38-1.54-2.28-.68-4.55-1.4-6.84-2.07-.44-.13-.91-.15-1.36-.6Z"/>
  <path class="cls-1" d="m159.37,63.65c1.03,0,2.05.03,3.08-.01.54-.02.79.08.67.69-.24,1.18-.44,2.38-.67,3.56-.4,2.1-.8,4.2-1.22,6.3-.26,1.31-.5,2.63-.77,3.94-.22,1.08-.41,2.17-.61,3.26-.31,1.7-.63,3.41-.95,5.11-.22,1.19-.43,2.38-.69,3.57-.39,1.79-.57,3.61-1.08,5.37-.01.05,0,.1-.02.14q-.24,1.35-1.6,1.35c-1.82,0-3.63,0-5.45,0-.87,0-.79,0-.67-.86.22-1.58.58-3.14.87-4.71.32-1.77.68-3.53,1.01-5.29.23-1.22.45-2.46.66-3.69.35-2.08.79-4.14,1.19-6.21.23-1.21.46-2.42.69-3.63.34-1.77.72-3.54,1.03-5.32.18-1.05.4-2.09.61-3.13.07-.39.22-.45.54-.44,1.12.01,2.24,0,3.37,0Z"/>
  <path class="cls-1" d="m24.22,114.85c-.96-.04-1.65-.62-2.16-1.32-2.17-3.05-3.78-6.4-5.17-9.86-.44-1.09-.77-2.24-1.14-3.36-.24-.73-.06-.94.72-.75,1.52.37,3.02.79,4.53,1.17,1.7.43,3.4.82,5.1,1.24,1.4.35,2.8.75,4.2,1.11.41.11.21.4.15.57-.57,1.46-1.23,2.9-1.74,4.38-.46,1.33-.93,2.66-1.54,3.94-.49,1.03-1.03,2.02-2.08,2.62-.29.16-.55.26-.87.25Z"/>
  <path class="cls-1" d="m181.25,112.99c-3.37.26-5.13-2.53-4.98-5.33.13-2.35.83-4.47,2.73-6.04.98-.8,2.07-1.25,3.36-1.33,1.23-.08,2.39-.01,3.45.68,1.37.89,1.95,2.22,2.02,3.79.14,2.86-.59,5.37-2.99,7.17-.99.75-2.01,1.05-3.59,1.05Zm-2.55-5.26c0,.12,0,.24,0,.36-.04,1.23.38,2.33,1.49,2.82,1.24.54,2.49.35,3.54-.71,1.39-1.4,1.73-3.13,1.77-4.97.03-1.26-.37-2.52-1.65-2.92-1.29-.4-2.62-.23-3.63.97-1.1,1.3-1.49,2.8-1.52,4.45Z"/>
  <path class="cls-1" d="m173.24,107.02c.66.49.94,1.14,1.04,1.85.16,1.15.23,2.32.36,3.48.04.39-.03.55-.47.56-1.73.04-1.74.06-1.95-1.72-.05-.47-.02-.96-.08-1.43-.21-1.73-.77-2.11-2.43-2.02-.53.03-.44.66-.52,1-.27,1.17-.43,2.36-.63,3.54-.07.42-.25.61-.7.62-1.7.04-1.72.05-1.4-1.58.59-3.05,1.19-6.1,1.81-9.15.35-1.74.38-1.75,2.18-1.8,1.17-.03,2.35-.14,3.47.29,1.11.43,1.91,1.22,2.04,2.44.13,1.31-.44,2.4-1.49,3.2-.36.27-.77.46-1.22.73Zm-2.45-.93c.44.13.94-.12,1.45-.3.98-.35,1.59-1.71,1.27-2.66-.3-.9-1.91-1.25-2.67-.99-.35.12-.48.31-.53.65-.11.78-.2,1.56-.36,2.32-.21.99-.23.99.85.98Z"/>
  <path class="cls-1" d="m158.95,100.38c.13,0,.23,0,.32,0,.94,0,.88-.01.68.9-.35,1.6-.62,3.21-.92,4.82-.15.82-.33,1.64-.42,2.46-.18,1.57.27,2.27,1.75,2.66.69.18,2.05-.61,2.48-1.42.41-.78.62-1.62.79-2.46.42-2.12.79-4.24,1.17-6.37.07-.42.25-.59.7-.6,1.82-.03,1.88.05,1.39,1.8-.37,1.29-.49,2.64-.78,3.95-.33,1.46-.5,2.96-1.22,4.33-1.1,2.09-3.26,2.88-5.48,2.55-1.27-.19-2.19-.78-2.71-1.95-.31-.69-.52-1.44-.4-2.2.2-1.29.46-2.56.71-3.84.12-.6.21-1.2.31-1.8.13-.74.38-1.46.41-2.23.03-.87.76-.55,1.22-.61Z"/>
  <path class="cls-1" d="m136.56,109.08c-.01-1.37.37-2.49.55-3.64.23-1.5.62-2.97.81-4.48.06-.47.25-.58.69-.59,1.69-.03,1.67-.05,1.34,1.6-.34,1.74-.6,3.49-.95,5.23-.14.68-.28,1.35-.25,2.04.05,1.38,1.18,2.11,2.52,1.83,1.38-.29,1.88-1.29,2.18-2.41.62-2.29,1.02-4.63,1.36-6.98.05-.35.29-.65.27-1.03-.01-.17.1-.26.27-.27.1,0,.19,0,.29,0q1.69-.06,1.4,1.57c-.38,2.1-.67,4.22-1.17,6.29-.47,1.96-1.26,3.81-3.42,4.51-1.59.52-3.22.59-4.64-.47-1.11-.83-1.37-2.06-1.24-3.21Z"/>
  <path class="cls-1" d="m133.65,100.38c.96,0,1.91,0,2.87,0,.36,0,.81-.02.41.56-.02.04-.02.09-.03.14-.08.36.13.83-.21,1.08-.36.26-.84.1-1.26.1-.91.02-1.82.03-2.72,0-.53-.02-.69.18-.75.69-.09.72-.28,1.44-.46,2.14-.12.48-.07.71.51.68,1.05-.04,2.1,0,3.15-.02.43,0,.65.09.45.57-.06.15-.09.33-.09.49,0,.66-.36.84-.97.82-.91-.04-1.82.03-2.72-.02-.73-.04-.9.3-.99.95-.18,1.33-.4,2.67-.77,3.97-.08.3-.22.37-.5.36-.33-.02-.67,0-1,0-.74,0-.87-.17-.66-.87.39-1.32.55-2.68.81-4.02.39-2.05.8-4.11,1.2-6.16,0-.05.03-.09.04-.14q.29-1.32,1.69-1.32c.67,0,1.34,0,2.01,0Z"/>
  <path class="cls-1" d="m152.57,100.38c1.34,0,2.68.01,4.01,0,.42,0,.57.13.47.54-.1.39-.21.77-.27,1.18-.05.32-.36.38-.67.38-.79,0-1.58,0-2.36,0-.31,0-.47.07-.53.41-.23,1.29-.48,2.57-.74,3.85-.24,1.23-.5,2.46-.74,3.69-.14.69-.14,1.41-.36,2.09-.09.29-.19.39-.47.38-.41,0-.82-.03-1.22,0-.49.05-.59-.18-.52-.58.21-1.22.42-2.44.65-3.65.21-1.12.45-2.24.67-3.36.14-.75.2-1.51.4-2.24.15-.56-.09-.61-.51-.6-.67.01-1.34-.01-2.01,0-.51.02-.72-.1-.62-.7.24-1.39.21-1.4,1.59-1.4,1.07,0,2.15,0,3.22,0Z"/>
  <path class="cls-1" d="m113.91,110.74c-.12,0-.24,0-.36,0-1.19-.02-1.33-.22-.97-1.39.26-.84.41-1.7.49-2.57.05-.57.37-1.07.32-1.66-.02-.2.2-.36.37-.37.87-.05,1.75-.19,2.62.08,1.73.54,1.86,2.31,1.49,3.46-.51,1.58-1.75,2.59-3.96,2.45Zm.39-.87c1.01-.01,2.18-.64,2.44-2.2.27-1.56-.75-2.2-1.79-2.11-.3.03-.45.08-.51.42-.17,1.04-.32,2.1-.63,3.11-.2.65-.1.84.48.79Z"/>
  <path class="cls-1" d="m119.71,110.71c-.52,0-1.19.2-1.53-.05-.44-.32.02-.96.09-1.44.22-1.42.54-2.83.8-4.25.06-.33.27-.27.47-.27.81,0,1.62,0,2.43,0,.2,0,.51-.12.45.32-.04.31,0,.64-.44.66-.48.01-.95,0-1.43.02-.23,0-.52.02-.57.31-.06.35-.06.71-.06,1.06,0,.02.21.06.33.07.38,0,.76,0,1.14,0,.2,0,.47-.08.44.28-.02.27.06.6-.39.59-.43,0-.86.03-1.28,0-.35-.02-.51.14-.62.45-.14.39-.22.78-.09,1.18.02.07.25.08.39.09.41.01.81.02,1.22,0,.33-.01.55.03.53.45-.02.35-.07.59-.51.56-.45-.03-.91,0-1.36,0,0,0,0-.01,0-.02Z"/>
  <path class="cls-1" d="m16.8,105.42c-1.56-.47-3.1-.93-4.65-1.39.78-.82.9-1.96,1.4-2.92.24-.47.43-.95.8-1.36.23-.26.49-.3.75-.26.24.04.24.33.29.53.36,1.59.84,3.14,1.43,4.65.08.21.15.46-.01.75Z"/>
  <path class="cls-1" d="m123.84,110.7c-.55,0-1.25.21-1.61-.05-.45-.32.13-.93.18-1.44.13-1.44.52-2.84.81-4.25.1-.5.5-.21.76-.25.41-.07.32.27.29.48-.21,1.19-.43,2.39-.69,3.57-.2.91-.17.98.76.98.26,0,.53,0,.79,0,.31-.01.57,0,.55.44-.02.37-.12.58-.54.56-.43-.02-.86,0-1.29,0,0,0,0-.02,0-.03Z"/>
  <path class="cls-1" d="m40.08,97.37c-.42.12-.76-.15-1.22-.31.23.58.84.75.95,1.28-.64-.56-1.29-1.11-1.99-1.71.79.27,1.59.32,2.26.74Z"/>
  <path class="cls-1" d="m46.64,99.25c-.91-.04-1.78-.24-2.54-.77.86.22,1.72.44,2.54.77Z"/>
  <path class="cls-1" d="m41.91,97.9c-.29.1-.54.08-.69-.24.28-.05.49.08.69.24Z"/>
  <path class="cls-1" d="m42.78,98.17c-.24.09-.49.18-.55-.21.23-.07.42.01.55.21Z"/>
  <path class="cls-1" d="m43.8,98.42c-.31.21-.51,0-.71-.2.27-.05.48.1.71.2Z"/>
  <path class="cls-1" d="m40.92,97.6c-.23.08-.46.18-.54-.18.22-.06.38.06.54.18Z"/>
  <path class="cls-1" d="m140.77,79.02c0-.91,0-1.82,0-2.73.16.03.25.13.25.29,0,.72,0,1.43,0,2.15,0,.17-.1.26-.26.28Z"/>
</svg>