<?xml version="1.0" encoding="UTF-8"?>
<svg id="Capa_1" data-name="Capa 1" xmlns="http://www.w3.org/2000/svg" viewBox="0 0 200 200">
  <defs>
    <style>
      .cls-1, .cls-2 {
        fill: #fff;
      }

      .cls-2 {
        fill-rule: evenodd;
      }
    </style>
  </defs>
  <path class="cls-1" d="m64.68,86.74c0,2.01.2,3.61.61,4.8.41,1.19.99,2.48,1.74,3.86.25.44.38.85.38,1.22,0,.56-.35,1.1-1.04,1.6l-3.39,2.26c-.5.31-.97.47-1.41.47-.56,0-1.1-.25-1.6-.75-.75-.75-1.4-1.59-1.93-2.5-.53-.91-1.08-1.96-1.65-3.15-4.21,4.96-9.48,7.44-15.82,7.44-4.52,0-8.1-1.29-10.74-3.86-2.64-2.57-3.96-6.03-3.96-10.36,0-4.58,1.63-8.27,4.9-11.07,3.26-2.79,7.66-4.19,13.18-4.19,1.82,0,3.72.14,5.7.42,1.98.28,4.03.68,6.17,1.18v-3.96c0-4.08-.85-6.95-2.54-8.62-1.7-1.66-4.61-2.5-8.76-2.5-1.88,0-3.81.24-5.79.71-1.98.47-3.91,1.08-5.79,1.84-.88.38-1.51.61-1.88.71-.38.09-.66.14-.85.14-.75,0-1.13-.56-1.13-1.7v-2.64c0-.88.13-1.51.38-1.88.25-.38.75-.75,1.51-1.13,1.88-.94,4.14-1.76,6.78-2.45,2.64-.69,5.43-1.04,8.38-1.04,6.4,0,11.1,1.46,14.08,4.38,2.98,2.92,4.47,7.33,4.47,13.23v17.52Zm-21.85,8.19c1.76,0,3.61-.33,5.56-.99,1.95-.66,3.64-1.8,5.09-3.44.88-1,1.49-2.15,1.84-3.44.34-1.29.52-2.84.52-4.66v-2.26c-1.57-.38-3.22-.67-4.94-.89-1.73-.22-3.41-.33-5.04-.33-3.58,0-6.25.72-8.01,2.17-1.76,1.45-2.64,3.52-2.64,6.22,0,2.51.66,4.41,1.98,5.7,1.32,1.29,3.2,1.93,5.65,1.93Zm43.23,5.84c-.94,0-1.63-.17-2.07-.52-.44-.34-.82-1.05-1.13-2.12l-12.62-41.63c-.32-1.07-.47-1.79-.47-2.17,0-.88.44-1.32,1.32-1.32h5.27c1,0,1.71.17,2.12.52.41.35.77,1.05,1.08,2.12l9.04,35.6,8.38-35.6c.25-1.07.6-1.77,1.04-2.12.44-.34,1.16-.52,2.17-.52h4.33c1,0,1.73.17,2.17.52.44.35.78,1.05,1.04,2.12l8.48,36.07,9.32-36.07c.31-1.07.67-1.77,1.08-2.12.41-.34,1.11-.52,2.12-.52h4.99c.88,0,1.32.44,1.32,1.32,0,.25-.03.53-.09.85-.06.32-.19.75-.38,1.32l-13,41.63c-.32,1.07-.69,1.77-1.13,2.12-.44.35-1.13.52-2.07.52h-4.61c-1,0-1.73-.19-2.17-.56-.44-.38-.79-1.1-1.04-2.17l-8.38-34.66-8.29,34.66c-.25,1.07-.6,1.79-1.04,2.17-.44.38-1.16.56-2.17.56h-4.61Zm69.13,1.41c-2.83,0-5.59-.31-8.29-.94-2.7-.63-4.77-1.35-6.22-2.17-.88-.5-1.43-1-1.65-1.51-.22-.5-.33-1-.33-1.51v-2.73c0-1.13.41-1.69,1.22-1.69.31,0,.64.06.99.19.34.13.8.31,1.37.56,1.82.82,3.8,1.45,5.93,1.88,2.13.44,4.27.66,6.4.66,3.39,0,6.01-.6,7.86-1.79,1.85-1.19,2.78-2.89,2.78-5.09,0-1.51-.49-2.76-1.46-3.77-.97-1-2.78-1.95-5.42-2.83l-7.82-2.45c-3.96-1.26-6.83-3.08-8.62-5.46-1.79-2.39-2.68-4.99-2.68-7.82,0-2.26.49-4.25,1.46-5.98.97-1.73,2.26-3.2,3.86-4.43,1.6-1.22,3.47-2.15,5.6-2.78,2.13-.63,4.39-.94,6.78-.94,1.19,0,2.4.08,3.63.24,1.22.16,2.39.36,3.48.61,1.1.25,2.12.53,3.06.85.94.32,1.7.63,2.26.94.75.44,1.29.88,1.6,1.32.31.44.47,1.04.47,1.79v2.54c0,1.13-.41,1.7-1.22,1.7-.44,0-1.13-.22-2.07-.66-3.08-1.38-6.53-2.07-10.36-2.07-3.08,0-5.46.5-7.16,1.51-1.69,1.01-2.54,2.61-2.54,4.8,0,1.51.53,2.78,1.6,3.81,1.07,1.04,3.05,2.02,5.93,2.97l7.63,2.45c3.89,1.26,6.67,2.98,8.33,5.18,1.66,2.2,2.5,4.71,2.5,7.53,0,2.32-.47,4.41-1.41,6.26-.94,1.85-2.25,3.44-3.91,4.76-1.66,1.32-3.66,2.32-5.98,3.01-2.32.69-4.87,1.04-7.63,1.04Z"/>
  <g>
    <path class="cls-2" d="m165.37,128.36c-17.72,13.08-43.41,20.03-65.53,20.03-31,0-58.92-11.46-80.04-30.53-1.66-1.5-.18-3.54,1.81-2.38,22.79,13.26,50.98,21.25,80.09,21.25,19.64,0,41.23-4.08,61.09-12.5,2.99-1.27,5.51,1.97,2.58,4.14Z"/>
    <path class="cls-2" d="m172.74,119.94c-2.27-2.9-14.98-1.37-20.69-.69-1.73.21-2-1.3-.44-2.4,10.14-7.12,26.76-5.07,28.69-2.68,1.95,2.41-.51,19.07-10.02,27.02-1.46,1.22-2.85.57-2.2-1.04,2.14-5.34,6.93-17.3,4.66-20.2Z"/>
  </g>
</svg>