<?xml version="1.0" encoding="UTF-8"?>
<svg id="Capa_1" data-name="Capa 1" xmlns="http://www.w3.org/2000/svg" viewBox="0 0 200 200">
  <defs>
    <style>
      .cls-1 {
        fill: #fff;
      }
    </style>
  </defs>
  <path id="path2" class="cls-1" d="m178.35,87.72c-1.2,0-2.21,1.01-2.21,2.23s1.01,2.23,2.21,2.23,2.23-1.05,2.23-2.23c.02-1.25-.99-2.23-2.23-2.23Zm-156.41,1.05c-4.56.57-8.96,1.39-13.36,2.67-.58.19-.93.82-.79,1.39.33,1.27.48,1.9.81,3.19.14.53.69.82,1.23.63,4.51-1.39,9.03-2.33,13.69-3.02.53-.07.82-.62.63-1.18-.41-1.17-.62-1.75-1.05-2.91-.19-.5-.67-.82-1.17-.77Zm92.95.14c-1.15,0-3.32.63-4.33,1.39v18.57h4.33v-19.96Zm48.8,0c-1.11,0-3.32.63-4.33,1.39v17.73c1.44.67,3.82,1.13,6.27,1.13,5.04,0,8.14-3.03,8.14-8.29,0-3.75-1.75-6.73-6.01-6.73-1.35,0-2.84.58-4.08,1.64v-6.87h.02Zm-123.19.7c-2.09,0-3.87.24-6.22.58v18.68h7.06c3.84,0,7.23-2.26,7.23-5.64,0-2.57-1.11-4.16-3.72-4.92,1.7-.67,2.64-1.88,2.64-3.7-.02-3.19-3.12-5-6.99-5Zm0,3.63c1.8,0,2.64.84,2.64,2.02,0,1.25-.81,1.97-2.52,1.97h-1.95v-3.84c.6-.09,1.23-.15,1.83-.15Zm48.06.84c-4.52,0-8.04,2.66-8.04,7.73,0,4.68,2.9,7.35,7.32,7.35,1.29,0,2.93-.29,4.51-.93l-.77-3.48c-1.06.38-1.92.51-2.67.51-2.72,0-3.82-1.42-3.82-3.74s1.18-3.79,4.08-3.79c.46,0,1.27.12,1.75.26.65-.72,1.27-1.99,1.44-3.44-1.39-.31-2.54-.48-3.79-.48Zm12.1,0c-4.39,0-7.49,2.9-7.49,7.52s2.93,7.56,7.49,7.56,7.49-2.9,7.49-7.56c-.02-4.51-2.93-7.52-7.49-7.52Zm24.16,0c-4.39,0-7.49,2.9-7.49,7.52s2.93,7.56,7.49,7.56,7.49-2.9,7.49-7.56-2.93-7.52-7.49-7.52Zm-52.24.03c-2.38,0-5.29.67-7.11,1.88l-.03,12.87h4.33v-10.85c.55-.14,1.18-.24,1.83-.24,1.75,0,2.76.79,2.76,2.31v8.77h4.3v-10.3c0-2.81-2.78-4.45-6.08-4.45h0Zm68.59,0c-2.26,0-4.95.67-6.68,1.88l-.03,12.87h4.33v-10.85c.55-.14,1.18-.24,1.83-.24,1.71,0,2.69.79,2.69,2.31v8.77h4.27v-8.57c0-.75-.12-1.44-.34-2.07.63-.26,1.4-.43,2.21-.43,1.71,0,2.69.79,2.69,2.31v8.77h4.27v-10.31c0-2.78-2.43-4.45-5.57-4.45-1.71,0-3.75.63-5.23,1.59-1.1-.99-2.64-1.59-4.44-1.59h0Zm37.23,0c-.84,0-1.58.15-2.18.41v14.34h4.33v-14.34c-.62-.27-1.32-.41-2.16-.41h0Zm-122.06.03c-1.88,0-3.63.46-5.41,1.13l.34,1.05c.46,1.27,1.01,1.71,1.7,1.71.29,0,2.5-.38,3.32-.38,1.58,0,2.3.46,2.38,2.26-4.73.14-8.72,1.17-8.72,5.29,0,2.74,2.5,3.99,5.5,3.99,3.38,0,5.88-.63,7.42-1.82v-7.64c.02-4.04-2.4-5.6-6.53-5.6h0Zm132.75,0c-1.88,0-3.63.46-5.41,1.13l.34,1.05c.46,1.27,1.01,1.71,1.7,1.71.29,0,2.5-.38,3.32-.38,1.58,0,2.3.46,2.38,2.26-4.73.14-8.72,1.17-8.72,5.29,0,2.74,2.5,3.99,5.5,3.99,3.38,0,5.88-.63,7.42-1.82v-7.64c.02-4.04-2.4-5.6-6.53-5.6h0Zm-163.33,1.7c-7.13.91-14.07,2.67-20.66,5.6-.48.22-.77.84-.67,1.37.26,1.37.39,2.04.65,3.41.12.58.65.86,1.2.58,6.7-3.07,13.76-5.02,21.01-6.19.46-.07.7-.6.51-1.15-.36-1.13-.55-1.7-.93-2.81-.17-.53-.63-.87-1.11-.82Zm140.17,1.94c2.21,0,3.58.96,3.58,3.62,0,2.31-1.1,4.28-3.62,4.28-.69,0-1.44-.05-2.21-.17v-7.26c.65-.29,1.35-.46,2.24-.46Zm-65.26.07c2,0,3.15,1.39,3.15,3.77s-1.15,3.79-3.15,3.79-3.15-1.3-3.15-3.79c0-2.38,1.2-3.77,3.15-3.77Zm24.16,0c2,0,3.15,1.39,3.15,3.77s-1.15,3.79-3.15,3.79-3.15-1.3-3.15-3.79c0-2.38,1.2-3.77,3.15-3.77Zm-86.15,3h2.3c1.92,0,2.9.63,2.9,2.18,0,1.42-1.06,2.18-2.93,2.18h-2.26v-4.35Zm19.16,1.83h.84v2.48c-.43.38-1.35.72-2.47.72-1.4,0-2.09-.38-2.09-1.42,0-1.35,1.78-1.78,3.72-1.78Zm132.75,0h.84v2.48c-.43.38-1.35.72-2.47.72-1.4,0-2.09-.38-2.09-1.42,0-1.35,1.76-1.78,3.72-1.78Zm-164.91.77c-4.45.96-8.81,2.12-13.12,3.62-.55.21-.86.77-.7,1.3.34,1.27.51,1.9.86,3.17.17.6.84.91,1.46.67,4.32-1.54,8.67-2.9,13.11-3.97.43-.1.63-.6.48-1.11-.34-1.15-.53-1.71-.89-2.84-.17-.57-.69-.93-1.18-.82Z"/>
</svg>