<?xml version="1.0" encoding="UTF-8"?>
<svg id="Capa_1" data-name="Capa 1" xmlns="http://www.w3.org/2000/svg" xmlns:xlink="http://www.w3.org/1999/xlink" viewBox="0 0 200 200">
  <defs>
    <style>
      .cls-1 {
        clip-path: url(#clippath-11);
      }

      .cls-2 {
        fill: #fff;
      }

      .cls-3 {
        clip-path: url(#clippath-2);
      }

      .cls-4 {
        clip-path: url(#clippath-13);
      }

      .cls-5 {
        clip-path: url(#clippath-15);
      }

      .cls-6 {
        clip-path: url(#clippath-6);
      }

      .cls-7 {
        clip-path: url(#clippath-7);
      }

      .cls-8 {
        clip-path: url(#clippath-1);
      }

      .cls-9 {
        clip-path: url(#clippath-4);
      }

      .cls-10 {
        clip-path: url(#clippath-12);
      }

      .cls-11 {
        clip-path: url(#clippath-9);
      }

      .cls-12 {
        clip-path: url(#clippath);
      }

      .cls-13 {
        fill: none;
      }

      .cls-14 {
        clip-path: url(#clippath-3);
      }

      .cls-15 {
        clip-path: url(#clippath-8);
      }

      .cls-16 {
        clip-path: url(#clippath-14);
      }

      .cls-17 {
        clip-path: url(#clippath-5);
      }

      .cls-18 {
        clip-path: url(#clippath-10);
      }
    </style>
    <clipPath id="clippath">
      <path class="cls-13" d="m23.52,111.41c.27,2.25,1.98,3.44,3.84,3.21,1.86-.23,3.17-1.79,2.9-4.03-.29-2.25-.96-14.96,12.77-20.24-14.76-.04-20.49,12.94-19.51,21.06"/>
    </clipPath>
    <clipPath id="clippath-1">
      <path class="cls-13" d="m42.57,90.33c-.19,0-.4.02-.54,0-1.04.04-2.04.15-2.98.33-5.03,1.27-8.75,5.82-8.75,11.23,0,.9.12,1.77.31,2.61.98-4.68,4.05-10.83,12.38-14.15-.13,0-.27,0-.42-.02"/>
    </clipPath>
    <clipPath id="clippath-2">
      <path class="cls-13" d="m58.27,115.13c-.23-1.86-1.79-3.17-4.03-2.9-2.25.29-14.96.96-20.24-12.77-.04,14.76,12.96,20.49,21.06,19.51,2.07-.25,3.23-1.71,3.23-3.38,0-.15,0-.31-.02-.46"/>
    </clipPath>
    <clipPath id="clippath-3">
      <path class="cls-13" d="m33.03,100.85c0,.14.03.27.03.4.03.19.09.39.09.53.22,1.01.5,1.98.84,2.87,2.12,4.73,7.25,7.61,12.58,6.67.89-.16,1.72-.4,2.52-.74-4.76-.15-11.35-2.13-16.07-9.74"/>
    </clipPath>
    <clipPath id="clippath-4">
      <path class="cls-13" d="m62.52,87.39c-.27-2.25-1.98-3.44-3.84-3.21-1.86.23-3.17,1.79-2.9,4.03.27,2.25.96,14.96-12.77,20.24,13.71.02,19.62-11.15,19.62-19.24,0-.63-.04-1.25-.12-1.82"/>
    </clipPath>
    <clipPath id="clippath-5">
      <path class="cls-13" d="m55.45,94.28c-.98,4.68-4.05,10.83-12.38,14.15.13.02.27.02.4.04.19,0,.4-.02.54,0,1.04-.04,2.04-.15,2.98-.33,5.03-1.27,8.75-5.82,8.75-11.23,0-.92-.1-1.8-.29-2.63"/>
    </clipPath>
    <clipPath id="clippath-6">
      <path class="cls-13" d="m31.2,80.04c-2.25.27-3.44,1.98-3.21,3.84.23,1.86,1.79,3.17,4.03,2.9,2.25-.27,14.96-.96,20.24,12.77.04-13.71-11.14-19.62-19.24-19.62-.61,0-1.23.04-1.82.12"/>
    </clipPath>
    <clipPath id="clippath-7">
      <path class="cls-13" d="m38.1,87.1c4.68.98,10.83,4.05,14.15,12.38.02-.13.02-.27.04-.4,0-.19-.02-.4,0-.54-.04-1.04-.15-2.04-.33-2.98-1.27-5.03-5.82-8.75-11.23-8.75-.92,0-1.79.1-2.63.29"/>
    </clipPath>
    <clipPath id="clippath-8">
      <path class="cls-13" d="m47.22,70.05c-.98-.96-1.73-1.17-2.5-1.48-1.23-.46-2.38.46-2.73,1.19-.36.73-.33,1.8.25,2.52.58.73.81.65,1.4,1,.71.4.79,1.27.48,1.71-.31.44-.61.54-.9.6-.1.02-.33.02-.33.02-.12,0-.56-.04-.65-.06-.35-.08-.67-.21-.96-.38-.31-.19-.58-.42-.81-.67-.23-.27-.42-.58-.56-.88-.44-1.04-.36-2.27.12-3.28.33-.67.81-1.27,1.38-1.75-.92.27-1.8.77-2.52,1.5-2.3,2.3-2.3,6.03,0,8.31,2.3,2.3,6.03,2.3,8.31,0,1.15-1.15,1.73-2.65,1.73-4.17,0-1.54-.58-3.03-1.73-4.17"/>
    </clipPath>
    <clipPath id="clippath-9">
      <path class="cls-13" d="m47.22,70.05c-.84-.86-2.07-1.5-3.01-1.59h0c-1.02-.08-1.92.69-2.21,1.31-.36.73-.33,1.8.23,2.52.58.73.81.65,1.4,1,.71.4.79,1.27.48,1.71-.1.13-.17.23-.27.31-.15.12-.38.25-.63.31-.1.02-.33.02-.33.02-.12,0-.56-.04-.65-.06-.35-.08-.67-.21-.96-.38-.31-.19-.58-.42-.81-.67-.23-.27-.42-.56-.56-.88-.23-.54-.31-1.15-.27-1.73-.02.17-.04.35-.04.52,0,2.61,2.04,4.7,4.53,4.7s4.49-2.07,4.53-4.63c-.25-.9-.75-1.75-1.44-2.44"/>
    </clipPath>
    <clipPath id="clippath-10">
      <path class="cls-13" d="m21.64,95.65c-2.3-2.3-6.03-2.3-8.31,0-.96.98-1.17,1.73-1.48,2.5-.46,1.23.46,2.38,1.19,2.73.73.36,1.8.33,2.52-.25.71-.58.65-.81,1-1.4.4-.71,1.27-.79,1.71-.48.44.31.54.61.6.9.02.1.02.33.02.33,0,.12-.04.56-.06.65-.08.35-.21.67-.38.96-.19.31-.42.58-.67.81-.27.23-.56.42-.88.56-1.04.44-2.27.36-3.28-.12-.69-.33-1.27-.81-1.77-1.38.27.92.77,1.79,1.5,2.52,2.3,2.3,6.01,2.3,8.31,0,1.15-1.15,1.73-2.65,1.73-4.17-.02-1.5-.6-3.01-1.73-4.15"/>
    </clipPath>
    <clipPath id="clippath-11">
      <path class="cls-13" d="m15.75,94.19c-.88.27-1.73.77-2.44,1.46-.84.84-1.38,1.9-1.59,3.01h0c-.1,1.02.69,1.9,1.31,2.21.73.36,1.8.33,2.52-.25s.65-.81,1-1.4c.4-.71,1.27-.79,1.71-.48.13.1.23.17.31.27.12.15.23.36.31.63.02.1.02.33.02.33,0,.12-.04.56-.06.65-.08.35-.21.67-.38.96-.19.31-.42.58-.67.81-.27.23-.58.42-.88.56-.54.23-1.13.31-1.73.27.17.02.35.04.52.04,2.61,0,4.7-2.04,4.7-4.53s-2.05-4.49-4.63-4.53"/>
    </clipPath>
    <clipPath id="clippath-12">
      <path class="cls-13" d="m47.23,121.22c-2.3-2.3-6.01-2.3-8.31,0-2.3,2.3-2.3,6.03,0,8.31.98.96,1.73,1.17,2.5,1.48,1.23.46,2.38-.46,2.73-1.19.36-.73.33-1.8-.25-2.52-.58-.73-.79-.65-1.4-1-.71-.4-.79-1.27-.48-1.71.31-.44.61-.54.9-.6.1-.02.33-.02.33-.02.12,0,.56.04.65.06.35.08.67.21.96.38.31.19.58.42.81.67.23.27.42.56.56.88.44,1.04.36,2.27-.12,3.28-.33.67-.81,1.27-1.38,1.75.92-.27,1.8-.77,2.52-1.5,1.15-1.15,1.73-2.65,1.73-4.17-.02-1.48-.58-2.98-1.73-4.13"/>
    </clipPath>
    <clipPath id="clippath-13">
      <path class="cls-13" d="m41.99,122.47c-2.48,0-4.49,2.07-4.53,4.63.27.88.75,1.73,1.46,2.44.86.84,1.9,1.38,3.01,1.59h0c1.02.08,1.9-.69,2.21-1.31.36-.73.33-1.8-.25-2.52-.58-.73-.81-.65-1.4-1-.71-.4-.79-1.27-.48-1.71.1-.13.17-.23.27-.31.15-.12.36-.23.63-.31.1-.02.33-.02.33-.02.12,0,.56.04.65.06.35.08.67.21.96.38.31.19.58.42.81.67.23.27.42.58.56.88.23.54.31,1.13.27,1.73.02-.17.04-.35.04-.52,0-2.59-2.04-4.7-4.53-4.7"/>
    </clipPath>
    <clipPath id="clippath-14">
      <path class="cls-13" d="m73.08,98.72c-.73-.36-1.8-.33-2.52.23-.73.58-.65.81-1,1.4-.4.71-1.27.79-1.71.48s-.54-.61-.6-.9c-.02-.1-.04-.33-.04-.33,0-.12.04-.56.06-.65.08-.35.21-.67.38-.96.19-.31.42-.58.67-.79.27-.23.56-.42.88-.56,1.04-.44,2.27-.36,3.28.12.67.33,1.27.81,1.75,1.38-.27-.92-.77-1.8-1.5-2.52-2.3-2.3-6.01-2.3-8.31,0-2.28,2.3-2.28,6.03,0,8.31,2.3,2.28,6.03,2.3,8.31,0,.96-.98,1.17-1.73,1.48-2.5.08-.23.12-.46.12-.67.06-.94-.67-1.75-1.27-2.05"/>
    </clipPath>
    <clipPath id="clippath-15">
      <path class="cls-13" d="m73.08,98.72c-.73-.36-1.8-.33-2.52.23-.73.58-.65.81-1,1.4-.4.71-1.27.79-1.71.48-.13-.1-.23-.17-.31-.27-.12-.15-.23-.36-.31-.63-.02-.1-.02-.33-.02-.33,0-.12.04-.56.06-.65.08-.35.21-.67.38-.96.19-.31.42-.58.67-.79.27-.23.56-.42.88-.56.54-.23,1.15-.31,1.73-.27-.17-.02-.35-.04-.54-.04-2.59,0-4.7,2.04-4.7,4.53s2.07,4.49,4.63,4.53c.88-.27,1.73-.75,2.44-1.46.84-.86,1.38-1.9,1.59-3.01h0v-.15c.02-.94-.69-1.75-1.29-2.05"/>
    </clipPath>
  </defs>
  <g>
    <path class="cls-2" d="m80.45,79.67l4.84,12.86,4.84-12.86h3.76v16.78h-2.9v-5.53l.29-7.39-4.95,12.94h-2.09l-4.95-12.92.29,7.39v5.53h-2.9v-16.8h3.78Z"/>
    <path class="cls-2" d="m107.64,88.96h-6.89v5.16h8.06v2.32h-10.98v-16.78h10.89v2.34h-7.97v4.63h6.89v2.32Z"/>
    <path class="cls-2" d="m111.63,96.45v-16.78h4.95c1.48,0,2.8.33,3.96,1,1.15.65,2.04,1.59,2.67,2.82.63,1.21.94,2.61.94,4.17v.84c0,1.59-.33,3-.96,4.2-.63,1.21-1.54,2.13-2.71,2.78s-2.52.98-4.03.98h-4.82v-.02Zm2.92-14.44v12.1h1.9c1.54,0,2.71-.48,3.51-1.44.83-.96,1.23-2.32,1.25-4.13v-.94c0-1.82-.4-3.21-1.19-4.17-.79-.96-1.94-1.44-3.46-1.44h-2.02v.02Z"/>
    <path class="cls-2" d="m137.34,88.96h-6.89v5.16h8.06v2.32h-10.98v-16.78h10.89v2.34h-7.97v4.63h6.89v2.32h0Z"/>
    <path class="cls-2" d="m144.27,94.13h7.62v2.32h-10.54v-16.78h2.92v14.46Z"/>
    <path class="cls-2" d="m157.52,94.13h7.62v2.32h-10.54v-16.78h2.92v14.46Z"/>
    <path class="cls-2" d="m170.92,96.45h-2.9v-16.78h2.9v16.78Z"/>
    <path class="cls-2" d="m188.29,96.45h-2.92l-7.49-11.9v11.9h-2.92v-16.78h2.92l7.51,11.96v-11.96h2.9v16.78h0Z"/>
  </g>
  <g>
    <path class="cls-2" d="m81.97,74.3c-.23.31-.58.56-1,.71-.42.15-.9.25-1.44.25s-1.04-.13-1.48-.38c-.42-.25-.75-.61-.98-1.08-.23-.46-.35-1.02-.36-1.63v-.52c0-1,.23-1.79.71-2.34.48-.56,1.15-.84,2-.84.73,0,1.32.17,1.75.54.44.36.69.88.79,1.57h-1.13c-.13-.79-.6-1.19-1.38-1.19-.52,0-.9.19-1.17.56-.27.36-.4.92-.42,1.63v.5c0,.71.15,1.27.46,1.67.31.4.71.6,1.25.6.6,0,1-.13,1.25-.4v-1.29h-1.36v-.86h2.5v2.52h.04Z"/>
    <path class="cls-2" d="m97.75,72.61h-1.29v2.53h-1.15v-6.6h2.32c.77,0,1.34.17,1.77.52.42.35.61.84.61,1.48,0,.44-.12.81-.33,1.11-.21.31-.52.52-.88.69l1.48,2.75v.06h-1.23l-1.31-2.53Zm-1.29-.92h1.17c.38,0,.69-.1.9-.29s.33-.46.33-.81-.1-.63-.31-.83c-.19-.19-.5-.29-.9-.31h-1.21v2.23h.02Z"/>
    <path class="cls-2" d="m117.06,72.2h-2.71v2.04h3.17v.92h-4.32v-6.62h4.28v.92h-3.15v1.82h2.71v.92h.02Z"/>
    <path class="cls-2" d="m134.23,73.61h-2.55l-.54,1.54h-1.19l2.5-6.6h1.04l2.5,6.6h-1.19l-.56-1.54Zm-2.23-.92h1.92l-.96-2.75-.96,2.75Z"/>
    <path class="cls-2" d="m153.02,69.46h-2.05v5.68h-1.13v-5.68h-2.04v-.92h5.24v.92h-.02Z"/>
    <path class="cls-2" d="m169.84,72.2h-2.71v2.04h3.17v.92h-4.32v-6.62h4.28v.92h-3.15v1.82h2.71v.92h.02Z"/>
    <path class="cls-2" d="m185.74,72.61h-1.29v2.53h-1.15v-6.6h2.32c.77,0,1.34.17,1.77.52.42.35.61.84.61,1.48,0,.44-.12.81-.33,1.11-.21.31-.52.52-.88.69l1.48,2.75v.06h-1.23l-1.31-2.53Zm-1.27-.92h1.17c.38,0,.69-.1.9-.29.21-.19.33-.46.33-.81s-.1-.63-.31-.83c-.19-.19-.5-.29-.9-.31h-1.21v2.23h.02Z"/>
  </g>
  <g>
    <path class="cls-2" d="m81.68,104.67c-.06.69-.31,1.21-.75,1.59-.44.38-1.02.58-1.75.58-.52,0-.96-.12-1.34-.36-.38-.25-.69-.58-.9-1.04-.21-.44-.33-.96-.33-1.56v-.6c0-.6.12-1.13.33-1.59.21-.46.52-.81.92-1.06.4-.25.86-.36,1.38-.36.71,0,1.27.19,1.71.58.42.38.67.92.75,1.63h-1.11c-.06-.46-.19-.79-.4-1-.21-.21-.54-.31-.94-.31-.48,0-.86.17-1.11.54s-.38.86-.4,1.56v.58c0,.69.12,1.23.36,1.57.25.36.61.54,1.09.54.44,0,.77-.1.98-.29s.36-.52.42-.98h1.09v-.02Z"/>
    <path class="cls-2" d="m88.15,103.71c0,.63-.12,1.17-.33,1.65s-.52.84-.92,1.09c-.4.25-.86.38-1.38.38s-.98-.13-1.38-.38c-.4-.25-.71-.61-.94-1.08-.23-.46-.33-1.02-.33-1.61v-.36c0-.61.12-1.17.33-1.65.23-.48.54-.84.94-1.09s.86-.38,1.38-.38.98.13,1.38.38c.4.25.71.61.94,1.08.21.46.33,1.02.33,1.63v.35h-.02Zm-1.11-.33c0-.71-.13-1.25-.4-1.63s-.65-.58-1.13-.58-.86.19-1.13.56c-.27.38-.4.9-.42,1.59v.36c0,.71.13,1.25.4,1.63.27.38.65.58,1.13.58s.86-.19,1.13-.56c.27-.38.4-.92.4-1.65v-.31h.02Z"/>
    <path class="cls-2" d="m94.68,106.74h-1.11l-2.86-4.53v4.53h-1.11v-6.39h1.11l2.86,4.55v-4.55h1.09v6.39h.02Z"/>
    <path class="cls-2" d="m98.61,105.34l1.63-5.01h1.23l-2.3,6.39h-1.08l-2.3-6.37h1.21l1.61,4.99Z"/>
    <path class="cls-2" d="m106.27,103.88h-2.63v1.98h3.07v.88h-4.19v-6.39h4.15v.9h-3.03v1.77h2.63v.86h0Z"/>
    <path class="cls-2" d="m113.05,106.74h-1.11l-2.84-4.53v4.53h-1.11v-6.39h1.11l2.86,4.55v-4.55h1.09v6.39h0Z"/>
    <path class="cls-2" d="m119.23,101.25h-2v5.49h-1.09v-5.49h-1.98v-.9h5.07v.9Z"/>
    <path class="cls-2" d="m121.59,106.74h-1.11v-6.39h1.11v6.39Z"/>
    <path class="cls-2" d="m128.43,103.71c0,.63-.12,1.17-.33,1.65-.21.48-.52.84-.92,1.09s-.86.38-1.38.38-.98-.13-1.38-.38c-.4-.25-.71-.61-.94-1.08-.23-.46-.33-1.02-.33-1.61v-.36c0-.61.12-1.17.33-1.65.23-.48.54-.84.94-1.09.4-.25.86-.38,1.38-.38s.98.13,1.38.38c.4.25.71.61.94,1.08.21.46.33,1.02.33,1.63v.35h-.02Zm-1.11-.33c0-.71-.13-1.25-.4-1.63-.27-.38-.65-.58-1.13-.58s-.86.19-1.13.56c-.27.38-.4.9-.42,1.59v.36c0,.71.13,1.25.4,1.63.27.38.65.58,1.13.58s.86-.19,1.13-.56.4-.92.4-1.65v-.31h.02Z"/>
    <path class="cls-2" d="m134.98,106.74h-1.11l-2.86-4.53v4.53h-1.11v-6.39h1.11l2.86,4.55v-4.55h1.09v6.39h.02Z"/>
    <path class="cls-2" d="m138.97,105.02c0-.29.08-.58.25-.81.15-.25.48-.54.96-.88-.25-.31-.42-.58-.52-.81-.1-.21-.15-.42-.15-.63,0-.5.15-.9.46-1.19.31-.29.71-.44,1.23-.44.46,0,.84.13,1.15.4.29.27.44.61.44,1.02,0,.27-.08.52-.21.73-.13.23-.36.44-.67.67l-.44.31,1.23,1.46c.17-.35.27-.75.27-1.17h.92c0,.79-.19,1.44-.56,1.94l.94,1.11h-1.25l-.36-.42c-.46.35-1,.52-1.63.52s-1.13-.17-1.52-.5c-.35-.33-.54-.77-.54-1.31Zm2.11.96c.36,0,.69-.12,1.02-.36l-1.4-1.65-.13.1c-.35.27-.52.58-.52.92,0,.29.1.54.29.73.19.17.44.27.75.27Zm-.58-4.11c0,.25.15.56.46.92l.48-.33.13-.12c.17-.15.27-.36.27-.61,0-.17-.06-.31-.19-.42-.13-.12-.29-.17-.48-.17-.21,0-.36.08-.5.21-.12.12-.17.29-.17.52Z"/>
    <path class="cls-2" d="m150.2,105.34l1.63-5.01h1.23l-2.3,6.39h-1.08l-2.3-6.37h1.21l1.61,4.99Z"/>
    <path class="cls-2" d="m155.31,106.74h-1.11v-6.39h1.11v6.39Z"/>
    <path class="cls-2" d="m160.38,105.09c0-.29-.1-.5-.29-.65-.19-.15-.56-.31-1.08-.46-.52-.15-.92-.33-1.23-.52-.58-.36-.88-.84-.88-1.44,0-.52.21-.94.63-1.27.42-.33.96-.5,1.63-.5.44,0,.84.08,1.19.25.35.17.61.4.83.69.19.31.31.63.31,1.02h-1.11c0-.33-.1-.6-.31-.79s-.52-.29-.9-.29-.65.08-.84.23-.31.36-.31.65c0,.23.12.42.33.6.21.15.58.31,1.08.46.5.15.9.31,1.19.5.31.19.52.4.67.65.13.25.21.54.21.86,0,.54-.21.96-.61,1.27-.4.31-.96.48-1.67.48-.46,0-.88-.08-1.27-.25-.38-.17-.69-.4-.9-.71-.21-.31-.33-.65-.33-1.06h1.11c0,.36.12.65.36.84.25.19.58.31,1.04.31.38,0,.67-.08.86-.23.19-.19.29-.38.29-.65Z"/>
    <path class="cls-2" d="m164,106.74h-1.11v-6.39h1.11v6.39Z"/>
    <path class="cls-2" d="m170.23,101.25h-2v5.49h-1.09v-5.49h-1.98v-.9h5.07v.9Z"/>
    <path class="cls-2" d="m176.41,103.71c0,.63-.12,1.17-.33,1.65-.21.48-.52.84-.92,1.09-.4.25-.86.38-1.38.38s-.98-.13-1.38-.38c-.4-.25-.71-.61-.94-1.08-.23-.46-.33-1.02-.33-1.61v-.36c0-.61.12-1.17.33-1.65.23-.48.54-.84.94-1.09.4-.25.86-.38,1.38-.38s.98.13,1.38.38c.4.25.71.61.94,1.08.21.46.33,1.02.33,1.63v.35h-.02Zm-1.11-.33c0-.71-.13-1.25-.4-1.63-.27-.38-.65-.58-1.13-.58s-.86.19-1.13.56c-.27.38-.4.9-.42,1.59v.36c0,.71.13,1.25.4,1.63.27.38.65.58,1.13.58s.86-.19,1.13-.56c.27-.38.4-.92.4-1.65v-.31h.02Z"/>
    <path class="cls-2" d="m180.21,104.29h-1.23v2.46h-1.11v-6.39h2.25c.73,0,1.31.17,1.71.5.4.33.6.81.6,1.44,0,.42-.1.79-.31,1.08s-.5.52-.86.67l1.44,2.67v.06h-1.19l-1.29-2.48Zm-1.23-.9h1.13c.38,0,.67-.1.88-.29.21-.19.31-.44.31-.77,0-.35-.1-.61-.29-.79-.19-.19-.48-.29-.86-.29h-1.17v2.13Z"/>
    <path class="cls-2" d="m187.18,105.09c0-.29-.1-.5-.29-.65-.19-.15-.56-.31-1.08-.46-.52-.15-.92-.33-1.23-.52-.58-.36-.88-.84-.88-1.44,0-.52.21-.94.63-1.27.42-.33.96-.5,1.63-.5.44,0,.84.08,1.19.25.35.17.61.4.83.69.19.31.31.63.31,1.02h-1.11c0-.33-.1-.6-.31-.79s-.52-.29-.9-.29-.65.08-.84.23-.31.36-.31.65c0,.23.12.42.33.6.21.15.58.31,1.08.46.5.15.9.31,1.19.5.31.19.52.4.67.65.13.25.21.54.21.86,0,.54-.21.96-.61,1.27-.4.31-.96.48-1.67.48-.46,0-.88-.08-1.27-.25-.38-.17-.69-.4-.9-.71-.21-.31-.33-.65-.33-1.06h1.11c0,.36.12.65.36.84.25.19.58.31,1.04.31.38,0,.67-.08.86-.23.19-.19.29-.38.29-.65Z"/>
  </g>
  <g>
    <path class="cls-2" d="m76.57,131.24v-21.18h7.26c2.4,0,4.22.48,5.47,1.44,1.25.96,1.88,2.4,1.88,4.3,0,.98-.27,1.84-.79,2.61-.52.77-1.29,1.38-2.3,1.8,1.15.31,2.04.9,2.65,1.75.63.86.94,1.88.94,3.09,0,2-.63,3.51-1.92,4.59-1.27,1.08-3.11,1.59-5.47,1.59h-7.72Zm3.69-12.27h3.61c1.15,0,2.04-.27,2.69-.79.65-.52.96-1.25.96-2.21,0-1.06-.31-1.8-.9-2.27-.6-.46-1.52-.69-2.78-.69h-3.57v5.95h0Zm0,2.71v6.62h4.09c1.15,0,2.05-.29,2.71-.86.65-.58.98-1.36.98-2.38,0-2.21-1.13-3.32-3.38-3.38h-4.4Z"/>
    <path class="cls-2" d="m111.46,110.06v14.15c0,2.25-.73,4.03-2.17,5.36-1.44,1.31-3.36,1.98-5.76,1.98s-4.36-.65-5.78-1.94c-1.42-1.29-2.13-3.09-2.13-5.4v-14.15h3.69v14.17c0,1.42.36,2.5,1.08,3.24.71.75,1.77,1.11,3.17,1.11,2.84,0,4.24-1.5,4.24-4.47v-14.05h3.67Z"/>
    <path class="cls-2" d="m123.76,123.1h-4.11v8.14h-3.69v-21.18h7.45c2.44,0,4.34.56,5.66,1.65,1.32,1.09,2,2.69,2,4.76,0,1.42-.35,2.61-1.02,3.55-.69.96-1.63,1.69-2.86,2.21l4.76,8.81v.19h-3.94l-4.26-8.14Zm-4.09-2.98h3.78c1.25,0,2.21-.31,2.92-.94.69-.63,1.06-1.48,1.06-2.57s-.33-2.02-.96-2.63c-.65-.61-1.61-.94-2.88-.96h-3.88v7.1h-.04Z"/>
    <path class="cls-2" d="m147.55,121.8h-8.7v6.53h10.18v2.94h-13.84v-21.2h13.75v2.96h-10.08v5.86h8.7v2.92Z"/>
    <path class="cls-2" d="m164.48,126.31h-8.2l-1.71,4.93h-3.82l8.01-21.18h3.3l8.03,21.18h-3.84l-1.77-4.93Zm-7.18-2.96h6.14l-3.07-8.79-3.07,8.79Z"/>
    <path class="cls-2" d="m188.29,110.06v14.15c0,2.25-.73,4.03-2.17,5.36-1.44,1.31-3.36,1.98-5.76,1.98s-4.36-.65-5.78-1.94c-1.42-1.29-2.13-3.09-2.13-5.4v-14.15h3.67v14.17c0,1.42.36,2.5,1.08,3.24.71.75,1.77,1.11,3.17,1.11,2.84,0,4.24-1.5,4.24-4.47v-14.05h3.69Z"/>
  </g>
  <g>
    <g>
      <path id="SVGID" class="cls-2" d="m23.52,111.41c.27,2.25,1.98,3.44,3.84,3.21,1.86-.23,3.17-1.79,2.9-4.03-.29-2.25-.96-14.96,12.77-20.24-14.76-.04-20.49,12.94-19.51,21.06"/>
      <g class="cls-12">
        <rect class="cls-2" x="22.54" y="90.31" width="20.49" height="24.52"/>
      </g>
    </g>
    <g>
      <path id="SVGID-2" data-name="SVGID" class="cls-2" d="m42.57,90.33c-.19,0-.4.02-.54,0-1.04.04-2.04.15-2.98.33-5.03,1.27-8.75,5.82-8.75,11.23,0,.9.12,1.77.31,2.61.98-4.68,4.05-10.83,12.38-14.15-.13,0-.27,0-.42-.02"/>
      <g class="cls-8">
        <rect class="cls-2" x="30.3" y="90.33" width="12.67" height="14.17"/>
      </g>
    </g>
    <g>
      <path id="SVGID-3" data-name="SVGID" class="cls-2" d="m58.27,115.13c-.23-1.86-1.79-3.17-4.03-2.9-2.25.29-14.96.96-20.24-12.77-.04,14.76,12.96,20.49,21.06,19.51,2.07-.25,3.23-1.71,3.23-3.38,0-.15,0-.31-.02-.46"/>
      <g class="cls-3">
        <rect class="cls-2" x="33.97" y="99.47" width="24.33" height="20.49"/>
      </g>
    </g>
    <g>
      <path id="SVGID-4" data-name="SVGID" class="cls-2" d="m34.03,99.52c-.02.13-.02.27-.04.4,0,.19.02.4,0,.54.04,1.04.15,2.04.33,2.98,1.27,5.03,5.82,8.75,11.23,8.75.9,0,1.77-.1,2.61-.29-4.67-.98-10.81-4.07-14.13-12.38"/>
      <g class="cls-14">
        <rect class="cls-2" x="33.01" y="98.39" width="16.17" height="14.94" transform="translate(-17.75 8.74) rotate(-10)"/>
      </g>
    </g>
    <g>
      <path id="SVGID-5" data-name="SVGID" class="cls-2" d="m62.52,87.39c-.27-2.25-1.98-3.44-3.84-3.21-1.86.23-3.17,1.79-2.9,4.03.27,2.25.96,14.96-12.77,20.24,13.71.02,19.62-11.15,19.62-19.24,0-.63-.04-1.25-.12-1.82"/>
      <g class="cls-9">
        <rect class="cls-2" x="43.01" y="83.95" width="19.62" height="24.52"/>
      </g>
    </g>
    <g>
      <path id="SVGID-6" data-name="SVGID" class="cls-2" d="m55.45,94.28c-.98,4.68-4.05,10.83-12.38,14.15.13.02.27.02.4.04.19,0,.4-.02.54,0,1.04-.04,2.04-.15,2.98-.33,5.03-1.27,8.75-5.82,8.75-11.23,0-.92-.1-1.8-.29-2.63"/>
      <g class="cls-17">
        <rect class="cls-2" x="43.07" y="94.28" width="12.67" height="14.17"/>
      </g>
    </g>
    <g>
      <path id="SVGID-7" data-name="SVGID" class="cls-2" d="m31.2,80.04c-2.25.27-3.44,1.98-3.21,3.84.23,1.86,1.79,3.17,4.03,2.9,2.25-.27,14.96-.96,20.24,12.77.04-13.71-11.14-19.62-19.24-19.62-.61,0-1.23.04-1.82.12"/>
      <g class="cls-6">
        <rect class="cls-2" x="27.77" y="79.92" width="24.52" height="19.62"/>
      </g>
    </g>
    <g>
      <path id="SVGID-8" data-name="SVGID" class="cls-2" d="m38.1,87.1c4.68.98,10.83,4.05,14.15,12.38.02-.13.02-.27.04-.4,0-.19-.02-.4,0-.54-.04-1.04-.15-2.04-.33-2.98-1.27-5.03-5.82-8.75-11.23-8.75-.92,0-1.79.1-2.63.29"/>
      <g class="cls-7">
        <rect class="cls-2" x="38.1" y="86.81" width="14.17" height="12.67"/>
      </g>
    </g>
    <g>
      <path id="SVGID-9" data-name="SVGID" class="cls-2" d="m47.22,70.05c-.98-.96-1.73-1.17-2.5-1.48-1.23-.46-2.38.46-2.73,1.19-.36.73-.33,1.8.25,2.52.58.73.81.65,1.4,1,.71.4.79,1.27.48,1.71-.31.44-.61.54-.9.6-.1.02-.33.02-.33.02-.12,0-.56-.04-.65-.06-.35-.08-.67-.21-.96-.38-.31-.19-.58-.42-.81-.67-.23-.27-.42-.58-.56-.88-.44-1.04-.36-2.27.12-3.28.33-.67.81-1.27,1.38-1.75-.92.27-1.8.77-2.52,1.5-2.3,2.3-2.3,6.03,0,8.31,2.3,2.3,6.03,2.3,8.31,0,1.15-1.15,1.73-2.65,1.73-4.17,0-1.54-.58-3.03-1.73-4.17"/>
      <g class="cls-15">
        <rect class="cls-2" x="36.6" y="68.1" width="12.35" height="12.56"/>
      </g>
    </g>
    <g>
      <path id="SVGID-10" data-name="SVGID" class="cls-2" d="m47.22,70.05c-.84-.86-2.07-1.5-3.01-1.59h0c-1.02-.08-1.92.69-2.21,1.31-.36.73-.33,1.8.23,2.52.58.73.81.65,1.4,1,.71.4.79,1.27.48,1.71-.1.13-.17.23-.27.31-.15.12-.38.25-.63.31-.1.02-.33.02-.33.02-.12,0-.56-.04-.65-.06-.35-.08-.67-.21-.96-.38-.31-.19-.58-.42-.81-.67-.23-.27-.42-.56-.56-.88-.23-.54-.31-1.15-.27-1.73-.02.17-.04.35-.04.52,0,2.61,2.04,4.7,4.53,4.7s4.49-2.07,4.53-4.63c-.25-.9-.75-1.75-1.44-2.44"/>
      <g class="cls-11">
        <rect class="cls-2" x="39.59" y="68.36" width="9.06" height="8.75"/>
      </g>
    </g>
    <g>
      <path id="SVGID-11" data-name="SVGID" class="cls-2" d="m21.64,95.65c-2.3-2.3-6.03-2.3-8.31,0-.96.98-1.17,1.73-1.48,2.5-.46,1.23.46,2.38,1.19,2.73.73.36,1.8.33,2.52-.25.71-.58.65-.81,1-1.4.4-.71,1.27-.79,1.71-.48.44.31.54.61.6.9.02.1.02.33.02.33,0,.12-.04.56-.06.65-.08.35-.21.67-.38.96-.19.31-.42.58-.67.81-.27.23-.56.42-.88.56-1.04.44-2.27.36-3.28-.12-.69-.33-1.27-.81-1.77-1.38.27.92.77,1.79,1.5,2.52,2.3,2.3,6.01,2.3,8.31,0,1.15-1.15,1.73-2.65,1.73-4.17-.02-1.5-.6-3.01-1.73-4.15"/>
      <g class="cls-18">
        <rect class="cls-2" x="11.37" y="93.34" width="11.98" height="12.92"/>
      </g>
    </g>
    <g>
      <path id="SVGID-12" data-name="SVGID" class="cls-2" d="m15.75,94.19c-.88.27-1.73.77-2.44,1.46-.84.84-1.38,1.9-1.59,3.01h0c-.1,1.02.69,1.9,1.31,2.21.73.36,1.8.33,2.52-.25s.65-.81,1-1.4c.4-.71,1.27-.79,1.71-.48.13.1.23.17.31.27.12.15.23.36.31.63.02.1.02.33.02.33,0,.12-.04.56-.06.65-.08.35-.21.67-.38.96-.19.31-.42.58-.67.81-.27.23-.58.42-.88.56-.54.23-1.13.31-1.73.27.17.02.35.04.52.04,2.61,0,4.7-2.04,4.7-4.53s-2.05-4.49-4.63-4.53"/>
      <g class="cls-1">
        <rect class="cls-2" x="11.64" y="94.19" width="8.75" height="9.06"/>
      </g>
    </g>
    <g>
      <path id="SVGID-13" data-name="SVGID" class="cls-2" d="m47.23,121.22c-2.3-2.3-6.01-2.3-8.31,0-2.3,2.3-2.3,6.03,0,8.31.98.96,1.73,1.17,2.5,1.48,1.23.46,2.38-.46,2.73-1.19.36-.73.33-1.8-.25-2.52-.58-.73-.79-.65-1.4-1-.71-.4-.79-1.27-.48-1.71.31-.44.61-.54.9-.6.1-.02.33-.02.33-.02.12,0,.56.04.65.06.35.08.67.21.96.38.31.19.58.42.81.67.23.27.42.56.56.88.44,1.04.36,2.27-.12,3.28-.33.67-.81,1.27-1.38,1.75.92-.27,1.8-.77,2.52-1.5,1.15-1.15,1.73-2.65,1.73-4.17-.02-1.48-.58-2.98-1.73-4.13"/>
      <g class="cls-10">
        <rect class="cls-2" x="36.62" y="118.92" width="12.35" height="12.56"/>
      </g>
    </g>
    <g>
      <path id="SVGID-14" data-name="SVGID" class="cls-2" d="m41.99,122.47c-2.48,0-4.49,2.07-4.53,4.63.27.88.75,1.73,1.46,2.44.86.84,1.9,1.38,3.01,1.59h0c1.02.08,1.9-.69,2.21-1.31.36-.73.33-1.8-.25-2.52-.58-.73-.81-.65-1.4-1-.71-.4-.79-1.27-.48-1.71.1-.13.17-.23.27-.31.15-.12.36-.23.63-.31.1-.02.33-.02.33-.02.12,0,.56.04.65.06.35.08.67.21.96.38.31.19.58.42.81.67.23.27.42.58.56.88.23.54.31,1.13.27,1.73.02-.17.04-.35.04-.52,0-2.59-2.04-4.7-4.53-4.7"/>
      <g class="cls-4">
        <rect class="cls-2" x="37.46" y="122.47" width="9.06" height="8.75"/>
      </g>
    </g>
    <g>
      <path id="SVGID-15" data-name="SVGID" class="cls-2" d="m73.08,98.72c-.73-.36-1.8-.33-2.52.23-.73.58-.65.81-1,1.4-.4.71-1.27.79-1.71.48s-.54-.61-.6-.9c-.02-.1-.04-.33-.04-.33,0-.12.04-.56.06-.65.08-.35.21-.67.38-.96.19-.31.42-.58.67-.79.27-.23.56-.42.88-.56,1.04-.44,2.27-.36,3.28.12.67.33,1.27.81,1.75,1.38-.27-.92-.77-1.8-1.5-2.52-2.3-2.3-6.01-2.3-8.31,0-2.28,2.3-2.28,6.03,0,8.31,2.3,2.28,6.03,2.3,8.31,0,.96-.98,1.17-1.73,1.48-2.5.08-.23.12-.46.12-.67.06-.94-.67-1.75-1.27-2.05"/>
      <g class="cls-16">
        <rect class="cls-2" x="62.17" y="93.34" width="12.21" height="12.92"/>
      </g>
    </g>
    <g>
      <path id="SVGID-16" data-name="SVGID" class="cls-2" d="m73.08,98.72c-.73-.36-1.8-.33-2.52.23-.73.58-.65.81-1,1.4-.4.71-1.27.79-1.71.48-.13-.1-.23-.17-.31-.27-.12-.15-.23-.36-.31-.63-.02-.1-.02-.33-.02-.33,0-.12.04-.56.06-.65.08-.35.21-.67.38-.96.19-.31.42-.58.67-.79.27-.23.56-.42.88-.56.54-.23,1.15-.31,1.73-.27-.17-.02-.35-.04-.54-.04-2.59,0-4.7,2.04-4.7,4.53s2.07,4.49,4.63,4.53c.88-.27,1.73-.75,2.44-1.46.84-.86,1.38-1.9,1.59-3.01h0v-.15c.02-.94-.69-1.75-1.29-2.05"/>
      <g class="cls-5">
        <rect class="cls-2" x="65.72" y="96.34" width="8.66" height="9.06"/>
      </g>
    </g>
  </g>
</svg>