<?xml version="1.0" encoding="UTF-8"?>
<svg id="Capa_1" data-name="Capa 1" xmlns="http://www.w3.org/2000/svg" viewBox="0 0 200 200">
  <defs>
    <style>
      .cls-1 {
        fill: #fff;
      }
    </style>
  </defs>
  <g>
    <path class="cls-1" d="m75.48,84.62c2.83,0,4.4,1.77,5.03,3.9.28.96,1.16,1.61,2.16,1.61h3.71c-.19-5.51-4.05-10.3-10.94-10.3s-11.72,5.58-11.72,13.11,4.16,12.88,11.72,12.88c6.7,0,10.52-4.61,10.94-10.37h-3.77c-.98,0-1.85.64-2.15,1.58-.75,2.33-2.28,4-5.05,4-3.86,0-5.96-3.22-5.96-8.09s2.28-8.31,6.03-8.31"/>
    <path class="cls-1" d="m91.47,105.59h17.77v-3.53c0-.86-.69-1.55-1.55-1.55h-10.49v-5.42h9.54v-5.05h-9.54v-5.15h10.49c.86,0,1.55-.69,1.55-1.55v-3.53h-17.77v25.77Z"/>
    <rect class="cls-1" x="114.79" y="79.82" width="5.73" height="25.77"/>
    <path class="cls-1" d="m155.58,79.82l-9.31,25.77h4.16c1.04,0,1.96-.66,2.3-1.64l1.02-2.96h9.95l1.02,2.96c.34.98,1.26,1.64,2.3,1.64h4.35l-9.23-25.77h-6.55Zm-.11,16.13s2.85-8.25,3.2-9.52h.12c.35,1.31,3.2,9.52,3.2,9.52h-6.51Z"/>
    <path class="cls-1" d="m136.35,79.82h-9.61v25.77h5.73v-5.28h3.87c5.66,0,10.25-4.59,10.25-10.25s-4.59-10.25-10.25-10.25m-.92,15.54h-2.95v-10.57h2.95c2.92,0,5.29,2.37,5.29,5.29s-2.37,5.29-5.29,5.29"/>
    <g>
      <path class="cls-1" d="m172.51,114.4v.31h.06c.06,0,.09,0,.12,0,.04,0,.17,0,.17-.15,0-.02,0-.09-.08-.13-.04-.02-.09-.02-.2-.02h-.09Zm-.18-.16h.32c.13,0,.22,0,.31.07.06.05.11.13.11.24,0,.19-.14.26-.2.27l.22.4h-.21l-.2-.37h-.17v.37h-.18v-.99h0Zm.33-.39c-.48,0-.89.38-.89.89s.43.89.89.89c.5,0,.89-.39.9-.89,0-.49-.38-.9-.9-.9h0Zm0,1.68c-.44,0-.79-.35-.79-.79s.35-.79.79-.79.79.36.79.79c0,.44-.34.79-.79.79h0Z"/>
      <g>
        <path class="cls-1" d="m63.64,118.81v-3.94h1.49c.26,0,.46.01.6.04.19.03.36.09.49.18.13.09.24.22.32.38.08.16.12.34.12.54,0,.34-.11.62-.32.85-.21.23-.6.35-1.16.35h-1.01v1.6h-.52Zm.52-2.07h1.02c.34,0,.58-.06.72-.19.14-.13.21-.3.21-.53,0-.16-.04-.31-.13-.42-.08-.12-.19-.19-.33-.23-.09-.02-.25-.03-.49-.03h-1.01v1.41Z"/>
        <path class="cls-1" d="m67.04,117.38c0-.53.15-.92.44-1.17.25-.21.54-.32.9-.32.39,0,.71.13.96.39.25.26.37.61.37,1.07,0,.37-.06.66-.17.87-.11.21-.27.37-.48.49-.21.12-.44.17-.69.17-.4,0-.72-.13-.97-.38-.25-.26-.37-.63-.37-1.11Zm.5,0c0,.37.08.64.24.82.16.18.36.27.6.27s.44-.09.6-.27c.16-.18.24-.46.24-.84,0-.35-.08-.62-.24-.8-.16-.18-.36-.27-.6-.27s-.44.09-.6.27c-.16.18-.24.45-.24.82Z"/>
        <path class="cls-1" d="m70.78,118.81l-.87-2.86h.5l.45,1.65.17.61s.06-.23.15-.59l.45-1.67h.5l.43,1.66.14.55.16-.55.49-1.65h.47l-.89,2.86h-.5l-.45-1.71-.11-.49-.58,2.2h-.51Z"/>
        <path class="cls-1" d="m76.16,117.89l.5.06c-.08.29-.22.52-.44.68-.21.16-.49.24-.82.24-.42,0-.75-.13-.99-.39s-.37-.62-.37-1.08.12-.85.37-1.12c.25-.27.57-.4.96-.4s.69.13.94.39.36.63.36,1.1c0,.03,0,.07,0,.13h-2.13c.02.31.11.55.27.72.16.17.36.25.6.25.18,0,.33-.05.45-.14.13-.09.22-.24.3-.45Zm-1.59-.78h1.59c-.02-.24-.08-.42-.18-.54-.15-.19-.35-.28-.6-.28-.22,0-.41.07-.56.22-.15.15-.24.35-.25.6Z"/>
        <path class="cls-1" d="m77.24,118.81v-2.86h.44v.43c.11-.2.21-.34.31-.4.09-.06.2-.1.31-.1.16,0,.33.05.5.16l-.17.45c-.12-.07-.24-.1-.35-.1-.11,0-.2.03-.28.1-.08.06-.14.15-.18.26-.05.17-.08.36-.08.56v1.49h-.48Z"/>
        <path class="cls-1" d="m81,117.89l.5.06c-.08.29-.22.52-.44.68-.21.16-.49.24-.82.24-.42,0-.75-.13-.99-.39s-.37-.62-.37-1.08.12-.85.37-1.12c.25-.27.57-.4.96-.4s.69.13.94.39.36.63.36,1.1c0,.03,0,.07,0,.13h-2.13c.02.31.11.55.27.72.16.17.36.25.6.25.18,0,.33-.05.45-.14.13-.09.22-.24.3-.45Zm-1.59-.78h1.59c-.02-.24-.08-.42-.18-.54-.15-.19-.35-.28-.6-.28-.22,0-.41.07-.56.22-.15.15-.24.35-.25.6Z"/>
        <path class="cls-1" d="m83.93,118.81v-.36c-.18.28-.45.42-.8.42-.23,0-.44-.06-.63-.19-.19-.13-.34-.3-.44-.53-.1-.22-.16-.48-.16-.78s.05-.54.14-.78c.09-.23.24-.41.43-.53.19-.12.4-.19.64-.19.17,0,.33.04.46.11.13.07.24.17.33.28v-1.41h.48v3.94h-.45Zm-1.53-1.42c0,.37.08.64.23.82.15.18.34.27.55.27s.39-.09.54-.26c.15-.17.22-.44.22-.79,0-.39-.08-.68-.23-.86-.15-.18-.34-.27-.56-.27s-.39.09-.54.26c-.14.18-.22.45-.22.83Z"/>
        <path class="cls-1" d="m87.06,118.81h-.45v-3.94h.48v1.41c.2-.26.47-.38.78-.38.18,0,.34.04.5.11.16.07.29.17.39.3.1.13.18.28.24.46.06.18.09.37.09.58,0,.49-.12.87-.36,1.13-.24.27-.53.4-.87.4s-.6-.14-.79-.42v.36Zm0-1.45c0,.34.05.59.14.74.15.25.36.37.62.37.21,0,.39-.09.55-.28.15-.18.23-.46.23-.82s-.07-.65-.22-.83c-.15-.18-.33-.27-.54-.27s-.39.09-.55.28c-.15.18-.23.45-.23.8Z"/>
        <path class="cls-1" d="m89.63,119.91l-.05-.45c.11.03.2.04.28.04.11,0,.19-.02.26-.05s.12-.09.16-.15c.03-.05.08-.17.15-.36,0-.03.02-.07.04-.12l-1.08-2.86h.52l.59,1.65c.08.21.15.43.21.66.06-.22.12-.44.2-.65l.61-1.66h.48l-1.09,2.9c-.12.31-.21.53-.27.65-.09.16-.18.28-.3.35-.11.07-.24.11-.4.11-.09,0-.2-.02-.31-.06Z"/>
        <path class="cls-1" d="m98.76,118.81h-1.07l-.43-1.11h-1.95l-.4,1.11h-1.04l1.9-4.87h1.04l1.95,4.87Zm-1.81-1.93l-.67-1.81-.66,1.81h1.33Z"/>
        <path class="cls-1" d="m100.13,118.81h-.93v-3.53h.87v.5c.15-.24.28-.39.4-.47.12-.08.25-.11.4-.11.21,0,.42.06.61.18l-.29.81c-.16-.1-.3-.15-.44-.15s-.24.04-.33.11c-.09.07-.16.2-.21.39-.05.19-.08.58-.08,1.18v1.09Z"/>
        <path class="cls-1" d="m101.85,114.8v-.86h.93v.86h-.93Zm0,4v-3.53h.93v3.53h-.93Z"/>
        <path class="cls-1" d="m103.33,118.81v-.73l1.32-1.52c.22-.25.38-.42.48-.53-.11,0-.25.01-.43.01h-1.25s0-.77,0-.77h2.92v.66l-1.35,1.55-.47.51c.26-.02.42-.02.48-.02h1.44v.82h-3.15Z"/>
        <path class="cls-1" d="m106.85,116.99c0-.31.08-.61.23-.9.15-.29.37-.51.65-.66.28-.15.59-.23.94-.23.53,0,.97.17,1.31.52.34.35.51.78.51,1.31s-.17.98-.52,1.33c-.34.35-.78.53-1.3.53-.32,0-.63-.07-.92-.22s-.52-.36-.67-.64c-.15-.28-.23-.63-.23-1.03Zm.96.05c0,.35.08.62.25.8.17.19.37.28.61.28s.45-.09.61-.28c.16-.19.25-.46.25-.81s-.08-.61-.25-.8c-.16-.19-.37-.28-.61-.28s-.45.09-.61.28c-.17.19-.25.45-.25.8Z"/>
        <path class="cls-1" d="m114.4,118.81h-.93v-1.8c0-.38-.02-.63-.06-.74-.04-.11-.1-.2-.19-.26-.09-.06-.2-.09-.32-.09-.16,0-.31.04-.43.13-.13.09-.22.21-.26.35-.05.15-.07.42-.07.81v1.6h-.93v-3.53h.87v.52c.31-.4.7-.6,1.16-.6.21,0,.39.04.56.11.17.07.3.17.39.28s.15.25.18.39.05.36.05.63v2.19Z"/>
        <path class="cls-1" d="m116.01,116.36l-.85-.15c.1-.34.26-.59.49-.76.23-.16.58-.25,1.04-.25.42,0,.73.05.93.15.2.1.35.22.43.38.08.15.12.43.12.84v1.09c0,.31,0,.54.03.69s.09.3.17.47h-.92c-.02-.06-.05-.15-.09-.28-.02-.06-.03-.09-.03-.11-.16.15-.33.27-.51.35-.18.08-.38.12-.58.12-.36,0-.65-.1-.86-.3-.21-.2-.31-.45-.31-.75,0-.2.05-.38.14-.53.1-.16.23-.28.4-.36.17-.08.42-.16.74-.22.44-.08.74-.16.91-.23v-.09c0-.18-.04-.31-.13-.38-.09-.08-.26-.11-.5-.11-.17,0-.3.03-.39.1s-.17.18-.23.34Zm1.25.76c-.12.04-.31.09-.57.14-.26.06-.43.11-.51.16-.12.09-.18.2-.18.33s.05.24.15.34c.1.1.22.14.37.14.17,0,.33-.06.48-.17.11-.08.19-.19.22-.31.02-.08.04-.23.04-.45v-.19Z"/>
        <path class="cls-1" d="m120.67,117.22l.96-.09c.06.32.17.56.35.71s.41.23.71.23c.32,0,.56-.07.72-.2.16-.13.24-.29.24-.47,0-.12-.03-.21-.1-.29s-.19-.15-.35-.21c-.12-.04-.38-.11-.79-.21-.53-.13-.9-.29-1.11-.48-.3-.27-.45-.59-.45-.98,0-.25.07-.48.21-.7.14-.22.34-.38.61-.49.26-.11.58-.17.96-.17.61,0,1.07.13,1.38.4.31.27.47.63.49,1.07l-.98.04c-.04-.25-.13-.43-.27-.54-.14-.11-.35-.16-.62-.16s-.51.06-.67.18c-.1.08-.16.18-.16.3,0,.12.05.21.15.3.12.1.43.21.9.33.48.11.83.23,1.06.35.23.12.41.29.54.49s.19.47.19.78c0,.28-.08.54-.23.78s-.37.42-.66.54c-.28.12-.64.18-1.06.18-.62,0-1.09-.14-1.42-.43-.33-.28-.53-.7-.59-1.24Z"/>
        <path class="cls-1" d="m127.03,115.28v.74h-.64v1.42c0,.29,0,.46.02.5.01.05.04.09.08.12.04.03.1.05.16.05.09,0,.21-.03.38-.09l.08.72c-.22.09-.46.14-.74.14-.17,0-.32-.03-.45-.08-.14-.06-.23-.13-.3-.22-.06-.09-.11-.21-.13-.36-.02-.11-.03-.33-.03-.66v-1.54h-.43v-.74h.43v-.7l.94-.54v1.25h.64Z"/>
        <path class="cls-1" d="m128.34,116.36l-.85-.15c.1-.34.26-.59.49-.76.23-.16.58-.25,1.04-.25.42,0,.73.05.93.15.2.1.35.22.43.38.08.15.12.43.12.84v1.09c0,.31,0,.54.03.69s.09.3.17.47h-.92c-.02-.06-.05-.15-.09-.28-.02-.06-.03-.09-.03-.11-.16.15-.33.27-.51.35-.18.08-.38.12-.58.12-.36,0-.65-.1-.86-.3-.21-.2-.31-.45-.31-.75,0-.2.05-.38.14-.53.1-.16.23-.28.4-.36.17-.08.42-.16.74-.22.44-.08.74-.16.91-.23v-.09c0-.18-.04-.31-.13-.38-.09-.08-.26-.11-.5-.11-.17,0-.3.03-.39.1s-.17.18-.23.34Zm1.25.76c-.12.04-.31.09-.57.14-.26.06-.43.11-.51.16-.12.09-.18.2-.18.33s.05.24.15.34c.1.1.22.14.37.14.17,0,.33-.06.48-.17.11-.08.19-.19.22-.31.02-.08.04-.23.04-.45v-.19Z"/>
        <path class="cls-1" d="m133.01,115.28v.74h-.64v1.42c0,.29,0,.46.02.5.01.05.04.09.08.12.04.03.1.05.16.05.09,0,.21-.03.38-.09l.08.72c-.22.09-.46.14-.74.14-.17,0-.32-.03-.45-.08-.14-.06-.23-.13-.3-.22-.06-.09-.11-.21-.13-.36-.02-.11-.03-.33-.03-.66v-1.54h-.43v-.74h.43v-.7l.94-.54v1.25h.64Z"/>
        <path class="cls-1" d="m135.67,117.68l.93.16c-.12.34-.31.6-.57.78-.26.18-.58.27-.97.27-.61,0-1.07-.2-1.36-.6-.23-.32-.35-.73-.35-1.22,0-.58.15-1.04.46-1.37.31-.33.69-.5,1.16-.5.52,0,.94.17,1.24.52.3.35.45.88.44,1.59h-2.34c0,.28.08.49.23.65.14.15.32.23.54.23.15,0,.27-.04.37-.12.1-.08.17-.21.23-.39Zm.05-.94c0-.27-.08-.48-.21-.62-.13-.14-.29-.21-.48-.21-.2,0-.37.07-.5.22-.13.15-.2.35-.2.6h1.39Z"/>
        <path class="cls-1" d="m139.23,113.94h.98v2.64c0,.42.01.69.04.81.04.2.14.36.3.48.16.12.37.18.65.18s.49-.06.63-.17c.14-.11.23-.25.26-.42.03-.17.04-.44.04-.83v-2.69h.98v2.56c0,.58-.03,1-.08,1.24-.05.24-.15.44-.29.61-.14.17-.33.3-.57.4-.24.1-.55.15-.94.15-.46,0-.82-.05-1.06-.16-.24-.11-.43-.25-.57-.42-.14-.17-.23-.35-.28-.54-.06-.28-.1-.69-.1-1.24v-2.6Z"/>
        <path class="cls-1" d="m147.31,118.81h-.93v-1.8c0-.38-.02-.63-.06-.74-.04-.11-.1-.2-.19-.26-.09-.06-.2-.09-.32-.09-.16,0-.31.04-.43.13-.13.09-.22.21-.26.35-.05.15-.07.42-.07.81v1.6h-.93v-3.53h.87v.52c.31-.4.7-.6,1.16-.6.21,0,.39.04.56.11.17.07.3.17.39.28s.15.25.18.39.05.36.05.63v2.19Z"/>
        <path class="cls-1" d="m148.23,114.8v-.86h.93v.86h-.93Zm0,4v-3.53h.93v3.53h-.93Z"/>
        <path class="cls-1" d="m151.05,118.81l-1.42-3.53h.98l.66,1.8.19.6c.05-.15.08-.25.1-.3.03-.1.06-.2.1-.3l.67-1.8h.96l-1.4,3.53h-.84Z"/>
        <path class="cls-1" d="m155.87,117.68l.93.16c-.12.34-.31.6-.57.78s-.58.27-.97.27c-.61,0-1.07-.2-1.36-.6-.23-.32-.35-.73-.35-1.22,0-.58.15-1.04.46-1.37.31-.33.69-.5,1.16-.5.52,0,.94.17,1.24.52.3.35.45.88.44,1.59h-2.34c0,.28.08.49.23.65.14.15.32.23.54.23.15,0,.27-.04.37-.12.1-.08.17-.21.23-.39Zm.05-.94c0-.27-.08-.48-.21-.62-.13-.14-.29-.21-.48-.21-.2,0-.37.07-.5.22-.13.15-.2.35-.2.6h1.39Z"/>
        <path class="cls-1" d="m158.47,118.81h-.93v-3.53h.87v.5c.15-.24.28-.39.4-.47.12-.08.25-.11.4-.11.21,0,.42.06.61.18l-.29.81c-.16-.1-.3-.15-.44-.15s-.24.04-.33.11c-.09.07-.16.2-.21.39-.05.19-.08.58-.08,1.18v1.09Z"/>
        <path class="cls-1" d="m159.86,117.8l.94-.14c.04.18.12.32.24.41.12.09.29.14.51.14.24,0,.42-.04.54-.13.08-.06.12-.14.12-.25,0-.07-.02-.13-.07-.18-.05-.04-.15-.09-.31-.12-.75-.17-1.23-.32-1.43-.45-.28-.19-.42-.45-.42-.79,0-.31.12-.56.36-.77s.62-.31,1.12-.31.84.08,1.08.24c.23.16.4.39.48.7l-.88.16c-.04-.14-.11-.24-.21-.32-.11-.07-.26-.11-.45-.11-.25,0-.42.03-.53.1-.07.05-.11.11-.11.19,0,.07.03.12.09.17.08.06.37.15.87.26.5.11.84.25,1.04.42.19.17.29.4.29.69,0,.32-.14.6-.41.83-.27.23-.67.35-1.2.35-.48,0-.86-.1-1.14-.29-.28-.19-.46-.46-.55-.79Z"/>
        <path class="cls-1" d="m163.94,114.8v-.86h.93v.86h-.93Zm0,4v-3.53h.93v3.53h-.93Z"/>
        <path class="cls-1" d="m167.41,115.28v.74h-.64v1.42c0,.29,0,.46.02.5.01.05.04.09.08.12.04.03.1.05.16.05.09,0,.21-.03.38-.09l.08.72c-.22.09-.46.14-.74.14-.17,0-.32-.03-.45-.08-.14-.06-.23-.13-.3-.22-.06-.09-.11-.21-.13-.36-.02-.11-.03-.33-.03-.66v-1.54h-.43v-.74h.43v-.7l.94-.54v1.25h.64Z"/>
        <path class="cls-1" d="m167.58,115.28h.99l.84,2.5.82-2.5h.97l-1.25,3.39-.22.61c-.08.21-.16.36-.23.47-.07.11-.16.2-.26.26s-.21.12-.36.16c-.14.04-.3.06-.48.06s-.36-.02-.53-.06l-.08-.73c.15.03.28.04.4.04.22,0,.38-.06.48-.19.1-.13.18-.29.24-.49l-1.34-3.54Z"/>
      </g>
    </g>
  </g>
  <g>
    <path class="cls-1" d="m26.45,79.76v18.97c0,8.82,7.18,15.99,16,15.99s15.99-7.18,15.99-15.99v-18.97h-31.99Zm30.62,1.37v17.6c0,8.06-6.56,14.62-14.62,14.62s-14.62-6.56-14.62-14.62v-17.6h29.25Z"/>
    <path class="cls-1" d="m44.33,89.66l.28-.11-.28-.11c-.82-.34-1.49-1-1.82-1.82l-.11-.28-.11.28c-.34.82-1,1.49-1.82,1.82l-.28.11.28.11c.82.34,1.49,1,1.82,1.82l.11.28.11-.28c.34-.82,1-1.49,1.82-1.82Z"/>
    <path class="cls-1" d="m50.54,95.74c-.82-.34-1.49-1-1.82-1.82l-.11-.28-.11.28c-.34.82-1,1.49-1.82,1.82l-.28.11.28.11c.82.34,1.49,1,1.82,1.82l.11.28.11-.28c.34-.82,1-1.49,1.82-1.82l.28-.11-.28-.11Z"/>
    <path class="cls-1" d="m34.43,103.1l-1.52,1.52v-.55c0-.45-.37-.82-.82-.82-.11,0-.19.09-.19.19v2.81h2.89c.11,0,.19-.09.19-.19,0-.45-.37-.82-.82-.82h-.43l1.41-1.41c2.01,1.83,4.59,2.83,7.3,2.83s5.25-.99,7.24-2.78l1.4,1.4h-.43c-.45,0-.82.37-.82.82,0,.11.09.19.19.19h2.81v-2.89c0-.11-.09-.19-.19-.19-.45,0-.82.37-.82.82v.55l-1.42-1.42c1.86-2.01,2.89-4.62,2.89-7.36s-1.01-5.3-2.83-7.3l1.41-1.41v.43c0,.45.37.82.82.82.11,0,.19-.09.19-.19v-2.81h-2.89c-.11,0-.19.09-.19.19,0,.45.37.82.82.82h.55l-1.43,1.43c-2.01-1.83-4.59-2.83-7.3-2.83s-5.34,1.02-7.36,2.89l-1.52-1.52h.55c.45,0,.82-.37.82-.82,0-.11-.09-.19-.19-.19h-2.81v2.89c0,.11.09.19.19.19.45,0,.82-.37.82-.82v-.43l1.42,1.42c-1.79,2-2.78,4.56-2.78,7.24s1.01,5.3,2.83,7.3Zm-1.82-7.3c0-2.41.88-4.72,2.48-6.53l6.58,6.58-6.53,6.53c-1.64-1.81-2.54-4.15-2.54-6.58Zm3.2-7.25c1.82-1.67,4.18-2.59,6.64-2.59s4.77.9,6.58,2.54l-6.64,6.64-6.59-6.59Zm13.17,14.6c-1.8,1.6-4.12,2.48-6.53,2.48s-4.77-.9-6.58-2.54l6.53-6.53,6.58,6.58Zm-5.87-7.3l6.64-6.64c1.64,1.81,2.54,4.15,2.54,6.58s-.92,4.82-2.59,6.64l-6.59-6.59Z"/>
    <path class="cls-1" d="m36.56,97.97c.21,0,.42-.03.62-.09.61-.19,1.11-.65,1.35-1.25l.15-.37-.33.22c-.57.39-1.3.35-1.94-.09-.05-.04-.1-.09-.14-.14-.65-.95-.33-1.86.25-2.31l.32-.24-.4.02c-.76.04-1.45.49-1.78,1.18-.36.73-.28,1.58.23,2.34h0c.07.11.17.2.27.27.45.3.93.46,1.4.46Z"/>
    <path class="cls-1" d="m40.34,102.06c.26.77.92,1.31,1.82,1.49.06.01.13.02.19.02s.13,0,.19-.02c.77-.15,1.36-.56,1.69-1.17.3-.56.32-1.25.07-1.84l-.16-.37-.08.39c-.13.68-.67,1.17-1.44,1.31-.06.01-.13.01-.2,0-1.13-.21-1.55-1.08-1.45-1.81l.05-.4-.27.3c-.51.57-.67,1.37-.43,2.09Z"/>
  </g>
</svg>