<?xml version="1.0" standalone="no"?>
<!DOCTYPE svg PUBLIC "-//W3C//DTD SVG 20010904//EN"
 "http://www.w3.org/TR/2001/REC-SVG-20010904/DTD/svg10.dtd">
<svg version="1.0" xmlns="http://www.w3.org/2000/svg"
 width="400.000000pt" height="334.000000pt" viewBox="0 0 400.000000 334.000000"
 preserveAspectRatio="xMidYMid meet">

<g transform="translate(0.000000,334.000000) scale(0.100000,-0.100000)"
fill="#000000" stroke="none">
<path d="M1665 3306 c-116 -42 -194 -82 -275 -142 -80 -59 -170 -143 -170
-159 0 -6 150 -398 334 -871 l334 -859 36 -3 c20 -2 36 1 36 6 0 24 -199 2055
-202 2057 -2 2 -43 -12 -93 -29z"/>
<path d="M2240 3325 c0 -7 -40 -431 -90 -942 -49 -510 -92 -957 -96 -993 -3
-36 -8 -78 -11 -93 -5 -27 -4 -28 33 -25 l39 3 336 865 337 865 -46 48 c-106
110 -256 203 -416 257 -64 21 -86 25 -86 15z"/>
<path d="M958 2373 c-26 -399 198 -798 552 -982 76 -39 217 -94 230 -89 5 3
-751 1104 -772 1123 -3 4 -8 -20 -10 -52z"/>
<path d="M2647 1869 c-213 -309 -386 -563 -384 -565 8 -8 154 48 233 90 235
125 414 336 499 591 43 127 67 350 47 423 -6 19 -71 -70 -395 -539z"/>
<path d="M272 774 c-69 -18 -104 -37 -154 -82 -83 -75 -131 -233 -109 -364 21
-129 76 -209 174 -258 81 -39 162 -54 267 -46 131 9 130 8 130 78 0 53 -2 59
-17 53 -85 -32 -203 -30 -270 4 -160 81 -186 332 -48 460 24 22 60 44 81 50
55 15 144 13 194 -4 24 -8 44 -14 46 -13 1 2 5 28 9 59 l7 55 -52 12 c-68 16
-192 14 -258 -4z"/>
<path d="M850 410 l0 -380 220 0 220 0 0 55 0 55 -150 0 -150 0 0 115 0 115
140 0 140 0 0 55 0 55 -140 0 -140 0 0 100 0 100 150 0 150 0 0 55 0 55 -220
0 -220 0 0 -380z"/>
<path d="M1570 410 l0 -380 215 0 215 0 0 55 0 55 -145 0 -145 0 0 325 0 325
-70 0 -70 0 0 -380z"/>
<path d="M2360 776 c-123 -33 -184 -124 -159 -236 17 -76 47 -104 185 -170 69
-33 136 -72 150 -86 33 -37 33 -92 -1 -133 -57 -67 -150 -66 -318 4 -16 7 -18
2 -15 -56 l3 -64 55 -13 c86 -20 253 -11 312 17 104 50 149 150 117 264 -17
64 -64 103 -199 170 -141 70 -169 97 -154 148 15 52 54 74 132 73 61 -1 93
-10 175 -52 4 -2 7 23 7 56 l0 60 -69 16 c-82 19 -158 19 -221 2z"/>
<path d="M2930 410 l0 -380 70 0 70 0 0 380 0 380 -70 0 -70 0 0 -380z"/>
<path d="M3562 669 c-33 -68 -114 -238 -181 -377 -66 -138 -121 -254 -121
-257 0 -3 29 -5 66 -3 l65 3 38 85 39 85 147 0 148 0 37 -85 37 -85 77 -3 77
-3 -15 33 c-21 49 -346 721 -351 726 -2 3 -31 -51 -63 -119z m109 -260 c27
-57 48 -107 48 -111 1 -5 -47 -8 -105 -8 -97 0 -106 2 -100 17 27 75 93 212
100 210 6 -2 31 -50 57 -108z"/>
</g>
</svg>
