<?xml version="1.0" encoding="UTF-8"?>
<svg id="Capa_1" data-name="Capa 1" xmlns="http://www.w3.org/2000/svg" viewBox="0 0 200 200">
  <defs>
    <style>
      .cls-1 {
        fill: #fff;
      }
    </style>
  </defs>
  <path class="cls-1" d="m138.37,124.05h0c-.08-.35-.19-.71-.32-1.1l-.46-1.46h-.41l.96,2.95h.42l1.06-2.95h-.41l-.5,1.46c-.13.39-.25.76-.34,1.1Z"/>
  <rect class="cls-1" x="139.94" y="121.49" width=".38" height="2.95"/>
  <path class="cls-1" d="m142.4,121.78c.3,0,.5.06.65.13l.09-.31c-.13-.06-.39-.14-.74-.14-.99,0-1.6.64-1.6,1.53,0,.46.16.85.41,1.1.29.28.66.39,1.1.39.4,0,.74-.1.91-.16v-1.42h-.97v.31h.6v.88c-.09.04-.26.08-.51.08-.69,0-1.14-.44-1.14-1.19s.47-1.19,1.19-1.19Z"/>
  <rect class="cls-1" x="143.81" y="121.49" width=".38" height="2.95"/>
  <polygon class="cls-1" points="144.86 121.49 144.86 124.44 146.5 124.44 146.5 124.12 145.24 124.12 145.24 121.49 144.86 121.49"/>
  <path class="cls-1" d="m146.71,124.44h.39l.31-.93h1.05l.32.93h.41l-1.01-2.95h-.46l-1,2.95Zm1.22-2.62h0c.04.17.09.35.15.54l.29.85h-.89l.29-.85c.06-.18.11-.36.15-.53Z"/>
  <path class="cls-1" d="m149.61,121.53v2.91c.19.02.42.04.69.04.57,0,1.03-.15,1.31-.43.28-.27.43-.67.43-1.15s-.15-.82-.42-1.06c-.26-.24-.65-.37-1.2-.37-.3,0-.58.03-.81.06Zm2.03,1.38c0,.8-.44,1.25-1.26,1.25-.15,0-.29,0-.39-.02v-2.33c.1-.02.25-.04.45-.04.81,0,1.2.44,1.2,1.14Z"/>
  <path class="cls-1" d="m152.24,124.44h.39l.31-.93h1.05l.32.93h.41l-1.01-2.95h-.46l-1,2.95Zm1.22-2.62h0c.04.17.09.35.15.54l.29.85h-.89l.29-.85c.06-.18.11-.36.15-.53Z"/>
  <path class="cls-1" d="m157.82,122.92c-.13.37-.24.7-.31,1h-.01c-.07-.31-.18-.63-.3-1l-.5-1.43h-.49l-.21,2.95h.36l.08-1.27c.03-.44.05-.94.06-1.31h0c.08.35.2.73.34,1.15l.48,1.41h.29l.52-1.43c.15-.41.27-.78.37-1.12h.01c0,.37.02.86.04,1.28l.07,1.3h.37l-.18-2.95h-.49l-.53,1.43Z"/>
  <rect class="cls-1" x="159.6" y="121.49" width=".38" height="2.95"/>
  <path class="cls-1" d="m161.54,122.95l.94,1.5h.39v-2.95h-.36v1.24c0,.46,0,.82.04,1.21h0c-.14-.3-.31-.61-.53-.96l-.95-1.5h-.42v2.95h.36v-1.26c0-.49,0-.85-.03-1.22h.01c.15.32.35.65.55.98Z"/>
  <polygon class="cls-1" points="165.13 121.81 165.13 121.49 163.53 121.49 163.53 124.44 165.19 124.44 165.19 124.12 163.91 124.12 163.91 123.06 165.06 123.06 165.06 122.74 163.91 122.74 163.91 121.81 165.13 121.81"/>
  <path class="cls-1" d="m165.69,121.53v2.91c.19.02.42.04.69.04.57,0,1.03-.15,1.31-.43.28-.27.43-.67.43-1.15s-.15-.82-.42-1.06c-.26-.24-.65-.37-1.2-.37-.3,0-.58.03-.81.06Zm2.03,1.38c0,.8-.44,1.25-1.26,1.25-.15,0-.29,0-.39-.02v-2.33c.1-.02.25-.04.45-.04.81,0,1.2.44,1.2,1.14Z"/>
  <path class="cls-1" d="m168.6,121.49v1.74c0,.92.46,1.26,1.06,1.26.64,0,1.12-.37,1.12-1.28v-1.72h-.39v1.75c0,.65-.28.94-.72.94-.39,0-.69-.28-.69-.94v-1.75h-.39Z"/>
  <path class="cls-1" d="m172.82,121.76c.25,0,.45.05.6.12l.09-.31c-.1-.05-.33-.13-.7-.13-.92,0-1.54.63-1.54,1.55s.63,1.5,1.46,1.5c.36,0,.64-.07.78-.14l-.08-.3c-.15.07-.39.12-.62.12-.72,0-1.14-.46-1.14-1.19,0-.78.46-1.22,1.15-1.22Z"/>
  <path class="cls-1" d="m173.78,124.44h.39l.31-.93h1.05l.32.93h.41l-1.01-2.95h-.46l-1,2.95Zm1.22-2.62h0c.04.17.09.35.15.54l.29.85h-.89l.29-.85c.06-.18.11-.36.15-.53Z"/>
  <path class="cls-1" d="m178,121.76c.25,0,.45.05.6.12l.09-.31c-.1-.05-.33-.13-.7-.13-.92,0-1.54.63-1.54,1.55s.63,1.5,1.46,1.5c.36,0,.64-.07.78-.14l-.08-.3c-.15.07-.39.12-.62.12-.72,0-1.14-.46-1.14-1.19,0-.78.46-1.22,1.15-1.22Z"/>
  <rect class="cls-1" x="179.16" y="121.49" width=".38" height="2.95"/>
  <path class="cls-1" d="m180.03,122.99c0,.89.55,1.5,1.33,1.5s1.37-.54,1.37-1.56c0-.88-.52-1.49-1.33-1.49s-1.37.61-1.37,1.55Zm1.35-1.24c.64,0,.94.61.94,1.2,0,.67-.34,1.23-.95,1.23s-.94-.57-.94-1.2.32-1.23.95-1.23Z"/>
  <polygon class="cls-1" points="182.02 120.81 181.56 120.81 181.15 121.32 181.46 121.32 182.02 120.81"/>
  <path class="cls-1" d="m184.12,122.95l.94,1.5h.39v-2.95h-.36v1.24c0,.46,0,.82.04,1.21h0c-.14-.3-.31-.61-.53-.96l-.95-1.5h-.42v2.95h.36v-1.26c0-.49,0-.85-.03-1.22h.01c.15.32.35.65.55.98Z"/>
  <rect class="cls-1" x="137.16" y="125.14" width="48.71" height=".23"/>
  <rect class="cls-1" x="137.16" y="120.31" width="44.22" height=".23"/>
  <rect class="cls-1" x="181.62" y="120.28" width="4.08" height=".29"/>
  <path class="cls-1" d="m62.83,114.62c-2.51.06-1.87-.38-3.95-.13,2.17-.27,1.7-1.25,2.88-2.39-1.54-.75-2.88.69-3.51,2.2-.58.48-1.27,1-1.94,1.4,1.58-1.53.32-1.49,1.94-3.12-3.41.25-3.75,3.27-3.88,4.29-1.06.71-.91,1.01-2.06,1.49,1.02-.96,1.31-2.01,1.36-2.99.09-.57-.2-1.53-.09-1.87-1.61.63-2.37,1.03-2.53,2.01,0,.19-.13.38.12,2.05v.03c.05.6.26.97.07,1.52l-3.41,2.01-.38-.08c1.43-.86,2.15-1.41,2.51-2.55.25-.98.36-1.97.25-2.89-1.9.29-2.36,1.62-2.5,3.92-.09,1.42-.93,1.86-2.5,2.34.7-.35,1.12-.57,1.59-1.6.43-1.08.47-3.36.68-3.72-1.81.25-2.53,1.43-2.71,1.99-.2.65-.27,1.11-.5,2.2-.27,2.19-3.13,2.24-5.56,2.22-2.4-.01-6.13-.03-6.26-2.39-.18-2.22-1.02-2.82-2.44-3.12-.15.77-.03,1.55.23,2.56.35.91.91,1.38,1.89,1.81l-.45-.06c-.68-.25-1.87-.71-2.54-1.51-.02-.29-.05-.55-.04-.83v-.05c.02-2.45-1.02-3.65-1.67-3.85-.11-.07-.79-.29-.81-.3.05.23.09,2.35.12,2.35.2,1.67.52,2.2,1.62,2.85l-.08.08c-.68-.37-2.08-.79-2.5-1.53-.07-.23.45-3.4-2.43-5.1-.76.42,0,2.83.7,4l-1.56-1.34c-.88-1.86-.52-3.1-3.21-3.94-.02.1-.02.21-.03.32,0,.09,0,.18,0,.27,0,.05,0,.11,0,.16h0c.12.86.7,1.77,1.97,2.82l-.77-.48c-1.54-.52-2.25-2.21-2.92-2.75-.4-.32-.99-.54-2.35-.83.45.8.72,1.78,1.92,2.41-1.54-.36-1.76-.04-3.07.77,1.45.61,3.03.54,4.36-.1,1.17.14,1.9.69,2.87,1.23-1.56-.46-2.19.28-4.88-.27,2.17,2.01,3.01,2.12,5.97,1.07.79,0,1.76,1.11,2.21,1.61-1.24-.4-3.46.12-5.29-.63,1.72,2.49,4.52,2.3,6.58,1.74.11-.02.2-.04.29-.07l2,.76v.02s-.02,0-.02,0l-.08.08c-.77-.12-1.47.02-2.19.1-.75.07-1.52.09-2.28-.35-.47.98.81,1.65,2.28,1.86,1.22.17,2.57.02,3.18-.52,1.27-.33,1.92.05,3.07.38-1.67.67-3.34.75-5.02.84,2.28,2.18,4.19,1.39,6.47-.1,1.18.17,2.46.41,4.36.46-1.44.29-3.13.98-3.39,1.11-.23.11-.25.35.13.23,3.5-1.07,4.16-1.17,8.1-.02.51.15.56-.04.34-.11-.35-.12-3.5-1.21-3.53-1.22,2.38-.11,3.57-.6,3.57-.6,1.04,1.15,5.67,2.16,6.69.15-1.7.25-3.21-.86-4.88-.77.84-.15,1.54-.38,2.38-.76,1.38,1.3,3.93,1.84,6.37-.23-1.69.13-3.62-.65-5.06-.19l2.49-1.44c3.3,1.32,4.59,1.27,6.42-1.07-3.43.73-2.96-.36-5.85.52l.13-.31c1.36,0,2.08-1.23,2.74-1.49,3.1.63,3.44,1.17,6.28-1.17-2.33.27-2.06-.8-5.25.39.63-.27,1.92-1.09,2.58-1.42,1.65,1.15,2.76,1.28,4.68-.36Zm-1.25-2.42c-1.38,1.27-.34,1.84-2.63,2.15.99-.6.64-.91,1.69-1.8-.91.46-.76.95-1.9,1.78-.02-.71,1.25-2.67,2.83-2.13Zm.86,2.65c-.93.86-2.43,1.23-3.67.31.84.19,1.81.25,2.49.04-.75.04-1.93.05-2.56-.27,1.34-.69,2.45,0,3.74-.08Zm-14.46,4.23c.1-1.46.19-2.96,2.13-3.19-.02,2.23-.38,3.71-2.08,4.6.64-.76.86-1.51,1.07-2.24.14-.48.45-1.38.45-1.38-.33.54-.51,1.04-.68,1.52-.23.64-.46,1.3-1.06,2.08.11-.41.14-.89.17-1.39Zm-33.68-3.78c1.2-.97,2.33-.7,3.57-.37,0,0-.5.17-1.36.02-.81-.14-1.17.09-1.17.09,0,0,.45-.04,1.03.09,1.14.26,1.69-.02,1.69-.02-1.07.83-3.3.27-3.77.18Zm3.24-1.44c-.39-.33-1.1-.71-1.1-.71,0,0,.36.3.85.78.42.42.66.77.66.77-.95-.33-1.84-.75-2.33-2.24,1.11-.02,2.29,1,2.63,2.11,0,0-.37-.43-.7-.7Zm-.5,2.66c1.54.23,3.35-.11,4.01.06.24.06.41.15.44.17-1.07.17-1.61.54-2.79.27.98.53,2.87-.16,3.04-.08-1.82,1.56-3.83.52-4.69-.42Zm4.83-.48s-.36-.84-.8-1.35c-.41-.47-.99-.92-.99-.92,0,0,.44.46.95,1.23.17.26.29.58.36.82.07.22.1.39.1.39-.03-.03-.06-.05-.09-.08,0,0-.01-.01-.02-.02-.07-.06-.14-.13-.22-.2,0,0,0,0,0,0-.08-.08-.16-.16-.25-.24,0,0,0,0,0,0-.48-.48-1.02-1.09-1.3-1.73-.12-.27-.19-.54-.19-.81,0-.07,0-.14.01-.21.05,0,.09.02.14.03,1.4.35,2.4,2.09,2.31,3.09Zm1.67.22c-.36-.99-.44-1.81-.21-2.15,1.89,1.62,2.04,1.95,2.15,4.6-.54-.2-.81-.89-.92-1.73-.14-1.05-.28-1.4-.77-1.78,0,0,.49.63.55,1.41.08,1.09.32,1.63.72,2.06-.54-.32-1.16-1.42-1.52-2.4Zm-3.67,2.43c.68.13,3.78.08,4.97.41.58.16.68.46.68.48-.01,0-.75-.31-1.76-.31-.73,0-1.66.13-2.79-.2,1.12.47,2.16.34,2.86.37.89.04,1.68.31,1.7.32-.03.02-4.49.45-5.66-1.07Zm7.05-1.9c0-.54.01-1-.1-1.31,1.99.53,2.04,2.55,2.07,4.04,0,.25.01.49.03.7-.59-.13-1.05-1.17-1.05-2.2,0-.88-.18-1.26-.44-1.73,0,0,.28.91.25,1.51-.05,1.14.37,1.85.91,2.53-1.69-.52-1.68-2.19-1.66-3.54Zm1.98,4.78s.24.04.28.06c-1.14,1.04-5.49.9-5.49-.8,1.03.48,3.79.09,3.83.09.77,0,1.64.52,1.68.56-.06-.01-.27-.06-.55-.07-.91,0-2.7.64-3.87,0,1.3.96,2.98.04,4.12.17Zm1.13-3.91c1.84.35,2.02,1.45,2.2,2.61.06.4.13.81.26,1.19-.18-.25-.87-.87-1.09-1.13-.69-.8-.93-2.18-.93-2.18,0,.1.05.51.07.62.16.88.35,1.17.88,1.84.29.36.86.78,1.1,1.19-2.67-.64-2.6-3.28-2.5-4.15Zm-2.43,5.6c1.44.11,3.28-.5,4.58-.63.36-.04.83,0,.88.02-.07.01-.36.08-.43.09-1.23.33-2.27,1.1-3.95.79,1.98.62,4.18-.79,4.6-.73-1,.71-3.38,2.46-5.69.46Zm17.48-.88c.65.04,3.37.94,4.41.9-1.85,1.49-5.66.03-5.82-.42,0-.01,0-.03,0-.04.05,0,.11,0,.16,0,2.61.08,3.34.81,4.69.66-1.44-.09-2.55-.81-4.33-.74-.07,0-.14,0-.22.01,0,0-.02,0-.03,0-.08,0-.15.01-.23.02.04-.03,1.11-.41,1.37-.4Zm-.52-.48s.07-.04.1-.06c.62-.43.91-1.3,1.13-2.07.18-.62.29-1.14.65-1.55,0,0-.4.22-.71,1.32-.2.72-.42,1.54-1.41,2.26.09-.38.16-.78.22-1.21.25-1.63.5-3.32,2.73-3.75-.04.18-.07.43-.11.74-.15,1.19-.4,3.2-1.54,3.99-.14.09-.74.35-1.06.33Zm8.51-.44c-1.33,1.43-4.52,1.16-5.18.13,0,0,0-.01-.01-.02,1.4.39,3.29.34,4.67.08-1.47-.02-2.85.15-4.33-.19,0,0,.01,0,.02,0,.05-.02.1-.05.15-.07,0,0,0,0,0,0,.05-.02.1-.04.15-.06,1.42-.52,3.1.05,4.53.14Zm4.03-2.65c-2.22,2.51-4.17,1.04-5.42.69.06,0,.12,0,.18,0,.05,0,.1,0,.16,0,1.92-.04,1.9.65,4.25-.24-2.34.61-2.06-.08-4.01.09h0c-.07,0-.14.01-.22.02-.03,0-.06,0-.09,0-.03,0-.05,0-.08,0-.06,0-.13.02-.2.03,1.41-.92,3.25-.08,5.44-.6Zm-5.4-.29c.02-1.57.82-3.19,1.08-3.73,0,0-1.29,1.52-1.2,3.6-.04-.19-.08-.38-.12-.59-.34-1.52-.72-3.24,1.88-3.86.01.16.02.33.04.5.13,1.41.27,3-1.67,4.08Zm8.58-2.17c-2,1.52-2.67,1.44-5.12.8-.06-.01-.11-.03-.17-.05.07,0,.15,0,.22,0h0c2.06.03,2.15,0,4.41-.58-2.61.13-2.58.57-4.15.35-.01,0-.03,0-.04,0,.03-.01.06-.03.09-.04,3.02-1.35,3.3-.34,4.76-.48Zm-5.4.19s1.28-2.47,2.16-3.05c-1.01.31-2.27,2.98-2.31,3.01.23-1.83,1-3.17,3.08-3.63-.35.4-.68,1.36-1.06,2.14-.38.78-1.8,1.49-1.87,1.52Z"/>
  <path class="cls-1" d="m38.43,74.63c-13.49,0-24.46,10.76-24.46,23.99,0,5.46,1.87,10.49,5.01,14.53-.02-.26.07-.71.13-.9,0,0,.2.11.41.24-2.9-3.88-4.63-8.68-4.63-13.88,0-12.91,10.56-23.37,23.59-23.37s23.59,10.46,23.59,23.37c0,5.22-1.74,10.03-4.65,13.91.34-.12.69-.17,1.05-.19,2.77-3.89,4.41-8.61,4.41-13.71,0-13.23-10.97-23.99-24.46-23.99Z"/>
  <path class="cls-1" d="m23.65,117.38c-.32-.53-.36-.72-.45-.96-.46-.39-.53-.44-.96-.86.13.39.15.39.37.85l1.04.97Z"/>
  <path class="cls-1" d="m25.94,118.92c.14.42,1.09.88,1.61,1.11,0,0-.49-.31-.68-1.07-.42-.23-.53-.29-.94-.55.02.11-.02.4,0,.51Z"/>
  <path class="cls-1" d="m30.32,120.54c-.47-.17-.65-.24-1.11-.44,0,.07.96,1.04,2.23,1.44-.61-.3-.81-.51-1.12-1Z"/>
  <path class="cls-1" d="m33.76,122.13c.49.29,3.02.48,4.67.48,1.21,0,2.4-.09,3.56-.25,1.68-.25,1.88-1.03,1.84-.99-1.76.41-3.46.6-5.34.6-2.01,0-3.81-.18-5.67-.65.24.34.45.51.94.8Z"/>
  <path class="cls-1" d="m46.13,121.4c.35-.11,1.04-.47,1.23-1.13-.26.11-.32.13-.59.23.03-.06-.38.67-.64.9Z"/>
  <path class="cls-1" d="m32.4,112.21c.42.46.75-.24.38-.62-.37-.38-.82.14-.38.62Z"/>
  <path class="cls-1" d="m31.43,111.69c-.42-.17-.69.8-.46,1.03.48.49.85-.89.46-1.03Z"/>
  <path class="cls-1" d="m32.75,98.04l.5-9.28c-.62.03-2,.13-2.55.58-.29.23-.73.59-.92,1.06l.57,8.66c1.43-.52,2.25-.75,2.4-1.01Z"/>
  <path class="cls-1" d="m30.42,86.54c.84,0,1.46.43,1.46.43.11-.01.21-.02.31-.02.57,0,.91.17,1.12.4,0-.69-.1-2.29-1.2-2.54-.61-.14-1.43.55-1.43.55,0,0-.14-.06-.32-.06-.33,0-.8.2-.83,1.3v.1c.32-.13.62-.18.89-.18Z"/>
  <path class="cls-1" d="m51.62,98.69c-.26-.64-.13-1.28.24-3.06.38-1.82-.99-2.94-.99-2.94,0,0-.04,1.38-.18,1.69-.44-.49-.3-2.01-2.53-2.56.32.46,1.01,1.87,1.18,2.8.18.98.47,2.73,2.28,4.07Z"/>
  <path class="cls-1" d="m43.79,107.59c2.01,0,4.53-.9,5.62-3.42.01-.04.01-.08,0-.11-.02-.03-.06-.05-.1-.05h-10.53s-.07.02-.1.05c-.02.03-.03.07-.02.1.57,2.37,3,3.44,5.15,3.44Z"/>
  <path class="cls-1" d="m37,104.2c-.41-.91-.53-1.84.21-1.82.43.01,1.16,1.32,1.3.57.27-1.37-.91-2.48-1.65-2.58-1.85-.25-2.01,2.63-.89,4.06,1.71,2.2,1.73,1.32,1.02-.24Z"/>
  <path class="cls-1" d="m32.21,108.12l.37-6.87c-.91.62-1.76,1.29-1.96,2.06l.38,5.78c.43-.12.82-.27,1.21-.97Z"/>
  <path class="cls-1" d="m33.27,98.22c-.18.44-.69.62-1.92,1.05-.28.1-.6.21-.96.34-.38.14-1.64.78-1.74,3.09-.06,1.35.49,2.88,1.64,3.62l-.14-2.1c-.56-1.68,1.26-2.87,2.72-3.83.24-.16.47-.31.69-.46.52-.36,1.08-1.27,1.07-2.41,0-.71-.23-1.68-1.17-2.6l-.15,2.88c.03.14.01.28-.04.41Z"/>
  <path class="cls-1" d="m29.56,95.39l-.25-3.8c-.72-1.4,1.04-2.67,1.04-2.67.64-.52,1.97-.66,2.72-.7,0-.17-.04-.35-.14-.47-.13-.16-.38-.25-.74-.25-.08,0-.29.02-.31.02-.11,0-.22-.03-.31-.1,0,0-.51-.34-1.15-.34-.47,0-.9.18-1.3.53-.91.81-2.17,2.69-1.93,4.57.16,1.24.95,2.32,2.37,3.21Z"/>
  <path class="cls-1" d="m38.46,116.3c9.63,0,17.46-7.76,17.46-17.3s-7.83-17.3-17.46-17.3-17.46,7.76-17.46,17.3,7.83,17.3,17.46,17.3Zm9.26-24.78c.1-.15.27-.23.44-.23.04,0,.09,0,.13.02,1.07.27,1.68.74,2.06,1.23.04-.15.15-.27.29-.33.07-.03.15-.05.23-.05.12,0,.24.04.34.12.07.05,1.62,1.35,1.18,3.47-.36,1.7-.46,2.26-.27,2.75.09.22.02.48-.17.63-.1.08-.21.11-.33.11s-.23-.04-.32-.11c-1.95-1.44-2.29-3.34-2.48-4.36v-.04c-.16-.83-.8-2.15-1.1-2.59-.13-.19-.12-.43,0-.61Zm-11.07,8.31h0c.1,0,.19,0,.29.02.56.07,1.19.51,1.61,1.1.2.28.34.58.43.88.5-.68,1.2-1.18,1.98-1.51.02-.01.05-.03.07-.04.77-.53.16-1.09,2.06-1.18,1.84-.08,1.73.73,2.03,1,.42.12.83.27,1.23.42.2.07.39.15.57.23.42.18.83.36,1.19.36.06,0,.12,0,.17-.01.29-.05.8-.33,1.21-.55.53-.29.87-.47,1.16-.5.2-.02.38-.03.53-.03.21,0,.84,0,1.06.49.22.5-.18.96-.54,1.36-.09.09-.17.18-.23.26-.32.41-1.02,1.1-1.75,1.53.04.03.08.07.11.12h0s0,.02,0,.02c.11.18.13.4.06.6h0s0,.02,0,.02c-.97,2.26-2.98,3.32-4.88,3.64,1.18.23,2.13.86,2.55,1.75.06.11.09.23.09.35,0,.39-.31.71-.7.73-.15.01-1.05.1-2.43.1-.16,0-.33,0-.51,0-1.66-.02-2.78-.09-2.91-.09-.23,0-.45-.13-.58-.32-.14-.21-.16-.49-.06-.7.38-.86,1.26-1.49,2.37-1.76-2.09-.28-4.16-1.48-4.74-3.79-.2-.8-.81-1.35-.9-1.29-.09.06.06.51.28,1,.6,1.32.54,1.75.38,2.01-.12.19-.33.31-.55.31-.37,0-.77-.25-1.77-1.53-.84-1.08-1.07-2.79-.53-3.9.33-.68.91-1.05,1.63-1.05Zm-7.89-12.61c.08-.07.16-.14.25-.2,0,0-.18-2.49,1.54-2.22.49-.41,1.07-.59,1.67-.49,1.5.25,1.72,2.27,1.62,3.41l-.35,6.53c2.61,2.17,1.72,5.21.37,6.15-.23.16-.48.32-.72.48l-.24,4.41c.79.36,1.54.86,1.72,1.84.28,1.49-.52,3.05-1.8,3.83.43.21.67.81.61,1.34-.06.51-.74,1.02-1.39.34-.13.54-.85,1.02-1.46.49-.42-.37-.17-1.4.15-1.74-1.04-.35-1.16-1.74-.27-2.11l-.15-2.27c-1.5-.74-2.3-2.55-2.22-4.29.09-1.93.93-2.94,1.72-3.39l-.21-3.24c-5.2-2.99-2.31-7.52-.84-8.84Z"/>
  <path class="cls-1" d="m32.71,108.33c-.53.99-1.16,1.16-1.66,1.3-.12.03-.23.06-.35.1-.33.12-.29.49-.28.56.05.29.3.61.83.61.08,0,.17,0,.25-.02.79-.13,1.53-.61,2.03-1.33.5-.71.7-1.56.56-2.34-.12-.62-.53-1.01-1.17-1.33l-.07,1.38c.23.4-.04.89-.13,1.07Z"/>
  <path class="cls-1" d="m38.46,117.51c10.32,0,18.68-8.29,18.68-18.51s-8.36-18.51-18.68-18.51-18.68,8.29-18.68,18.51,8.36,18.51,18.68,18.51Zm0-36.57c10.05,0,18.23,8.1,18.23,18.06s-8.18,18.06-18.23,18.06-18.23-8.1-18.23-18.06,8.18-18.06,18.23-18.06Z"/>
  <path class="cls-1" d="m40.98,110.05c-.03.06-.02.12.01.18.03.05.09.08.16.08,0,0,1.14.07,2.9.09,1.76.03,2.89-.09,2.89-.09h0c.1,0,.19-.08.19-.19,0-.04-.01-.07-.03-.1-.43-.94-1.62-1.55-3.04-1.55s-2.65.62-3.08,1.58Z"/>
  <path class="cls-1" d="m39.09,103.47h9.51c.71,0,1.89-.98,2.47-1.7.45-.57,1.52-1.4-.35-1.2-.44.05-1.63.93-2.34,1.05-.75.12-1.46-.33-2.2-.6-.78-.29-1.59-.59-2.46-.64-.11,0-.22-.01-.34-.01-1.8,0-3.97.9-4.48,2.87-.01.06,0,.12.03.16.03.04.09.07.15.07Z"/>
  <path class="cls-1" d="m48.42,120.52c1.02-.45,1.65-.86,2.59-1.44.11-.29.15-.47.1-.73-.51.33-.8.49-1.33.78-.29.54-.72.95-1.36,1.38Z"/>
  <path class="cls-1" d="m52.87,117.9c.62-.44.92-.8,1.33-1.15.04-.3.07-.45.2-.88-.38.35-.43.39-.83.72-.16.51-.27.83-.7,1.32Z"/>
  <path class="cls-1" d="m34.51,119.85c-.08.41-.16.47-.46.41l-.02.12,1.2.24.02-.12c-.3-.06-.34-.14-.26-.56l.39-1.95-.94-.04-.02.12c.3.06.42.12.34.54l-.25,1.25Z"/>
  <path class="cls-1" d="m36.68,120.66c-.32-.03-.27-.34-.48-.36-.1,0-.16.06-.17.15-.02.19.28.38.63.41.66.06,1.05-.62,1.11-1.37.09-.99-.46-1.24-.78-1.27-.47-.04-.89.26-.94.76-.04.49.23.85.7.89.2.02.41-.07.5-.16-.08.62-.22.99-.57.96Zm.18-.99c-.26-.02-.35-.28-.32-.65.04-.41.19-.63.43-.61.23.02.38.27.31,1.04-.07.14-.26.23-.43.22Z"/>
  <path class="cls-1" d="m38.65,120.72c0,.15.11.22.21.22.14,0,.21-.1.24-.34.04-.3.12-.62.3-1.03l.45-1.1v-.15s-1.51.05-1.51.05l-.12.87h.12s.01-.09.01-.09c.05-.24.07-.32.46-.33l.7-.02-.68,1.35c-.12.22-.19.46-.18.58Z"/>
  <path class="cls-1" d="m40.74,120.6c.02.15.14.21.24.19.14-.02.2-.12.2-.37,0-.3.06-.63.19-1.06l.33-1.14-.02-.15-1.49.21-.03.88.12-.02v-.09c.03-.24.05-.33.43-.38l.7-.1-.54,1.42c-.09.23-.14.48-.12.6Z"/>
  <path class="cls-1" d="m17.18,90.29l-.72,1.71.16.07c.19-.45.31-.47.88-.24l1.32.55c.89.38,1.61,0,1.91-.72.3-.72.06-1.46-.84-1.84l-1.32-.55c-.57-.24-.63-.34-.44-.8l-.17-.07-.58,1.37.16.07c.19-.46.31-.48.88-.24l1.31.55c.68.29.9.72.69,1.21-.2.47-.65.62-1.34.33l-1.32-.55c-.57-.24-.63-.34-.44-.8l-.17-.07Z"/>
  <path class="cls-1" d="m18.47,87.52l.15.1c.28-.4.4-.4.91-.05l1.56,1.09c.51.35.56.46.27.87l.15.1.83-1.19-.15-.1c-.28.4-.41.4-.91.05l-1.56-1.09,3.5-.03.2-.28-2.34-1.64c-.51-.35-.55-.47-.26-.87l-.15-.1-.83,1.18.15.1c.28-.4.4-.4.91-.04l1.32.92-3.08.03-.66.94Z"/>
  <path class="cls-1" d="m22.64,82.38l-1.3,1.33.13.13c.35-.35.46-.33.9.1l1.36,1.34c.44.43.47.55.13.9l.13.13,1.3-1.33-.13-.13c-.35.35-.47.33-.91-.1l-1.36-1.34c-.44-.43-.46-.55-.12-.9l-.13-.13Z"/>
  <path class="cls-1" d="m24.62,80.97l-.11-.14-1.55,1.16.11.14c.35-.26.5-.23.89,0l2.76,1.71.29-.22-.86-3.12c-.12-.45-.07-.61.25-.86l-.11-.14-1.18.88.11.14c.41-.31.53-.25.64.11l.62,2.18-1.92-1.21c-.31-.2-.34-.33.08-.65Z"/>
  <path class="cls-1" d="m29.51,78.76l.08.1.16-.08-.45-.78-2.48,1.23.08.16c.44-.22.54-.16.82.39l.85,1.71c.27.55.27.67-.18.89l.08.16,2.67-1.33-.36-.83-.15.08.03.12c.07.31.08.49-.42.73l-.23.11c-.46.23-.56.17-.83-.39l-.34-.69.17-.09c.5-.25.6-.24.83.23l.16-.08-.65-1.31-.16.08c.23.46.18.55-.32.8l-.17.09-.57-1.14.56-.28c.5-.25.63-.14.84.1Z"/>
  <path class="cls-1" d="m33.77,77.64c-.16-.58-.75-.87-1.54-.65l-1.7.48.05.17c.47-.13.56-.06.73.54l.52,1.84c.17.59.14.71-.34.85l.05.17,1.79-.5-.05-.17c-.47.13-.57.05-.74-.54l-.2-.69.18-.05,1.42,1.29,1.13-.32-.05-.17c-.29.05-.67-.12-1.18-.48l-.72-.51c.54-.26.79-.73.65-1.23Zm-1.2,1.11l-.31.09-.4-1.43.31-.09c.47-.13.78.11.9.52.12.42-.02.77-.49.91Z"/>
  <path class="cls-1" d="m36.07,76.49c.5-.05.83.3.95.76l.17-.02-.12-1.17h-.15c-.03.14-.09.22-.15.28-.2-.12-.41-.21-.74-.18-.63.06-.99.59-.94,1.11.05.48.33.82.77,1l.52.21c.35.14.72.31.75.61.03.33-.17.58-.58.62-.6.06-1.05-.4-1.18-.91l-.17.02.13,1.31.15-.02c.02-.09.08-.22.15-.29.18.06.47.26.96.21.72-.07,1.12-.62,1.05-1.29-.04-.39-.29-.75-.75-.94l-.49-.2c-.51-.21-.75-.33-.78-.62-.03-.28.16-.48.44-.51Z"/>
  <path class="cls-1" d="m38.77,78.94c-.02.62-.08.72-.58.7v.18s1.85.06,1.85.06v-.18c-.49-.02-.55-.12-.53-.74l.06-1.91c.02-.62.09-.71.58-.7v-.18s-1.85-.06-1.85-.06v.18c.49.02.55.12.53.73l-.06,1.91Z"/>
  <path class="cls-1" d="m41.14,79.07c-.12.61-.2.7-.69.6l-.04.18,1.81.36c1.24.25,1.95-.46,2.15-1.46.2-1-.18-1.93-1.43-2.17l-1.81-.36-.04.18c.49.1.53.21.41.81l-.37,1.87Zm.75.02l.46-2.32.53.11c.78.15.86.95.71,1.71-.15.76-.54,1.46-1.31,1.31h-.03c-.44-.09-.48-.2-.36-.8Z"/>
  <path class="cls-1" d="m46.99,77.72l-2.22,2.36c-.32.34-.49.38-.86.23l-.07.17,1.35.54.07-.17c-.47-.19-.49-.33-.24-.6l.4-.44,1.13.46v.6c-.01.38-.11.47-.6.27l-.07.17,1.71.69h0s1.53,1.02,1.53,1.02c1.05.7,1.98.31,2.54-.54.56-.85.56-1.85-.5-2.55l-1.53-1.01-.1.15c.41.27.41.39.07.9l-1.05,1.59c-.33.49-.44.56-.82.32v-.02c-.39-.16-.44-.3-.44-.76l.03-3.24-.34-.14Zm-.42,2.25l-.92-.37.97-1.04-.04,1.41Zm2.68,1.89l1.3-1.97.45.3c.66.44.44,1.21.01,1.85-.42.64-1.05,1.15-1.71.71l-.03-.02c-.38-.25-.37-.36-.04-.87Z"/>
  <path class="cls-1" d="m56.14,84.15c-.66-.76-1.78-.7-2.59,0-.81.7-1.02,1.81-.37,2.56.28.33.6.5,1.03.51.01.1-.04.21-.13.33l.11.12,1.03-.89-.11-.13c-.71.39-1.22.32-1.55-.06-.53-.61-.04-1.33.53-1.83s1.36-.88,1.89-.27c.33.38.33.89-.16,1.55l.11.13,1.03-.89-.11-.12c-.14.08-.24.1-.34.08.05-.42-.07-.76-.36-1.09Z"/>
  <path class="cls-1" d="m57.19,87.2l-1.65.96c-.53.31-.66.31-.9-.12l-.16.09,1.5,2.58.81-.41-.09-.15-.12.04c-.3.09-.48.11-.76-.37l-.13-.22c-.26-.44-.2-.55.33-.86l.67-.39.1.17c.28.48.27.58-.17.84l.09.15,1.27-.73-.09-.15c-.45.26-.54.21-.82-.27l-.1-.17,1.1-.64.31.54c.28.48.18.62-.05.84l-.09.09.09.15.75-.5-1.39-2.4-.15.09c.25.43.19.53-.34.84Z"/>
  <path class="cls-1" d="m60.15,90.91c-.22-.6-.82-.81-1.31-.62-.45.17-.71.53-.77.99l-.07.55c-.05.37-.11.77-.4.88-.31.11-.6-.01-.74-.4-.21-.56.12-1.12.57-1.37l-.06-.16-1.24.46.05.14c.09,0,.23.02.32.07-.01.19-.13.52.04.98.25.68.88.92,1.52.68.37-.14.65-.47.71-.96l.07-.52c.07-.55.13-.81.4-.91.26-.1.51.03.61.3.17.47-.08.88-.49,1.11l.06.16,1.1-.41-.05-.14c-.12,0-.22-.03-.3-.08.06-.22.1-.45-.02-.76Z"/>
  <path class="cls-1" d="m70.53,105.09c.75,0,.82.14.82,1.05v2.21c0,1.14-.59,1.71-1.41,1.71-.77,0-1.41-.56-1.41-1.71v-2.21c0-.9.06-1.05.81-1.05v-.19h-2.33v.19c.75,0,.81.14.81,1.05v2.16c0,1.41.88,2.16,1.98,2.16s1.94-.75,1.94-2.16v-2.16c0-.9.07-1.05.82-1.05v-.19h-2.04v.19Z"/>
  <path class="cls-1" d="m76.5,109.07v-1.31c0-.8-.32-1.46-1.17-1.46-.59,0-1.11.42-1.39.84,0-.31-.12-.72-.18-.85l-1.15.21v.18c.62,0,.68.15.68,1.05v1.33c0,.9-.08,1.05-.68,1.05v.18h2.03v-.18c-.6,0-.68-.15-.68-1.05v-1.11c0-.71.62-1.23,1.16-1.23s.74.36.74,1.04v1.31c0,.9-.08,1.05-.68,1.05v.18h2.03v-.18c-.6,0-.69-.15-.69-1.05Z"/>
  <path class="cls-1" d="m81.24,110.02c-.82,0-1.15-.69-1.15-1.59,0-1.03.38-1.85,1.04-1.85.26,0,.4.16.4.5,0,.21.16.38.36.38.32,0,.41-.26.41-.41,0-.35-.28-.77-1.17-.77s-1.78.84-1.78,2.14c0,1.1.53,1.97,1.68,1.97.59,0,1.05-.26,1.41-.69l-.18-.22c-.3.33-.68.53-1.02.53Z"/>
  <path class="cls-1" d="m84.8,106.27c-1.06,0-1.83.87-1.83,2.09s.77,2.09,1.83,2.09,1.83-.86,1.83-2.09-.78-2.09-1.83-2.09Zm0,3.85c-.75,0-1.09-.7-1.09-1.76s.34-1.76,1.09-1.76,1.09.71,1.09,1.76-.35,1.76-1.09,1.76Z"/>
  <path class="cls-1" d="m93.43,109.07v-1.4c0-.75-.3-1.37-1.14-1.37-.64,0-1.15.52-1.34.89-.11-.48-.41-.89-1.1-.89-.54,0-1.04.42-1.3.84,0-.31-.12-.72-.18-.85l-1.15.21v.18c.62,0,.68.15.68,1.05v1.33c0,.9-.08,1.05-.69,1.05v.18h2.03v-.18c-.6,0-.68-.15-.68-1.05v-1.11c0-.71.68-1.23,1.12-1.23s.67.32.67.95v1.4c0,.9-.08,1.05-.69,1.05v.18h2.03v-.18c-.6,0-.69-.15-.69-1.05v-1.11c0-.71.69-1.23,1.12-1.23s.67.32.67.95v1.4c0,.9-.08,1.05-.69,1.05v.18h2.03v-.18c-.6,0-.68-.15-.68-1.05Z"/>
  <path class="cls-1" d="m96.95,106.3c-.52,0-.95.28-1.22.71-.02-.21-.1-.53-.18-.72l-1.15.21v.18c.62,0,.68.15.68,1.05v3.05c0,.9-.08,1.05-.69,1.05v.18h2.03v-.18c-.6,0-.69-.15-.69-1.05v-1.1c.24.44.69.72,1.22.72,1,0,1.64-.83,1.64-2.05s-.64-2.05-1.64-2.05Zm-.13,3.75c-.44,0-.88-.36-1.08-.92v-1.55c.2-.56.64-.92,1.08-.92.75,0,1.04.79,1.04,1.69s-.29,1.69-1.04,1.69Z"/>
  <path class="cls-1" d="m101.53,106.3c-.41,0-.78.36-.96.84,0-.33-.13-.74-.18-.85l-1.15.21v.18c.62,0,.68.15.68,1.05v1.33c0,.9-.08,1.05-.68,1.05v.18h2.03v-.18c-.6,0-.68-.15-.68-1.05v-1.05c0-.83.46-1.34.7-1.34.27,0,.32.19.32.39,0,.18.14.34.32.34.3,0,.38-.23.38-.45,0-.23-.17-.66-.77-.66Z"/>
  <path class="cls-1" d="m104.51,106.27c-1.06,0-1.83.87-1.83,2.09s.77,2.09,1.83,2.09,1.83-.86,1.83-2.09-.78-2.09-1.83-2.09Zm0,3.85c-.75,0-1.09-.7-1.09-1.76s.34-1.76,1.09-1.76,1.09.71,1.09,1.76-.35,1.76-1.09,1.76Z"/>
  <path class="cls-1" d="m113.13,109.07v-1.4c0-.75-.3-1.37-1.14-1.37-.64,0-1.15.52-1.34.89-.11-.48-.41-.89-1.1-.89-.54,0-1.04.42-1.3.84,0-.31-.12-.72-.18-.85l-1.15.21v.18c.62,0,.68.15.68,1.05v1.33c0,.9-.08,1.05-.69,1.05v.18h2.03v-.18c-.6,0-.68-.15-.68-1.05v-1.11c0-.71.68-1.23,1.12-1.23s.67.32.67.95v1.4c0,.9-.08,1.05-.69,1.05v.18h2.03v-.18c-.6,0-.69-.15-.69-1.05v-1.11c0-.71.69-1.23,1.12-1.23s.67.32.67.95v1.4c0,.9-.08,1.05-.69,1.05v.18h2.03v-.18c-.6,0-.68-.15-.68-1.05Z"/>
  <path class="cls-1" d="m115.56,105.25c0-.22-.18-.4-.4-.4s-.4.18-.4.4.18.4.4.4.4-.18.4-.4Z"/>
  <path class="cls-1" d="m115.55,109.07v-2.78l-1.34.21v.18c.62,0,.69.15.69,1.05v1.33c0,.9-.08,1.05-.69,1.05v.18h2.03v-.18c-.6,0-.68-.15-.68-1.05Z"/>
  <path class="cls-1" d="m118.66,108.17l-.55-.26c-.43-.21-.69-.42-.69-.71s.19-.58.64-.58c.55,0,.91.35.94.8h.18v-1.07h-.15c-.02.09-.06.22-.12.29-.12-.11-.39-.33-.89-.33-.63,0-1.17.41-1.17,1.01,0,.52.28.86.72,1.08l.62.31c.49.23.69.45.69.75,0,.34-.2.63-.68.63-.76,0-1.22-.6-1.26-1.09h-.18v1.38h.15c.02-.13.09-.29.19-.38.24.23.66.42,1.05.42.76,0,1.29-.47,1.29-1.14,0-.53-.29-.86-.78-1.1Z"/>
  <path class="cls-1" d="m121.87,106.27c-1.06,0-1.83.87-1.83,2.09s.77,2.09,1.83,2.09,1.83-.86,1.83-2.09-.78-2.09-1.83-2.09Zm0,3.85c-.75,0-1.09-.7-1.09-1.76s.34-1.76,1.09-1.76,1.09.71,1.09,1.76-.35,1.76-1.09,1.76Z"/>
  <path class="cls-1" d="m127.95,110.02c-.82,0-1.15-.69-1.15-1.59,0-1.03.38-1.85,1.04-1.85.26,0,.4.16.4.5,0,.21.16.38.36.38.32,0,.41-.26.41-.41,0-.35-.28-.77-1.17-.77s-1.78.84-1.78,2.14c0,1.1.53,1.97,1.68,1.97.59,0,1.05-.26,1.41-.69l-.18-.22c-.3.33-.68.53-1.02.53Z"/>
  <path class="cls-1" d="m131.5,106.27c-1.06,0-1.83.87-1.83,2.09s.77,2.09,1.83,2.09,1.83-.86,1.83-2.09-.78-2.09-1.83-2.09Zm0,3.85c-.75,0-1.09-.7-1.09-1.76s.34-1.76,1.09-1.76,1.09.71,1.09,1.76-.35,1.76-1.09,1.76Z"/>
  <path class="cls-1" d="m136.47,110.12v.18h2.03v-.18c-.6,0-.69-.15-.69-1.05v-1.31c0-.8-.32-1.46-1.17-1.46-.59,0-1.11.42-1.39.84,0-.31-.12-.72-.18-.85l-1.15.21v.18c.62,0,.68.15.68,1.05v1.33c0,.9-.08,1.05-.69,1.05v.18h2.03v-.18c-.6,0-.68-.15-.68-1.05v-1.11c0-.71.62-1.23,1.16-1.23s.74.36.74,1.04v1.31c0,.9-.08,1.05-.68,1.05Z"/>
  <path class="cls-1" d="m140.5,104.9v.18c.62,0,.68.15.68,1.05v2.94c0,.9-.09,1.05-.64,1.05v.18h1.94v-.18c-.55,0-.64-.15-.64-1.05v-4.39l-1.34.22Z"/>
  <path class="cls-1" d="m143.08,109.44c0,.55.39.95,1.03.95.42,0,.71-.16,1.23-.62.05.37.2.6.6.6.23,0,.51-.09.69-.3l-.13-.17c-.07.07-.18.15-.29.15-.15,0-.23-.14-.23-.41v-2.02c0-.85-.33-1.32-1.34-1.32-.67,0-1.32.4-1.32.84,0,.19.13.33.32.33s.32-.14.32-.33c0-.34.41-.53.68-.53.53,0,.69.25.69,1.02v.26c-1.31.22-2.23.67-2.23,1.55Zm2.23.04c-.49.42-.73.5-.96.5-.38,0-.59-.23-.59-.61,0-.56.43-.97,1.54-1.2v1.32Z"/>
  <path class="cls-1" d="m152,108.07c.03-.12.05-.21.05-.35,0-.81-.57-1.41-1.43-1.41s-1.77.8-1.77,2.04.67,2.07,1.83,2.07c.69,0,1.15-.31,1.49-.69l-.18-.22c-.27.29-.69.53-1.14.53-1.06,0-1.3-.87-1.3-1.68,0-.1,0-.18,0-.27h2.44Zm-1.37-1.41c.52,0,.75.35.75.83,0,.09,0,.18-.02.24h-1.75c.16-.71.52-1.07,1.02-1.07Z"/>
  <path class="cls-1" d="m152.57,110.12v.18h1.59v-.18c-.55,0-.51-.24-.35-.46l.74-.95.62.95c.16.24.1.46-.44.46v.18h2.12v-.18c-.41,0-.67-.09-.98-.59l-.86-1.33.79-1.03c.38-.5.68-.59,1.02-.59v-.18h-1.68v.18c.54,0,.53.21.32.5l-.64.83-.53-.83c-.19-.3-.07-.5.41-.5v-.18h-2.03v.18c.34,0,.57.06.9.59l.8,1.24-.86,1.12c-.35.46-.6.59-.92.59Z"/>
  <path class="cls-1" d="m159.05,106.59c.26,0,.4.16.4.5,0,.21.16.38.36.38.32,0,.41-.26.41-.41,0-.35-.28-.77-1.17-.77s-1.78.84-1.78,2.14c0,1.1.53,1.97,1.68,1.97.59,0,1.05-.26,1.41-.69l-.18-.22c-.3.33-.68.53-1.02.53-.82,0-1.15-.69-1.15-1.59,0-1.03.38-1.85,1.04-1.85Z"/>
  <path class="cls-1" d="m164.09,108.07c.03-.12.05-.21.05-.35,0-.81-.57-1.41-1.43-1.41s-1.77.8-1.77,2.04.67,2.07,1.83,2.07c.69,0,1.15-.31,1.49-.69l-.18-.22c-.27.29-.69.53-1.14.53-1.06,0-1.3-.87-1.3-1.68,0-.1,0-.18,0-.27h2.44Zm-1.37-1.41c.52,0,.75.35.75.83,0,.09,0,.18-.02.24h-1.75c.16-.71.52-1.07,1.02-1.07Z"/>
  <path class="cls-1" d="m164.77,104.9v.18c.62,0,.68.15.68,1.05v2.94c0,.9-.09,1.05-.64,1.05v.18h1.94v-.18c-.55,0-.64-.15-.64-1.05v-4.39l-1.34.22Z"/>
  <path class="cls-1" d="m170.48,108.07c.03-.12.05-.21.05-.35,0-.81-.57-1.41-1.43-1.41s-1.77.8-1.77,2.04.67,2.07,1.83,2.07c.69,0,1.15-.31,1.49-.69l-.18-.22c-.27.29-.69.53-1.14.53-1.06,0-1.3-.87-1.3-1.68,0-.1,0-.18,0-.27h2.44Zm-1.37-1.41c.52,0,.75.35.75.83,0,.09,0,.18-.02.24h-1.75c.16-.71.52-1.07,1.02-1.07Z"/>
  <path class="cls-1" d="m171.26,110.12v.18h2.03v-.18c-.6,0-.68-.15-.68-1.05v-1.11c0-.71.62-1.23,1.16-1.23s.74.36.74,1.04v1.31c0,.9-.08,1.05-.68,1.05v.18h2.03v-.18c-.6,0-.69-.15-.69-1.05v-1.31c0-.8-.32-1.46-1.17-1.46-.59,0-1.11.42-1.39.84,0-.31-.12-.72-.18-.85l-1.15.21v.18c.62,0,.68.15.68,1.05v1.33c0,.9-.08,1.05-.69,1.05Z"/>
  <path class="cls-1" d="m178.07,106.59c.26,0,.4.16.4.5,0,.21.16.38.36.38.32,0,.41-.26.41-.41,0-.35-.28-.77-1.17-.77s-1.78.84-1.78,2.14c0,1.1.53,1.97,1.68,1.97.6,0,1.05-.26,1.41-.69l-.18-.22c-.3.33-.68.53-1.02.53-.82,0-1.15-.69-1.15-1.59,0-1.03.38-1.85,1.04-1.85Z"/>
  <path class="cls-1" d="m179.91,110.12v.18h2.03v-.18c-.6,0-.68-.15-.68-1.05v-2.78l-1.34.21v.18c.62,0,.69.15.69,1.05v1.33c0,.9-.08,1.05-.69,1.05Z"/>
  <path class="cls-1" d="m181.27,105.25c0-.22-.18-.4-.4-.4s-.4.18-.4.4.18.4.4.4.4-.18.4-.4Z"/>
  <path class="cls-1" d="m185.61,110.05c-.15,0-.23-.14-.23-.41v-2.02c0-.85-.33-1.32-1.34-1.32-.67,0-1.32.4-1.32.84,0,.19.13.33.32.33s.32-.14.32-.33c0-.34.41-.53.68-.53.53,0,.69.25.69,1.02v.26c-1.31.22-2.23.67-2.23,1.55,0,.55.39.95,1.03.95.42,0,.71-.16,1.22-.62.05.37.2.6.6.6.23,0,.51-.09.69-.3l-.13-.17c-.07.07-.18.15-.29.15Zm-.89-.58c-.49.42-.73.5-.96.5-.38,0-.59-.23-.59-.61,0-.56.43-.97,1.54-1.2v1.32Z"/>
  <path class="cls-1" d="m68.58,87.68v4.18c0,2.83,1.8,4.33,4.11,4.33s4-1.5,4-4.33v-4.18c0-1.8.2-2.09,1.64-2.09v-.52h-4.35v.52c1.44,0,1.64.29,1.64,2.09v4.17c0,2.16-.92,3.23-2.47,3.23s-2.42-1.05-2.42-3.23v-4.17c0-1.8.2-2.09,1.64-2.09v-.52h-5.43v.52c1.42,0,1.62.29,1.62,2.09Z"/>
  <path class="cls-1" d="m80.9,88.12h-2.55v.4c1.1,0,1.24.22,1.24,1.59v4.24c0,1.37-.14,1.61-1.24,1.61v.4h3.23v-.4c-1.1,0-1.25-.23-1.25-1.61v-4.23l4.51,6.34h.77v-6.35c0-1.37.15-1.59,1.25-1.59v-.4h-3.21v.4c1.1,0,1.23.22,1.23,1.59v3.57l-3.98-5.56Z"/>
  <path class="cls-1" d="m91.38,95.95c-1.1,0-1.25-.23-1.25-1.61v-4.24c0-1.26.14-1.54,1-1.58.78.04,1.01.32,1.35,1.19l2.63,6.71h.81l2.62-6.71c.35-.89.64-1.15,1.36-1.19.86.04.99.33.99,1.58v4.24c0,1.37-.14,1.61-1.23,1.61v.4h6.63l.11-2.02h-.38l-.07.27c-.16.69-.33,1.04-1.56,1.04h-.56c-1.14,0-1.28-.22-1.28-1.59v-1.72h.43c1.24,0,1.43.12,1.43,1.28h.38v-3.25h-.38c0,1.15-.19,1.28-1.43,1.28h-.43v-2.83h1.39c1.23,0,1.39.34,1.56,1.03l.07.27h.38l-.12-2h-8.97v.4c1.14,0,1.28.26.99,1.04l-1.8,4.71-1.81-4.71c-.29-.77-.16-1.04,1-1.04v-.4h-7.97v.4c1.1,0,1.23.22,1.23,1.59v4.24c0,1.37-.14,1.61-1.23,1.61v.4h4.13v-.4Z"/>
  <path class="cls-1" d="m111.11,95.95c-1.1,0-1.25-.23-1.25-1.61v-1.61h.42l2.26,3.61h2.61v-.4c-.66-.07-1.37-.66-2.24-1.74l-1.23-1.54c1.32-.23,2.13-1.08,2.13-2.24,0-1.35-1.08-2.32-2.9-2.32h-3.94v.4c1.1,0,1.24.22,1.24,1.59v4.24c0,1.37-.14,1.61-1.24,1.61v.4h4.13v-.4Zm-1.25-7.18h.71c1.1,0,1.61.7,1.61,1.66s-.51,1.65-1.61,1.65h-.71v-3.31Z"/>
  <path class="cls-1" d="m116.12,95.91c.38.18.97.67,2.07.67,1.61,0,2.61-1.11,2.61-2.62,0-.88-.47-1.72-1.44-2.24l-1.03-.55c-1.08-.58-1.59-.91-1.59-1.54s.47-1.03,1.1-1.03c1.11,0,1.77.85,1.92,1.89h.39v-2.62h-.33c-.1.26-.23.43-.4.56-.41-.3-.86-.56-1.61-.56-1.41,0-2.32,1.08-2.32,2.25,0,1.07.55,1.89,1.47,2.37l1.1.58c.74.38,1.52.84,1.52,1.52,0,.73-.49,1.23-1.41,1.23-1.33,0-2.24-1.12-2.4-2.26h-.38v2.94h.34c.05-.19.23-.47.4-.6Z"/>
  <path class="cls-1" d="m125.5,95.95c-1.1,0-1.25-.23-1.25-1.61v-4.24c0-1.37.15-1.59,1.25-1.59v-.4h-4.13v.4c1.1,0,1.24.22,1.24,1.59v4.24c0,1.37-.14,1.61-1.24,1.61v.4h4.13v-.4Z"/>
  <path class="cls-1" d="m134.18,92.23c0-2.26-1.23-4.12-4.05-4.12h-4.09v.4c1.1,0,1.23.22,1.23,1.59v4.24c0,1.37-.14,1.61-1.23,1.61v.4h4.09c2.81,0,4.05-1.85,4.05-4.12Zm-5.26,1.84v-5.26h1.21c1.76,0,2.29,1.7,2.29,3.42s-.54,3.42-2.29,3.42h-.07c-1,0-1.14-.22-1.14-1.58Z"/>
  <path class="cls-1" d="m137.55,95.95c-1.14,0-1.29-.26-.99-1.04l.47-1.23h2.72l.48,1.23c.3.78.18,1.04-1,1.04v.4h4.28v-.4c-.96,0-1.18-.25-1.55-1.19l-2.63-6.71h-.82l-2.61,6.71c-.38.97-.7,1.19-1.58,1.19v.4h3.24v-.4Zm.86-5.87l1.08,2.95h-2.21l1.13-2.95Z"/>
  <path class="cls-1" d="m151.94,92.23c0-2.26-1.23-4.12-4.05-4.12h-4.09v.4c1.1,0,1.24.22,1.24,1.59v4.24c0,1.37-.14,1.61-1.24,1.61v.4h4.09c2.81,0,4.05-1.85,4.05-4.12Zm-5.26,1.84v-5.26h1.21c1.76,0,2.29,1.7,2.29,3.42s-.53,3.42-2.29,3.42h-.07c-1,0-1.14-.22-1.14-1.58Z"/>
  <path class="cls-1" d="m162.78,96.39c1.26,0,2.25-.38,3.08-1.3.23.16.38.49.47.92h.47v-3.97h-.5c-.49,2.31-1.62,3.32-3.1,3.32-2.36,0-3.03-2.45-3.03-4.69s.67-4.69,3.03-4.69c1.48,0,2.62.97,3.1,3.32h.5v-3.97h-.47c-.09.45-.23.74-.47.92-.83-.92-1.82-1.3-3.08-1.3-2.92,0-4.96,2.58-4.96,5.72s2.04,5.72,4.96,5.72Z"/>
  <path class="cls-1" d="m177.26,93.7h-.51l-.09.36c-.22.9-.43,1.37-2.06,1.37h-.74c-1.5,0-1.68-.29-1.68-2.09v-2.25h.56c1.62,0,1.88.16,1.88,1.68h.5v-4.27h-.5c0,1.52-.25,1.68-1.88,1.68h-.56v-3.72h1.82c1.62,0,1.82.45,2.06,1.35l.09.36h.5l-.16-2.63h-8.1v.52c1.44,0,1.62.29,1.62,2.09v5.57c0,1.8-.18,2.11-1.62,2.11v.52h8.71l.14-2.65Z"/>
  <path class="cls-1" d="m179.88,95.51c.51.23,1.28.88,2.72.88,2.11,0,3.43-1.46,3.43-3.44,0-1.15-.61-2.25-1.89-2.94l-1.35-.72c-1.43-.76-2.09-1.19-2.09-2.02s.61-1.35,1.44-1.35c1.46,0,2.33,1.12,2.53,2.49h.5v-3.44h-.43c-.13.34-.31.56-.52.74-.54-.4-1.14-.74-2.11-.74-1.86,0-3.05,1.42-3.05,2.96,0,1.41.72,2.49,1.93,3.12l1.44.76c.97.5,2,1.1,2,2,0,.96-.65,1.62-1.86,1.62-1.75,0-2.94-1.48-3.16-2.98h-.51v3.86h.45c.07-.25.31-.61.52-.79Z"/>
  <path class="cls-1" d="m66.96,101.68l.07.5c17.35-.66,36.53-.99,56.99-.99,34.84,0,61.68.98,61.95.99l.06-.5c-17.74-1.1-41.52-1.65-62-1.65-34.87,0-56.81,1.63-57.07,1.65Z"/>
</svg>