<?xml version="1.0" encoding="UTF-8"?>
<svg id="Capa_2" xmlns="http://www.w3.org/2000/svg" viewBox="0 0 880.45 490.29">
  <defs>
    <style>
      .cls-1 {
        fill: #fff;
      }
    </style>
  </defs>
  <g id="Capa_2-2" data-name="Capa_2">
    <g>
      <g>
        <g>
          <path class="cls-1" d="M866.22,304.29h-208.02c-49.5,0-92.43-33.2-104.82-78.92-46.24-9.96-84.13-4.19-109.2,3.25,15.24,94.86,100.32,167.9,199.35,167.9h222.69c7.86,0,14.23-6.37,14.23-14.23v-63.78c0-7.86-6.37-14.23-14.23-14.23Z"/>
          <path class="cls-1" d="M866.22,0h-226.21c-54.75,0-104.34,22.17-140.21,58.08-29.34,29.34-49.51,67.86-55.89,110.87,45.16,11.56,82.99,7.94,109.6,1.36,4.92-18.06,14.46-34.21,27.33-47.08,19.18-19.18,45.68-31.04,74.97-31.04h210.4c7.86,0,14.23-6.37,14.23-14.23V14.23c0-7.86-6.37-14.23-14.23-14.23Z"/>
        </g>
        <g>
          <path class="cls-1" d="M297.3,117.38h-159.25c-38.54,0-73.46,15.61-98.7,40.89C18.86,178.75,4.72,205.58.11,235.55c-.76,4.96,2.33,9.73,7.15,11.08,14.99,4.21,35.48,7.28,59.98,4.3,4.38-.53,7.81-3.93,8.65-8.27,2.88-14.89,10.18-28.21,20.5-38.53,13.5-13.5,32.16-21.85,52.78-21.85h148.12c5.53,0,10.02-4.48,10.02-10.02v-44.87c0-5.53-4.48-10.02-10.02-10.02Z"/>
          <path class="cls-1" d="M6.01,302.33c9.94,28.89,29.1,53.49,53.95,70.3,4.75,3.21,11.29,1.91,14.22-3.02,12.4-20.82,18.07-40.52,20.47-56.33.43-2.84-.37-5.73-2.24-7.91-3.3-3.86-6.23-8.05-8.7-12.53-1.42-2.57-3.91-4.4-6.8-4.93-25.56-4.63-47.28-2.53-63.67,1.32-5.83,1.37-9.19,7.44-7.24,13.11Z"/>
          <path class="cls-1" d="M297.3,331.6h-148.12c-4.91,0-9.7-.48-14.34-1.38-4.3-.84-8.68,1.35-10.75,5.22-9.42,17.58-14.18,34.12-16.45,47.9-.89,5.39,2.78,10.55,8.18,11.42,7.24,1.17,14.66,1.78,22.23,1.78h159.25c5.53,0,10.02-4.48,10.02-10.02v-44.9c0-5.53-4.48-10.02-10.02-10.02Z"/>
        </g>
        <rect class="cls-1" x="344.23" y="117.38" width="65.54" height="279.15" rx="10.29" ry="10.29"/>
        <g>
          <path class="cls-1" d="M37.48,443.13c1.79-3.23,4.23-5.75,7.32-7.56,3.09-1.8,6.55-2.71,10.36-2.71,4.64,0,8.62,1.1,11.93,3.3,3.31,2.2,5.72,5.31,7.23,9.31h-4.88c-1.19-2.82-3.01-5.02-5.45-6.61-2.44-1.59-5.39-2.38-8.84-2.38-3.06,0-5.8.71-8.24,2.14-2.44,1.43-4.35,3.48-5.74,6.16s-2.08,5.78-2.08,9.31.69,6.63,2.08,9.28c1.39,2.66,3.3,4.7,5.74,6.13,2.44,1.43,5.19,2.14,8.24,2.14,3.45,0,6.4-.78,8.84-2.35,2.44-1.57,4.25-3.74,5.45-6.52h4.88c-1.51,3.97-3.93,7.04-7.26,9.22-3.33,2.18-7.3,3.27-11.9,3.27-3.81,0-7.26-.9-10.36-2.71-3.09-1.8-5.53-4.31-7.32-7.53-1.79-3.21-2.68-6.86-2.68-10.95s.89-7.75,2.68-10.98Z"/>
          <path class="cls-1" d="M87.68,443.51c1.88-1.11,4.2-1.67,6.93-1.67v4.34h-1.13c-3.01,0-5.44.81-7.26,2.44-1.83,1.63-2.74,4.34-2.74,8.15v18.15h-4.17v-32.49h4.17v5.77c.91-2.02,2.31-3.59,4.2-4.7Z"/>
          <path class="cls-1" d="M126.32,460.3h-26.96c.12,2.46.71,4.56,1.79,6.31,1.07,1.75,2.48,3.06,4.23,3.96,1.75.89,3.65,1.34,5.71,1.34,2.7,0,4.97-.65,6.81-1.96,1.84-1.31,3.06-3.07,3.66-5.3h4.4c-.79,3.17-2.49,5.76-5.09,7.77-2.6,2-5.86,3.01-9.79,3.01-3.06,0-5.79-.68-8.21-2.05-2.42-1.37-4.31-3.31-5.68-5.83-1.37-2.52-2.05-5.46-2.05-8.84s.67-6.33,2.02-8.87c1.35-2.54,3.23-4.48,5.65-5.83,2.42-1.35,5.18-2.02,8.27-2.02s5.8.68,8.12,2.02c2.32,1.35,4.11,3.17,5.36,5.45,1.25,2.28,1.88,4.81,1.88,7.59,0,1.43-.04,2.52-.12,3.27ZM120.76,450.71c-1.01-1.71-2.39-3-4.14-3.87-1.75-.87-3.65-1.31-5.71-1.31-3.09,0-5.73.99-7.92,2.98-2.18,1.98-3.39,4.78-3.63,8.39h22.85c.04-2.42-.45-4.48-1.46-6.19Z"/>
          <path class="cls-1" d="M131.86,449.85c1.33-2.52,3.17-4.46,5.53-5.83,2.36-1.37,5.03-2.05,8-2.05s5.76.71,8,2.14c2.24,1.43,3.86,3.25,4.85,5.47v-7.14h4.17v32.49h-4.17v-7.2c-1.03,2.22-2.67,4.06-4.91,5.5-2.24,1.45-4.91,2.17-8,2.17s-5.58-.69-7.94-2.08c-2.36-1.39-4.21-3.35-5.53-5.89-1.33-2.54-1.99-5.47-1.99-8.81s.66-6.26,1.99-8.78ZM156.64,451.79c-1.07-1.98-2.53-3.51-4.37-4.58s-3.88-1.61-6.1-1.61-4.36.52-6.19,1.55c-1.83,1.03-3.26,2.53-4.31,4.49-1.05,1.96-1.58,4.29-1.58,6.99s.53,4.99,1.58,6.99c1.05,2,2.49,3.53,4.31,4.58,1.82,1.05,3.89,1.58,6.19,1.58s4.25-.54,6.1-1.61,3.3-2.6,4.37-4.58c1.07-1.98,1.61-4.29,1.61-6.9s-.54-4.92-1.61-6.9Z"/>
          <path class="cls-1" d="M174.65,445.95v20.17c0,1.98.38,3.35,1.13,4.11.75.75,2.08,1.13,3.99,1.13h3.81v3.57h-4.46c-2.94,0-5.12-.68-6.55-2.05-1.43-1.37-2.14-3.62-2.14-6.75v-20.17h-4.52v-3.51h4.52v-8.15h4.22v8.15h8.93v3.51h-8.93Z"/>
          <path class="cls-1" d="M187.32,435.42c-.59-.59-.89-1.33-.89-2.2s.3-1.6.89-2.17c.6-.57,1.31-.86,2.14-.86s1.55.29,2.14.86c.59.58.89,1.3.89,2.17s-.3,1.61-.89,2.2-1.31.89-2.14.89-1.55-.3-2.14-.89ZM191.54,442.44v32.49h-4.17v-32.49h4.17Z"/>
          <path class="cls-1" d="M210.17,470.89l10.95-28.45h4.4l-13.03,32.49h-4.7l-13.03-32.49h4.46l10.95,28.45Z"/>
          <path class="cls-1" d="M256.73,460.3h-26.96c.12,2.46.71,4.56,1.79,6.31,1.07,1.75,2.48,3.06,4.23,3.96,1.75.89,3.65,1.34,5.71,1.34,2.7,0,4.97-.65,6.81-1.96,1.85-1.31,3.07-3.07,3.66-5.3h4.4c-.79,3.17-2.49,5.76-5.09,7.77-2.6,2-5.86,3.01-9.79,3.01-3.06,0-5.79-.68-8.21-2.05-2.42-1.37-4.31-3.31-5.68-5.83-1.37-2.52-2.05-5.46-2.05-8.84s.67-6.33,2.02-8.87c1.35-2.54,3.23-4.48,5.65-5.83,2.42-1.35,5.18-2.02,8.27-2.02s5.8.68,8.12,2.02c2.32,1.35,4.11,3.17,5.36,5.45,1.25,2.28,1.87,4.81,1.87,7.59,0,1.43-.04,2.52-.12,3.27ZM251.16,450.71c-1.01-1.71-2.39-3-4.14-3.87-1.75-.87-3.65-1.31-5.71-1.31-3.09,0-5.73.99-7.91,2.98-2.18,1.98-3.39,4.78-3.63,8.39h22.85c.04-2.42-.45-4.48-1.46-6.19Z"/>
          <path class="cls-1" d="M281.96,433.34v41.6h-4.17v-41.6h4.17Z"/>
          <path class="cls-1" d="M313.8,445.45c2.46,2.4,3.69,5.88,3.69,10.44v19.04h-4.11v-18.57c0-3.53-.88-6.23-2.65-8.09-1.77-1.86-4.18-2.8-7.23-2.8s-5.63.99-7.5,2.98c-1.87,1.98-2.8,4.9-2.8,8.75v17.73h-4.17v-32.49h4.17v5.53c1.03-1.98,2.52-3.5,4.46-4.55,1.94-1.05,4.14-1.58,6.61-1.58,3.89,0,7.06,1.2,9.52,3.6Z"/>
          <path class="cls-1" d="M348.91,445.45c2.46,2.4,3.69,5.88,3.69,10.44v19.04h-4.11v-18.57c0-3.53-.88-6.23-2.65-8.09-1.77-1.86-4.18-2.8-7.23-2.8s-5.63.99-7.5,2.98c-1.87,1.98-2.8,4.9-2.8,8.75v17.73h-4.17v-32.49h4.17v5.53c1.03-1.98,2.52-3.5,4.46-4.55,1.94-1.05,4.14-1.58,6.61-1.58,3.89,0,7.06,1.2,9.52,3.6Z"/>
          <path class="cls-1" d="M365.3,473.36c-2.44-1.37-4.37-3.31-5.77-5.83-1.41-2.52-2.11-5.46-2.11-8.84s.71-6.32,2.14-8.84c1.43-2.52,3.37-4.46,5.83-5.83,2.46-1.37,5.22-2.05,8.27-2.05s5.82.68,8.3,2.05c2.48,1.37,4.42,3.31,5.83,5.83s2.11,5.46,2.11,8.84-.71,6.27-2.14,8.81c-1.43,2.54-3.39,4.49-5.89,5.86-2.5,1.37-5.28,2.05-8.33,2.05s-5.8-.68-8.24-2.05ZM379.49,470.32c1.82-.97,3.3-2.44,4.43-4.4s1.7-4.37,1.7-7.23-.56-5.27-1.67-7.23c-1.11-1.96-2.58-3.43-4.4-4.4-1.83-.97-3.81-1.46-5.95-1.46s-4.13.49-5.95,1.46c-1.83.97-3.28,2.44-4.37,4.4-1.09,1.96-1.64,4.37-1.64,7.23s.54,5.27,1.64,7.23c1.09,1.96,2.54,3.43,4.34,4.4,1.8.97,3.78,1.46,5.92,1.46s4.13-.49,5.95-1.46Z"/>
          <path class="cls-1" d="M405.31,470.89l10.95-28.45h4.4l-13.03,32.49h-4.7l-13.03-32.49h4.46l10.95,28.45Z"/>
          <path class="cls-1" d="M422.68,449.85c1.33-2.52,3.17-4.46,5.54-5.83,2.36-1.37,5.03-2.05,8-2.05s5.76.71,8,2.14c2.24,1.43,3.86,3.25,4.85,5.47v-7.14h4.17v32.49h-4.17v-7.2c-1.03,2.22-2.67,4.06-4.91,5.5-2.24,1.45-4.91,2.17-8,2.17s-5.58-.69-7.94-2.08c-2.36-1.39-4.21-3.35-5.54-5.89s-1.99-5.47-1.99-8.81.66-6.26,1.99-8.78ZM447.47,451.79c-1.07-1.98-2.53-3.51-4.37-4.58s-3.88-1.61-6.1-1.61-4.36.52-6.19,1.55c-1.83,1.03-3.26,2.53-4.31,4.49s-1.58,4.29-1.58,6.99.53,4.99,1.58,6.99c1.05,2,2.49,3.53,4.31,4.58,1.83,1.05,3.89,1.58,6.19,1.58s4.25-.54,6.1-1.61,3.3-2.6,4.37-4.58c1.07-1.98,1.61-4.29,1.61-6.9s-.54-4.92-1.61-6.9Z"/>
          <path class="cls-1" d="M465.48,445.95v20.17c0,1.98.38,3.35,1.13,4.11.75.75,2.08,1.13,3.99,1.13h3.81v3.57h-4.46c-2.94,0-5.12-.68-6.55-2.05-1.43-1.37-2.14-3.62-2.14-6.75v-20.17h-4.52v-3.51h4.52v-8.15h4.22v8.15h8.93v3.51h-8.93Z"/>
          <path class="cls-1" d="M478.14,435.42c-.59-.59-.89-1.33-.89-2.2s.3-1.6.89-2.17c.59-.57,1.31-.86,2.14-.86s1.55.29,2.14.86c.59.58.89,1.3.89,2.17s-.3,1.61-.89,2.2-1.31.89-2.14.89-1.55-.3-2.14-.89ZM482.37,442.44v32.49h-4.17v-32.49h4.17Z"/>
          <path class="cls-1" d="M495.21,473.36c-2.44-1.37-4.36-3.31-5.77-5.83-1.41-2.52-2.11-5.46-2.11-8.84s.71-6.32,2.14-8.84c1.43-2.52,3.37-4.46,5.83-5.83,2.46-1.37,5.22-2.05,8.27-2.05s5.82.68,8.3,2.05c2.48,1.37,4.42,3.31,5.83,5.83,1.41,2.52,2.11,5.46,2.11,8.84s-.71,6.27-2.14,8.81c-1.43,2.54-3.39,4.49-5.89,5.86-2.5,1.37-5.28,2.05-8.33,2.05s-5.8-.68-8.24-2.05ZM509.41,470.32c1.82-.97,3.3-2.44,4.43-4.4s1.7-4.37,1.7-7.23-.56-5.27-1.67-7.23c-1.11-1.96-2.58-3.43-4.4-4.4-1.83-.97-3.81-1.46-5.95-1.46s-4.13.49-5.95,1.46c-1.83.97-3.28,2.44-4.37,4.4s-1.64,4.37-1.64,7.23.54,5.27,1.64,7.23,2.54,3.43,4.34,4.4c1.8.97,3.78,1.46,5.92,1.46s4.13-.49,5.95-1.46Z"/>
          <path class="cls-1" d="M549.68,445.45c2.46,2.4,3.69,5.88,3.69,10.44v19.04h-4.11v-18.57c0-3.53-.88-6.23-2.65-8.09-1.77-1.86-4.18-2.8-7.23-2.8s-5.63.99-7.5,2.98c-1.87,1.98-2.8,4.9-2.8,8.75v17.73h-4.17v-32.49h4.17v5.53c1.03-1.98,2.52-3.5,4.46-4.55,1.94-1.05,4.15-1.58,6.61-1.58,3.89,0,7.06,1.2,9.52,3.6Z"/>
          <path class="cls-1" d="M576.7,443.13c1.79-3.23,4.23-5.75,7.32-7.56,3.09-1.8,6.55-2.71,10.35-2.71,4.64,0,8.62,1.1,11.93,3.3,3.31,2.2,5.72,5.31,7.23,9.31h-4.88c-1.19-2.82-3.01-5.02-5.45-6.61s-5.39-2.38-8.84-2.38c-3.06,0-5.8.71-8.24,2.14-2.44,1.43-4.35,3.48-5.74,6.16s-2.08,5.78-2.08,9.31.69,6.63,2.08,9.28c1.39,2.66,3.3,4.7,5.74,6.13,2.44,1.43,5.19,2.14,8.24,2.14,3.45,0,6.4-.78,8.84-2.35,2.44-1.57,4.25-3.74,5.45-6.52h4.88c-1.51,3.97-3.93,7.04-7.26,9.22-3.33,2.18-7.3,3.27-11.9,3.27-3.81,0-7.26-.9-10.35-2.71-3.09-1.8-5.54-4.31-7.32-7.53-1.79-3.21-2.68-6.86-2.68-10.95s.89-7.75,2.68-10.98Z"/>
          <path class="cls-1" d="M624.91,473.36c-2.44-1.37-4.36-3.31-5.77-5.83-1.41-2.52-2.11-5.46-2.11-8.84s.71-6.32,2.14-8.84c1.43-2.52,3.37-4.46,5.83-5.83,2.46-1.37,5.22-2.05,8.27-2.05s5.82.68,8.3,2.05c2.48,1.37,4.42,3.31,5.83,5.83,1.41,2.52,2.11,5.46,2.11,8.84s-.71,6.27-2.14,8.81c-1.43,2.54-3.39,4.49-5.89,5.86-2.5,1.37-5.28,2.05-8.33,2.05s-5.8-.68-8.24-2.05ZM639.11,470.32c1.82-.97,3.3-2.44,4.43-4.4s1.7-4.37,1.7-7.23-.56-5.27-1.67-7.23c-1.11-1.96-2.58-3.43-4.4-4.4-1.83-.97-3.81-1.46-5.95-1.46s-4.13.49-5.95,1.46c-1.83.97-3.28,2.44-4.37,4.4s-1.64,4.37-1.64,7.23.54,5.27,1.64,7.23,2.54,3.43,4.34,4.4c1.8.97,3.78,1.46,5.92,1.46s4.13-.49,5.95-1.46Z"/>
          <path class="cls-1" d="M702.62,445.45c2.4,2.4,3.6,5.88,3.6,10.44v19.04h-4.11v-18.57c0-3.53-.85-6.23-2.56-8.09-1.71-1.86-4.03-2.8-6.96-2.8s-5.5,1.01-7.32,3.04c-1.83,2.02-2.74,4.96-2.74,8.81v17.62h-4.11v-18.57c0-3.53-.85-6.23-2.56-8.09-1.71-1.86-4.05-2.8-7.02-2.8s-5.5,1.01-7.32,3.04c-1.83,2.02-2.74,4.96-2.74,8.81v17.62h-4.17v-32.49h4.17v5.59c1.03-2.02,2.5-3.56,4.4-4.61,1.9-1.05,4.03-1.58,6.37-1.58,2.82,0,5.29.67,7.41,2.02,2.12,1.35,3.66,3.33,4.61,5.95.87-2.58,2.37-4.55,4.49-5.92,2.12-1.37,4.53-2.05,7.23-2.05,3.81,0,6.91,1.2,9.31,3.6Z"/>
          <path class="cls-1" d="M721.9,444.14c2.24-1.45,4.91-2.17,8-2.17,2.94,0,5.58.68,7.94,2.05,2.36,1.37,4.21,3.31,5.54,5.83,1.33,2.52,1.99,5.45,1.99,8.78s-.67,6.27-1.99,8.81c-1.33,2.54-3.17,4.5-5.54,5.89s-5.01,2.08-7.94,2.08-5.71-.72-7.97-2.17c-2.26-1.45-3.91-3.26-4.94-5.45v22.5h-4.11v-47.85h4.11v7.14c1.03-2.18,2.67-4,4.91-5.44ZM739.57,451.64c-1.05-1.96-2.49-3.46-4.31-4.49-1.83-1.03-3.89-1.55-6.19-1.55s-4.25.54-6.1,1.61-3.3,2.6-4.37,4.58c-1.07,1.98-1.61,4.29-1.61,6.9s.54,4.92,1.61,6.9c1.07,1.98,2.53,3.51,4.37,4.58s3.88,1.61,6.1,1.61,4.36-.53,6.19-1.58c1.82-1.05,3.26-2.58,4.31-4.58,1.05-2,1.58-4.33,1.58-6.99s-.53-5.03-1.58-6.99Z"/>
          <path class="cls-1" d="M750.7,449.85c1.33-2.52,3.17-4.46,5.54-5.83,2.36-1.37,5.03-2.05,8-2.05s5.76.71,8,2.14c2.24,1.43,3.86,3.25,4.85,5.47v-7.14h4.17v32.49h-4.17v-7.2c-1.03,2.22-2.67,4.06-4.91,5.5-2.24,1.45-4.91,2.17-8,2.17s-5.58-.69-7.94-2.08c-2.36-1.39-4.21-3.35-5.54-5.89s-1.99-5.47-1.99-8.81.66-6.26,1.99-8.78ZM775.48,451.79c-1.07-1.98-2.53-3.51-4.37-4.58s-3.88-1.61-6.1-1.61-4.36.52-6.19,1.55c-1.83,1.03-3.26,2.53-4.31,4.49s-1.58,4.29-1.58,6.99.53,4.99,1.58,6.99c1.05,2,2.49,3.53,4.31,4.58,1.83,1.05,3.89,1.58,6.19,1.58s4.25-.54,6.1-1.61,3.3-2.6,4.37-4.58c1.07-1.98,1.61-4.29,1.61-6.9s-.54-4.92-1.61-6.9Z"/>
          <path class="cls-1" d="M812.89,445.45c2.46,2.4,3.69,5.88,3.69,10.44v19.04h-4.11v-18.57c0-3.53-.88-6.23-2.65-8.09-1.77-1.86-4.18-2.8-7.23-2.8s-5.63.99-7.5,2.98c-1.87,1.98-2.8,4.9-2.8,8.75v17.73h-4.17v-32.49h4.17v5.53c1.03-1.98,2.52-3.5,4.46-4.55,1.94-1.05,4.15-1.58,6.61-1.58,3.89,0,7.06,1.2,9.52,3.6Z"/>
          <path class="cls-1" d="M848.5,442.44l-19.28,47.79h-4.34l6.31-15.47-13.33-32.31h4.58l11.07,27.73,10.71-27.73h4.28Z"/>
        </g>
      </g>
      <g>
        <path class="cls-1" d="M862.8,458.52c4.61,0,8.38,3.76,8.37,8.38,0,4.63-3.77,8.38-8.39,8.37-4.63,0-8.38-3.78-8.37-8.4,0-4.61,3.76-8.37,8.39-8.36ZM862.79,460.23c-3.69.02-6.66,2.98-6.66,6.67,0,3.69,2.98,6.66,6.67,6.66,3.7,0,6.66-2.98,6.66-6.67,0-3.69-2.98-6.65-6.67-6.67Z"/>
        <path class="cls-1" d="M864.26,466.99c.37.1.65.3.89.56.15.16.27.34.38.53.14.22.25.46.37.69.37.74.74,1.48,1.11,2.23,0,.02.02.03.02.05.01.03,0,.04-.03.04-.02,0-.03,0-.05,0-.74,0-1.49,0-2.23,0-.07,0-.1-.02-.14-.08-.36-.74-.72-1.47-1.09-2.2-.12-.24-.26-.46-.44-.65-.22-.23-.5-.34-.81-.37-.25-.03-.51,0-.76-.01-.07,0-.09.02-.09.09,0,.93,0,1.86,0,2.79,0,.11,0,.22,0,.33,0,.1,0,.1-.1.1-.69,0-1.39,0-2.08,0-.1,0-.1,0-.1-.1,0-2.86,0-5.72,0-8.58,0-.1,0-.1.1-.1,1.18,0,2.36,0,3.54,0,.58,0,1.15.06,1.7.25.4.14.76.35,1.03.69.22.27.33.59.39.93.07.43.07.85-.04,1.27-.15.6-.52,1.03-1.06,1.31-.16.08-.33.15-.52.21ZM861.39,465.09c0,.35,0,.69,0,1.04,0,.07.02.08.08.08.29,0,.58,0,.86,0,.2,0,.4-.02.59-.07.34-.09.58-.29.67-.64.07-.27.07-.55,0-.83-.07-.3-.25-.5-.54-.6-.16-.05-.32-.08-.49-.09-.37-.02-.74,0-1.1-.01-.07,0-.08.02-.08.09,0,.34,0,.69,0,1.03Z"/>
      </g>
    </g>
  </g>
</svg>