<?xml version="1.0" encoding="UTF-8"?>
<svg id="Capa_1" data-name="Capa 1" xmlns="http://www.w3.org/2000/svg" viewBox="0 0 200 200">
  <defs>
    <style>
      .cls-1 {
        fill: #fff;
      }
    </style>
  </defs>
  <path class="cls-1" d="m16.71,108.2c-4.5,0-7.54-3.55-7.54-8.2s3.04-8.13,7.54-8.13c2.86,0,4.87,1.35,6.04,3.26l3.92-2.78c-2.23-3.48-5.45-5.09-9.96-5.09-7.14,0-12.81,5.38-12.81,12.74s5.68,12.78,12.81,12.78c4.79,0,8.24-2.13,10.4-5.49l-3.99-2.75c-1.39,2.13-3.19,3.67-6.41,3.67"/>
  <path class="cls-1" d="m46.68,87.22c-7.17,0-12.89,5.42-12.89,12.78s5.71,12.78,12.89,12.78,12.89-5.42,12.89-12.78-5.71-12.78-12.89-12.78"/>
  <path class="cls-1" d="m100.51,108.2c-4.5,0-7.54-3.55-7.54-8.2s3.04-8.13,7.54-8.13c2.86,0,4.87,1.35,6.04,3.26l3.92-2.78c-2.23-3.48-5.45-5.09-9.96-5.09-7.14,0-12.81,5.38-12.81,12.74s5.68,12.78,12.81,12.78c4.8,0,8.24-2.13,10.4-5.49l-3.99-2.75c-1.39,2.13-3.19,3.67-6.41,3.67"/>
  <path class="cls-1" d="m137.59,96.96c0-6.08-4.17-9.41-11.13-9.41h-6.88v24.89h5.13v-6.19h1.76c.48,0,.99-.04,1.47-.11l4.1,6.3h5.93l-5.16-7.76c3.07-1.39,4.79-3.85,4.79-7.72"/>
  <rect class="cls-1" x="71.96" y="100.11" width="5.07" height="5.07"/>
  <polygon class="cls-1" points="182.43 87.52 169.41 112.73 196.1 112.73 183.08 87.52 182.43 87.52"/>
  <polygon class="cls-1" points="152.24 104.35 162.24 104.35 162.24 99.96 152.24 99.96 152.24 92.05 163.59 92.05 163.59 87.55 147.12 87.55 147.12 112.44 164.1 112.44 164.1 107.94 152.24 107.94 152.24 104.35"/>
</svg>