<?xml version="1.0" encoding="UTF-8"?>
<svg id="Capa_1" data-name="Capa 1" xmlns="http://www.w3.org/2000/svg" viewBox="0 0 200 200">
  <defs>
    <style>
      .cls-1 {
        fill: #fff;
      }
    </style>
  </defs>
  <path class="cls-1" d="m37.13,161.22c-.02,1.87.99,3.43,2.91,3.43,1.3,0,2.32-.72,2.62-1.99h1.12c-.5,1.64-1.54,2.89-3.74,2.89-2.78,0-3.98-1.97-3.98-4.53s1.5-4.6,3.98-4.6,3.83,1.69,3.81,4.8h-6.72m5.65-.84c0-1.69-.94-3.06-2.74-3.06s-2.71,1.42-2.91,3.06h5.65Z"/>
  <rect class="cls-1" x="46.04" y="153.27" width="1" height="12.04"/>
  <g>
    <path class="cls-1" d="m57.41,157.24c-.2-.72-.58-2.08-2.66-2.08-1.2,0-2.98.8-2.98,4.2,0,2.16.85,4.1,2.98,4.1,1.39,0,2.36-.79,2.66-2.26h2.51c-.5,2.61-2.21,4.43-5.21,4.43-3.19,0-5.49-2.15-5.49-6.3s2.43-6.34,5.52-6.34c3.6,0,5.05,2.47,5.18,4.25h-2.51"/>
    <path class="cls-1" d="m66.96,152.99c1.59,0,5.77.69,5.77,6.32s-4.18,6.32-5.77,6.32-5.77-.68-5.77-6.32,4.18-6.32,5.77-6.32m0,10.51c1.36,0,3.26-.83,3.26-4.2s-1.91-4.2-3.26-4.2-3.26.83-3.26,4.2,1.9,4.2,3.26,4.2Z"/>
    <polyline class="cls-1" points="77.4 163.14 83.37 163.14 83.37 165.31 74.89 165.31 74.89 153.31 77.4 153.31 77.4 163.14"/>
    <path class="cls-1" d="m89.91,152.99c1.59,0,5.77.69,5.77,6.32s-4.18,6.32-5.77,6.32-5.77-.68-5.77-6.32,4.18-6.32,5.77-6.32m0,10.51c1.35,0,3.26-.83,3.26-4.2s-1.91-4.2-3.26-4.2-3.26.83-3.26,4.2,1.91,4.2,3.26,4.2Z"/>
    <polyline class="cls-1" points="109.32 165.31 106.98 165.31 106.98 155.28 106.95 155.28 104.71 165.31 102.25 165.31 100.06 155.28 100.03 155.28 100.03 165.31 97.69 165.31 97.69 153.31 101.35 153.31 103.52 162.77 103.55 162.77 105.69 153.31 109.32 153.31 109.32 165.31"/>
    <path class="cls-1" d="m111.51,153.31h5.84c2.94,0,3.69,1.84,3.69,3.08,0,1.72-.97,2.21-1.47,2.46,1.47.55,1.86,1.72,1.86,2.91,0,.95-.4,1.85-1.04,2.47-.68.67-1.34,1.09-3.79,1.09h-5.08v-12m2.41,4.7h2.94c.99,0,1.77-.38,1.77-1.34s-.7-1.28-1.84-1.28h-2.88v2.62Zm0,5.23h3.08c1.22,0,1.92-.53,1.92-1.75,0-1.05-.91-1.46-1.81-1.46h-3.19v3.21Z"/>
    <rect class="cls-1" x="123.27" y="153.31" width="2.51" height="12"/>
    <path class="cls-1" d="m130.24,165.31h-2.64l4.28-12h2.89l4.23,12h-2.72l-.77-2.47h-4.43l-.84,2.47m1.5-4.55h3.06l-1.49-4.75h-.04l-1.54,4.75Z"/>
    <polyline class="cls-1" points="148.01 153.31 150.35 153.31 150.35 165.31 147.85 165.31 142.95 156.75 142.91 156.75 142.91 165.31 140.57 165.31 140.57 153.31 143.21 153.31 147.98 161.67 148.01 161.67 148.01 153.31"/>
    <path class="cls-1" d="m158.16,152.99c1.59,0,5.77.69,5.77,6.32s-4.18,6.32-5.77,6.32-5.77-.68-5.77-6.32,4.18-6.32,5.77-6.32m0,10.51c1.35,0,3.26-.83,3.26-4.2s-1.91-4.2-3.26-4.2-3.26.83-3.26,4.2,1.91,4.2,3.26,4.2Z"/>
    <rect class="cls-1" x="36.07" y="150.28" width="127.87" height=".46"/>
    <path class="cls-1" d="m138.36,111.09h-6.43c-.27,15.73-14.83,25.57-25.05,25.57s-19.68-7.96-19.68-21.36v-51.04c0-12.84,8.55-21.36,20.04-21.36,15.77,0,23.59,22.19,24.77,25.57h6.35v-34.1c-1.25,8.01-10.58,12.74-17.75,8.29-8.47-5.26-18.45-8.29-29.15-8.29-30.59,0-55.39,24.8-55.39,55.4s24.8,55.39,55.39,55.39c42.65,0,46.9-29.81,46.9-34.07"/>
    <path class="cls-1" d="m163.94,132.4c0,7.06-5.73,12.79-12.79,12.79s-12.79-5.72-12.79-12.79,5.72-12.79,12.79-12.79,12.79,5.73,12.79,12.79"/>
  </g>
</svg>