<?xml version="1.0" encoding="UTF-8"?>
<svg id="Capa_1" data-name="Capa 1" xmlns="http://www.w3.org/2000/svg" viewBox="0 0 200 200">
  <defs>
    <style>
      .cls-1 {
        fill: #fff;
      }
    </style>
  </defs>
  <path class="cls-1" d="m37.66,116.52c-3.15,0-6.32-1.21-8.71-3.61-2.4-2.4-3.62-5.58-3.61-8.72,0-3.15,1.21-6.32,3.61-8.72,1.1-1.1,2.89-1.1,3.99,0,1.1,1.1,1.1,2.89,0,4-1.31,1.31-1.95,3.01-1.96,4.73,0,1.72.65,3.41,1.96,4.73,1.31,1.31,3,1.95,4.72,1.96,1.73,0,3.42-.65,4.74-1.96,1.31-1.31,1.95-3.01,1.96-4.73,0-1.72-.65-3.41-1.96-4.73-1.2-1.2-2.71-1.84-4.28-1.94-1.56-.1-2.74-1.45-2.63-3.01.1-1.56,1.45-2.74,3-2.63,2.87.19,5.71,1.39,7.91,3.59,2.4,2.4,3.62,5.57,3.61,8.72,0,3.15-1.21,6.32-3.61,8.72-2.4,2.4-5.58,3.61-8.72,3.61h-.01Z"/>
  <path class="cls-1" d="m13.6,92.3c5.4,0,9.43,3.05,9.43,6.07,0,1.86-1.37,2.79-3.01,2.79-3.05,0-1.95-3.81-6.6-3.81-2.52,0-5.49,1.73-5.49,7.57,0,4.03,1.9,6.64,5.45,6.64,4.52,0,3.54-4.16,6.95-4.16,1.64,0,2.7,1.2,2.7,2.48,0,2.83-3.19,6.73-9.83,6.73-7.97,0-11.73-4.91-11.73-11.69,0-7.44,4.21-12.62,12.13-12.62"/>
  <path class="cls-1" d="m53.57,95.53c0-1.95,1.15-3.23,3.06-3.23s3.05,1.28,3.05,3.23v.84h.09c1.68-2.57,4.51-4.07,7.79-4.07,2.21,0,5,1.02,6.2,4.07,1.81-2.52,4.12-4.07,7.62-4.07,4.47,0,8.06,2.04,8.06,7.84v13.24c0,1.73-.71,3.23-3.23,3.23s-3.23-1.51-3.23-3.23v-11.6c0-2.3-1.02-4.16-3.54-4.16s-4.69,1.99-4.69,5v10.76c0,1.73-.71,3.23-3.23,3.23s-3.23-1.51-3.23-3.23v-11.6c0-2.3-1.02-4.16-3.54-4.16s-4.69,1.99-4.69,5v10.76c0,1.73-.71,3.23-3.23,3.23s-3.23-1.51-3.23-3.23v-17.84Z"/>
  <path class="cls-1" d="m96.61,97.12h-1.46c-1.81,0-2.57-.71-2.57-2.13s.75-2.13,2.57-2.13h1.46v-3.23c0-4.07,3.36-6.24,7.13-6.24,2.35,0,4.25.93,4.25,3.1,0,1.19-.93,2.21-2.08,2.21-.49,0-.93-.13-1.42-.13-.93,0-1.42.62-1.42,1.51v2.79h1.99c1.9,0,2.92.58,2.92,2.13s-1.02,2.13-2.92,2.13h-1.99v16.25c0,2.13-1.28,3.23-3.23,3.23s-3.23-1.11-3.23-3.23v-16.25Z"/>
  <path class="cls-1" d="m135.1,95.53c0-1.95,1.15-3.23,3.06-3.23s3.05,1.28,3.05,3.23v.84h.09c1.68-2.57,4.52-4.07,7.79-4.07,2.21,0,5,1.02,6.2,4.07,1.82-2.52,4.12-4.07,7.62-4.07,4.47,0,8.06,2.04,8.06,7.84v13.24c0,1.73-.71,3.23-3.23,3.23s-3.23-1.51-3.23-3.23v-11.6c0-2.3-1.02-4.16-3.54-4.16s-4.69,1.99-4.69,5v10.76c0,1.73-.71,3.23-3.23,3.23s-3.23-1.51-3.23-3.23v-11.6c0-2.3-1.02-4.16-3.54-4.16s-4.69,1.99-4.69,5v10.76c0,1.73-.71,3.23-3.23,3.23s-3.23-1.51-3.23-3.23v-17.84Z"/>
  <path class="cls-1" d="m193.43,114.81l-6.89-13.74-4.91,9.84h5.99c1.49,0,2.7,1.21,2.7,2.7s-1.21,2.7-2.7,2.7h-10.35c-.94,0-1.8-.48-2.29-1.28-.49-.8-.54-1.79-.12-2.62l9.26-18.57c.46-.92,1.39-1.49,2.41-1.49,1.02,0,1.95.57,2.41,1.49l9.3,18.56h0c.67,1.33.13,2.95-1.2,3.62-.39.19-.8.29-1.21.29-.99,0-1.94-.55-2.41-1.49"/>
  <path class="cls-1" d="m110.2,116.3c-.94,0-1.8-.48-2.29-1.28-.49-.8-.54-1.79-.12-2.63l5.18-10.34c.67-1.33,2.29-1.87,3.62-1.2,1.33.67,1.87,2.29,1.2,3.62l-3.22,6.43h9.84l-7.31-14.66h0c-.67-1.33-.12-2.95,1.21-3.62,1.33-.66,2.95-.12,3.62,1.21l9.26,18.56c.42.84.37,1.82-.12,2.62-.49.8-1.36,1.28-2.29,1.28h-18.57Z"/>
</svg>