<?xml version="1.0" encoding="UTF-8"?>
<svg id="Capa_1" data-name="Capa 1" xmlns="http://www.w3.org/2000/svg" viewBox="0 0 200 200">
  <defs>
    <style>
      .cls-1 {
        fill: #fff;
      }
    </style>
  </defs>
  <rect class="cls-1" x="26.43" y="125.91" width="147.14" height=".86"/>
  <g>
    <path class="cls-1" d="m67.07,68.27c0,2.35-.44,4.39-1.33,6.12-.88,1.73-2.03,3.14-3.45,4.25-1.43,1.1-3.03,1.93-4.81,2.47-1.78.55-3.62.82-5.51.82h-11.45v-1.38c.38,0,.87-.04,1.47-.11.6-.07,1-.15,1.2-.24.39-.17.67-.42.85-.75.18-.33.26-.73.26-1.2v-19.94c0-.44-.07-.84-.22-1.19-.15-.35-.44-.63-.89-.84-.4-.19-.84-.34-1.3-.43-.47-.09-.87-.15-1.21-.18v-1.38h12.08c1.66,0,3.3.26,4.91.77,1.61.51,3.01,1.21,4.21,2.07,1.62,1.16,2.9,2.67,3.82,4.54.92,1.87,1.38,4.07,1.38,6.6Zm-4.77,0c0-1.86-.25-3.53-.74-5.03-.49-1.5-1.21-2.81-2.16-3.92-.9-1.06-2-1.9-3.3-2.51-1.3-.61-2.76-.91-4.35-.91-.53,0-1.13,0-1.8.03-.67.02-1.17.04-1.49.05v21.23c0,1.18.34,2,1.03,2.45.69.45,1.75.68,3.17.68,1.65,0,3.09-.29,4.32-.88,1.23-.58,2.23-1.39,3-2.43.8-1.09,1.39-2.35,1.76-3.79.37-1.43.56-3.09.56-4.97Z"/>
    <path class="cls-1" d="m91.95,60.64c-.29.01-.73.07-1.29.19-.57.12-1.03.29-1.39.52-.36.24-.61.74-.74,1.5-.14.76-.21,1.68-.21,2.78v9.74c0,1.24-.26,2.32-.77,3.24-.52.92-1.19,1.67-2.04,2.26-.83.57-1.71.98-2.63,1.22-.92.25-1.8.37-2.64.37-1.35,0-2.55-.18-3.6-.53-1.05-.35-1.94-.83-2.65-1.43-.71-.6-1.24-1.29-1.59-2.06-.36-.77-.54-1.58-.54-2.42v-13.25c0-.37-.06-.68-.18-.92-.12-.25-.37-.48-.73-.69-.26-.15-.6-.27-1.01-.36-.41-.09-.75-.14-1.01-.17v-1.12h9.33v1.12c-.29.01-.67.06-1.11.14-.45.08-.78.16-.99.24-.36.13-.6.34-.72.63-.12.29-.18.62-.18.96v12.37c0,.6.07,1.23.2,1.88.13.66.39,1.27.78,1.84.41.58.97,1.05,1.67,1.42.71.37,1.67.55,2.9.55,1.16,0,2.13-.18,2.91-.55.78-.37,1.4-.85,1.86-1.45.43-.57.74-1.16.92-1.78.18-.62.27-1.25.27-1.88v-9.18c0-1.17-.08-2.12-.25-2.86-.17-.74-.42-1.23-.74-1.46-.37-.26-.87-.47-1.51-.61-.64-.15-1.12-.23-1.46-.25v-1.12h9.16v1.12Z"/>
    <path class="cls-1" d="m114,86.7v.68c-7.06.05-13.32-5.4-13.32-5.4-.73-.16-1.76-.57-2.43-.87-1.28-.6-2.02-1.06-2.94-2.09-.93-1.04-1.65-2.27-2.16-3.67-.52-1.41-.77-2.94-.77-4.6,0-1.82.28-3.44.85-4.87.57-1.43,1.35-2.66,2.35-3.7.99-1.03,2.14-1.82,3.45-2.37,1.31-.55,2.68-.82,4.11-.82s2.88.28,4.2.84c1.32.56,2.45,1.34,3.41,2.35.99,1.03,1.76,2.28,2.32,3.73.56,1.46.84,3.07.84,4.84,0,1.41-.18,2.72-.55,3.92-.37,1.2-.89,2.27-1.56,3.22-.64.91-1.46,1.63-2.29,2.37-1.22,1.09-3.07,1.43-2.97,1.6,2.76,4.32,7.45,4.85,7.45,4.85Zm-5.59-8.64c.59-.96,1.02-2.04,1.29-3.25.27-1.21.4-2.56.4-4.06s-.15-2.95-.45-4.23c-.3-1.28-.74-2.38-1.32-3.28-.58-.89-1.3-1.59-2.18-2.09-.87-.5-1.87-.75-3-.75-1.26,0-2.34.29-3.22.87-.88.58-1.6,1.35-2.16,2.32-.53.93-.92,2.01-1.18,3.25-.26,1.24-.39,2.55-.39,3.92,0,1.52.14,2.88.41,4.11.27,1.22.71,2.3,1.29,3.25.57.93,1.28,1.65,2.15,2.17.86.52,1.89.78,3.09.78,1.13,0,2.14-.26,3.05-.79.91-.53,1.64-1.26,2.21-2.21Z"/>
    <path class="cls-1" d="m138.85,60.64c-.3.01-.73.07-1.3.19-.57.12-1.03.29-1.39.52-.36.24-.6.74-.74,1.5-.14.76-.2,1.68-.2,2.78v9.74c0,1.24-.26,2.32-.77,3.24-.52.92-1.19,1.67-2.04,2.26-.83.57-1.71.98-2.63,1.22-.92.25-1.8.37-2.64.37-1.35,0-2.55-.18-3.6-.53-1.05-.35-1.94-.83-2.65-1.43-.71-.6-1.24-1.29-1.59-2.06-.36-.77-.54-1.58-.54-2.42v-13.25c0-.37-.06-.68-.18-.92-.12-.25-.36-.48-.73-.69-.26-.15-.6-.27-1.01-.36-.41-.09-.75-.14-1.01-.17v-1.12h9.33v1.12c-.29.01-.67.06-1.11.14-.45.08-.78.16-.99.24-.36.13-.6.34-.72.63-.12.29-.18.62-.18.96v12.37c0,.6.06,1.23.2,1.88.13.66.39,1.27.78,1.84.41.58.97,1.05,1.67,1.42.71.37,1.67.55,2.9.55,1.16,0,2.13-.18,2.91-.55.78-.37,1.4-.85,1.86-1.45.43-.57.74-1.16.92-1.78.18-.62.27-1.25.27-1.88v-9.18c0-1.17-.08-2.12-.25-2.86-.17-.74-.42-1.23-.74-1.46-.37-.26-.87-.47-1.51-.61-.64-.15-1.12-.23-1.46-.25v-1.12h9.16v1.12Z"/>
    <path class="cls-1" d="m159.48,75.33l-.43,6.6h-18.6v-1.12c.32-.02.74-.07,1.26-.13.53-.07.87-.14,1.03-.21.34-.16.57-.36.7-.62.13-.25.2-.57.2-.96v-16.1c0-.35-.06-.66-.17-.92-.12-.27-.36-.49-.73-.66-.28-.14-.67-.26-1.15-.36-.48-.1-.86-.17-1.14-.19v-1.12h17.33v5.4h-1.18c-.21-.8-.67-1.65-1.37-2.55-.7-.9-1.37-1.39-2-1.48-.33-.04-.72-.07-1.17-.09-.45-.02-.97-.03-1.55-.03h-3.52v8.9h2.53c.81,0,1.4-.08,1.78-.23.37-.15.7-.41.99-.77.23-.31.43-.71.59-1.22.16-.51.27-.99.32-1.44h1.18v8.78h-1.18c-.04-.51-.16-1.04-.34-1.6-.18-.56-.37-.97-.58-1.22-.33-.41-.7-.68-1.11-.81-.42-.13-.97-.19-1.65-.19h-2.53v6.71c0,.67.05,1.2.14,1.59.09.39.28.68.55.88.27.2.65.33,1.12.39.47.06,1.15.09,2.02.09h1.37c.57,0,1.05-.02,1.44-.06.4-.04.81-.12,1.24-.23.43-.11.73-.26.91-.45.48-.51.99-1.27,1.52-2.3.53-1.03.87-1.78,1.02-2.27h1.14Z"/>
  </g>
  <g>
    <path class="cls-1" d="m54.37,115.43h-11.28v-1.36c.99-.06,1.82-.19,2.48-.38.66-.19.98-.43.98-.71,0-.11-.01-.25-.04-.42-.03-.17-.06-.31-.12-.44l-2.25-6.08h-9.52c-.36.89-.65,1.67-.87,2.33-.22.66-.42,1.27-.6,1.83-.17.55-.28.99-.34,1.34-.06.34-.1.62-.1.84,0,.51.4.91,1.2,1.19.8.28,1.71.45,2.71.5v1.36h-10.21v-1.36c.33-.03.74-.1,1.24-.22.5-.12.91-.28,1.22-.49.51-.34.91-.7,1.19-1.08.28-.37.55-.89.82-1.56,1.36-3.4,2.87-7.23,4.51-11.47,1.64-4.24,3.11-8.02,4.4-11.33h1.53l9.04,23.4c.19.5.41.9.65,1.2.24.31.58.61,1.01.9.29.18.68.33,1.15.45.47.12.87.19,1.19.2v1.36Zm-10.91-11.09l-4.11-10.52-4.05,10.52h8.16Z"/>
    <path class="cls-1" d="m78.28,115.43h-6.03c-1.34-2.09-2.54-3.9-3.62-5.43-1.08-1.53-2.25-3.1-3.51-4.72h-2.29v7.1c0,.37.06.69.17.97.12.28.36.49.74.64.19.07.52.14.99.21.47.06.87.1,1.2.11v1.12h-9.47v-1.12c.25-.02.62-.06,1.1-.11.48-.05.81-.12,1-.21.32-.14.54-.34.69-.6.14-.26.21-.6.21-1.01v-16.2c0-.37-.05-.69-.16-.98-.1-.28-.35-.5-.74-.65-.26-.09-.61-.18-1.03-.26-.42-.08-.78-.13-1.07-.15v-1.12h10.34c.95,0,1.84.1,2.67.29.83.19,1.58.51,2.26.94.65.42,1.17.97,1.56,1.65.39.68.58,1.5.58,2.46,0,.86-.13,1.63-.39,2.29-.26.66-.65,1.24-1.17,1.72-.47.45-1.04.85-1.71,1.18-.66.33-1.39.61-2.19.84,1.11,1.46,2.02,2.69,2.75,3.69.73,1,1.63,2.22,2.69,3.65.46.63.88,1.1,1.25,1.4.37.3.75.54,1.11.73.27.14.62.24,1.03.32.41.07.75.12,1.03.13v1.12Zm-8.3-16.69c0-1.36-.39-2.43-1.17-3.22-.78-.79-1.88-1.19-3.3-1.19h-2.68v9.6h2.07c1.45,0,2.66-.47,3.63-1.39.97-.93,1.45-2.19,1.45-3.79Z"/>
    <path class="cls-1" d="m103.27,115.43h-9.31v-1.12c.82-.05,1.5-.16,2.04-.32.54-.16.81-.35.81-.58,0-.09-.01-.21-.03-.35-.02-.14-.05-.26-.09-.36l-1.86-5.02h-7.86c-.3.74-.53,1.38-.72,1.93-.18.55-.35,1.05-.5,1.52-.14.45-.23.82-.28,1.11-.05.28-.08.52-.08.69,0,.42.33.75,1,.98.66.23,1.41.37,2.24.41v1.12h-8.44v-1.12c.27-.02.62-.08,1.03-.18.41-.1.75-.23,1.01-.4.42-.28.75-.58.98-.89.23-.31.46-.74.68-1.29,1.13-2.81,2.37-5.97,3.73-9.47,1.36-3.5,2.57-6.63,3.63-9.36h1.26l7.47,19.32c.16.41.34.74.54,1,.2.25.48.5.84.74.24.15.56.27.95.37.39.1.72.16.98.17v1.12Zm-9.01-9.16l-3.39-8.69-3.34,8.69h6.74Z"/>
    <path class="cls-1" d="m127.06,94.15c-.29.01-.75.1-1.36.25-.61.16-1.05.32-1.31.49-.38.26-.63.77-.77,1.52-.13.75-.2,1.69-.2,2.84v16.4h-1.37l-13.58-18.33v11.56c0,1.29.08,2.29.24,2.98.16.69.41,1.19.75,1.48.24.23.74.45,1.5.65.76.2,1.26.31,1.5.32v1.12h-9.19v-1.12c.28-.02.76-.12,1.44-.31.67-.18,1.09-.35,1.26-.5.37-.29.62-.75.76-1.35.14-.6.21-1.64.21-3.1v-11.04c0-.48-.08-.97-.25-1.45-.17-.48-.39-.86-.68-1.12-.38-.35-.89-.64-1.54-.89-.65-.25-1.17-.38-1.57-.4v-1.12h6.4l12.59,17.08v-10.65c0-1.3-.08-2.31-.25-3.01-.17-.7-.41-1.17-.73-1.4-.3-.2-.78-.39-1.45-.58-.67-.19-1.18-.29-1.52-.32v-1.12h9.11v1.12Z"/>
    <path class="cls-1" d="m150.55,106.49c-.25.03-.59.08-1.02.15-.43.07-.77.17-1.03.29-.32.16-.54.38-.67.67-.13.29-.2.63-.2,1.02v1.74c0,1.26,0,2.11.02,2.56.02.44.03.81.06,1.09-1.4.63-2.79,1.11-4.18,1.45-1.39.34-2.75.51-4.09.51-1.43,0-2.81-.27-4.14-.81-1.33-.54-2.48-1.3-3.47-2.29-1-1-1.79-2.22-2.38-3.65-.59-1.43-.88-3.03-.88-4.8s.28-3.29.84-4.75c.56-1.46,1.36-2.72,2.39-3.8,1-1.05,2.19-1.87,3.58-2.46,1.38-.58,2.87-.88,4.44-.88,1.26,0,2.36.15,3.3.46.94.31,1.76.67,2.48,1.11l.65-1.07h1.26l.14,7.83h-1.29c-.22-.86-.5-1.71-.82-2.55-.33-.84-.75-1.59-1.26-2.25-.52-.66-1.15-1.19-1.89-1.59-.74-.4-1.63-.59-2.66-.59-1.13,0-2.14.23-3.02.69-.88.46-1.65,1.14-2.31,2.05-.64.87-1.14,1.96-1.49,3.27-.35,1.31-.52,2.76-.52,4.38,0,1.42.17,2.76.51,4.02.34,1.26.84,2.35,1.49,3.26.65.94,1.47,1.67,2.45,2.21.98.54,2.09.81,3.34.81.93,0,1.77-.14,2.54-.43.76-.28,1.3-.58,1.62-.9.08-.55.13-1.1.13-1.66,0-.56,0-1.03,0-1.42v-1.23c0-.44-.06-.83-.18-1.18-.12-.34-.37-.59-.75-.75-.35-.16-.82-.28-1.41-.36-.59-.08-1.06-.13-1.4-.15v-1.15h9.82v1.15Z"/>
    <path class="cls-1" d="m170.41,95.68c.99,1.03,1.76,2.28,2.32,3.73.56,1.46.84,3.07.84,4.84s-.28,3.39-.85,4.85c-.57,1.45-1.36,2.69-2.37,3.71-.98,1.01-2.12,1.79-3.41,2.34-1.29.55-2.67.82-4.14.82-1.56,0-3-.29-4.32-.88-1.32-.58-2.45-1.4-3.4-2.44-.95-1.02-1.69-2.26-2.23-3.72-.54-1.46-.81-3.02-.81-4.68,0-1.82.28-3.44.85-4.87.57-1.43,1.35-2.66,2.35-3.7.99-1.03,2.14-1.82,3.45-2.37,1.31-.55,2.68-.82,4.11-.82s2.88.28,4.2.84c1.32.56,2.45,1.34,3.41,2.35Zm-2.35,15.88c.59-.96,1.02-2.04,1.29-3.25.27-1.21.4-2.56.4-4.06s-.15-2.95-.45-4.23c-.3-1.28-.74-2.38-1.32-3.28-.58-.89-1.31-1.59-2.18-2.09-.87-.5-1.87-.75-3-.75-1.26,0-2.34.29-3.22.87-.88.58-1.6,1.35-2.16,2.32-.53.93-.92,2.01-1.18,3.25-.26,1.24-.39,2.55-.39,3.92,0,1.52.14,2.88.41,4.1.27,1.22.71,2.3,1.29,3.25.57.93,1.28,1.65,2.15,2.17.86.52,1.89.78,3.09.78,1.13,0,2.14-.26,3.05-.79.91-.53,1.64-1.26,2.21-2.21Z"/>
  </g>
  <g>
    <path class="cls-1" d="m45.49,141.1c0,1.67.64,3.73,2.72,3.73,1.44,0,2.09-.91,2.09-2.24,0-.39-.09-.78-.56-.78-.25,0-.49.05-.74.05s-.4-.2-.4-.44c0-.26.24-.45.54-.45.5,0,1.02.14,1.55.14s1.05-.14,1.55-.14c.28,0,.54.15.54.45,0,.24-.16.44-.4.44-.14,0-.28-.06-.43-.06-.44,0-.59.35-.59,1.53,0,.61.09,1.18.09,1.84,0,.29-.2.48-.48.48s-.45-.19-.45-.45c0-.24.05-.48.05-.73h-.03c-.49.89-1.53,1.24-2.51,1.24-2.52,0-3.71-2.19-3.71-4.41,0-1.01.26-2.31.86-3.17.68-.98,1.79-1.5,2.96-1.5.94,0,1.68.29,2.32.98l.02-.03c-.02-.14-.05-.33-.05-.49,0-.26.16-.41.45-.41.25,0,.43.19.43.5,0,.48-.09.94-.09,1.4,0,.6.09.94.09,1.29,0,.4-.21.54-.5.54-.38,0-.5-.22-.5-.63v-.39c0-1.23-.99-1.89-2.18-1.89-1.97,0-2.66,1.95-2.66,3.6Z"/>
    <path class="cls-1" d="m65.35,142.47c-.41,0-.54,0-.7.44l-.38.99c-.05.15-.1.26-.1.43,0,.3.19.4.48.4.24,0,.46-.06.8-.06.24,0,.4.19.4.43,0,.3-.26.45-.54.45-.34,0-1.04-.14-1.68-.14s-1.34.14-1.68.14c-.14,0-.4-.15-.4-.45,0-.24.16-.43.4-.43.25,0,.41.05.56.05.2,0,.3-.1.39-.26.13-.19.25-.56.34-.79l2.29-6.18c.18-.46.33-.68.87-.68s.66.22.83.68l2.22,6.1c.09.26.21.6.35.81.18.26.33.33.63.33.16,0,.34-.04.64-.06.24,0,.4.19.4.43,0,.3-.26.45-.54.45-.34,0-1.04-.14-1.68-.14s-1.34.14-1.68.14c-.45,0-.71-.15-.71-.45,0-.24.16-.43.4-.43.4.01.63.06.85.06.2,0,.4-.11.4-.34,0-.09-.11-.39-.15-.49l-.34-.95c-.21-.53-.2-.48-.73-.48h-1.94Zm-.13-1.18c-.11.34-.07.33.28.33h1.69c.08,0,.3.04.3-.1,0-.07-.03-.15-.05-.23l-1.09-3.38h-.02l-1.1,3.38Z"/>
    <path class="cls-1" d="m82.11,139.64c0-.4.03-1.19-.06-1.55-.08-.33-.29-.46-.61-.46-.2,0-.4.06-.6.06-.24,0-.4-.19-.4-.43,0-.3.19-.45.49-.45.6,0,1.04.14,1.68.14s1.07-.14,1.68-.14c.33,0,.59.15.59.45,0,.24-.16.43-.4.43-.2,0-.4-.06-.6-.06-.33,0-.53.14-.61.46-.09.36-.06,1.15-.06,1.55v4.12c0,.83.14.95.88.95h1.43c.35,0,.89,0,1.22-.16.43-.21.43-.63.43-1.04,0-.35-.05-.7-.05-1.06,0-.29.13-.55.45-.55.36,0,.54.14.54.5,0,.43-.1.84-.1,1.26,0,.4.1.78.1,1.17,0,.54-.33.72-.7.72-1.35,0-2.71-.1-4.06-.14-.67-.01-1.43.14-2.33.14-.38,0-.56-.16-.56-.43,0-.24.18-.45.41-.45.2,0,.4.09.6.09.59,0,.68-.48.68-2.04v-3.07Z"/>
    <path class="cls-1" d="m99.97,143.06l.04.88c.02.65.16.74,1.05.74h1.48c1.07,0,1.53-.14,1.53-1.09,0-.37-.08-.75-.08-1.13,0-.3.13-.59.48-.59s.49.25.49.58c0,.43-.05.84-.05,1.27s.05.84.05,1.25c0,.37-.26.58-.81.58-1.35,0-2.71-.14-4.24-.14-.95,0-1.54.14-2.16.14-.33,0-.54-.15-.54-.45,0-.24.16-.43.4-.43.2,0,.4.06.6.06.33,0,.54-.14.61-.46.06-.26.06-.58.06-1.55v-3.07c0-.4.02-1.19-.06-1.55-.07-.33-.29-.46-.61-.46-.2,0-.4.06-.6.06-.24,0-.4-.19-.4-.43,0-.3.26-.45.54-.45.61,0,1.2.14,2.16.14,1.53,0,2.88-.14,4.24-.14.43,0,.66.15.66.6s-.1.92-.1,1.38c0,.43.1.83.1,1.24,0,.27-.2.48-.48.48-.38,0-.46-.23-.46-.93,0-.96,0-1.3-.28-1.59-.19-.2-.45-.26-1.99-.26-.9,0-1.19.03-1.4.17-.17.13-.23.29-.23.89v1.02c0,.35-.01.46.11.55.14.1.35.09.73.09.79,0,1.08-.14,1.08-.57,0-.26-.07-.54-.07-.8,0-.29.14-.53.45-.53.34,0,.48.26.48.58s-.15.98-.13,1.85c-.02.85.13,1.35.13,1.79,0,.28-.2.44-.46.44-.35,0-.46-.21-.46-.54,0-.28.07-.55.07-.83,0-.43-.2-.55-1-.55-.44,0-.64-.01-.79.1-.09.07-.13.19-.13.74v.93Z"/>
    <path class="cls-1" d="m121.76,143.72c0,.58.01.91.71.91.19,0,.39-.04.58-.04.28,0,.5.15.5.45,0,.26-.2.49-.48.49-.39,0-.63-.04-1.12-.04-1.04,0-1.29-.78-1.29-1.68v-.79c0-.5,0-1.05-.46-1.34-.31-.19-.51-.23-1.74-.23-.86,0-1.2.09-1.2.6v.64c0,1.1.02,1.38.06,1.55.08.33.29.46.62.46.2,0,.4-.06.6-.06.24,0,.4.19.4.43,0,.3-.26.45-.54.45-.51,0-1.04-.14-1.68-.14s-1.05.14-1.68.14c-.28,0-.54-.15-.54-.45,0-.24.16-.43.4-.43.2,0,.4.06.6.06.33,0,.54-.14.61-.46.09-.36.06-1.15.06-1.55v-3.07c0-.4.02-1.19-.06-1.55-.08-.33-.29-.46-.61-.46-.2,0-.4.06-.6.06-.24,0-.4-.19-.4-.43,0-.3.26-.45.54-.45.74,0,1.37.14,2,.14,1.07,0,1.77-.14,2.32-.14.61,0,1.4.05,1.92.39.6.39.91,1.07.91,1.77,0,1.32-.75,1.87-1.96,2.07v.03c1.29.15,1.52.88,1.52,2.07v.6Zm-4.5-3.45c0,.3.04.33.39.33h1.03c.54,0,1.24-.01,1.73-.26.46-.24.64-.78.64-1.29,0-1.19-.86-1.52-1.98-1.52-1.39,0-1.8.24-1.8.7v2.04Z"/>
    <path class="cls-1" d="m134.22,139.64c0-.4.03-1.19-.06-1.55-.08-.33-.29-.46-.61-.46-.2,0-.4.06-.6.06-.24,0-.4-.19-.4-.43,0-.3.26-.45.54-.45.56,0,1.04.14,1.68.14s1.17-.14,1.68-.14c.28,0,.54.15.54.45,0,.24-.16.43-.4.43-.2,0-.4-.06-.6-.06-.33,0-.54.14-.61.46-.08.36-.06,1.15-.06,1.55v3.07c0,.4-.02,1.19.06,1.55.09.33.29.46.61.46.2,0,.4-.06.6-.06.24,0,.4.19.4.43,0,.3-.26.45-.54.45-.6,0-1.04-.14-1.68-.14s-1.06.14-1.68.14c-.28,0-.54-.15-.54-.45,0-.24.16-.43.4-.43.2,0,.4.06.6.06.33,0,.54-.14.61-.46.09-.36.06-1.15.06-1.55v-3.07Zm.03-4.16c-.09.03-.17.07-.28.07-.07,0-.16-.05-.16-.14,0-.15.13-.24.23-.33l1.33-1.14c.16-.15.3-.26.54-.26.31,0,.56.29.56.6s-.23.45-.48.55l-1.74.64Z"/>
    <path class="cls-1" d="m149.55,142.47c-.41,0-.54,0-.7.44l-.38.99c-.05.15-.1.26-.1.43,0,.3.19.4.48.4.24,0,.46-.06.8-.06.24,0,.4.19.4.43,0,.3-.26.45-.54.45-.34,0-1.04-.14-1.68-.14s-1.34.14-1.68.14c-.14,0-.4-.15-.4-.45,0-.24.16-.43.4-.43s.41.05.56.05c.2,0,.3-.1.39-.26.12-.19.25-.56.34-.79l2.29-6.18c.17-.46.33-.68.86-.68s.66.22.83.68l2.22,6.1c.09.26.21.6.35.81.18.26.33.33.63.33.16,0,.34-.04.64-.06.24,0,.4.19.4.43,0,.3-.26.45-.54.45-.34,0-1.04-.14-1.68-.14s-1.34.14-1.68.14c-.45,0-.71-.15-.71-.45,0-.24.16-.43.4-.43.4.01.63.06.85.06.2,0,.4-.11.4-.34,0-.09-.11-.39-.15-.49l-.34-.95c-.21-.53-.2-.48-.73-.48h-1.94Zm-.13-1.18c-.11.34-.08.33.28.33h1.69c.08,0,.3.04.3-.1,0-.07-.02-.15-.05-.23l-1.09-3.38h-.03l-1.1,3.38Z"/>
  </g>
</svg>