<?xml version="1.0" encoding="UTF-8"?>
<svg id="Capa_1" data-name="Capa 1" xmlns="http://www.w3.org/2000/svg" viewBox="0 0 200 200">
  <defs>
    <style>
      .cls-1 {
        fill: #fff;
      }
    </style>
  </defs>
  <g>
    <path class="cls-1" d="m177.44,95.73c-2.88-.19-5.94-.29-10.4-.29-.62,6.84-.97,13.72-1.11,23.52h-12.71c.91-7.79,1.39-15.58,1.44-23.52-7.39,0-8.81.19-10.4.29l.44-8.66h33.17l-.43,8.66Zm-49.05,23.23c.63-9.18,1.45-17.93,1.45-31.89h12.96c-.81,10.38-1.39,17.55-1.39,31.89h-13.02Zm-1.07-23.33c-3.02-.15-6.39-.19-9.41-.19h-6.63l-.23,3.18c4.31,0,8.94.07,13.25,0l-.53,8.59h-13.11c-.13,3.91-.25,7.84-.28,11.76h-13.2c.87-5.87,2.01-23.71,1.86-31.89h28.72l-.43,8.56Zm-44.88,23.33h13.15c-4.18-10.51-8.1-21.18-11.8-31.89h-14.93c-4.22,8.89-13.05,25.06-17.13,31.89h13.67l3.77-8.38h10.56c.97,2.76,1.99,5.54,2.71,8.38m-6.72-23.28l2.22,7.33h-5.57l3.35-7.33Zm-24.06-.05c-3.01-.15-6.38-.19-9.41-.19h-6.63l-.24,3.18c4.31,0,8.6.07,12.91,0l-.52,8.59h-13.02l-.23,3.4c5.48,0,10.93-.14,16.41-.43l-.44,8.79h-28.98c1.52-10.31,2.05-21.47,1.86-31.89h28.72l-.43,8.56Z"/>
    <path class="cls-1" d="m28.81,69.86c.08-.97.15-1.94.21-2.85h-4.74c-.06,2.37-.2,4.42-.33,6.13-.11,1.48-.19,2.71-.19,3.66,0,1.02.48,2.04,1.71,2.75,1.06.62,2.67,1.02,4.99,1.02,3.24,0,5.01-.81,5.98-1.81.95-.97,1.12-2.12,1.13-2.83.06-2.61.43-7.62.53-8.91h-4.84c-.04,1.68-.16,5.63-.56,8.18-.11.69-.28,1.18-.62,1.51-.34.34-.82.49-1.58.49s-1.23-.29-1.53-.78c-.29-.46-.41-1.08-.41-1.78,0-1.33.13-3.04.26-4.77"/>
    <path class="cls-1" d="m40.41,73.48c-.15,2.77-.36,5.29-.51,6.82h4.25c.02-2.5.12-4.47.18-5.88.03-.58.05-1.06.07-1.43v-.27s.01-.72.01-.72c.49.77.85,1.55,1.24,2.37.74,1.59,1.58,3.2,2.41,4.81.17.32.33.62.58,1.11h5.82c.05-2.23.16-4.44.29-6.66.13-2.19.3-4.4.49-6.63h-4.39c-.01,1.21-.04,2.41-.09,3.59-.05,1.34-.11,2.64-.2,3.92l-.02.27-.04.8c-.36-.67-.68-1.37-1-2.06-.42-.94-.85-1.89-1.3-2.83-.58-1.21-1.17-2.45-1.78-3.67h-5.8c0,2.08-.08,4.34-.2,6.47"/>
    <path class="cls-1" d="m57.23,78.72c-.04.54-.08,1.06-.12,1.58h5.03c0-5.91.24-9,.57-13.29h-5.01c0,4.96-.25,8.41-.48,11.71"/>
    <path class="cls-1" d="m68.97,80.3h5.59l6.6-13.29h-4.89c-.54,1.43-1.16,2.83-1.78,4.23-.64,1.48-1.3,2.95-1.85,4.47-.17.45-.35.9-.54,1.35-.13-.43-.25-.86-.35-1.3-.38-1.59-.84-3.19-1.3-4.8-.38-1.31-.77-2.63-1.1-3.95h-4.87c.3.87.64,1.86.99,2.83,1.21,3.48,2.42,6.96,3.51,10.45"/>
    <path class="cls-1" d="m92.55,70.11c.55.02,1.1.03,1.65.06l.17-3.15h-11.5c.02,1.71-.08,4.21-.22,6.67-.15,2.63-.36,5.19-.54,6.62h11.53l.22-3.24c-.84.04-1.62.09-2.55.11-1.06.03-2.29.06-3.97.06h-.3l.02-.3.1-1.48.02-.26h5.53l.18-3.15c-.34,0-.68.02-1.04.04-.7.02-1.39.05-2.06.05h-2.39l.02-.3.1-1.47.02-.26h3.08c.61,0,1.24,0,1.92.02"/>
    <path class="cls-1" d="m101.03,75.43c.06-1.73.14-3.46.25-5.18l.02-.26h1.54c1.18,0,2.46,0,2.46,1.36,0,.62-.28,1.03-.69,1.31-.49.34-1.18.44-1.77.44-.15,0-.31-.01-.47-.02h-.03c.31,1.15.6,2.32.88,3.5.3,1.24.58,2.48.86,3.72h4.96c-.2-.56-.4-1.12-.6-1.69-.46-1.29-.92-2.57-1.32-3.89l-.07-.23.21-.1c.85-.38,1.5-.89,1.93-1.53.41-.63.62-1.38.62-2.28,0-1.67-.81-2.55-1.83-3.01-1.06-.49-2.33-.55-3.17-.55h-7.86c0,2.22-.03,4.44-.13,6.68-.1,2.21-.27,4.41-.53,6.61h4.62c.02-1.62.06-3.25.11-4.88"/>
    <path class="cls-1" d="m120.45,70.07c.42.1.81.22,1.2.36l-.25-3.35c-.59-.12-1.21-.21-1.82-.28-.63-.07-1.26-.1-1.9-.1-1.8,0-3.05.4-3.89,1-1.03.73-1.43,1.76-1.43,2.7,0,1.92,1.62,3.17,2.88,4.13.88.69,1.59,1.24,1.59,1.9,0,.91-1.27.91-1.82.91-.63,0-1.37-.15-2.09-.36-.54-.15-1.08-.33-1.54-.5l.32,3.61c.64.09,1.36.2,2.08.29.8.09,1.61.16,2.32.16,1.91,0,3.21-.43,4.07-1.07,1.07-.8,1.46-1.94,1.46-2.98,0-1.62-1.56-2.81-2.8-3.75-.91-.69-1.66-1.27-1.66-1.89,0-.48.37-.72.8-.83.36-.09.75-.1.97-.1.51,0,1.03.07,1.54.18"/>
    <path class="cls-1" d="m124.22,78.73c-.03.53-.08,1.06-.11,1.57h4.96c0-5.91.24-9,.57-13.29h-4.93c-.01,4.96-.25,8.41-.48,11.72"/>
    <path class="cls-1" d="m139.95,76.42c-.64.61-1.52.82-2.45.82-.13,0-.29,0-.43-.02-.14,0-.27-.02-.42-.05l-.24-.03v-.25s.3-6.44.3-6.44v-.22s.23-.04.23-.04c.18-.03.36-.05.54-.08.18,0,.35-.02.53-.02,1.02,0,1.76.27,2.27.8.5.53.74,1.3.74,2.33,0,1.59-.41,2.59-1.05,3.2m4.38-7.79c-.96-1.05-2.36-1.61-4.11-1.61h-7.91c0,3.68-.1,6.48-.23,8.66-.12,2.04-.26,3.51-.38,4.63h7.54c2.03,0,3.64-.71,4.76-1.92,1.16-1.27,1.8-3.08,1.8-5.23,0-1.96-.52-3.5-1.47-4.53"/>
    <path class="cls-1" d="m153.06,74.14l1.98-4.48,1.33,4.48h-3.31Zm7.56-.29c-.83-2.27-1.63-4.55-2.4-6.84h-5.97c-.83,1.77-2.04,4.15-3.28,6.52-1.36,2.59-2.75,5.14-3.7,6.77h5.16l1.33-3.03.08-.16h5.2l.07.18h0s0,0,0,0c.34,1,.69,1.99.95,3h4.97c-.83-2.13-1.63-4.28-2.41-6.45"/>
    <path class="cls-1" d="m172.66,76.42c-.65.62-1.52.82-2.45.82-.14,0-.29,0-.43-.02-.13,0-.27-.02-.43-.05l-.24-.03v-.25s.3-6.44.3-6.44v-.22s.22-.04.22-.04c.18-.03.36-.05.54-.08.18,0,.35-.02.53-.02,1.02,0,1.77.27,2.27.8.5.53.74,1.3.74,2.33,0,1.59-.41,2.59-1.05,3.2m4.37-7.79c-.95-1.05-2.36-1.61-4.1-1.61h-7.91c0,3.68-.1,6.48-.23,8.66-.13,2.04-.28,3.51-.39,4.63h7.55c2.03,0,3.64-.71,4.76-1.92,1.16-1.27,1.79-3.08,1.79-5.23,0-1.96-.52-3.5-1.47-4.53"/>
  </g>
  <g>
    <g>
      <path class="cls-1" d="m128.8,129.29l.43,1.42h.02l.43-1.42h.53l-.66,1.95h-.63l-.66-1.95h.53Z"/>
      <path class="cls-1" d="m131.48,129.29v1.95h-.47v-1.95h.47Z"/>
      <path class="cls-1" d="m133.64,129.93s-.03-.08-.05-.11c-.02-.03-.05-.06-.08-.08-.03-.02-.07-.04-.1-.05-.04-.01-.08-.02-.13-.02-.09,0-.18.02-.24.07s-.12.11-.16.2-.06.19-.06.32.02.23.05.32.09.16.16.2.15.07.25.07c.09,0,.16-.01.22-.04.06-.03.11-.07.14-.12.03-.05.05-.11.05-.18h.09s-.47.01-.47.01v-.34h.84v.26c0,.17-.04.32-.11.45-.07.12-.17.22-.3.29-.13.07-.28.1-.44.1-.19,0-.35-.04-.49-.12s-.25-.2-.33-.34c-.08-.15-.12-.33-.12-.53,0-.16.02-.3.07-.43.05-.12.11-.23.2-.31.09-.09.18-.15.3-.2s.23-.07.36-.07c.11,0,.22.02.31.05.1.03.18.08.26.14.08.06.14.13.18.21.05.08.08.17.09.27h-.48Z"/>
      <path class="cls-1" d="m135.47,129.29v1.95h-.47v-1.95h.47Z"/>
      <path class="cls-1" d="m136.35,131.24v-1.95h.47v1.56h.81v.38h-1.28Z"/>
      <path class="cls-1" d="m138.91,131.24h-.51l.66-1.95h.63l.66,1.95h-.51l-.46-1.46h-.02l-.46,1.46Zm-.07-.77h1.06v.36h-1.06v-.36Z"/>
      <path class="cls-1" d="m141.86,131.24h-.72v-1.95h.72c.2,0,.37.04.51.12s.25.19.33.33c.08.15.12.32.12.52s-.04.38-.12.52c-.08.15-.19.26-.33.33-.14.08-.31.12-.51.12Zm-.25-.4h.23c.11,0,.2-.02.28-.06.08-.04.13-.1.17-.18s.06-.2.06-.34-.02-.25-.06-.33c-.04-.08-.1-.14-.17-.18-.08-.04-.17-.06-.28-.06h-.22v1.14Z"/>
      <path class="cls-1" d="m143.98,131.24h-.51l.66-1.95h.63l.66,1.95h-.51l-.46-1.46h-.02l-.46,1.46Zm-.07-.77h1.06v.36h-1.06v-.36Z"/>
    </g>
    <g>
      <path class="cls-1" d="m150.31,129.29h.36l.62,1.51h.02l.62-1.51h.36v1.95h-.28v-1.41h-.02l-.57,1.4h-.23l-.57-1.41h-.02v1.41h-.28v-1.95Z"/>
      <path class="cls-1" d="m153.54,129.29v1.95h-.29v-1.95h.29Z"/>
      <path class="cls-1" d="m156.07,129.29v1.95h-.27l-.99-1.43h-.02v1.43h-.29v-1.95h.27l.99,1.43h.02v-1.43h.29Z"/>
      <path class="cls-1" d="m157.03,131.24v-1.95h1.22v.25h-.93v.59h.86v.25h-.86v.6h.94v.25h-1.23Z"/>
      <path class="cls-1" d="m159.81,131.24h-.63v-1.95h.65c.19,0,.35.04.49.12.14.08.24.19.31.33.07.14.11.32.11.52s-.04.38-.11.52c-.07.15-.18.26-.32.34-.14.08-.31.12-.51.12Zm-.34-.26h.32c.15,0,.27-.03.37-.08.1-.06.17-.14.22-.24.05-.11.07-.24.07-.39s-.02-.28-.07-.39c-.05-.11-.12-.19-.22-.24-.1-.06-.21-.08-.36-.08h-.34v1.43Z"/>
      <path class="cls-1" d="m162.89,129.29h.29v1.28c0,.14-.03.26-.1.36-.06.1-.15.19-.27.25-.12.06-.25.09-.41.09s-.29-.03-.41-.09c-.12-.06-.21-.14-.27-.25-.06-.1-.1-.23-.1-.36v-1.28h.29v1.26c0,.09.02.17.06.23.04.07.09.12.17.16.07.04.16.06.25.06s.18-.02.26-.06c.07-.04.13-.09.17-.16.04-.07.06-.15.06-.23v-1.26Z"/>
      <path class="cls-1" d="m165.76,129.93h-.3c-.01-.06-.03-.12-.06-.17-.03-.05-.07-.09-.11-.12-.04-.03-.1-.06-.15-.08-.06-.02-.11-.03-.18-.03-.11,0-.21.03-.3.08-.09.06-.16.14-.21.25-.05.11-.08.24-.08.4s.03.29.08.4.12.19.21.25c.09.06.19.08.3.08.06,0,.12,0,.18-.03.06-.02.11-.04.15-.07.05-.03.08-.07.11-.12s.05-.1.07-.16h.3c-.02.1-.05.18-.09.26s-.1.15-.17.21c-.07.06-.15.1-.24.13-.09.03-.19.05-.3.05-.17,0-.32-.04-.45-.12-.13-.08-.24-.19-.31-.34-.08-.15-.11-.33-.11-.53s.04-.39.11-.54c.08-.15.18-.26.31-.34.13-.08.28-.12.45-.12.1,0,.2.01.29.04.09.03.17.07.24.13.07.06.13.13.18.21.05.08.08.17.09.28Z"/>
      <path class="cls-1" d="m166.8,131.24h-.31l.7-1.95h.34l.7,1.95h-.31l-.55-1.59h-.02l-.55,1.59Zm.05-.76h1.01v.25h-1.01v-.25Z"/>
      <path class="cls-1" d="m170.56,129.93h-.3c-.01-.06-.03-.12-.06-.17-.03-.05-.07-.09-.11-.12-.04-.03-.1-.06-.15-.08-.06-.02-.11-.03-.18-.03-.11,0-.21.03-.3.08-.09.06-.16.14-.21.25-.05.11-.08.24-.08.4s.03.29.08.4.12.19.21.25c.09.06.19.08.3.08.06,0,.12,0,.18-.03.06-.02.11-.04.15-.07.05-.03.08-.07.11-.12s.05-.1.07-.16h.3c-.02.1-.05.18-.09.26s-.1.15-.17.21c-.07.06-.15.1-.24.13-.09.03-.19.05-.3.05-.17,0-.32-.04-.45-.12-.13-.08-.24-.19-.31-.34-.08-.15-.11-.33-.11-.53s.04-.39.11-.54c.08-.15.18-.26.31-.34.13-.08.28-.12.45-.12.1,0,.2.01.29.04.09.03.17.07.24.13.07.06.13.13.18.21.05.08.08.17.09.28Z"/>
      <path class="cls-1" d="m171.74,129.29v1.95h-.29v-1.95h.29Z"/>
      <path class="cls-1" d="m174.39,130.27c0,.21-.04.39-.11.54-.08.15-.18.26-.31.34-.13.08-.28.12-.45.12s-.32-.04-.45-.12c-.13-.08-.24-.19-.31-.34-.08-.15-.11-.33-.11-.53s.04-.39.11-.54c.08-.15.18-.26.31-.34.13-.08.28-.12.45-.12s.32.04.45.12c.13.08.24.19.31.34.08.15.11.33.11.54Zm-.29,0c0-.16-.03-.29-.08-.4-.05-.11-.12-.19-.21-.25-.09-.06-.19-.08-.3-.08s-.21.03-.3.08-.16.14-.21.25c-.05.11-.08.24-.08.4s.03.29.08.4c.05.11.12.19.21.25s.19.08.3.08.21-.03.3-.08c.09-.06.16-.14.21-.25.05-.11.08-.24.08-.4Zm-.7-1.17l.22-.44h.3l-.29.44h-.23Z"/>
      <path class="cls-1" d="m176.86,129.29v1.95h-.27l-.99-1.43h-.02v1.43h-.29v-1.95h.27l.99,1.43h.02v-1.43h.29Z"/>
    </g>
    <polyline class="cls-1" points="147.83 127.09 147.83 133.22 148 133.22 148 127.09"/>
    <polyline class="cls-1" points="127.27 127.18 178.49 127.18 178.49 127.01 127.27 127.01"/>
    <polyline class="cls-1" points="127.27 133.3 178.49 133.3 178.49 133.14 127.27 133.14"/>
  </g>
</svg>