<?xml version="1.0" encoding="UTF-8"?>
<svg id="Capa_1" data-name="Capa 1" xmlns="http://www.w3.org/2000/svg" viewBox="0 0 200 200">
  <defs>
    <style>
      .cls-1 {
        fill: #fff;
      }
    </style>
  </defs>
  <g>
    <path class="cls-1" d="m35.88,67.07c0-.45.3-.75.75-.75h.75c.45,0,.73.3.73.75v7.82c0,1.43.75,2.92,2.7,2.92s2.68-1.49,2.68-2.92v-7.82c0-.45.3-.75.75-.75h.75c.45,0,.75.3.75.75v7.5c0,3.22-1.75,5.15-4.94,5.15s-4.94-1.9-4.94-5.15v-7.5Z"/>
    <path class="cls-1" d="m48.96,67.07c0-.45.3-.75.75-.75h.64c.45,0,.79.25,1.06.7l4.82,8.39c-.09-.89-.13-1.81-.13-2.49v-5.84c0-.45.28-.75.74-.75h.73c.45,0,.73.3.73.75v11.65c0,.45-.28.75-.73.75h-.64c-.45,0-.83-.26-1.07-.7l-4.81-8.37c.08.9.13,1.81.13,2.47v5.84c0,.45-.3.75-.75.75h-.72c-.45,0-.75-.3-.75-.75v-11.65Z"/>
    <path class="cls-1" d="m61.82,67.07c0-.45.3-.75.75-.75h.75c.45,0,.73.3.73.75v11.65c0,.45-.28.75-.73.75h-.75c-.45,0-.75-.3-.75-.75v-11.65Z"/>
    <path class="cls-1" d="m66.83,67.17c-.15-.49.08-.85.57-.85h.77c.45,0,.77.21.89.64l2.3,7.41c.23.72.47,1.77.68,2.71.21-.94.47-2,.68-2.71l2.3-7.37c.11-.41.45-.68.9-.68h.77c.49,0,.72.36.55.89l-3.68,11.46c-.15.51-.55.81-1,.81h-1.06c-.45,0-.83-.3-1-.81l-3.68-11.5Z"/>
    <path class="cls-1" d="m79.41,69.82c0-2.11,1.32-3.51,4-3.51h2.81c.45,0,.75.3.75.75v.4c0,.45-.3.75-.75.75h-2.79c-1.36,0-1.77.62-1.77,1.75v1.81h4c.45,0,.75.3.75.75v.4c0,.45-.3.73-.75.73h-4v2.17c0,1.15.41,1.73,1.77,1.73h2.86c.45,0,.75.3.75.75v.4c0,.45-.3.75-.75.75h-2.88c-2.66,0-4-1.39-4-3.49v-6.16Z"/>
    <path class="cls-1" d="m89.92,67.58c0-.45.32-.85.77-.96.68-.21,2.05-.55,3.39-.55,2.86,0,4.39,2.05,4.39,4.28,0,1.26-.7,3.15-2.68,3.84l2.11,4.41c.21.45-.06.87-.51.87h-.92c-.45,0-.73-.24-.92-.68l-1.98-4.28h-1.41v4.2c0,.45-.28.75-.73.75h-.75c-.45,0-.75-.3-.75-.75v-11.14Zm3.96,5.13c1.49,0,2.24-1.02,2.24-2.36,0-1.26-.57-2.37-2.04-2.37-.64,0-1.28.08-1.92.28v4.45h1.72Z"/>
    <path class="cls-1" d="m100.69,77.85c.11-.49.45-.62.89-.49.49.13,1.49.45,2.64.45,1.51,0,2.15-.77,2.15-1.87,0-2.79-5.69-1.87-5.69-6.26,0-2.28,1.85-3.62,4.37-3.62,1.15,0,2,.26,2.53.43.43.15.66.49.51.96l-.11.38c-.15.41-.51.6-.96.45-.47-.15-1.13-.32-1.96-.32-1.34,0-2.02.66-2.02,1.71,0,2.45,5.69,1.87,5.69,6.26,0,2.28-1.79,3.77-4.5,3.77-1.26,0-2.3-.28-3.05-.51-.47-.13-.68-.43-.57-.92l.09-.43Z"/>
    <path class="cls-1" d="m111.47,67.07c0-.45.3-.75.75-.75h.75c.45,0,.73.3.73.75v11.65c0,.45-.28.75-.73.75h-.75c-.45,0-.75-.3-.75-.75v-11.65Z"/>
    <path class="cls-1" d="m117.22,67.07c0-.45.3-.75.75-.75h4.01c3.34,0,4.9,1.53,4.9,4.82v3.52c0,3.28-1.56,4.81-4.9,4.81h-4.01c-.45,0-.75-.3-.75-.75v-11.65Zm4.71,10.5c2.3,0,2.66-1.21,2.66-3.11v-3.11c0-1.9-.36-3.13-2.66-3.13h-2.47v9.35h2.47Z"/>
    <path class="cls-1" d="m131.71,68.32c.32-1.26,1.23-2.24,2.66-2.24s2.32,1.02,2.64,2.24l2.71,10.35c.11.43-.11.81-.6.81h-.73c-.45,0-.77-.3-.89-.75l-.72-2.79h-4.82l-.7,2.79c-.13.49-.41.75-.87.75h-.77c-.49,0-.72-.4-.6-.83l2.7-10.33Zm4.62,5.75l-1.38-5.47c-.09-.38-.3-.58-.58-.58s-.49.19-.58.58l-1.38,5.47h3.92Z"/>
    <path class="cls-1" d="m142.54,67.07c0-.45.3-.75.75-.75h4.01c3.34,0,4.9,1.53,4.9,4.82v3.52c0,3.28-1.56,4.81-4.9,4.81h-4.01c-.45,0-.75-.3-.75-.75v-11.65Zm4.71,10.5c2.3,0,2.66-1.21,2.66-3.11v-3.11c0-1.9-.36-3.13-2.66-3.13h-2.47v9.35h2.47Z"/>
  </g>
  <g>
    <g>
      <path class="cls-1" d="m103.35,133.93h9.09c1.01,0,1.83-.82,1.83-1.83v-48.22h-9.09c-1.01,0-1.83.82-1.83,1.83v48.22Z"/>
      <path class="cls-1" d="m79.68,119.28v-6.4h16.95v-9.16h-16.95v-5.13c0-4,1.41-5.48,5.2-5.48h14.15v-7.4c0-1.01-.82-1.83-1.83-1.83h-12.46c-5.15,0-9.17,1.28-11.95,3.81-2.64,2.4-4.03,5.9-4.03,10.13v22.25c0,4.19,1.4,7.67,4.06,10.07,2.79,2.52,6.8,3.8,11.92,3.8h12.46c1.01,0,1.83-.82,1.83-1.83v-7.4h-14.15c-3.84,0-5.2-1.42-5.2-5.41Z"/>
      <path class="cls-1" d="m164.05,131.46l-10.96-38.78c-.7-2.45-2.02-4.56-3.84-6.11-2.07-1.77-4.7-2.7-7.62-2.7-5.7,0-10.01,3.29-11.53,8.81l-11.5,41.24h9.75c1.09,0,2.04-.69,2.3-1.68l2.83-10.73h16.32l3.34,12.41h8.87c.66,0,1.27-.28,1.67-.77.4-.49.54-1.11.37-1.7Zm-23.29-37.43c.17-.78.55-.88.87-.88.62,0,.82.62.88.9l4.93,18.54h-11.62l4.94-18.56Z"/>
    </g>
    <g>
      <path class="cls-1" d="m55.05,109.03c.44,5.7-4.28,10.43-9.98,9.98-4.49-.35-8.13-3.98-8.49-8.47-.46-5.72,4.28-10.46,10-10,4.49.36,8.13,4,8.47,8.49Z"/>
      <g>
        <path class="cls-1" d="m38,83.88c-1.54,0-2.5,1.67-1.73,3l3.47,6.02c.48.83,1.48,1.2,2.39.89,2.11-.72,4.41-1.03,6.81-.84,6.64.53,12.24,5,14.46,11.04.09.25.33.42.59.42h.43s0-19.86,0-19.86c0-.37-.3-.67-.67-.67h-25.76Z"/>
        <path class="cls-1" d="m63.82,114.25c-.91,3.3-2.79,6.19-5.32,8.35-.63.54-.77,1.45-.36,2.17l4.78,8.28c.33.58.92.87,1.5.87v-20.15c-.29,0-.53.2-.61.47Z"/>
      </g>
    </g>
  </g>
</svg>