<?xml version="1.0" encoding="UTF-8"?>
<svg id="Capa_1" data-name="Capa 1" xmlns="http://www.w3.org/2000/svg" viewBox="0 0 200 200">
  <defs>
    <style>
      .cls-1, .cls-2 {
        fill: #fff;
      }

      .cls-2 {
        fill-rule: evenodd;
      }
    </style>
  </defs>
  <path class="cls-1" d="m40.64,97.55v-3.26l-4.47.36v17.18h4.47v-9.33c0-1.64.61-3.01,1.68-3.97,1.07-.96,2.61-1.52,4.52-1.52,1.29,0,2.31.43,3.01,1.19.7.76,1.1,1.88,1.1,3.24v10.38h4.47v-11.56c0-1.83-.65-3.35-1.89-4.39-1.26-1.04-3.06-1.57-5.24-1.57-1.64,0-3.23.33-4.61.95-1.23.56-2.27,1.35-3.03,2.3Z"/>
  <path class="cls-2" d="m80.32,111.81v-23.98l-4.47.36v8.78c-1.89-1.72-4.36-2.67-7.01-2.67s-4.95.79-6.56,2.33c-1.64,1.55-2.5,3.77-2.5,6.39s.88,5.04,2.5,6.64c1.6,1.6,3.89,2.5,6.64,2.5,2.95,0,5.6-1.07,7.32-2.98v2.64h4.08v-.02Zm-14.31-13.22c.98-1.13,2.34-1.83,3.94-1.83,1.71,0,3.18.7,4.24,1.83,1.06,1.13,1.71,2.73,1.71,4.61s-.62,3.55-1.66,4.7c-1.04,1.13-2.51,1.8-4.27,1.8-1.63,0-3.01-.67-3.99-1.82-.98-1.15-1.57-2.79-1.57-4.76.02-1.83.64-3.4,1.6-4.53Z"/>
  <path class="cls-2" d="m118.84,94.3c-2.78,0-5.88.37-8.84.99l-.28.06.74,1.91.19-.03c2.72-.36,5.17-.48,7.46-.48,1.82,0,3.04.2,3.8.61.37.2.64.45.79.73.17.29.25.65.25,1.07v1.24s-5.8.34-7.73.48c-2.06.2-3.76.82-4.92,1.82-1.18.99-1.82,2.36-1.82,3.97,0,1.78.71,3.18,2.11,4.13,1.32.9,3.24,1.35,5.52,1.35s4.98-.54,7.18-3.12v2.78h4.1v-12.83c0-.84-.16-1.55-.5-2.14-.34-.61-.87-1.09-1.57-1.44-1.35-.74-3.51-1.09-6.5-1.09Zm4.13,11.5v-3.4s-4.75.31-6.32.43c-1.1.11-1.99.5-2.58,1.1-.59.61-.93,1.43-.93,2.44s.4,1.77,1.18,2.28c.74.48,1.83.74,3.24.74,1.74,0,2.87-.48,3.88-1.18.98-.7,1.52-1.6,1.52-2.42Z"/>
  <path class="cls-1" d="m135.49,94.65h-5.15l8.94,17.18h3.48l9.12-17.18h-2.99l-6.8,12.8-6.59-12.8Z"/>
  <path class="cls-2" d="m163.72,94.3c-3.09,0-5.77.79-7.71,2.31-2.03,1.6-3.1,3.9-3.1,6.61s1.07,5,3.1,6.6c1.96,1.54,4.62,2.34,7.71,2.34s5.74-.81,7.66-2.34c2.02-1.6,3.07-3.9,3.07-6.6s-1.07-5.01-3.07-6.61c-1.94-1.52-4.59-2.31-7.66-2.31Zm-4.39,4.19c1.09-1.16,2.59-1.96,4.36-1.96,3.55,0,6.05,2.75,6.05,6.63.02,1.96-.65,3.58-1.72,4.75-1.07,1.18-2.58,1.99-4.33,1.99s-3.27-.81-4.36-1.99c-1.09-1.18-1.75-2.81-1.75-4.75s.68-3.52,1.75-4.67Z"/>
  <path class="cls-1" d="m183.08,98.39v-4.1l-4.47.36v17.18h4.47v-7.22c0-1.97.59-3.65,1.69-4.83,1.15-1.24,1.94-1.94,3.37-2.37,1.09-.33,1.88-.34,2.79-.34h.84l1.35-2.59-.33-.05c-.53-.08-1.57-.12-2.34-.12-3.01,0-5.79,1.55-7.37,4.08Z"/>
  <path class="cls-2" d="m12.04,101.6c.81-4.28,5.17-7.29,9.79-7.29,6.98,0,9.5,5.03,9.5,7.74,0,.56-.11.99-.42,1.29-.31.29-.74.39-1.27.39h-13.31c.23,1.96,1.12,3.45,2.39,4.45,1.33,1.07,3.12,1.61,5.04,1.61,2.34,0,4.42-.53,6.52-1.4l.22-.09.79,1.91-.22.09c-3.07,1.38-5.83,1.85-8.98,1.85-2.68,0-5.23-.76-7.11-2.28-1.74-1.41-2.89-3.48-3.06-6.16h-5.04l1.13-2.11h4.03Zm4.3,0h8.6c.85,0,1.38-.12,1.69-.31.28-.17.4-.43.4-.78,0-1.83-1.96-4.05-5.18-4.05-1.72,0-3.03.65-3.96,1.66-.84.93-1.37,2.19-1.55,3.48Z"/>
  <path class="cls-2" d="m94.93,94.3c-5.14,0-9.92,3.71-9.92,8.74,0,3.03,1.19,5.32,3.07,6.84,1.88,1.52,4.42,2.28,7.11,2.28,3.15,0,5.91-.48,8.98-1.85l.22-.09-.79-1.91-.22.09c-2.09.87-4.17,1.4-6.52,1.4-1.92,0-3.69-.56-5.04-1.61-1.27-1.01-2.17-2.5-2.39-4.45h13.3c.53,0,.98-.09,1.27-.39.31-.29.42-.73.42-1.29.02-2.73-2.51-7.76-9.5-7.76Zm3.12,7.29h-8.6c.19-1.3.7-2.55,1.57-3.48.92-.99,2.23-1.66,3.96-1.66,3.21,0,5.18,2.22,5.18,4.05,0,.34-.11.61-.4.78-.31.2-.84.33-1.71.31Z"/>
</svg>