<?xml version="1.0" encoding="UTF-8"?>
<svg id="Capa_1" data-name="Capa 1" xmlns="http://www.w3.org/2000/svg" viewBox="0 0 200 200">
  <defs>
    <style>
      .cls-1 {
        fill: #fff;
      }
    </style>
  </defs>
  <path class="cls-1" d="m49.84,94.19c.09-1.08.46-2.18,1.11-3.3.65-1.12,1.61-2.07,2.89-2.84,1.28-.77,2.92-1.15,4.92-1.15s3.6.4,4.8,1.2c1.2.8,2.09,1.77,2.66,2.91.57,1.14.87,2.2.9,3.19h-17.27Zm28.24,5.75c.02-.75.02-1.25.02-1.5,0-4.22-.8-7.79-2.4-10.72-1.6-2.92-3.86-5.15-6.77-6.67-2.91-1.52-6.35-2.29-10.32-2.29-4.22,0-7.83.86-10.83,2.59-3,1.72-5.29,4.07-6.86,7.04-1.57,2.97-2.36,6.3-2.36,10,0,4.25.88,7.91,2.63,10.99,1.75,3.08,4.2,5.43,7.34,7.07,3.14,1.63,6.79,2.45,10.95,2.45,3.29,0,6.98-.27,9.18-.81,1.48-.36,2.77-.82,3.91-1.35v-10.85c-3.99,4.41-11.9,4.51-12.33,4.51h-.02c-.15,0-.31,0-.46,0-.06,0-.11,0-.17,0-.09,0-.18,0-.26-.01-.08,0-.15,0-.22-.01-.06,0-.12,0-.18-.01-.09,0-.18-.01-.28-.02-.03,0-.05,0-.08,0-1.52-.15-2.87-.51-4.05-1.08-.78-.38-1.47-.83-2.06-1.35-.04-.03-.07-.07-.11-.1-.04-.03-.07-.07-.11-.1-1.39-1.34-2.08-2.93-2.41-4.17,0,0,0,0,0,0-.03-.1-.05-.19-.07-.28-.13-.58-.21-1.17-.25-1.8h28.45c.06-.25.1-.75.12-1.5m33.4.14c-1.23-1.52-2.79-2.69-4.66-3.51-1.88-.82-3.79-1.42-5.73-1.82-2.31-.52-4.11-1.14-5.4-1.85-1.29-.71-1.94-1.66-1.94-2.86s.6-2.1,1.8-2.7c1.2-.6,3.61-.9,5.37-.9,1.94,0,3.7.34,5.29,1.02,1.59.68,2.69,1.26,3.3,1.76l.1-.18v-8.67c-1.07-.35-2.29-.67-3.66-.96-1.94-.42-4.05-.62-6.33-.62-2.8,0-6.37.42-8.83,1.27-2.46.85-4.46,2.08-6,3.69-1.54,1.62-2.31,3.63-2.31,6.03,0,1.88.37,3.49,1.11,4.83.74,1.34,1.71,2.46,2.91,3.35,1.2.89,2.49,1.61,3.88,2.15,1.39.54,2.74.95,4.06,1.22,1.45.31,2.71.66,3.79,1.06,1.08.4,1.92.9,2.54,1.5.62.6.92,1.38.92,2.33,0,1.29-.64,2.33-1.92,3.09-1.28.77-3.03,1.15-5.24,1.15s-4.1-.42-5.93-1.27c-1.83-.85-3.62-1.62-4.42-2.33l-.09.18v9.87c1.1.45,2.86.87,4.35,1.24,2.03.51,4.39.76,7.07.76,2.06,0,4.14-.2,6.23-.6,2.09-.4,4.02-1.08,5.77-2.03,1.76-.95,3.16-2.26,4.23-3.9,1.06-1.65,1.59-3.72,1.59-6.21s-.62-4.55-1.85-6.07m17.7-20.21h-11.68v37.92h11.68v-37.92Zm17.8,36.6c3.56,1.62,7.6,2.43,12.1,2.43,2.6,0,4.91-.24,6.93-.72.56-.13,1.08-.27,1.58-.41v-10.74c-.45.34-1.38.85-2.8,1.52-1.42.68-3.25,1.02-5.5,1.02-1.9,0-3.71-.45-5.43-1.34-1.71-.89-3.11-2.15-4.18-3.76-1.07-1.62-1.61-3.5-1.61-5.66s.54-4.03,1.61-5.63c1.07-1.6,2.47-2.85,4.18-3.74,1.71-.89,3.52-1.34,5.43-1.34,1.56,0,2.9.18,4.02.55,1.12.37,2.03.77,2.73,1.2.69.43,1.16.77,1.4,1.02l.15-.2v-10.7c-.54-.16-1.09-.31-1.68-.46-1.99-.49-4.27-.74-6.83-.74-4.5,0-8.53.8-12.1,2.4-3.57,1.6-6.38,3.9-8.44,6.88-2.06,2.99-3.09,6.57-3.09,10.76s1.03,7.74,3.09,10.74c2.06,3,4.87,5.31,8.44,6.93m-106.02-46.32h42.67v-8.37h-51.23v15.44h8.56v-7.06Zm34.11,59.69h-42.67v8.37h51.23v-15.43h-8.56v7.06Z"/>
</svg>