<?xml version="1.0" encoding="UTF-8"?>
<svg id="Capa_1" data-name="Capa 1" xmlns="http://www.w3.org/2000/svg" viewBox="0 0 200 200">
  <defs>
    <style>
      .cls-1 {
        fill: #fff;
      }
    </style>
  </defs>
  <path class="cls-1" d="m12.39,111.75c-.84,0-1.48-.63-1.48-1.48v-.23l3.58-20.49c1.27-7.21,5.23-8.66,11.2-8.66,4.03,0,5.76.28,7.43.56,1.39.23,1.44,1.08,1.33,1.79l-.43,2.5c-.22,1.23-1.09,1.49-1.78,1.49h-7.92c-1.74,0-2.4.38-2.8,2.63l-.56,3.18h9.5c.21,0,.85,0,1.26.49.39.47.28,1.05.24,1.29l-.5,2.79c-.22,1.22-1.09,1.48-1.77,1.48h-9.8l-1.93,11.16c-.15.84-.93,1.49-1.78,1.49h-3.8Z"/>
  <path class="cls-1" d="m34.51,111.75c-.6,0-.96-.26-1.15-.48-.2-.23-.42-.64-.32-1.31l4.93-27.97c.17-.93.82-1.48,1.74-1.48h3.61c.53,0,.93.17,1.21.5.28.33.36.77.25,1.3l-4.92,27.92c-.23,1.26-1.07,1.52-1.74,1.52h-3.61Z"/>
  <path class="cls-1" d="m81.81,119.05c-.51,0-.94-.19-1.21-.53-.19-.24-.4-.66-.26-1.3l4.93-28.13c.23-1.14.88-1.51,1.94-1.78,2.8-.69,6.05-1.1,8.7-1.1,5.66,0,9.04,3.29,9.04,8.79,0,.72-.07,1.57-.22,2.51l-.54,3.19c-1.24,7.43-5.32,11.05-12.5,11.05-.96,0-2.12-.07-3.24-.2l-1.04,5.97c-.07.38-.27,1.51-1.8,1.51h-3.8Zm7.72-13.58c1.03.11,2.26.18,2.95.18,2.56,0,4.03-1.66,4.63-5.21l.54-3.18c.16-.86.23-1.63.23-2.29,0-1.95-.72-2.64-2.76-2.64-1.13,0-2.46.08-3.33.19l-2.26,12.96Z"/>
  <path class="cls-1" d="m114.77,111.77c-4.66,0-7.55-3.12-7.55-8.13,0-.95.1-2.11.3-3.42l.5-2.95c1.17-7.02,5.74-11.04,12.53-11.04,2.66,0,5.76.41,8.31,1.1.58.16,1.77.49,1.51,2.05l-3.59,20.56c-.16.85-.95,1.51-1.81,1.51h-3.3c-.47,0-.89-.18-1.17-.52-.16-.19-.26-.42-.31-.66-1.74,1.03-3.5,1.51-5.42,1.51m4.99-19.44c-2.65,0-4.05,1.56-4.67,5.21l-.62,3.47c-.23,1.33-.23,2.03-.23,2.49,0,1.79.72,2.14,1.98,2.14s2.67-.47,4.41-1.43l2.06-11.74c-.8-.09-1.92-.15-2.92-.15"/>
  <path class="cls-1" d="m139.62,111.77c-.47,0-4.67-.03-7.65-.86-1.19-.37-1.32-1.22-1.21-1.88l.46-2.5c.21-1.18,1.08-1.35,1.58-1.35.1,0,.2,0,.32.02,1.94.25,5.32.45,6.51.45,2.52,0,2.72-.64,2.72-1.48,0-.16,0-.59-1.01-1.31l-4.32-2.96c-2.25-1.54-3.74-3.25-3.74-6.59,0-4.45,3.57-7.1,9.54-7.1,2.62,0,5.21.31,7.51.89.63.17,1.43.55,1.19,1.9l-.41,2.35c-.18,1.29-1.06,1.48-1.56,1.48-.09,0-.2,0-.31-.02-1.05-.15-4.09-.49-6.42-.49s-2.35.54-2.35.86c0,.39,0,.6.88,1.21l4.82,3.3c2.36,1.62,3.41,3.43,3.41,5.88,0,5.04-3.81,8.18-9.95,8.18"/>
  <path class="cls-1" d="m160.61,111.77c-.47,0-4.67-.03-7.65-.86-1.19-.37-1.32-1.22-1.22-1.87l.46-2.5c.21-1.18,1.08-1.35,1.58-1.35.1,0,.2,0,.32.02,1.94.25,5.32.45,6.5.45,2.52,0,2.72-.64,2.72-1.48,0-.16,0-.59-1.01-1.31l-4.32-2.96c-2.25-1.54-3.74-3.25-3.74-6.59,0-4.45,3.57-7.1,9.53-7.1,2.62,0,5.22.31,7.51.89.63.17,1.43.55,1.19,1.9l-.41,2.35c-.18,1.29-1.06,1.48-1.56,1.48-.1,0-.2,0-.31-.02-1.05-.15-4.09-.49-6.42-.49s-2.35.54-2.35.86c0,.39,0,.6.88,1.21l4.83,3.3c2.36,1.62,3.41,3.43,3.41,5.88,0,5.04-3.81,8.18-9.95,8.18"/>
  <g>
    <g>
      <path class="cls-1" d="m59.42,90.54c-.21,0-.43-.02-.64-.06-.21-.04-.42-.11-.62-.19-.2-.08-.39-.18-.57-.3-.18-.12-.35-.26-.5-.41s-.29-.32-.41-.5c-.12-.17-.22-.37-.3-.57s-.14-.41-.19-.62c-.04-.21-.06-.43-.06-.64s.02-.43.06-.65c.04-.21.1-.42.19-.62s.18-.39.3-.57c.12-.18.26-.35.41-.5.15-.15.32-.29.5-.41.18-.12.37-.22.57-.3.2-.08.4-.15.62-.19.42-.09.86-.09,1.29,0,.21.04.41.1.61.19.2.08.39.18.57.3.18.12.35.25.5.41.15.15.29.32.41.5.12.18.22.37.3.57.08.2.14.41.19.62.04.21.06.43.06.65s-.02.43-.06.64c-.04.21-.1.42-.19.62-.08.2-.18.39-.3.57-.12.18-.26.35-.41.5s-.32.29-.5.41c-.18.12-.37.22-.57.3-.2.08-.4.14-.61.19-.21.04-.43.06-.65.06Z"/>
      <path class="cls-1" d="m68.74,90.54c-.21,0-.43-.02-.64-.06-.21-.04-.42-.11-.62-.19-.2-.08-.39-.18-.57-.3-.18-.12-.35-.26-.5-.41-.15-.15-.29-.32-.41-.5-.12-.17-.22-.37-.3-.57-.08-.2-.14-.41-.19-.62-.04-.21-.06-.43-.06-.64s.02-.43.06-.65c.04-.21.11-.42.19-.62.08-.2.18-.39.3-.57.12-.18.26-.35.41-.5.15-.15.32-.29.5-.41.18-.12.37-.22.57-.3.2-.08.4-.15.62-.19,1.07-.22,2.2.13,2.97.9.15.15.29.32.41.5.12.18.22.37.3.57.08.2.15.41.19.62.04.21.06.43.06.65s-.02.43-.06.64c-.04.21-.1.42-.19.62-.08.2-.18.39-.3.57-.12.18-.26.35-.41.5-.61.62-1.46.96-2.33.96Z"/>
    </g>
    <path class="cls-1" d="m54.24,119.5c-1.82,0-3.29-1.47-3.29-3.29s1.47-3.29,3.29-3.29c15.93,0,18.82-10.72,20.42-21.7.13-.9.25-1.75.39-2.49.32-1.79,2.03-2.98,3.82-2.65,1.79.32,2.98,2.03,2.65,3.82-.11.63-.22,1.39-.35,2.27-1.19,8.18-3.97,27.34-26.93,27.34Z"/>
    <path class="cls-1" d="m60.46,109.06c-.3,0-.61-.04-.91-.13-5.37-1.55-9.15-4.35-11.23-8.33-3.09-5.89-1.07-12.08-.98-12.34.58-1.72,2.44-2.65,4.17-2.07,1.72.58,2.65,2.44,2.07,4.17,0,.02-1.2,3.87.6,7.25,1.23,2.3,3.65,3.98,7.21,5.01,1.75.5,2.75,2.33,2.25,4.07-.42,1.44-1.73,2.38-3.16,2.38Z"/>
  </g>
  <path class="cls-1" d="m186.98,98.01c-1.36,1.32-3,1.98-4.91,1.98s-3.64-.68-4.99-2.03c-1.35-1.35-2.03-3.01-2.03-4.99s.73-3.75,2.19-5.11c1.37-1.27,2.98-1.9,4.82-1.9s3.59.69,4.96,2.06c1.37,1.37,2.06,3.02,2.06,4.96s-.7,3.67-2.1,5.03Zm-9.03-9.1c-1.12,1.14-1.67,2.5-1.67,4.06s.57,3,1.7,4.14c1.13,1.14,2.49,1.7,4.09,1.7s2.95-.57,4.08-1.71c1.13-1.15,1.69-2.53,1.69-4.13s-.56-2.92-1.68-4.06c-1.14-1.17-2.5-1.75-4.09-1.75s-2.98.58-4.12,1.75Zm2.62,4.78l-.5,3.15h-1.38l1.24-7.95h2.4c.87.04,1.54.27,2.03.69.49.42.71.99.68,1.71-.02.34-.12.64-.3.91-.18.27-.49.53-.92.79.41.34.62.81.64,1.43,0,.18-.01.46-.05.84-.04.38-.05.65-.04.83l.04.59v.18s-1.39,0-1.39,0c-.04-.23-.05-.46-.04-.68,0-.27.04-.67.11-1.2.04-.39,0-.7-.13-.91-.13-.21-.4-.33-.81-.36l-1.56-.02Zm.2-1.25h1.01c.55,0,.99-.12,1.32-.32.33-.2.53-.48.6-.82.07-.38.01-.66-.16-.85-.18-.18-.54-.29-1.09-.3h-1.32s-.36,2.29-.36,2.29Z"/>
</svg>