<?xml version="1.0" encoding="UTF-8"?>
<svg id="Capa_1" data-name="Capa 1" xmlns="http://www.w3.org/2000/svg" viewBox="0 0 200 200">
  <defs>
    <style>
      .cls-1 {
        fill: #fff;
      }
    </style>
  </defs>
  <g>
    <path class="cls-1" d="m78.11,88.2s.04.04.04.07v.62s-.02.05-.05.05h-.47s-.05-.02-.05-.05v-.31s0-.03-.02-.04c-.14-.09-.34-.14-.55-.14-.44,0-.64.19-.73.47-.04.13-.08.31-.08.81s.03.67.07.8c.1.29.29.46.72.46.29,0,.47-.06.58-.12.04-.03.05-.04.05-.08v-.69s-.01-.03-.03-.03h-.56s-.05-.02-.05-.05v-.42s.02-.05.05-.05h1.14s.05.02.05.05v1.5c0,.06-.01.08-.07.12-.28.2-.68.33-1.17.33-.71,0-1.14-.27-1.32-.83-.07-.22-.09-.43-.09-.99s.03-.76.1-.98c.18-.56.65-.86,1.36-.86.45,0,.86.15,1.09.34Z"/>
    <path class="cls-1" d="m80.95,89.58c.06.18.08.35.08.76,0,.03-.02.05-.06.05h-1.55s-.03.01-.03.03c0,.07.02.14.04.19.08.24.28.38.56.38s.46-.1.59-.24c.03-.03.05-.03.08-.01l.31.27s.03.05,0,.07c-.21.25-.57.43-1.03.43-.53,0-.91-.26-1.05-.7-.05-.16-.09-.35-.09-.61s.03-.46.08-.62c.14-.44.53-.69,1.03-.69s.89.27,1.03.69Zm-1.52.13c-.02.06-.03.12-.03.21,0,.02.01.03.03.03h.98s.03-.01.03-.03c0-.09-.01-.15-.03-.21-.07-.2-.26-.32-.49-.32s-.43.12-.49.32Z"/>
    <path class="cls-1" d="m83.69,89.58c.06.18.08.34.08.62s-.03.44-.08.62c-.14.44-.53.69-1.03.69s-.9-.26-1.04-.69c-.06-.18-.08-.34-.08-.62s.03-.44.08-.62c.14-.44.53-.69,1.04-.69s.89.25,1.03.69Zm-1.51.16c-.04.14-.05.25-.05.46s.01.33.05.46c.07.21.24.33.47.33s.4-.12.47-.33c.04-.13.05-.25.05-.46s-.01-.33-.05-.46c-.07-.21-.23-.33-.47-.33s-.41.12-.47.33Z"/>
    <path class="cls-1" d="m86.01,88.93s.05.02.05.05v.45s-.02.06-.06.05c-.08-.02-.2-.04-.31-.04-.37,0-.56.2-.56.65v.82s.01.03.03.03h.24s.05.02.05.05v.41s-.02.05-.05.05h-1.11s-.05-.02-.05-.05v-.41s.02-.05.05-.05h.22s.03-.01.03-.03v-1.43s-.01-.03-.03-.03h-.22s-.05-.02-.05-.05v-.41s.02-.05.05-.05h.79s.05.02.05.05v.26h0c.1-.17.31-.35.63-.35.11,0,.2.02.25.03Z"/>
    <path class="cls-1" d="m88.03,89.18h0v-.19s.02-.05.05-.05h.79s.05.02.05.05v.41s-.02.05-.05.05h-.22s-.03.01-.03.03v1.81c0,.72-.4,1.15-1.17,1.15-.35,0-.72-.15-.91-.38-.02-.03-.02-.05,0-.07l.31-.31s.05-.03.08,0c.16.15.34.23.55.23.39,0,.56-.21.56-.6v-.23h0c-.11.18-.33.29-.65.29-.42,0-.72-.21-.85-.61-.06-.19-.08-.36-.08-.64s.02-.44.08-.64c.13-.4.43-.61.85-.61.32,0,.54.11.65.3Zm-.94.54c-.04.12-.06.24-.06.41s.02.3.06.41c.07.21.21.32.44.32s.38-.11.45-.32c.04-.11.06-.24.06-.41s-.02-.29-.06-.41c-.07-.2-.21-.32-.45-.32s-.38.11-.44.32Z"/>
    <path class="cls-1" d="m90.18,88.94s.05.02.05.05v1.92s.01.03.03.03h.22s.05.02.05.05v.41s-.02.05-.05.05h-1.09s-.05-.02-.05-.05v-.41s.02-.05.05-.05h.22s.03-.01.03-.03v-1.43s-.01-.03-.03-.03h-.22s-.05-.02-.05-.05v-.41s.02-.05.05-.05h.79Zm0-1.03s.05.02.05.05v.45s-.02.05-.05.05h-.48s-.05-.02-.05-.05v-.45s.02-.05.05-.05h.48Z"/>
    <path class="cls-1" d="m93.05,89.76v1.15s.01.03.03.03h.22s.05.02.05.05v.41s-.02.05-.05.05h-.74s-.05-.02-.05-.05v-.18h0c-.12.17-.35.29-.7.29-.45,0-.84-.24-.84-.77s.39-.8,1-.8h.5s.03-.01.03-.03v-.1c0-.29-.11-.44-.52-.44-.09,0-.2.02-.27.03-.02,0-.03.02-.03.04v.22s-.02.05-.05.05h-.45s-.05-.02-.05-.05v-.53s.01-.05.04-.07c.22-.1.52-.18.84-.18.77,0,1.04.26,1.04.87Zm-.99.61c-.37,0-.54.11-.54.34,0,.21.15.32.43.32.35,0,.55-.14.55-.43v-.2s-.01-.03-.03-.03h-.41Z"/>
    <path class="cls-1" d="m97.71,87.91s.05.02.05.05v.83s-.02.05-.05.05h-.45s-.05-.02-.05-.05v-.31s-.01-.03-.03-.03h-.53s-.03.01-.03.03v2.43s.01.03.03.03h.27s.05.02.05.05v.41s-.02.05-.05.05h-1.22s-.05-.02-.05-.05v-.41s.02-.05.05-.05h.27s.03-.01.03-.03v-2.43s-.01-.03-.03-.03h-.53s-.03.01-.03.03v.31s-.02.05-.05.05h-.45s-.05-.02-.05-.05v-.83s.02-.05.05-.05h2.8Z"/>
    <path class="cls-1" d="m99.78,89.58c.06.18.08.35.08.76,0,.03-.02.05-.06.05h-1.55s-.03.01-.03.03c0,.07.02.14.04.19.08.24.28.38.56.38s.46-.1.59-.24c.03-.03.05-.03.08-.01l.31.27s.03.05,0,.07c-.21.25-.57.43-1.03.43-.53,0-.91-.26-1.05-.7-.05-.16-.09-.35-.09-.61s.03-.46.08-.62c.14-.44.53-.69,1.03-.69s.89.27,1.03.69Zm-1.52.13c-.02.06-.03.12-.03.21,0,.02.01.03.03.03h.98s.03-.01.03-.03c0-.09-.01-.15-.03-.21-.07-.2-.26-.32-.49-.32s-.43.12-.49.32Z"/>
    <path class="cls-1" d="m102.38,89.08s.04.04.04.07v.57s-.02.05-.05.05h-.44s-.05-.02-.05-.05v-.23s0-.03-.03-.04c-.05-.03-.19-.05-.32-.05-.27,0-.44.11-.52.33-.04.12-.05.27-.05.46s.01.34.05.47c.07.21.25.32.52.32.16,0,.27-.02.32-.05.02-.01.03-.02.03-.04v-.23s.02-.05.05-.05h.44s.05.02.05.05v.58s-.01.05-.04.07c-.23.12-.52.19-.87.19-.55,0-.92-.23-1.07-.68-.05-.16-.08-.37-.08-.64s.03-.46.08-.62c.15-.45.54-.69,1.07-.69.34,0,.66.08.87.2Z"/>
    <path class="cls-1" d="m103.77,87.91s.05.02.05.05v1.21h0c.11-.16.32-.29.65-.29.53,0,.86.4.86.93v1.09s.01.03.03.03h.21s.05.02.05.05v.41s-.02.05-.05.05h-1.08s-.05-.02-.05-.05v-.41s.02-.05.05-.05h.22s.03-.01.03-.03v-.96c0-.32-.16-.55-.47-.55s-.47.22-.47.55v.96s.01.03.03.03h.22s.05.02.05.05v.41s-.02.05-.05.05h-1.09s-.05-.02-.05-.05v-.41s.02-.05.05-.05h.22s.03-.01.03-.03v-2.46s-.01-.03-.03-.03h-.22s-.05-.02-.05-.05v-.41s.02-.05.05-.05h.79Z"/>
    <path class="cls-1" d="m109.87,87.91s.05.02.05.05v.81s-.02.05-.05.05h-.45s-.05-.02-.05-.05v-.29s-.01-.03-.03-.03h-1.06s-.03.01-.03.03v.88s.01.03.03.03h.71s.03-.01.03-.03v-.19s.02-.05.05-.05h.43s.05.02.05.05v.98s-.02.05-.05.05h-.43s-.05-.02-.05-.05v-.19s-.01-.03-.03-.03h-.71s-.03.01-.03.03v.92s.01.03.03.03h1.06s.03-.01.03-.03v-.31s.02-.05.05-.05h.45s.05.02.05.05v.83s-.02.05-.05.05h-2.52s-.05-.02-.05-.05v-.41s.02-.05.05-.05h.25s.03-.01.03-.03v-2.46s-.01-.03-.03-.03h-.25s-.05-.02-.05-.05v-.41s.02-.05.05-.05h2.52Z"/>
    <path class="cls-1" d="m112.83,89.82v1.09s.01.03.03.03h.21s.05.02.05.05v.41s-.02.05-.05.05h-1.08s-.05-.02-.05-.05v-.41s.02-.05.05-.05h.22s.03-.01.03-.03v-.96c0-.32-.16-.55-.47-.55s-.47.22-.47.55v.96s.01.03.03.03h.22s.05.02.05.05v.41s-.02.05-.05.05h-1.09s-.05-.02-.05-.05v-.41s.02-.05.05-.05h.22s.03-.01.03-.03v-1.43s-.01-.03-.03-.03h-.22s-.05-.02-.05-.05v-.41s.02-.05.05-.05h.79s.05.02.05.05v.18h0c.11-.16.32-.29.65-.29.54,0,.87.4.87.93Z"/>
    <path class="cls-1" d="m114.28,88.17s.05.02.05.05v.69s.01.03.03.03h.33s.05.02.05.05v.41s-.02.05-.05.05h-.33s-.03.01-.03.03v1.22c0,.18.07.23.23.23h.13s.05.02.05.05v.42s-.02.05-.05.05h-.25c-.51,0-.7-.24-.7-.73v-1.25s-.01-.03-.03-.03h-.17s-.05-.02-.05-.05v-.41s.02-.05.05-.05h.17s.03-.01.03-.03v-.69s.02-.05.05-.05h.48Z"/>
    <path class="cls-1" d="m117.42,89.58c.06.18.08.35.08.76,0,.03-.02.05-.06.05h-1.55s-.03.01-.03.03c0,.07.02.14.04.19.08.24.28.38.56.38s.46-.1.59-.24c.03-.03.05-.03.08-.01l.31.27s.03.05,0,.07c-.21.25-.57.43-1.03.43-.53,0-.91-.26-1.05-.7-.05-.16-.09-.35-.09-.61s.03-.46.08-.62c.14-.44.53-.69,1.03-.69s.89.27,1.03.69Zm-1.52.13c-.02.06-.03.12-.03.21,0,.02.01.03.03.03h.98s.03-.01.03-.03c0-.09-.01-.15-.03-.21-.07-.2-.26-.32-.49-.32s-.43.12-.49.32Z"/>
    <path class="cls-1" d="m119.74,88.93s.05.02.05.05v.45s-.02.06-.06.05c-.08-.02-.2-.04-.31-.04-.37,0-.56.2-.56.65v.82s.01.03.03.03h.24s.05.02.05.05v.41s-.02.05-.05.05h-1.11s-.05-.02-.05-.05v-.41s.02-.05.05-.05h.22s.03-.01.03-.03v-1.43s-.01-.03-.03-.03h-.22s-.05-.02-.05-.05v-.41s.02-.05.05-.05h.79s.05.02.05.05v.26h0c.1-.17.31-.35.63-.35.11,0,.2.02.25.03Z"/>
    <path class="cls-1" d="m122.6,89.49c.06.19.09.37.09.71s-.03.52-.09.71c-.13.4-.44.6-.87.6-.34,0-.55-.12-.67-.3h0v.64s.01.03.03.03h.22s.05.02.05.05v.41s-.02.05-.05.05h-1.09s-.05-.02-.05-.05v-.41s.02-.05.05-.05h.22s.03-.01.03-.03v-2.36s-.01-.03-.03-.03h-.22s-.05-.02-.05-.05v-.41s.02-.05.05-.05h.79s.05.02.05.05v.19h0c.12-.17.33-.3.67-.3.43,0,.74.2.87.6Zm-1.49.24c-.04.11-.05.24-.05.47s.02.35.05.47c.07.21.23.32.47.32s.4-.11.46-.32c.04-.11.05-.24.05-.47s-.02-.35-.05-.47c-.07-.21-.23-.32-.46-.32s-.4.11-.47.32Z"/>
    <path class="cls-1" d="m124.93,88.93s.05.02.05.05v.45s-.02.06-.06.05c-.08-.02-.2-.04-.31-.04-.37,0-.56.2-.56.65v.82s.01.03.03.03h.24s.05.02.05.05v.41s-.02.05-.05.05h-1.11s-.05-.02-.05-.05v-.41s.02-.05.05-.05h.22s.03-.01.03-.03v-1.43s-.01-.03-.03-.03h-.22s-.05-.02-.05-.05v-.41s.02-.05.05-.05h.79s.05.02.05.05v.26h0c.1-.17.31-.35.63-.35.11,0,.2.02.25.03Z"/>
    <path class="cls-1" d="m126.2,88.94s.05.02.05.05v1.92s.01.03.03.03h.22s.05.02.05.05v.41s-.02.05-.05.05h-1.09s-.05-.02-.05-.05v-.41s.02-.05.05-.05h.22s.03-.01.03-.03v-1.43s-.01-.03-.03-.03h-.22s-.05-.02-.05-.05v-.41s.02-.05.05-.05h.79Zm0-1.03s.05.02.05.05v.45s-.02.05-.05.05h-.48s-.05-.02-.05-.05v-.45s.02-.05.05-.05h.48Z"/>
    <path class="cls-1" d="m128.87,89.06s.04.04.04.07v.52s-.02.05-.05.05h-.42s-.05-.02-.05-.05v-.19s0-.03-.03-.04c-.07-.03-.22-.06-.38-.06-.29,0-.42.1-.42.26,0,.15.08.24.42.28l.28.03c.58.07.8.33.8.76,0,.51-.37.83-1.08.83-.38,0-.69-.08-.94-.2-.02-.01-.04-.03-.04-.06v-.56s.02-.05.05-.05h.44s.05.02.05.05v.23s.01.03.03.04c.15.06.3.07.44.07.32,0,.47-.1.47-.29,0-.17-.09-.26-.43-.29l-.28-.03c-.55-.06-.78-.32-.78-.74,0-.47.34-.78.99-.78.35,0,.65.07.88.18Z"/>
    <path class="cls-1" d="m131.68,89.58c.06.18.08.35.08.76,0,.03-.02.05-.06.05h-1.55s-.03.01-.03.03c0,.07.02.14.04.19.08.24.28.38.56.38s.46-.1.59-.24c.03-.03.05-.03.08-.01l.31.27s.03.05,0,.07c-.21.25-.57.43-1.03.43-.53,0-.91-.26-1.05-.7-.05-.16-.09-.35-.09-.61s.03-.46.08-.62c.14-.44.53-.69,1.03-.69s.89.27,1.03.69Zm-1.52.13c-.02.06-.03.12-.03.21,0,.02.01.03.03.03h.98s.03-.01.03-.03c0-.09-.01-.15-.03-.21-.07-.2-.26-.32-.49-.32s-.43.12-.49.32Z"/>
    <path class="cls-1" d="m134.74,87.91s.05.02.05.05v.41s-.02.05-.05.05h-.25s-.03.01-.03.03v2.46s.01.03.03.03h.25s.05.02.05.05v.41s-.02.05-.05.05h-1.18s-.05-.02-.05-.05v-.41s.02-.05.05-.05h.25s.03-.01.03-.03v-2.46s-.01-.03-.03-.03h-.25s-.05-.02-.05-.05v-.41s.02-.05.05-.05h1.18Z"/>
    <path class="cls-1" d="m137.62,89.82v1.09s.01.03.03.03h.21s.05.02.05.05v.41s-.02.05-.05.05h-1.08s-.05-.02-.05-.05v-.41s.02-.05.05-.05h.22s.03-.01.03-.03v-.96c0-.32-.16-.55-.47-.55s-.47.22-.47.55v.96s.01.03.03.03h.22s.05.02.05.05v.41s-.02.05-.05.05h-1.09s-.05-.02-.05-.05v-.41s.02-.05.05-.05h.22s.03-.01.03-.03v-1.43s-.01-.03-.03-.03h-.22s-.05-.02-.05-.05v-.41s.02-.05.05-.05h.79s.05.02.05.05v.18h0c.11-.16.32-.29.65-.29.54,0,.87.4.87.93Z"/>
    <path class="cls-1" d="m140.71,89.82v1.09s.01.03.03.03h.21s.05.02.05.05v.41s-.02.05-.05.05h-1.08s-.05-.02-.05-.05v-.41s.02-.05.05-.05h.22s.03-.01.03-.03v-.96c0-.32-.16-.55-.47-.55s-.47.22-.47.55v.96s.01.03.03.03h.22s.05.02.05.05v.41s-.02.05-.05.05h-1.09s-.05-.02-.05-.05v-.41s.02-.05.05-.05h.22s.03-.01.03-.03v-1.43s-.01-.03-.03-.03h-.22s-.05-.02-.05-.05v-.41s.02-.05.05-.05h.79s.05.02.05.05v.18h0c.11-.16.32-.29.65-.29.54,0,.87.4.87.93Z"/>
    <path class="cls-1" d="m143.6,89.58c.06.18.08.34.08.62s-.03.44-.08.62c-.14.44-.53.69-1.03.69s-.9-.26-1.04-.69c-.06-.18-.08-.34-.08-.62s.03-.44.08-.62c.14-.44.53-.69,1.04-.69s.89.25,1.03.69Zm-1.51.16c-.04.14-.05.25-.05.46s.01.33.05.46c.07.21.24.33.47.33s.4-.12.47-.33c.04-.13.05-.25.05-.46s-.01-.33-.05-.46c-.07-.21-.23-.33-.47-.33s-.41.12-.47.33Z"/>
    <path class="cls-1" d="m146.51,88.94s.05.02.05.05v.41s-.02.05-.05.05h-.14s-.03,0-.04.03l-.72,1.92s-.03.05-.07.05h-.49s-.06-.02-.07-.05l-.72-1.92s-.02-.03-.04-.03h-.14s-.05-.02-.05-.05v-.41s.02-.05.05-.05h.98s.05.02.05.05v.41s-.02.05-.05.05h-.17s-.03.02-.03.04l.43,1.25h.01l.43-1.24s0-.04-.03-.04h-.17s-.05-.02-.05-.05v-.41s.02-.05.05-.05h.95Z"/>
    <path class="cls-1" d="m148.99,89.76v1.15s.01.03.03.03h.22s.05.02.05.05v.41s-.02.05-.05.05h-.74s-.05-.02-.05-.05v-.18h0c-.12.17-.35.29-.7.29-.45,0-.84-.24-.84-.77s.39-.8,1-.8h.5s.03-.01.03-.03v-.1c0-.29-.11-.44-.52-.44-.09,0-.2.02-.27.03-.02,0-.03.02-.03.04v.22s-.02.05-.05.05h-.45s-.05-.02-.05-.05v-.53s.01-.05.04-.07c.22-.1.52-.18.84-.18.77,0,1.04.26,1.04.87Zm-.99.61c-.37,0-.54.11-.54.34,0,.21.15.32.43.32.35,0,.55-.14.55-.43v-.2s-.01-.03-.03-.03h-.41Z"/>
    <path class="cls-1" d="m150.45,88.17s.05.02.05.05v.69s.01.03.03.03h.33s.05.02.05.05v.41s-.02.05-.05.05h-.33s-.03.01-.03.03v1.22c0,.18.07.23.23.23h.13s.05.02.05.05v.42s-.02.05-.05.05h-.25c-.51,0-.7-.24-.7-.73v-1.25s-.01-.03-.03-.03h-.17s-.05-.02-.05-.05v-.41s.02-.05.05-.05h.17s.03-.01.03-.03v-.69s.02-.05.05-.05h.48Z"/>
    <path class="cls-1" d="m152.25,88.94s.05.02.05.05v1.92s.01.03.03.03h.22s.05.02.05.05v.41s-.02.05-.05.05h-1.09s-.05-.02-.05-.05v-.41s.02-.05.05-.05h.22s.03-.01.03-.03v-1.43s-.01-.03-.03-.03h-.22s-.05-.02-.05-.05v-.41s.02-.05.05-.05h.79Zm0-1.03s.05.02.05.05v.45s-.02.05-.05.05h-.48s-.05-.02-.05-.05v-.45s.02-.05.05-.05h.48Z"/>
    <path class="cls-1" d="m155.2,89.58c.06.18.08.34.08.62s-.03.44-.08.62c-.14.44-.53.69-1.03.69s-.9-.26-1.04-.69c-.06-.18-.08-.34-.08-.62s.03-.44.08-.62c.14-.44.53-.69,1.04-.69s.89.25,1.03.69Zm-1.51.16c-.04.14-.05.25-.05.46s.01.33.05.46c.07.21.24.33.47.33s.4-.12.47-.33c.04-.13.05-.25.05-.46s-.01-.33-.05-.46c-.07-.21-.23-.33-.47-.33s-.41.12-.47.33Z"/>
    <path class="cls-1" d="m158.16,89.82v1.09s.01.03.03.03h.21s.05.02.05.05v.41s-.02.05-.05.05h-1.08s-.05-.02-.05-.05v-.41s.02-.05.05-.05h.22s.03-.01.03-.03v-.96c0-.32-.16-.55-.47-.55s-.47.22-.47.55v.96s.01.03.03.03h.22s.05.02.05.05v.41s-.02.05-.05.05h-1.09s-.05-.02-.05-.05v-.41s.02-.05.05-.05h.22s.03-.01.03-.03v-1.43s-.01-.03-.03-.03h-.22s-.05-.02-.05-.05v-.41s.02-.05.05-.05h.79s.05.02.05.05v.18h0c.11-.16.32-.29.65-.29.54,0,.87.4.87.93Z"/>
    <path class="cls-1" d="m161.36,87.91s.05.02.05.05v.41s-.02.05-.05.05h-.25s-.03.01-.03.03v2.46s.01.03.03.03h.25s.05.02.05.05v.41s-.02.05-.05.05h-1.18s-.05-.02-.05-.05v-.41s.02-.05.05-.05h.25s.03-.01.03-.03v-2.46s-.01-.03-.03-.03h-.25s-.05-.02-.05-.05v-.41s.02-.05.05-.05h1.18Z"/>
    <path class="cls-1" d="m164.24,89.82v1.09s.01.03.03.03h.21s.05.02.05.05v.41s-.02.05-.05.05h-1.08s-.05-.02-.05-.05v-.41s.02-.05.05-.05h.22s.03-.01.03-.03v-.96c0-.32-.16-.55-.47-.55s-.47.22-.47.55v.96s.01.03.03.03h.22s.05.02.05.05v.41s-.02.05-.05.05h-1.09s-.05-.02-.05-.05v-.41s.02-.05.05-.05h.22s.03-.01.03-.03v-1.43s-.01-.03-.03-.03h-.22s-.05-.02-.05-.05v-.41s.02-.05.05-.05h.79s.05.02.05.05v.18h0c.11-.16.32-.29.65-.29.54,0,.87.4.87.93Z"/>
    <path class="cls-1" d="m166.83,89.06s.04.04.04.07v.52s-.02.05-.05.05h-.42s-.05-.02-.05-.05v-.19s0-.03-.03-.04c-.07-.03-.22-.06-.38-.06-.29,0-.42.1-.42.26,0,.15.08.24.42.28l.28.03c.58.07.8.33.8.76,0,.51-.37.83-1.08.83-.38,0-.69-.08-.94-.2-.02-.01-.04-.03-.04-.06v-.56s.02-.05.05-.05h.44s.05.02.05.05v.23s.01.03.03.04c.15.06.3.07.44.07.32,0,.47-.1.47-.29,0-.17-.09-.26-.43-.29l-.28-.03c-.55-.06-.78-.32-.78-.74,0-.47.34-.78.99-.78.35,0,.65.07.88.18Z"/>
    <path class="cls-1" d="m168.23,88.17s.05.02.05.05v.69s.01.03.03.03h.33s.05.02.05.05v.41s-.02.05-.05.05h-.33s-.03.01-.03.03v1.22c0,.18.07.23.23.23h.13s.05.02.05.05v.42s-.02.05-.05.05h-.25c-.51,0-.7-.24-.7-.73v-1.25s-.01-.03-.03-.03h-.17s-.05-.02-.05-.05v-.41s.02-.05.05-.05h.17s.03-.01.03-.03v-.69s.02-.05.05-.05h.48Z"/>
    <path class="cls-1" d="m170.02,88.94s.05.02.05.05v1.92s.01.03.03.03h.22s.05.02.05.05v.41s-.02.05-.05.05h-1.09s-.05-.02-.05-.05v-.41s.02-.05.05-.05h.22s.03-.01.03-.03v-1.43s-.01-.03-.03-.03h-.22s-.05-.02-.05-.05v-.41s.02-.05.05-.05h.79Zm0-1.03s.05.02.05.05v.45s-.02.05-.05.05h-.48s-.05-.02-.05-.05v-.45s.02-.05.05-.05h.48Z"/>
    <path class="cls-1" d="m171.54,88.17s.05.02.05.05v.69s.01.03.03.03h.33s.05.02.05.05v.41s-.02.05-.05.05h-.33s-.03.01-.03.03v1.22c0,.18.07.23.23.23h.13s.05.02.05.05v.42s-.02.05-.05.05h-.25c-.51,0-.7-.24-.7-.73v-1.25s-.01-.03-.03-.03h-.17s-.05-.02-.05-.05v-.41s.02-.05.05-.05h.17s.03-.01.03-.03v-.69s.02-.05.05-.05h.48Z"/>
    <path class="cls-1" d="m174.78,88.94s.05.02.05.05v1.92s.01.03.03.03h.22s.05.02.05.05v.41s-.02.05-.05.05h-.79s-.05-.02-.05-.05v-.18h0c-.14.17-.33.29-.65.29-.54,0-.86-.4-.86-.93v-1.09s-.01-.03-.03-.03h-.22s-.05-.02-.05-.05v-.41s.02-.05.05-.05h.79s.05.02.05.05v1.45c0,.32.15.55.46.55.3,0,.46-.22.46-.54v-.96s-.01-.03-.03-.03h-.23s-.05-.02-.05-.05v-.41s.02-.05.05-.05h.79Z"/>
    <path class="cls-1" d="m176.32,88.17s.05.02.05.05v.69s.01.03.03.03h.33s.05.02.05.05v.41s-.02.05-.05.05h-.33s-.03.01-.03.03v1.22c0,.18.07.23.23.23h.13s.05.02.05.05v.42s-.02.05-.05.05h-.25c-.51,0-.7-.24-.7-.73v-1.25s-.01-.03-.03-.03h-.17s-.05-.02-.05-.05v-.41s.02-.05.05-.05h.17s.03-.01.03-.03v-.69s.02-.05.05-.05h.48Z"/>
    <path class="cls-1" d="m179.46,89.58c.06.18.08.35.08.76,0,.03-.02.05-.06.05h-1.55s-.03.01-.03.03c0,.07.02.14.04.19.08.24.28.38.56.38s.46-.1.59-.24c.03-.03.05-.03.08-.01l.31.27s.03.05,0,.07c-.21.25-.57.43-1.03.43-.53,0-.91-.26-1.05-.7-.05-.16-.09-.35-.09-.61s.03-.46.08-.62c.14-.44.53-.69,1.03-.69s.89.27,1.03.69Zm-1.52.13c-.02.06-.03.12-.03.21,0,.02.01.03.03.03h.98s.03-.01.03-.03c0-.09-.01-.15-.03-.21-.07-.2-.26-.32-.49-.32s-.43.12-.49.32Z"/>
    <path class="cls-1" d="m79.29,98.85l2.07-4.16h1.16v7.18h-1.17v-4.81l-1.65,3.43h-.85l-1.61-3.39v4.78h-1.17v-7.18h1.15l2.07,4.16Z"/>
    <path class="cls-1" d="m88.02,101.08c-.36.64-.95.88-1.86.88-1.49,0-2.28-.97-2.28-2.35v-.71c0-1.53.75-2.33,2.11-2.33s2.1.85,2.1,2.39v.57h-3.11v.02c0,.81.31,1.45,1.13,1.45.61,0,.86-.19,1.07-.51l.83.58Zm-3.03-2.4h1.99c-.04-.76-.35-1.15-.99-1.15s-.95.44-1,1.15Z"/>
    <path class="cls-1" d="m92.45,94.68h1.1v7.18h-1.1v-.36c-.28.29-.68.46-1.25.46-1.38,0-2.07-.99-2.07-2.35v-.71c0-1.5.81-2.33,2.07-2.33.54,0,.96.16,1.25.46v-2.34Zm0,4.87v-.67c0-.85-.39-1.35-1.1-1.35s-1.11.51-1.11,1.42v.6c0,.81.31,1.45,1.11,1.45s1.1-.64,1.1-1.45Z"/>
    <path class="cls-1" d="m98.87,101.08c-.36.64-.95.88-1.86.88-1.49,0-2.28-.97-2.28-2.35v-.71c0-1.53.75-2.33,2.11-2.33s2.1.85,2.1,2.39v.57h-3.11v.02c0,.81.31,1.45,1.13,1.45.61,0,.86-.19,1.07-.51l.83.58Zm-3.03-2.4h1.99c-.04-.76-.35-1.15-.99-1.15s-.95.44-1,1.15Z"/>
    <path class="cls-1" d="m100.2,94.68h1.11v5.29c0,.56.1.92.79.92v.98c-1.35,0-1.91-.44-1.91-1.63v-5.55Z"/>
    <path class="cls-1" d="m103.32,94.68h1.11v5.29c0,.56.1.92.79.92v.98c-1.35,0-1.91-.44-1.91-1.63v-5.55Z"/>
    <path class="cls-1" d="m107.29,94.32h1.27l-.95,1.65h-1.05l.73-1.65Zm-.69,2.34h1.11v5.21h-1.11v-5.21Z"/>
    <path class="cls-1" d="m109.25,96.66h1.09v.47c.23-.31.6-.56,1.29-.56,1.07,0,1.9.54,1.9,2.04v3.26h-1.1v-3.13c0-.92-.42-1.18-.99-1.18-.69,0-1.07.47-1.07,1.17v3.14h-1.11v-5.21Z"/>
    <path class="cls-1" d="m119.21,101.87h-1.21v-7.18h1.21v7.18Z"/>
    <path class="cls-1" d="m120.88,96.66h1.09v.47c.23-.31.6-.56,1.29-.56,1.07,0,1.9.54,1.9,2.04v3.26h-1.1v-3.13c0-.92-.42-1.18-.99-1.18-.69,0-1.07.47-1.07,1.17v3.14h-1.11v-5.21Z"/>
    <path class="cls-1" d="m126.54,96.66h1.09v.47c.23-.31.6-.56,1.29-.56,1.07,0,1.9.54,1.9,2.04v3.26h-1.1v-3.13c0-.92-.42-1.18-.99-1.18-.69,0-1.07.47-1.07,1.17v3.14h-1.11v-5.21Z"/>
    <path class="cls-1" d="m136.41,99.59c0,1.38-.68,2.37-2.21,2.37s-2.22-.94-2.22-2.37v-.66c0-1.53.81-2.36,2.22-2.36s2.21.83,2.21,2.36v.66Zm-1.1-.03v-.6c0-.91-.36-1.42-1.1-1.42s-1.11.52-1.11,1.42v.6c0,.81.27,1.45,1.11,1.45.79,0,1.1-.64,1.1-1.45Z"/>
    <path class="cls-1" d="m142.1,96.66l-2.03,5.21h-1.06l-2.07-5.21h1.23l1.35,3.72,1.34-3.72h1.24Z"/>
    <path class="cls-1" d="m144.58,98.8h1.12v-.44c0-.66-.25-.83-1.03-.83-.56,0-.84.06-1.09.47l-.8-.56c.37-.61.94-.86,1.97-.86,1.33,0,2.05.42,2.05,1.8v3.5h-1.09v-.48c-.25.41-.57.57-1.21.57-1.15,0-1.85-.58-1.85-1.62,0-1.11.82-1.54,1.94-1.54Zm1.12.85h-1.04c-.66,0-.93.23-.93.69s.35.68.88.68c.68,0,1.08-.21,1.08-1.11v-.25Z"/>
    <path class="cls-1" d="m147.75,96.66h.67v-1.15h1.1v1.15h1.1v.96h-1.1v2.38c0,.6.09.86.68.86h.43v1h-.51c-1.25,0-1.7-.43-1.7-1.66v-2.59h-.67v-.96Z"/>
    <path class="cls-1" d="m151.83,94.68h1.22v1.14h-1.22v-1.14Zm.05,1.98h1.11v5.21h-1.11v-5.21Z"/>
    <path class="cls-1" d="m158.74,99.59c0,1.38-.68,2.37-2.21,2.37s-2.22-.94-2.22-2.37v-.66c0-1.53.81-2.36,2.22-2.36s2.21.83,2.21,2.36v.66Zm-1.1-.03v-.6c0-.91-.36-1.42-1.1-1.42s-1.11.52-1.11,1.42v.6c0,.81.27,1.45,1.11,1.45.79,0,1.1-.64,1.1-1.45Z"/>
    <path class="cls-1" d="m159.89,96.66h1.09v.47c.23-.31.6-.56,1.29-.56,1.07,0,1.9.54,1.9,2.04v3.26h-1.1v-3.13c0-.92-.42-1.18-.99-1.18-.69,0-1.07.47-1.07,1.17v3.14h-1.11v-5.21Z"/>
    <path class="cls-1" d="m170.02,98.8h1.12v-.44c0-.66-.25-.83-1.03-.83-.56,0-.84.06-1.09.47l-.8-.56c.37-.61.94-.86,1.97-.86,1.33,0,2.05.42,2.05,1.8v3.5h-1.09v-.48c-.25.41-.57.57-1.21.57-1.15,0-1.85-.58-1.85-1.62,0-1.11.82-1.54,1.94-1.54Zm1.12.85h-1.04c-.66,0-.93.23-.93.69s.35.68.88.68c.68,0,1.08-.21,1.08-1.11v-.25Z"/>
    <path class="cls-1" d="m173.62,96.66h1.09v.47c.23-.31.6-.56,1.29-.56,1.07,0,1.9.54,1.9,2.04v3.26h-1.1v-3.13c0-.92-.42-1.18-.99-1.18-.69,0-1.07.47-1.07,1.17v3.14h-1.11v-5.21Z"/>
    <path class="cls-1" d="m182.38,94.68h1.1v7.18h-1.1v-.36c-.28.29-.68.46-1.25.46-1.38,0-2.07-.99-2.07-2.35v-.71c0-1.5.81-2.33,2.07-2.33.54,0,.96.16,1.25.46v-2.34Zm0,4.87v-.67c0-.85-.39-1.35-1.1-1.35s-1.11.51-1.11,1.42v.6c0,.81.31,1.45,1.11,1.45s1.1-.64,1.1-1.45Z"/>
    <path class="cls-1" d="m80.48,105.09v1.05h-3.2v1.9h2.88v1.04h-2.88v2.16h3.2v1.04h-4.4v-7.18h4.4Z"/>
    <path class="cls-1" d="m81.61,107.07h1.09v.47c.23-.31.6-.56,1.29-.56,1.07,0,1.9.54,1.9,2.04v3.26h-1.1v-3.13c0-.92-.42-1.18-.99-1.18-.69,0-1.07.47-1.07,1.17v3.14h-1.11v-5.21Z"/>
    <path class="cls-1" d="m86.86,107.07h.67v-1.15h1.1v1.15h1.1v.96h-1.1v2.38c0,.6.09.86.68.86h.43v1h-.51c-1.25,0-1.7-.43-1.7-1.66v-2.59h-.67v-.96Z"/>
    <path class="cls-1" d="m93.66,108.37c-.17-.24-.4-.41-.75-.41-.56,0-.96.42-.96,1.17v3.14h-1.11v-5.21h1.09v.47c.2-.3.55-.56,1.17-.56.67,0,1.12.26,1.45.77l-.88.62Z"/>
    <path class="cls-1" d="m99.11,111.49c-.36.64-.95.88-1.86.88-1.49,0-2.28-.97-2.28-2.35v-.71c0-1.53.75-2.33,2.11-2.33s2.1.85,2.1,2.39v.57h-3.11v.02c0,.81.31,1.45,1.13,1.45.61,0,.86-.19,1.07-.51l.83.58Zm-3.03-2.39h1.99c-.04-.76-.35-1.15-.99-1.15s-.95.44-1,1.15Z"/>
    <path class="cls-1" d="m104.87,110.02c0,1.35-.67,2.35-2.05,2.35-.6,0-1-.15-1.26-.43v2.31h-1.11v-7.18h1.11v.42c.26-.32.68-.51,1.27-.51,1.25,0,2.04.84,2.04,2.33v.71Zm-1.1-.05v-.6c0-.91-.36-1.42-1.1-1.42s-1.09.5-1.1,1.35v.67c0,.81.26,1.45,1.1,1.45.79,0,1.1-.64,1.1-1.45Z"/>
    <path class="cls-1" d="m108.85,108.37c-.17-.24-.4-.41-.75-.41-.56,0-.96.42-.96,1.17v3.14h-1.11v-5.21h1.09v.47c.2-.3.55-.56,1.17-.56.67,0,1.12.26,1.45.77l-.88.62Z"/>
    <path class="cls-1" d="m114.3,111.49c-.36.64-.95.88-1.86.88-1.49,0-2.28-.97-2.28-2.35v-.71c0-1.53.75-2.33,2.11-2.33s2.1.85,2.1,2.39v.57h-3.11v.02c0,.81.31,1.45,1.13,1.45.61,0,.86-.19,1.07-.51l.83.58Zm-3.03-2.39h1.99c-.04-.76-.35-1.15-.99-1.15s-.95.44-1,1.15Z"/>
    <path class="cls-1" d="m115.63,107.07h1.09v.47c.23-.31.6-.56,1.29-.56,1.07,0,1.9.54,1.9,2.04v3.26h-1.1v-3.13c0-.92-.42-1.18-.99-1.18-.69,0-1.07.47-1.07,1.17v3.14h-1.11v-5.21Z"/>
    <path class="cls-1" d="m125.22,111.49c-.36.64-.95.88-1.86.88-1.49,0-2.28-.97-2.28-2.35v-.71c0-1.53.75-2.33,2.11-2.33s2.1.85,2.1,2.39v.57h-3.11v.02c0,.81.31,1.45,1.13,1.45.61,0,.86-.19,1.07-.51l.83.58Zm-3.03-2.39h1.99c-.04-.76-.35-1.15-.99-1.15s-.95.44-1,1.15Z"/>
    <path class="cls-1" d="m130.83,112.28h-1.09v-.47c-.24.37-.55.56-1.28.56-1.07,0-1.91-.55-1.91-2.05v-3.25h1.11v3.13c0,.93.42,1.19,1,1.19.69,0,1.06-.46,1.06-1.18v-3.14h1.1v5.21Z"/>
    <path class="cls-1" d="m135.04,108.37c-.17-.24-.4-.41-.75-.41-.56,0-.96.42-.96,1.17v3.14h-1.11v-5.21h1.09v.47c.2-.3.55-.56,1.17-.56.67,0,1.12.26,1.45.77l-.88.62Z"/>
    <path class="cls-1" d="m139.49,108.44c-.25-.32-.51-.47-1.14-.47-.47,0-.81.16-.81.53,0,.44.39.57.99.65,1.16.14,1.91.54,1.91,1.65,0,.96-.66,1.58-2,1.58-1.06,0-1.67-.29-2.09-.86l.84-.6c.24.32.55.49,1.24.49.57,0,.91-.21.91-.57,0-.43-.27-.55-1.08-.66-.99-.12-1.82-.54-1.82-1.63,0-.93.68-1.55,1.95-1.55.85,0,1.53.22,1.94.86l-.82.59Z"/>
    <path class="cls-1" d="m141.63,105.09h1.11v2.43c.22-.31.59-.54,1.27-.54,1.07,0,1.9.54,1.9,2.04v3.26h-1.1v-3.13c0-.92-.42-1.18-.99-1.18-.69,0-1.07.47-1.07,1.17v3.14h-1.11v-7.18Z"/>
    <path class="cls-1" d="m147.4,105.09h1.22v1.14h-1.22v-1.14Zm.05,1.98h1.11v5.21h-1.11v-5.21Z"/>
    <path class="cls-1" d="m154.52,110.02c0,1.35-.67,2.35-2.05,2.35-.6,0-1-.15-1.26-.43v2.31h-1.11v-7.18h1.11v.42c.26-.32.68-.51,1.27-.51,1.25,0,2.04.84,2.04,2.33v.71Zm-1.1-.05v-.6c0-.91-.36-1.42-1.1-1.42s-1.09.5-1.1,1.35v.67c0,.81.26,1.45,1.1,1.45.79,0,1.1-.64,1.1-1.45Z"/>
    <path class="cls-1" d="m162.52,107.32c-.19-.87-.66-1.27-1.45-1.27-.96,0-1.48.62-1.48,2.18v.92c0,1.53.52,2.18,1.48,2.18.82,0,1.26-.4,1.45-1.27h1.16c-.24,1.61-1.18,2.32-2.6,2.32-1.6,0-2.69-.97-2.69-3.23v-.92c0-2.26,1.08-3.23,2.69-3.23,1.43,0,2.37.76,2.61,2.32h-1.17Z"/>
    <path class="cls-1" d="m168.7,111.49c-.36.64-.95.88-1.86.88-1.49,0-2.28-.97-2.28-2.35v-.71c0-1.53.75-2.33,2.11-2.33s2.1.85,2.1,2.39v.57h-3.11v.02c0,.81.31,1.45,1.13,1.45.61,0,.86-.19,1.07-.51l.83.58Zm-3.03-2.39h1.99c-.04-.76-.35-1.15-.99-1.15s-.95.44-1,1.15Z"/>
    <path class="cls-1" d="m170.03,107.07h1.09v.47c.23-.31.6-.56,1.29-.56,1.07,0,1.9.54,1.9,2.04v3.26h-1.1v-3.13c0-.92-.42-1.18-.99-1.18-.69,0-1.07.47-1.07,1.17v3.14h-1.11v-5.21Z"/>
    <path class="cls-1" d="m175.28,107.07h.67v-1.15h1.1v1.15h1.1v.96h-1.1v2.38c0,.6.09.86.68.86h.43v1h-.51c-1.25,0-1.7-.43-1.7-1.66v-2.59h-.67v-.96Z"/>
    <path class="cls-1" d="m183.18,111.49c-.36.64-.95.88-1.86.88-1.49,0-2.28-.97-2.28-2.35v-.71c0-1.53.75-2.33,2.11-2.33s2.1.85,2.1,2.39v.57h-3.11v.02c0,.81.31,1.45,1.13,1.45.61,0,.86-.19,1.07-.51l.83.58Zm-3.03-2.39h1.99c-.04-.76-.35-1.15-.99-1.15s-.95.44-1,1.15Z"/>
    <path class="cls-1" d="m187.34,108.37c-.17-.24-.4-.41-.75-.41-.56,0-.96.42-.96,1.17v3.14h-1.11v-5.21h1.09v.47c.2-.3.55-.56,1.17-.56.67,0,1.12.26,1.45.77l-.88.62Z"/>
  </g>
  <rect class="cls-1" x="68.21" y="84.79" width=".56" height="30.58" transform="translate(-.14 .1) rotate(-.08)"/>
  <g>
    <g>
      <path class="cls-1" d="m55.26,113.6h0c-.48,0-.87.39-.87.88s.39.89.87.89.87-.39.87-.89-.38-.88-.87-.88Zm0,1.63c-.39,0-.71-.33-.71-.75s.32-.74.71-.74h0c.39,0,.71.33.71.75s-.31.75-.71.74Z"/>
      <path class="cls-1" d="m55.42,114.52h0c.11-.04.19-.12.19-.25,0-.09-.03-.16-.09-.2-.06-.04-.16-.07-.31-.07-.12,0-.2.01-.28.02v.98h.16v-.42h.11c.13,0,.19.05.21.17.02.13.04.22.07.25h.16s-.04-.09-.06-.24c-.02-.14-.08-.22-.16-.24Zm-.21-.06h-.11v-.33s.06,0,.11,0c.18,0,.24.09.24.17,0,.12-.11.17-.24.17Z"/>
    </g>
    <g>
      <path class="cls-1" d="m27.38,84.86s-.04,0-.07,0c.04,0,.07,0,.11,0-.01,0-.03,0-.04,0Z"/>
      <path class="cls-1" d="m31.45,94.5v7.69h4.12l.43-2.31h1.86c-.68,3.52-4.18,5.95-8.61,5.95-.3,0-.61-.01-.92-.04-2.45-.19-4.71-.98-6.36-2.23-1.81-1.37-2.77-3.21-2.76-5.32.01-2.26.97-4.36,2.71-5.9,1.66-1.47,3.88-2.34,6.24-2.44.15,0,.3,0,.45,0,2.77,0,5.75,1.09,7.96,2.91.11.09.14.11.17.13.01,0,.03.02.16.13l.06.05h.08s4.65,0,4.65,0v-8.27h-4.8v2.37c-2.02-1.29-5.48-2.6-9.51-2.6h-.07c-4.39.02-8.66,1.81-11.73,4.92-2.5,2.54-3.85,5.65-3.81,8.75.04,3.33,1.65,6.44,4.52,8.75,2.75,2.21,6.48,3.47,10.22,3.47.46,0,.93-.02,1.39-.06,3.71-.3,7-1.15,9.33-2.39v1.03s5.09,0,5.09,0v-9.21h1.76v10.68h-2.66v4.8h11.85v-4.8h-2.66v-10.68h6l.42,2.31h4.14v-7.69h-29.75Zm-4.07-9.64s.03,0,.04,0c-.04,0-.07,0-.11,0,.02,0,.04,0,.07,0Z"/>
    </g>
  </g>
</svg>