<?xml version="1.0" encoding="UTF-8"?>
<svg id="Capa_1" data-name="Capa 1" xmlns="http://www.w3.org/2000/svg" viewBox="0 0 200 200">
  <defs>
    <style>
      .cls-1 {
        fill: #fff;
      }
    </style>
  </defs>
  <polygon class="cls-1" points="32.38 78.99 32.38 95.12 42.19 95.12 42.19 78.99 50.6 78.99 50.6 121.19 42.19 121.19 42.19 102.45 32.38 102.45 32.38 121.19 23.97 121.19 23.97 78.99 32.38 78.99"/>
  <path class="cls-1" d="m75.31,105.29l-4.02-18.97h-.12l-4.02,18.97h8.17Zm1.12-26.3l11.03,42.2h-8.75l-1.93-8.93h-11.09l-1.93,8.93h-8.75l11.03-42.2h10.4Z"/>
  <polygon class="cls-1" points="113.06 85.96 103.95 85.96 103.95 121.19 95.53 121.19 95.53 85.96 86.42 85.96 86.42 78.98 113.06 78.98 113.06 85.96"/>
  <path class="cls-1" d="m124.92,109.25c0,.98.08,1.88.23,2.68.15.81.44,1.49.87,2.05.44.55,1.01.99,1.73,1.29.71.32,1.62.48,2.71.48,1.29,0,2.44-.44,3.47-1.28,1.03-.84,1.55-2.15,1.55-3.93,0-.94-.13-1.75-.38-2.45-.25-.69-.67-1.3-1.25-1.86-.58-.55-1.35-1.06-2.3-1.51-.95-.45-2.14-.92-3.54-1.39-1.86-.63-3.47-1.32-4.85-2.07-1.37-.74-2.49-1.61-3.41-2.63-.92-1-1.59-2.16-2.02-3.49-.43-1.32-.64-2.84-.64-4.58,0-4.16,1.15-7.27,3.45-9.33,2.3-2.05,5.45-3.07,9.47-3.07,1.86,0,3.58.21,5.15.61,1.59.42,2.95,1.09,4.1,2.01,1.15.92,2.04,2.11,2.69,3.55.65,1.44.97,3.16.97,5.17v1.19h-8.05c0-2.02-.36-3.56-1.06-4.63-.7-1.1-1.87-1.63-3.51-1.63-.93,0-1.71.14-2.34.41-.62.27-1.12.65-1.49,1.1-.36.45-.62.98-.76,1.56-.13.6-.2,1.2-.2,1.83,0,1.3.27,2.4.82,3.28.53.89,1.71,1.71,3.5,2.46l6.49,2.84c1.6.71,2.89,1.44,3.91,2.22,1.01.76,1.83,1.59,2.42,2.48.6.88,1.02,1.86,1.26,2.93.23,1.05.35,2.23.35,3.54,0,4.45-1.28,7.7-3.83,9.73-2.55,2.01-6.1,3.04-10.65,3.04s-8.15-1.04-10.2-3.14c-2.05-2.09-3.07-5.08-3.07-8.98v-1.71h8.42v1.25Z"/>
  <path class="cls-1" d="m157.8,108.42c0,1.06.08,2.03.21,2.92.13.88.38,1.66.76,2.3.37.66.87,1.17,1.52,1.54.65.38,1.46.57,2.41.57,1.02,0,1.84-.18,2.46-.57.63-.37,1.13-.88,1.49-1.54.38-.65.63-1.42.77-2.3.13-.89.2-1.86.2-2.92v-29.44h8.41v29.44c0,2.67-.38,4.89-1.12,6.65-.73,1.75-1.71,3.14-2.97,4.16-1.25,1.02-2.66,1.72-4.25,2.07-1.6.36-3.26.53-4.98.53s-3.35-.16-4.96-.47c-1.6-.32-3.02-.95-4.27-1.92-1.24-.96-2.24-2.33-2.97-4.1-.74-1.78-1.12-4.09-1.12-6.92v-29.44h8.41v29.44Z"/>
</svg>