<?xml version="1.0" encoding="UTF-8"?>
<svg id="Capa_1" data-name="Capa 1" xmlns="http://www.w3.org/2000/svg" viewBox="0 0 200 200">
  <defs>
    <style>
      .cls-1 {
        fill: #fff;
      }
    </style>
  </defs>
  <rect class="cls-1" x="86.19" y="80.14" width=".31" height="39.71"/>
  <g>
    <g>
      <g>
        <path class="cls-1" d="m122.7,100.91h2.23v8.89h-2.23v-8.89Z"/>
        <path class="cls-1" d="m141.04,103.11v6.69h-2.23v-6.12c-.2-.47-.79-1-1.77-1s-1.59.56-1.76,1.03v6.08h-2.23v-6.12c-.2-.47-.79-1-1.77-1s-1.59.56-1.76,1.03v6.08h-2.23v-8.89h2.09v.93c.57-.71,1.42-1.2,2.53-1.2s2.13.57,2.75,1.32c.64-.79,1.59-1.32,2.89-1.32,1.77,0,3.16,1.23,3.48,2.47Z"/>
        <path class="cls-1" d="m152.39,103.51v3.68c-.52,1.61-2.06,2.87-4.09,2.87-1.12,0-2.01-.39-2.67-1.03v3.63h-2.23v-11.76h2.09v.9c.68-.71,1.6-1.17,2.8-1.17,2.03,0,3.56,1.27,4.09,2.87Zm-2.23.56c-.25-.66-1.06-1.39-2.3-1.39-1.1,0-1.88.54-2.23,1.11v3.13c.35.57,1.13,1.13,2.23,1.13,1.23,0,2.04-.74,2.3-1.4v-2.58Z"/>
        <path class="cls-1" d="m162.29,103.04v6.76h-2.04v-.9c-.59.73-1.54,1.15-2.67,1.15-1.66,0-2.89-.76-3.31-1.64v-2.08c.51-1.08,1.89-1.59,3.45-1.79,1.52-.19,2.23-.32,2.4-.57v-.41c-.25-.49-.9-.95-1.91-.95s-1.81.59-2.18,1.32l-1.98-.84c.59-1.37,2.21-2.47,4.17-2.47s3.56,1,4.07,2.42Zm-2.18,2.5c-.3.25-1.03.46-2.03.64-1.03.19-1.47.37-1.67.73v.73c.27.32.74.59,1.66.59s1.67-.37,2.04-.9v-1.79Z"/>
        <path class="cls-1" d="m164.33,107.19v-3.7c.56-1.61,2.21-2.87,4.46-2.87,2.01,0,3.56.98,4.24,2.53l-2.06.81c-.27-.64-1-1.32-2.18-1.32s-2.01.73-2.23,1.4v2.6c.22.66,1,1.39,2.23,1.39s1.89-.68,2.18-1.3l2.06.79c-.68,1.57-2.23,2.53-4.24,2.53-2.25,0-3.9-1.25-4.46-2.87Z"/>
        <path class="cls-1" d="m175.6,108.19v-5.49h-1.74v-1.79h.96c.39,0,.66-.17.78-.44v-2.35h2.23v2.79h2.23v1.79h-2.23v4.46c.15.41.61.76,1.5.76h.74v1.88c-.34.08-.78.12-1.11.12-1.64,0-2.8-.64-3.36-1.72Z"/>
        <path class="cls-1" d="m189.77,103.04v6.76h-2.04v-.9c-.59.73-1.54,1.15-2.67,1.15-1.66,0-2.89-.76-3.31-1.64v-2.08c.51-1.08,1.89-1.59,3.45-1.79,1.52-.19,2.23-.32,2.4-.57v-.41c-.25-.49-.9-.95-1.91-.95s-1.81.59-2.18,1.32l-1.98-.84c.59-1.37,2.21-2.47,4.17-2.47s3.56,1,4.07,2.42Zm-2.18,2.5c-.3.25-1.03.46-2.03.64-1.03.19-1.47.37-1.67.73v.73c.27.32.74.59,1.66.59s1.67-.37,2.04-.9v-1.79Z"/>
      </g>
      <g>
        <path class="cls-1" d="m145.37,115.11c-.14.31-.45.5-.87.5-.44,0-.77-.25-.88-.57v-.73c.11-.32.43-.57.87-.57s.75.25.87.57v.51h-1.31v.13c.04.13.2.27.45.27.26,0,.4-.13.47-.27l.4.15Zm-1.32-.71v.1h.88v-.1c-.05-.13-.2-.27-.44-.27s-.39.14-.44.27Z"/>
        <path class="cls-1" d="m148.5,114.23v1.32h-.44v-1.21c-.04-.09-.16-.2-.35-.2s-.31.11-.35.2v1.2h-.44v-1.21c-.04-.09-.16-.2-.35-.2s-.31.11-.35.2v1.2h-.44v-1.76h.41v.18c.11-.14.28-.24.5-.24s.42.11.54.26c.13-.16.31-.26.57-.26.35,0,.62.24.69.49Z"/>
        <path class="cls-1" d="m150.74,114.31v.73c-.1.32-.41.57-.81.57-.22,0-.4-.08-.53-.2v.72h-.44v-2.33h.41v.18c.13-.14.32-.23.55-.23.4,0,.7.25.81.57Zm-.44.11c-.05-.13-.21-.27-.45-.27-.22,0-.37.11-.44.22v.62c.07.11.22.22.44.22.24,0,.4-.15.45-.28v-.51Z"/>
        <path class="cls-1" d="m152.21,113.8v.43h-.12c-.31,0-.44.15-.48.26v1.07h-.44v-1.76h.41v.28c.09-.17.24-.3.48-.3.05,0,.11.01.15.03Z"/>
        <path class="cls-1" d="m154.2,115.11c-.14.31-.45.5-.87.5-.44,0-.77-.25-.88-.57v-.73c.11-.32.43-.57.87-.57s.75.25.87.57v.51h-1.31v.13c.04.13.2.27.45.27.26,0,.4-.13.47-.27l.4.15Zm-1.32-.71v.1h.88v-.1c-.05-.13-.2-.27-.44-.27s-.39.14-.44.27Z"/>
        <path class="cls-1" d="m156.25,114.24v1.32h-.44v-1.21c-.04-.1-.17-.2-.38-.2s-.34.11-.38.21v1.2h-.44v-1.76h.41v.18c.12-.14.3-.23.52-.23.37,0,.64.24.7.49Z"/>
        <path class="cls-1" d="m158.43,113.12v2.44h-.42v-.18c-.13.14-.32.23-.55.23-.4,0-.7-.25-.81-.57v-.73c.1-.32.41-.57.81-.57.22,0,.4.08.53.2v-.83h.44Zm-.44,1.25c-.07-.11-.22-.22-.44-.22-.24,0-.4.14-.45.27v.51c.05.13.21.28.45.28.22,0,.37-.11.44-.22v-.62Z"/>
        <path class="cls-1" d="m158.87,113.41v-.22c.05-.08.15-.14.27-.14s.23.06.27.14v.22c-.04.08-.14.14-.27.14s-.23-.06-.27-.14Zm.05.38h.44v1.76h-.44v-1.76Z"/>
        <path class="cls-1" d="m162.58,114.23v1.32h-.44v-1.21c-.04-.09-.16-.2-.35-.2s-.31.11-.35.2v1.2h-.44v-1.21c-.04-.09-.16-.2-.35-.2s-.31.11-.35.2v1.2h-.44v-1.76h.41v.18c.11-.14.28-.24.5-.24s.42.11.54.26c.13-.16.31-.26.57-.26.35,0,.62.24.69.49Z"/>
        <path class="cls-1" d="m163,113.41v-.22c.05-.08.15-.14.27-.14s.23.06.27.14v.22c-.04.08-.14.14-.27.14s-.23-.06-.27-.14Zm.05.38h.44v1.76h-.44v-1.76Z"/>
        <path class="cls-1" d="m165.68,115.11c-.14.31-.45.5-.87.5-.44,0-.77-.25-.88-.57v-.73c.11-.32.43-.57.87-.57s.75.25.87.57v.51h-1.31v.13c.04.13.2.27.45.27.26,0,.4-.13.47-.27l.4.15Zm-1.32-.71v.1h.88v-.1c-.05-.13-.2-.27-.44-.27s-.39.14-.44.27Z"/>
        <path class="cls-1" d="m167.73,114.24v1.32h-.44v-1.21c-.04-.1-.17-.2-.38-.2s-.34.11-.38.21v1.2h-.44v-1.76h.41v.18c.12-.14.3-.23.52-.23.37,0,.64.24.7.49Z"/>
        <path class="cls-1" d="m168.33,115.24v-1.09h-.34v-.35h.19c.08,0,.13-.03.15-.09v-.46h.44v.55h.44v.35h-.44v.88c.03.08.12.15.3.15h.15v.37c-.07.02-.15.02-.22.02-.32,0-.55-.13-.66-.34Z"/>
        <path class="cls-1" d="m169.5,115.04v-.73c.11-.32.46-.57.9-.57s.79.25.9.57v.73c-.11.32-.45.57-.9.57s-.79-.25-.9-.57Zm1.36-.11v-.51c-.04-.13-.21-.28-.46-.28s-.41.14-.46.28v.51c.05.13.22.27.46.27s.41-.14.46-.27Z"/>
        <path class="cls-1" d="m172.42,115.15l.38-.15c.08.15.24.23.41.23s.26-.06.3-.13v-.12s-.08-.08-.16-.1c-.12-.03-.31-.03-.49-.09-.19-.06-.32-.17-.39-.31v-.36c.1-.21.38-.38.72-.38.37,0,.65.17.76.44l-.37.15c-.08-.14-.22-.21-.39-.21-.15,0-.26.06-.29.13v.1s.07.08.15.1c.12.03.31.03.48.09.2.07.33.17.4.31v.37c-.1.21-.37.38-.73.38-.38,0-.69-.17-.79-.45Z"/>
        <path class="cls-1" d="m174.27,115.04v-.73c.11-.32.46-.57.9-.57s.79.25.9.57v.73c-.11.32-.45.57-.9.57s-.79-.25-.9-.57Zm1.36-.11v-.51c-.04-.13-.21-.28-.46-.28s-.41.14-.46.28v.51c.05.13.22.27.46.27s.41-.14.46-.27Z"/>
        <path class="cls-1" d="m176.36,115.15l.38-.15c.08.15.24.23.41.23s.26-.06.3-.13v-.12s-.08-.08-.16-.1c-.12-.03-.31-.03-.49-.09-.19-.06-.32-.17-.39-.31v-.36c.1-.21.38-.38.72-.38.37,0,.65.17.76.44l-.37.15c-.08-.14-.22-.21-.39-.21-.15,0-.26.06-.29.13v.1s.07.08.15.1c.12.03.31.03.48.09.2.07.33.17.4.31v.37c-.1.21-.37.38-.73.38-.38,0-.69-.17-.79-.45Z"/>
        <path class="cls-1" d="m178.45,115.24v-1.09h-.34v-.35h.19c.08,0,.13-.03.15-.09v-.46h.44v.55h.44v.35h-.44v.88c.03.08.12.15.3.15h.15v.37c-.07.02-.15.02-.22.02-.32,0-.55-.13-.66-.34Z"/>
        <path class="cls-1" d="m181.37,115.11c-.14.31-.45.5-.87.5-.44,0-.77-.25-.88-.57v-.73c.11-.32.43-.57.87-.57s.75.25.87.57v.51h-1.31v.13c.04.13.2.27.45.27.26,0,.4-.13.47-.27l.4.15Zm-1.32-.71v.1h.88v-.1c-.05-.13-.2-.27-.44-.27s-.39.14-.44.27Z"/>
        <path class="cls-1" d="m183.42,114.24v1.32h-.44v-1.21c-.04-.1-.17-.2-.38-.2s-.34.11-.38.21v1.2h-.44v-1.76h.41v.18c.12-.14.3-.23.52-.23.37,0,.64.24.7.49Z"/>
        <path class="cls-1" d="m183.84,113.41v-.22c.05-.08.15-.14.27-.14s.23.06.27.14v.22c-.04.08-.14.14-.27.14s-.23-.06-.27-.14Zm.05.38h.44v1.76h-.44v-1.76Z"/>
        <path class="cls-1" d="m186.6,114.31v.73c-.1.32-.41.57-.81.57-.23,0-.42-.09-.55-.23v.18h-.41v-2.44h.44v.83c.13-.12.31-.2.53-.2.4,0,.7.25.81.57Zm-.44.11c-.05-.13-.21-.27-.45-.27-.22,0-.37.11-.44.22v.62c.07.12.22.22.44.22.24,0,.4-.14.45-.28v-.51Z"/>
        <path class="cls-1" d="m187.03,113.12h.44v2.44h-.44v-2.44Z"/>
        <path class="cls-1" d="m189.64,115.11c-.14.31-.45.5-.87.5-.44,0-.77-.25-.88-.57v-.73c.11-.32.43-.57.87-.57s.75.25.87.57v.51h-1.31v.13c.04.13.2.27.45.27.26,0,.4-.13.47-.27l.4.15Zm-1.32-.71v.1h.88v-.1c-.05-.13-.2-.27-.44-.27s-.39.14-.44.27Z"/>
      </g>
    </g>
    <g>
      <path class="cls-1" d="m102.82,87.11c.76,0,1.36-.61,1.36-1.36,0-.77-.6-1.37-1.37-1.37-.78,0-1.36.59-1.36,1.39,0,.76.61,1.35,1.37,1.35Z"/>
      <path class="cls-1" d="m102.81,92.91h-.01c-1.86,0-3.31,1.47-3.31,3.34,0,.89.35,1.72.98,2.34.62.61,1.45.95,2.34.95h.02c.88,0,1.71-.35,2.33-.97.62-.62.97-1.45.97-2.34,0-.89-.34-1.73-.97-2.36-.63-.63-1.46-.97-2.35-.97h0Z"/>
      <path class="cls-1" d="m102.81,104.33h0c-.64,0-1.24.25-1.67.69-.43.44-.67,1.03-.67,1.68,0,.63.25,1.21.69,1.65.44.43,1.03.67,1.65.67h.01c.63,0,1.21-.25,1.65-.69.44-.44.68-1.03.68-1.65,0-.63-.24-1.22-.68-1.66-.44-.44-1.03-.68-1.66-.68h0Z"/>
      <path class="cls-1" d="m113.35,103.36h-.01c-1.86,0-3.31,1.47-3.31,3.34,0,.89.35,1.72.98,2.34.62.61,1.45.95,2.34.95h.02c.88,0,1.71-.35,2.33-.97.62-.62.97-1.45.97-2.34,0-.89-.34-1.73-.97-2.36-.63-.63-1.46-.97-2.35-.97h0Z"/>
      <path class="cls-1" d="m126.21,93.89c-.63-.63-1.46-.97-2.35-.97h-.01s0,0,0,0h0c-.05,0-.11,0-.16,0-.6.03-1.16.22-1.63.52-.21.12-.42.26-.61.42-.24.19-.5.37-.78.52-1.22.66-2.9.65-4.11,0-.28-.15-.53-.34-.78-.52-.2-.14-.38-.27-.57-.38-.15-.1-.31-.19-.47-.26-.39-.18-.81-.29-1.37-.29h0s0,0,0,0h-.01c-1.86,0-3.31,1.47-3.31,3.34,0,.89.35,1.72.98,2.34.62.61,1.45.95,2.34.95h.01s0,0,0,0c0,0,0,0,0,0h0s.02,0,.03,0c.16,0,.31-.01.46-.04.01,0,.03,0,.04,0,.04,0,.07-.01.11-.02.04,0,.09-.02.13-.03,0,0,0,0,0,0,.24-.06.46-.14.68-.25.3-.14.58-.32.86-.53.77-.58,1.84-1.02,2.92-1.01,1.08,0,2.15.45,2.93,1.01.19.14.38.26.57.37.33.2.69.35,1.07.43.01,0,.03,0,.04,0,0,0,0,0,0,0,.2.04.41.06.64.06h0s0,0,.01,0h.02c.88,0,1.71-.35,2.33-.97.62-.62.97-1.45.97-2.34,0-.89-.34-1.73-.97-2.36Z"/>
      <path class="cls-1" d="m113.35,83.4h0c-.64,0-1.24.25-1.67.69-.43.44-.67,1.03-.67,1.68,0,.63.25,1.21.69,1.65.44.43,1.03.67,1.65.67h.01c.63,0,1.21-.25,1.65-.69.44-.44.68-1.03.68-1.65,0-.63-.24-1.22-.68-1.66-.44-.44-1.03-.68-1.66-.68h0Z"/>
    </g>
  </g>
  <g>
    <path class="cls-1" d="m25.17,102.36c-.69,0-1.22.56-1.22,1.25s.53,1.22,1.22,1.22,1.22-.56,1.22-1.22c0-.69-.56-1.25-1.22-1.25Z"/>
    <circle class="cls-1" cx="33.38" cy="98.87" r="1.22"/>
    <circle class="cls-1" cx="33.38" cy="89.37" r="1.22"/>
    <path class="cls-1" d="m16.96,88.15c-.69,0-1.25.56-1.25,1.22,0,.69.56,1.22,1.25,1.22s1.22-.53,1.22-1.22-.56-1.22-1.22-1.22Z"/>
    <path class="cls-1" d="m16.96,97.65c-.69,0-1.25.53-1.25,1.22s.56,1.22,1.25,1.22,1.22-.56,1.22-1.22c0-.69-.56-1.22-1.22-1.22Z"/>
    <path class="cls-1" d="m14.22,92.9c-.69,0-1.25.53-1.25,1.22s.56,1.22,1.25,1.22,1.22-.53,1.22-1.22-.56-1.22-1.22-1.22Z"/>
    <path class="cls-1" d="m30.64,83.41c-.69,0-1.22.56-1.22,1.22,0,.69.53,1.25,1.22,1.25s1.22-.56,1.22-1.25-.56-1.22-1.22-1.22Z"/>
    <circle class="cls-1" cx="36.11" cy="94.12" r="1.22"/>
    <path class="cls-1" d="m19.69,83.41c-.69,0-1.22.56-1.22,1.22,0,.69.53,1.25,1.22,1.25s1.22-.56,1.22-1.25-.56-1.22-1.22-1.22Z"/>
    <path class="cls-1" d="m30.64,102.36c-.69,0-1.22.56-1.22,1.25s.53,1.22,1.22,1.22,1.22-.56,1.22-1.22c0-.69-.56-1.25-1.22-1.25Z"/>
    <path class="cls-1" d="m19.69,102.36c-.69,0-1.22.56-1.22,1.25s.53,1.22,1.22,1.22,1.22-.56,1.22-1.22c0-.69-.56-1.25-1.22-1.25Z"/>
    <path class="cls-1" d="m36.11,83.41c-.69,0-1.22.56-1.22,1.22,0,.69.53,1.25,1.22,1.25s1.22-.56,1.22-1.25-.53-1.22-1.22-1.22Z"/>
    <circle class="cls-1" cx="38.85" cy="89.37" r="1.22"/>
    <circle class="cls-1" cx="38.85" cy="98.87" r="1.22"/>
    <path class="cls-1" d="m22.43,107.11c-.69,0-1.22.56-1.22,1.22,0,.69.53,1.25,1.22,1.25s1.22-.56,1.22-1.25-.56-1.22-1.22-1.22Z"/>
    <path class="cls-1" d="m27.9,107.11c-.69,0-1.22.56-1.22,1.22,0,.69.53,1.25,1.22,1.25s1.22-.56,1.22-1.25-.56-1.22-1.22-1.22Z"/>
    <path class="cls-1" d="m36.11,102.36c-.69,0-1.22.56-1.22,1.25s.53,1.22,1.22,1.22,1.22-.56,1.22-1.22c0-.69-.53-1.25-1.22-1.25Z"/>
    <path class="cls-1" d="m11.48,88.15c-.69,0-1.25.56-1.25,1.22,0,.69.56,1.22,1.25,1.22s1.22-.53,1.22-1.22-.56-1.22-1.22-1.22Z"/>
    <path class="cls-1" d="m14.22,83.41c-.69,0-1.25.56-1.25,1.22,0,.69.56,1.25,1.25,1.25s1.22-.56,1.22-1.25-.56-1.22-1.22-1.22Z"/>
    <path class="cls-1" d="m14.22,102.36c-.69,0-1.25.56-1.25,1.25s.56,1.22,1.25,1.22,1.22-.56,1.22-1.22c0-.69-.56-1.25-1.22-1.25Z"/>
    <path class="cls-1" d="m11.48,97.65c-.69,0-1.25.53-1.25,1.22s.56,1.22,1.25,1.22,1.22-.56,1.22-1.22c0-.69-.56-1.22-1.22-1.22Z"/>
    <path class="cls-1" d="m53.26,96.2c-.69,1.52-2.21,2.47-4.19,2.47-2.11,0-3.73-1.22-4.22-2.8v-3.53c.49-1.55,2.08-2.77,4.19-2.77s3.63,1.22,4.15,2.77v2.41h-6.5v.73c.23.73,1.12,1.52,2.41,1.52s2.08-.69,2.41-1.45l1.75.66Zm-6.56-3.46v.49h4.62v-.49c-.23-.76-1.09-1.48-2.31-1.48s-2.08.73-2.31,1.48Z"/>
    <path class="cls-1" d="m62.62,91.85v6.56h-1.75v-.89c-.59.73-1.52,1.12-2.6,1.12-1.62,0-2.84-.73-3.26-1.58v-1.95c.49-1.02,1.85-1.52,3.36-1.71,1.45-.2,2.21-.33,2.41-.59v-.49c-.3-.53-.96-1.02-2.01-1.02s-1.91.63-2.27,1.38l-1.68-.73c.56-1.32,2.11-2.37,3.96-2.37s3.36.99,3.86,2.27Zm-1.85,2.34c-.33.23-1.06.46-2.11.63-1.09.2-1.62.43-1.81.82v.76c.26.36.79.66,1.78.66s1.75-.4,2.14-.99v-1.88Z"/>
    <path class="cls-1" d="m72.84,91.91v6.5h-1.88v-6c-.23-.56-.96-1.09-2.04-1.09s-1.81.56-2.01,1.12v5.97h-1.88v-8.57h1.78v.89c.59-.69,1.45-1.12,2.6-1.12,1.75,0,3.1,1.12,3.43,2.31Z"/>
    <path class="cls-1" d="m76.73,89.67v1.02c-.13.43-.66.76-1.25.76s-1.09-.33-1.25-.76v-1.02c.16-.43.66-.76,1.25-.76s1.12.33,1.25.76Zm-.26.07c-.1-.33-.53-.59-.99-.59s-.86.26-.99.59v.89c.13.33.53.59.99.59s.89-.26.99-.59v-.89Zm-.69.56l.33.49v.03h-.26l-.33-.46h-.26v.46h-.3v-1.35h.63c.23,0,.43.13.46.3v.3c-.03.1-.13.2-.26.23Zm-.53-.2h.3c.1,0,.2-.03.23-.1v-.16c-.03-.07-.13-.13-.23-.13h-.3v.4Z"/>
    <path class="cls-1" d="m25.17,102.36c-.69,0-1.22.56-1.22,1.25s.53,1.22,1.22,1.22,1.22-.56,1.22-1.22c0-.69-.56-1.25-1.22-1.25Z"/>
    <circle class="cls-1" cx="33.38" cy="98.87" r="1.22"/>
    <circle class="cls-1" cx="33.38" cy="89.37" r="1.22"/>
    <path class="cls-1" d="m16.96,88.15c-.69,0-1.25.56-1.25,1.22,0,.69.56,1.22,1.25,1.22s1.22-.53,1.22-1.22-.56-1.22-1.22-1.22Z"/>
    <path class="cls-1" d="m16.96,97.65c-.69,0-1.25.53-1.25,1.22s.56,1.22,1.25,1.22,1.22-.56,1.22-1.22c0-.69-.56-1.22-1.22-1.22Z"/>
    <path class="cls-1" d="m14.22,92.9c-.69,0-1.25.53-1.25,1.22s.56,1.22,1.25,1.22,1.22-.53,1.22-1.22-.56-1.22-1.22-1.22Z"/>
    <path class="cls-1" d="m30.64,83.41c-.69,0-1.22.56-1.22,1.22,0,.69.53,1.25,1.22,1.25s1.22-.56,1.22-1.25-.56-1.22-1.22-1.22Z"/>
    <circle class="cls-1" cx="36.11" cy="94.12" r="1.22"/>
    <path class="cls-1" d="m19.69,83.41c-.69,0-1.22.56-1.22,1.22,0,.69.53,1.25,1.22,1.25s1.22-.56,1.22-1.25-.56-1.22-1.22-1.22Z"/>
    <path class="cls-1" d="m30.64,102.36c-.69,0-1.22.56-1.22,1.25s.53,1.22,1.22,1.22,1.22-.56,1.22-1.22c0-.69-.56-1.25-1.22-1.25Z"/>
    <path class="cls-1" d="m19.69,102.36c-.69,0-1.22.56-1.22,1.25s.53,1.22,1.22,1.22,1.22-.56,1.22-1.22c0-.69-.56-1.25-1.22-1.25Z"/>
    <path class="cls-1" d="m36.11,83.41c-.69,0-1.22.56-1.22,1.22,0,.69.53,1.25,1.22,1.25s1.22-.56,1.22-1.25-.53-1.22-1.22-1.22Z"/>
    <circle class="cls-1" cx="38.85" cy="89.37" r="1.22"/>
    <circle class="cls-1" cx="38.85" cy="98.87" r="1.22"/>
    <path class="cls-1" d="m22.43,107.11c-.69,0-1.22.56-1.22,1.22,0,.69.53,1.25,1.22,1.25s1.22-.56,1.22-1.25-.56-1.22-1.22-1.22Z"/>
    <path class="cls-1" d="m27.9,107.11c-.69,0-1.22.56-1.22,1.22,0,.69.53,1.25,1.22,1.25s1.22-.56,1.22-1.25-.56-1.22-1.22-1.22Z"/>
    <path class="cls-1" d="m36.11,102.36c-.69,0-1.22.56-1.22,1.25s.53,1.22,1.22,1.22,1.22-.56,1.22-1.22c0-.69-.53-1.25-1.22-1.25Z"/>
    <path class="cls-1" d="m11.48,88.15c-.69,0-1.25.56-1.25,1.22,0,.69.56,1.22,1.25,1.22s1.22-.53,1.22-1.22-.56-1.22-1.22-1.22Z"/>
    <path class="cls-1" d="m14.22,83.41c-.69,0-1.25.56-1.25,1.22,0,.69.56,1.25,1.25,1.25s1.22-.56,1.22-1.25-.56-1.22-1.22-1.22Z"/>
    <path class="cls-1" d="m14.22,102.36c-.69,0-1.25.56-1.25,1.25s.56,1.22,1.25,1.22,1.22-.56,1.22-1.22c0-.69-.56-1.25-1.22-1.25Z"/>
    <path class="cls-1" d="m11.48,97.65c-.69,0-1.25.53-1.25,1.22s.56,1.22,1.25,1.22,1.22-.56,1.22-1.22c0-.69-.56-1.22-1.22-1.22Z"/>
    <path class="cls-1" d="m47.22,102.2v2.67h-.33v-.3c-.2.23-.46.36-.86.36-.53,0-.92-.3-1.09-.66v-2.08h.33v1.95c.13.3.4.49.82.49.4,0,.73-.23.79-.49v-1.95h.33Z"/>
    <path class="cls-1" d="m50.39,102.79v2.08h-.33v-1.98c-.13-.26-.4-.43-.82-.43-.4,0-.73.2-.79.46v1.95h-.33v-2.67h.33v.3c.2-.23.46-.36.86-.36.53,0,.92.3,1.09.66Z"/>
    <path class="cls-1" d="m51.18,101.51v-.23c.03-.1.16-.13.26-.13s.2.03.26.13v.23c-.07.07-.16.13-.26.13s-.23-.07-.26-.13Zm.1.69h.33v2.67h-.33v-2.67Z"/>
    <polygon class="cls-1" points="54.68 102.2 54.68 102.3 53.62 104.87 53.26 104.87 52.24 102.3 52.24 102.2 52.53 102.2 53.46 104.51 54.38 102.2 54.68 102.2"/>
    <path class="cls-1" d="m57.61,104.18c-.2.46-.66.76-1.22.76-.63,0-1.12-.36-1.29-.89v-1.06c.16-.49.66-.86,1.25-.86s1.09.36,1.25.86v.63h-2.18v.36c.1.36.49.66.96.66s.76-.26.92-.59l.3.13Zm-2.18-1.09v.23h1.85v-.23c-.1-.36-.46-.66-.92-.66-.43,0-.82.3-.92.66Z"/>
    <path class="cls-1" d="m59.65,102.2v.33h-.16c-.49,0-.73.26-.79.49v1.85h-.33v-2.67h.33v.4c.1-.23.36-.43.73-.43.07,0,.16.03.23.03Z"/>
    <path class="cls-1" d="m60.02,104.34l.26-.16c.13.26.43.46.79.46.33,0,.59-.16.66-.36v-.26c-.03-.13-.2-.2-.36-.26-.26-.1-.43-.07-.73-.16-.3-.1-.49-.26-.56-.49v-.4c.1-.33.49-.56.96-.56.49,0,.89.26,1.02.59l-.26.16c-.13-.3-.4-.46-.76-.46-.33,0-.56.16-.66.36v.23c.07.13.2.23.36.26.26.1.46.07.76.16.3.1.49.26.56.49v.43c-.13.33-.53.56-.99.56-.49,0-.92-.26-1.06-.59Z"/>
    <path class="cls-1" d="m62.72,101.51v-.23c.03-.1.16-.13.26-.13s.2.03.26.13v.23c-.07.07-.16.13-.26.13s-.23-.07-.26-.13Zm.1.69h.33v2.67h-.33v-2.67Z"/>
    <path class="cls-1" d="m66.45,101.14v3.73h-.33v-.36c-.2.26-.53.43-.96.43-.59,0-1.09-.36-1.22-.89v-1.06c.13-.49.63-.86,1.22-.86.43,0,.76.16.96.4v-1.38h.33Zm-.33,1.81c-.16-.3-.49-.49-.92-.49-.46,0-.86.26-.92.63v.89c.07.36.46.66.92.66.43,0,.76-.23.92-.53v-1.15Z"/>
    <path class="cls-1" d="m69.48,102.79v2.08h-.3v-.3c-.23.23-.56.36-.89.36-.49,0-.89-.2-1.02-.49v-.56c.13-.33.56-.49,1.06-.56.46-.07.76-.1.82-.2v-.23c-.1-.23-.36-.43-.79-.43-.4,0-.73.23-.86.53l-.3-.13c.16-.4.63-.73,1.15-.73.56,0,.99.3,1.12.66Zm-.33.63c-.07.07-.3.13-.76.2-.46.07-.73.2-.82.36v.33c.13.16.33.33.76.33.36,0,.69-.2.82-.43v-.79Z"/>
    <path class="cls-1" d="m72.74,101.14v3.73h-.3v-.36c-.23.26-.56.43-.96.43-.59,0-1.09-.36-1.25-.89v-1.06c.16-.49.66-.86,1.25-.86.4,0,.73.16.96.4v-1.38h.3Zm-.3,1.81c-.16-.3-.53-.49-.92-.49-.46,0-.86.26-.96.63v.89c.1.36.49.66.96.66.4,0,.76-.23.92-.53v-1.15Z"/>
  </g>
</svg>