<?xml version="1.0" encoding="UTF-8"?>
<svg id="Capa_1" data-name="Capa 1" xmlns="http://www.w3.org/2000/svg" viewBox="0 0 200 200">
  <defs>
    <style>
      .cls-1 {
        fill: #fff;
      }
    </style>
  </defs>
  <g>
    <path class="cls-1" d="m94.45,105.65h4.07l4.03,10.76,4.02-10.76h3.99v15.15h-3.36v-9.83l-3.36,9.83h-2.6l-3.44-9.89v9.89h-3.36v-15.15Z"/>
    <path class="cls-1" d="m123.57,116.5h-7.71c.07,1.37.98,2.15,2.45,2.15,1.02,0,1.67-.33,1.95-.97h3.25c-.33,2.06-2.43,3.46-5.2,3.46-3.55,0-5.74-2.06-5.74-5.54s2.23-5.52,5.63-5.52,5.45,2.04,5.45,4.98c0,.56-.02.85-.09,1.45Zm-3.18-2.06c-.02-1.38-.8-2.17-2.21-2.17s-2.29.89-2.32,2.17h4.53Z"/>
    <path class="cls-1" d="m136.58,105.65v15.15h-3.29v-1.47c-.56,1.04-1.86,1.76-3.31,1.76-3.12,0-4.91-2.36-4.91-5.5s1.93-5.5,4.96-5.5c1.52,0,2.71.72,3.27,1.78v-.89h-.02v-5.32h3.31Zm-3.16,9.94c0-1.49-.85-2.72-2.49-2.72-1.54,0-2.49,1.15-2.49,2.72s.95,2.75,2.49,2.75c1.65,0,2.49-1.23,2.49-2.75Z"/>
    <path class="cls-1" d="m149.51,116.5h-7.71c.06,1.37.97,2.15,2.45,2.15,1.02,0,1.66-.33,1.95-.97h3.25c-.33,2.06-2.43,3.46-5.2,3.46-3.55,0-5.74-2.06-5.74-5.54s2.23-5.52,5.63-5.52,5.46,2.04,5.46,4.98c0,.56-.02.85-.09,1.45Zm-3.18-2.06c-.02-1.38-.8-2.17-2.21-2.17s-2.29.89-2.31,2.17h4.52Z"/>
    <path class="cls-1" d="m151.5,105.65h3.31v15.15h-3.31v-15.15Z"/>
    <path class="cls-1" d="m157.55,105.65h3.31v15.15h-3.31v-15.15Z"/>
    <path class="cls-1" d="m162.74,107.71l3.96-2.12.95,1.81-3.96,2.12-.95-1.82Zm.85,2.67h3.31v10.43h-3.31v-10.43Z"/>
    <path class="cls-1" d="m169.62,110.38h3.31v1.51c.61-1.17,1.8-1.8,3.38-1.8,2.53,0,3.82,1.43,3.82,4.27v6.45h-3.34v-5.37c0-1.75-.5-2.55-1.84-2.55s-2.01.86-2.01,2.47v5.45h-3.31v-10.43Z"/>
  </g>
  <g>
    <path class="cls-1" d="m87.03,133.58H19.87v-67.16h67.16v67.16Zm-64.64-2.52h62.11v-62.11H22.39v62.11Z"/>
    <g>
      <polygon class="cls-1" points="28.91 104.24 33.21 104.24 33.21 111.75 39.62 111.75 39.62 104.24 43.91 104.24 43.91 122.76 39.62 122.76 39.62 115.42 33.21 115.42 33.21 122.76 28.91 122.76 28.91 104.24"/>
      <path class="cls-1" d="m47.63,116.58v-12.26h4.26v11.99c0,2.11,1.25,3.32,3.2,3.32s3.2-1.17,3.2-3.32v-11.99h4.3v12.26c0,4.3-2.93,6.76-7.5,6.76s-7.46-2.46-7.46-6.76"/>
      <path class="cls-1" d="m80.24,117.72c0,3.16-2.26,5.11-5.94,5.11h-7.93v-18.51h7.62c3.67,0,5.94,1.84,5.94,4.8,0,2.42-1.4,3.83-3.55,4.22,2.19.23,3.86,1.8,3.86,4.38m-9.57-10.32v4.49h2.39c1.64,0,2.62-.86,2.62-2.26s-.94-2.27-2.62-2.27l-2.39.04Zm5.23,9.77c0-1.37-1.02-2.27-2.58-2.27h-2.66v4.69h2.66c1.6,0,2.58-.9,2.58-2.42"/>
      <rect class="cls-1" x="28.84" y="92.92" width="2.46" height="8.28"/>
      <polygon class="cls-1" points="33.8 92.92 36.92 92.92 38.68 98.3 40.44 92.92 43.48 92.92 43.48 101.16 41.14 101.16 41.14 95.92 39.58 101.16 37.78 101.16 36.18 95.89 36.18 101.16 33.84 101.16 33.8 92.92"/>
      <path class="cls-1" d="m53.02,95.96c.04,1.64-1.25,3.01-2.89,3.05h-1.72v2.15h-2.46v-8.24h3.99c1.64-.04,3.01,1.25,3.05,2.89.08.04.08.12.04.16m-2.47,0c.04-.62-.42-1.13-1.05-1.17h-1.06v2.34h1.02c.63,0,1.09-.5,1.09-1.09v-.08Z"/>
      <path class="cls-1" d="m59.07,100.22h-2.7l-.27.94h-2.54l2.81-8.28h2.66l2.81,8.28h-2.54l-.23-.94Zm-.47-1.79l-.86-3.21-.86,3.21h1.72Z"/>
      <path class="cls-1" d="m62.86,97.02c0-2.58,1.87-4.38,4.57-4.38s4.26,1.25,4.45,3.44h-2.62c-.16-.74-.82-1.25-1.84-1.25-1.29,0-2.03.86-2.03,2.23s.74,2.23,2.03,2.23c1.02,0,1.68-.51,1.84-1.25h2.62c-.19,2.19-1.87,3.44-4.45,3.44-2.69-.04-4.57-1.88-4.57-4.46"/>
      <polygon class="cls-1" points="75.4 95.02 73.29 95.02 73.29 92.92 80.01 92.92 80.01 95.02 77.9 95.02 77.9 101.16 75.44 101.16 75.44 95.02 75.4 95.02"/>
      <polygon class="cls-1" points="28.52 104.21 32.83 104.21 32.83 111.71 39.23 111.71 39.23 104.21 43.52 104.21 43.52 122.72 39.23 122.72 39.23 115.37 32.83 115.37 32.83 122.72 28.52 122.72 28.52 104.21"/>
    </g>
  </g>
</svg>