<?xml version="1.0" encoding="UTF-8"?>
<svg id="Capa_1" data-name="Capa 1" xmlns="http://www.w3.org/2000/svg" viewBox="0 0 200 200">
  <defs>
    <style>
      .cls-1, .cls-2 {
        fill: #fff;
      }

      .cls-2 {
        fill-rule: evenodd;
      }
    </style>
  </defs>
  <g>
    <g>
      <path class="cls-1" d="m62.52,131.81c1.2,0,2.19-.03,2.98-.06-.05.21-.09.41-.1.61-.01.19-.02.43-.02.71h-4.38c.03-.8.05-1.55.05-2.25s-.02-1.45-.05-2.25h1.51v3.25Z"/>
      <path class="cls-1" d="m69.91,133.07c-.08-.24-.18-.53-.32-.89h-1.98l-.31.89h-1.56l1.74-4.51h2.28l1.75,4.51h-1.61Zm-.67-1.86c-.16-.43-.32-.87-.48-1.3l-.15-.4c-.14.38-.36.95-.64,1.71h1.27Z"/>
      <path class="cls-1" d="m76.7,129.8c-.49-.02-.86-.04-1.09-.04v2.12c.24,0,.6-.02,1.09-.04v1.24h-3.61v-1.24c.48.02.84.04,1.09.04v-2.12c-.25,0-.61.02-1.09.04v-1.24h3.61v1.24Z"/>
      <path class="cls-1" d="m82.4,128.57c-.03.7-.04,1.45-.04,2.25s.01,1.55.04,2.25h-2.22l-1.5-3.39.11,3.39h-1.6c.03-.8.05-1.55.05-2.25s-.02-1.44-.05-2.25h2.28l1.51,3.48-.11-3.48h1.52Z"/>
      <path class="cls-1" d="m86.73,128.78c.45.19.77.45.95.78.18.33.27.74.27,1.23s-.1.86-.31,1.2c-.21.34-.52.61-.93.8-.41.19-.92.28-1.53.28h-1.12c-.38,0-.77,0-1.15,0,.03-.82.05-1.57.05-2.28s-.02-1.45-.05-2.23c.49-.04,1.15-.06,1.99-.06.78,0,1.39.09,1.84.28Zm-1.38,3.06c.38,0,.64-.09.77-.28.13-.19.19-.44.19-.77s-.07-.57-.2-.76c-.13-.19-.39-.29-.76-.29-.4,0-.7.01-.9.04v2.07h.9Z"/>
      <path class="cls-1" d="m92.11,128.56h1.54v2.47c0,.61-.22,1.11-.62,1.51-.41.4-1.09.6-2.06.6s-1.64-.19-2-.57c-.36-.38-.54-.88-.53-1.49v-2.51h1.54v2.41c0,.18.01.33.04.44.03.11.11.22.26.32.15.1.38.15.71.15.36,0,.62-.05.78-.15s.26-.21.29-.34.05-.28.05-.48v-2.36Z"/>
      <path class="cls-1" d="m94.5,131.94c.09-.18.18-.39.27-.63.29.17.64.3,1.02.4.39.1.75.14,1.09.14s.59-.03.73-.09c.14-.06.21-.12.21-.2,0-.25-.38-.38-1.15-.38-.84,0-1.46-.09-1.84-.26-.38-.18-.57-.46-.57-.85,0-.56.23-.97.7-1.24s1.07-.4,1.81-.4c.43,0,.87.05,1.33.16.45.11.86.26,1.23.45-.12.27-.25.61-.38,1-.02.08-.05.14-.06.19-.21-.17-.53-.31-.96-.43-.43-.11-.8-.17-1.13-.17-.39,0-.66.03-.79.08-.14.05-.2.13-.2.23s.09.18.28.24c.19.06.46.09.82.09.88,0,1.51.1,1.91.3.4.2.6.51.6.92,0,.58-.21,1-.63,1.25s-1.06.38-1.92.38c-.46,0-.93-.05-1.4-.15-.48-.1-.9-.25-1.28-.44.14-.21.26-.41.35-.59Z"/>
      <path class="cls-1" d="m104.97,129.87c-.65-.02-1.28-.03-1.89-.04v3.24h-1.55v-3.24c-.62,0-1.25.02-1.89.04v-1.3h5.33v1.3Z"/>
      <path class="cls-1" d="m110.19,130.98c-.18.25-.48.43-.9.54.05.07.08.12.11.16l1.01,1.4h-1.69c-.18-.34-.47-.82-.86-1.44h-.91v1.44h-1.46c.03-.8.05-1.55.05-2.25s-.02-1.45-.05-2.25h1.46s1.27,0,1.27,0c.84,0,1.42.13,1.75.4.33.27.5.63.5,1.09,0,.36-.09.66-.26.91Zm-3.26-1.22v.71h.84c.35,0,.62-.01.8-.03s.31-.06.38-.11.11-.12.11-.22-.03-.16-.1-.21c-.07-.05-.19-.08-.37-.11-.18-.02-.45-.03-.81-.03h-.84Z"/>
      <path class="cls-1" d="m114.55,129.8c-.49-.02-.86-.04-1.09-.04v2.12c.24,0,.6-.02,1.09-.04v1.24h-3.61v-1.24c.48.02.84.04,1.09.04v-2.12c-.25,0-.61.02-1.09.04v-1.24h3.61v1.24Z"/>
      <path class="cls-1" d="m118.97,133.07c-.08-.24-.18-.53-.32-.89h-1.98l-.31.89h-1.56l1.74-4.51h2.28l1.75,4.51h-1.61Zm-.67-1.86c-.16-.43-.32-.87-.48-1.3l-.15-.4c-.14.38-.36.95-.64,1.71h1.27Z"/>
      <path class="cls-1" d="m125.75,129.8c-.49-.02-.86-.04-1.09-.04v2.12c.24,0,.6-.02,1.09-.04v1.24h-3.61v-1.24c.48.02.84.04,1.09.04v-2.12c-.25,0-.61.02-1.09.04v-1.24h3.61v1.24Z"/>
      <path class="cls-1" d="m131.45,128.57c-.03.7-.04,1.45-.04,2.25s.01,1.55.04,2.25h-2.22l-1.5-3.39.11,3.39h-1.6c.03-.8.05-1.55.05-2.25s-.02-1.44-.05-2.25h2.28l1.51,3.48-.11-3.48h1.52Z"/>
      <path class="cls-1" d="m132.62,132.53c-.44-.4-.66-.96-.66-1.7s.22-1.33.66-1.76c.44-.43,1.13-.65,2.07-.65,1.31,0,2.18.45,2.63,1.35-.37.13-.81.32-1.31.58-.12-.23-.31-.4-.57-.52s-.52-.17-.79-.17c-.4,0-.69.1-.89.31-.19.21-.29.47-.29.77,0,.33.1.6.31.81.21.21.53.31.96.31.34,0,.62-.06.82-.17.2-.11.35-.29.45-.54.34.18.77.39,1.3.61-.21.5-.55.85-1.04,1.05-.48.2-1.01.3-1.58.3-.94,0-1.62-.2-2.07-.6Z"/>
      <path class="cls-1" d="m137.93,132.93c-.13-.13-.19-.29-.19-.47s.06-.34.19-.47c.13-.13.28-.19.47-.19s.33.07.46.2c.13.13.2.28.2.46s-.07.34-.2.47c-.13.13-.28.2-.46.2s-.34-.07-.47-.2Z"/>
    </g>
    <g>
      <g id="Logo_La_IND" data-name="Logo La IND">
        <path class="cls-2" d="m108.28,92.24c-2.36,2.4-5.44,4.09-8.89,4.72v6.03l-24.02-13.09v31.17h9.16v-15.74l14.86,8.1v7.65h9.28v-28.71l-.39-.12Zm30.1,9.73c-.94-3.78-3.02-6.89-6.39-8.58-3.17-1.59-15.91-3.35-19.98-3.85v31.52l13.52.41c1.61.05,3.42-.18,5.42-.69,1.46-.37,2.82-1.17,4.1-2.39,1.28-1.22,2.27-2.74,2.98-4.58,1.47-3.75,1.31-7.94.35-11.84Zm-9.08,9.4c-.46,1.11-1.09,1.87-1.89,2.3-.81.43-2.16.61-4.07.55l-2.24-.07v-15.98l2.28.07c2.36.07,4.06.74,5.08,2,1.02,1.26,1.53,2.33,1.53,5.67,0,2.52-.23,4.33-.68,5.45Zm-58.26-29.27l-9.14.08-1,38.88h11.15l-1.02-38.96Z"/>
      </g>
      <path class="cls-1" d="m110.85,80.53c0,2.14-.47,4.17-1.29,5.99-2.11,4.64-6.59,7.96-11.89,8.43-.43.04-.86.06-1.31.06-.24,0-.48-.01-.71-.02-3.02-.15-5.8-1.21-8.05-2.93-.42-.32-.82-.66-1.2-1.02-2.79-2.63-4.54-6.37-4.54-10.51h-.04c0-2.97-2.41-5.37-5.37-5.37s-5.38,2.4-5.38,5.37h-9.12c0-8,6.48-14.49,14.49-14.49,3.85,0,7.36,1.51,9.95,3.97,2.8,2.64,4.54,6.38,4.54,10.52h.04c0,2.96,2.41,5.37,5.38,5.37s5.37-2.41,5.37-5.37h9.13Z"/>
    </g>
  </g>
  <g>
    <g>
      <path class="cls-1" d="m40.05,97.25l.24,3.66.71-.04c-.01-.23-.03-.57-.06-1.03-.05-.79-.12-1.59-.19-2.41l1.32-.09c.02.82.06,1.68.12,2.59.02.38.04.66.06.85l1.68-.11.1,1.59c-.87.02-1.69.06-2.45.1-.76.05-1.57.12-2.44.21l-.34-5.25,1.26-.08Z"/>
      <path class="cls-1" d="m43.92,91.13c-.26.07-.59.16-.99.28l-.13,2.15.94.4-.1,1.69-4.77-2.18.15-2.48,5-1.6-.11,1.74Zm-2.06.6c-.48.14-.96.29-1.45.44l-.45.14c.4.18,1,.45,1.81.81l.08-1.38Z"/>
      <path class="cls-1" d="m43.9,82.02c.3.06.54.18.72.36.18.18.3.45.34.83.05.38.01.88-.11,1.5l-.59,2.98c-.85-.2-1.65-.38-2.39-.53-.74-.15-1.55-.29-2.41-.42l.31-1.55h0s.28-1.41.28-1.41c.11-.55.24-.97.39-1.27.15-.3.33-.49.53-.59.2-.1.43-.12.69-.07.27.05.49.19.66.42.17.23.28.58.32,1.06.2-1.01.62-1.45,1.26-1.32Zm-2.92,3.41l.62.12.25-1.27c.05-.27.07-.47.04-.59-.03-.12-.11-.19-.23-.21-.1-.02-.18.02-.25.13-.06.1-.12.29-.17.55l-.25,1.27Zm2.63-.8c.05-.23.07-.41.08-.53,0-.13-.01-.22-.06-.28s-.1-.1-.19-.12c-.11-.02-.21.02-.28.14-.08.12-.15.34-.21.66l-.25,1.27.67.13.25-1.27Z"/>
      <path class="cls-1" d="m45.34,74.78c.19.27.28.64.24,1.12.09-.03.15-.05.2-.05l1.79-.55-.59,1.74c-.41.07-1.01.2-1.78.38l-.32.94,1.48.5-.51,1.51c-.82-.31-1.58-.59-2.3-.84-.72-.24-1.5-.49-2.34-.74l.51-1.51h0s.45-1.31.45-1.31c.29-.86.63-1.41,1.03-1.66.39-.25.82-.29,1.3-.13.37.13.65.32.85.59Zm-2.39,2.93l.73.25.29-.86c.12-.36.2-.64.24-.83.04-.19.04-.34.02-.43-.03-.09-.09-.15-.19-.18-.09-.03-.18-.02-.25.03s-.15.17-.24.35-.19.45-.31.82l-.29.86Z"/>
      <path class="cls-1" d="m46.9,68.28c-.26.47-.44.82-.56,1.05l2.08,1c.11-.24.27-.6.47-1.09l1.21.58-1.7,3.53-1.21-.58c.25-.45.43-.8.56-1.04l-2.08-1c-.11.25-.27.61-.47,1.08l-1.21-.58,1.7-3.53,1.21.58Z"/>
      <path class="cls-1" d="m50.93,67.13c-.62.17-1.27.04-1.94-.39-.68-.43-1.08-.98-1.21-1.64-.13-.66.08-1.41.63-2.27.77-1.19,1.69-1.73,2.77-1.61-.1.41-.18.93-.24,1.54-.28-.03-.55.04-.8.22-.25.17-.46.38-.62.62-.23.36-.31.69-.23.99.08.3.25.54.53.72.3.19.61.26.92.19s.6-.3.85-.69c.2-.31.31-.6.33-.85.02-.25-.06-.49-.23-.73.36-.2.81-.48,1.33-.83.34.48.45,1.01.35,1.56-.1.56-.32,1.1-.66,1.62-.55.85-1.14,1.37-1.76,1.54Z"/>
      <path class="cls-1" d="m58.18,58.31c-.25-.1-.57-.23-.96-.37l-1.41,1.63.51.89-1.11,1.28-2.47-4.63,1.62-1.88,4.95,1.76-1.14,1.32Zm-2-.77c-.47-.18-.94-.35-1.41-.53l-.44-.16c.21.39.52.97.95,1.74l.9-1.05Z"/>
      <path class="cls-1" d="m61.49,48.39c.48.59,1.01,1.21,1.59,1.85.58.65,1.13,1.25,1.66,1.8l-1.8,1.61-3.67-1.67,2.54,2.67-1.3,1.15c-.55-.68-1.08-1.3-1.59-1.87-.5-.57-1.05-1.16-1.66-1.79l1.85-1.65,3.74,1.74-2.6-2.75,1.24-1.1Z"/>
      <path class="cls-1" d="m67.14,44.6c.52-.11.96-.07,1.33.12.36.19.7.5.99.93.28.41.44.84.46,1.27s-.09.86-.34,1.29c-.26.42-.65.82-1.2,1.19-.33.23-.67.46-1.01.69-.34.23-.69.47-1.04.7-.47-.75-.92-1.44-1.36-2.07-.44-.64-.91-1.29-1.41-1.97.42-.34,1-.77,1.74-1.28.7-.48,1.31-.77,1.82-.88Zm.64,3.59c.35-.24.52-.48.52-.72,0-.25-.1-.52-.3-.81-.19-.28-.41-.47-.65-.56-.24-.09-.53-.03-.86.21-.36.25-.62.44-.78.59l1.27,1.85.81-.55Z"/>
      <path class="cls-1" d="m73,45.76c-.64-.17-1.14-.62-1.52-1.33-.37-.71-.45-1.38-.23-2s.79-1.17,1.71-1.65c.92-.48,1.7-.63,2.34-.46.64.18,1.14.62,1.51,1.33.38.72.45,1.39.23,2.01-.22.62-.79,1.17-1.72,1.65-.91.48-1.69.63-2.33.46Zm2.51-2.43c.11-.27.07-.59-.12-.95-.18-.35-.42-.56-.7-.63-.28-.07-.65.01-1.09.24-.44.23-.71.48-.82.75-.1.27-.07.58.12.94.19.36.42.57.7.64.29.07.65-.01,1.09-.24.44-.23.72-.48.82-.75Z"/>
      <path class="cls-1" d="m84.44,38.56l2.77-.79.77,2.68-1.14.33-.46-1.11c-.01.45-.16.82-.43,1.11-.28.29-.65.51-1.13.65-.44.13-.85.14-1.25.04-.4-.1-.74-.3-1.04-.61-.3-.31-.51-.7-.65-1.19-.22-.77-.16-1.45.17-2.03.34-.58.99-1.01,1.97-1.29.56-.16,1.07-.21,1.55-.15.48.06.92.24,1.33.53-.17.16-.49.46-.97.92l-.14.14c-.22-.12-.45-.19-.7-.21-.25-.02-.5,0-.75.08-.41.12-.69.32-.83.59-.14.28-.17.57-.08.89.1.35.29.59.57.74.28.15.64.16,1.09.03.19-.06.38-.14.54-.25.17-.11.29-.25.38-.42l-1.27.36-.3-1.05Z"/>
      <path class="cls-1" d="m94.71,37.13c-.15.29-.45.53-.9.71.06.06.11.11.14.15l1.29,1.36-1.82.24c-.25-.34-.62-.81-1.14-1.43l-.98.13.21,1.55-1.58.21c-.08-.87-.17-1.68-.27-2.43-.1-.75-.23-1.56-.38-2.42l1.58-.21h0s1.37-.18,1.37-.18c.9-.12,1.55-.06,1.94.18.39.24.63.61.69,1.11.05.39,0,.73-.15,1.02Zm-3.68-.84l.1.76.9-.12c.38-.05.66-.1.85-.15s.32-.11.39-.17.1-.15.08-.25c-.01-.1-.06-.17-.14-.21-.08-.04-.22-.06-.42-.06-.2,0-.49.03-.87.08l-.9.12Z"/>
      <path class="cls-1" d="m101.17,39.26c-.08-.26-.2-.58-.34-.97l-2.15-.02-.34.96h-1.69s1.92-4.9,1.92-4.9l2.48.02,1.87,4.91h-1.75Zm-.71-2.04c-.17-.47-.34-.95-.52-1.42l-.16-.44c-.16.41-.4,1.03-.71,1.85h1.38Z"/>
      <path class="cls-1" d="m110.91,35.46c-.15.75-.29,1.55-.42,2.41-.13.86-.24,1.67-.33,2.43l-2.39-.37-1.05-3.89-.45,3.66-1.71-.27c.17-.86.31-1.66.43-2.41.12-.75.22-1.55.32-2.42l2.45.38,1.04,3.99.47-3.76,1.63.25Z"/>
      <path class="cls-1" d="m117.48,37.5c.41.34.66.71.74,1.11s.05.85-.1,1.36c-.14.48-.38.86-.7,1.16-.32.29-.73.47-1.22.54-.49.07-1.05,0-1.68-.18-.38-.11-.77-.23-1.17-.35-.4-.12-.8-.24-1.2-.36.29-.84.54-1.63.76-2.36.22-.74.43-1.52.64-2.34.53.11,1.22.3,2.09.55.81.24,1.42.53,1.83.87Zm-2.38,2.76c.4.12.7.1.89-.05.19-.15.34-.4.44-.74.1-.33.11-.61.03-.86-.08-.24-.31-.42-.7-.54-.42-.13-.73-.21-.95-.24l-.64,2.15.94.28Z"/>
      <path class="cls-1" d="m121.25,42.53c1.57.67,2.72,1.13,3.45,1.4-.1.16-.19.33-.28.5-.08.18-.18.4-.3.67l-4.82-2.07c.38-.79.71-1.53,1.01-2.23s.61-1.46.92-2.27l4.82,2.07-.48,1.12-3.35-1.44-.26.59c.2.09.49.22.88.38.66.28,1.34.56,2.06.84l-.46,1.07c-.69-.33-1.37-.63-2.02-.91-.39-.17-.68-.29-.88-.37l-.28.64Z"/>
      <path class="cls-1" d="m126.95,45.17c.19-.12.39-.27.6-.44.18.32.43.63.74.94.31.3.63.55.94.73.32.19.56.29.73.31.16.02.27,0,.31-.07.14-.24-.15-.57-.87-.99-.79-.46-1.32-.88-1.58-1.26-.26-.37-.28-.74-.06-1.11.31-.52.75-.78,1.33-.77.58,0,1.22.21,1.91.62.4.24.79.53,1.15.88.36.35.66.72.9,1.09-.26.19-.57.43-.91.73-.07.06-.12.11-.16.14-.1-.28-.33-.58-.66-.92-.34-.34-.66-.6-.96-.78-.37-.21-.63-.34-.79-.36-.16-.03-.26,0-.32.1-.06.09-.01.22.13.38s.38.34.72.53c.82.48,1.36.93,1.63,1.33.26.41.28.8.05,1.19-.32.54-.75.82-1.28.82-.53,0-1.2-.23-2.01-.7-.43-.25-.84-.56-1.23-.91-.39-.36-.71-.73-.96-1.12.25-.12.47-.24.65-.36Z"/>
      <path class="cls-1" d="m138.13,54.59c.1-.25.23-.57.38-.95l-1.62-1.41-.89.5-1.28-1.11,4.65-2.44,1.87,1.63-1.79,4.94-1.31-1.15Zm.78-2c.18-.47.36-.94.54-1.41l.17-.44c-.39.2-.97.52-1.74.94l1.04.91Z"/>
      <path class="cls-1" d="m145.79,59.42c-.33.03-.69-.09-1.09-.36-.02.09-.04.15-.05.2l-.43,1.82-1.2-1.38c.15-.39.34-.97.57-1.73l-.65-.75-1.18,1.03-1.04-1.2c.68-.55,1.31-1.07,1.88-1.57.57-.5,1.18-1.05,1.81-1.65l1.04,1.2h0s.91,1.05.91,1.05c.6.69.9,1.26.92,1.72.02.46-.16.86-.54,1.19-.3.26-.61.4-.94.43Zm-1.32-3.54l-.58.5.6.69c.25.29.45.5.6.63.15.13.27.21.36.23.09.02.18,0,.25-.07.08-.06.11-.14.1-.23,0-.09-.07-.22-.18-.38s-.3-.39-.55-.68l-.6-.69Z"/>
      <path class="cls-1" d="m151.42,65.42c-.37-.6-.74-1.18-1.1-1.74l-2.94,1.94-.93-1.41,2.94-1.94c-.37-.56-.76-1.12-1.16-1.69l1.18-.78,3.19,4.83-1.18.78Z"/>
      <path class="cls-1" d="m154.38,71.02c-.21-.49-.38-.85-.48-1.08l-2.07,1.03c.12.23.31.58.57,1.04l-1.2.6-1.74-3.51,1.2-.6c.21.48.37.84.48,1.08l2.07-1.03c-.12-.24-.31-.58-.57-1.04l1.2-.6,1.74,3.51-1.2.6Z"/>
      <path class="cls-1" d="m153.32,74.43c.22.03.47.04.75.05-.07.36-.08.76-.04,1.19.04.43.13.82.25,1.16.13.35.24.59.36.71.11.12.2.17.28.14.26-.09.25-.53-.03-1.32-.31-.86-.44-1.52-.39-1.98.04-.45.26-.75.67-.89.57-.2,1.08-.11,1.52.27.44.38.79.95,1.06,1.71.16.44.26.91.31,1.42.05.5.05.98-.02,1.42-.33-.03-.71-.03-1.16-.03-.09,0-.16,0-.21,0,.1-.28.13-.66.09-1.13-.04-.48-.12-.89-.23-1.22-.14-.4-.26-.67-.37-.79-.1-.12-.21-.16-.31-.13-.1.04-.15.16-.14.38,0,.21.07.5.2.87.32.9.45,1.59.38,2.07-.06.48-.31.79-.73.94-.59.21-1.1.14-1.51-.2-.41-.34-.78-.95-1.09-1.83-.17-.47-.28-.97-.35-1.49s-.07-1.02,0-1.48c.27.07.51.12.73.15Z"/>
      <path class="cls-1" d="m159.01,86.46c-.12-.7-.25-1.37-.39-2.02l-3.44.73-.35-1.65,3.44-.73c-.14-.65-.3-1.32-.46-2l1.39-.29,1.2,5.67-1.39.29Z"/>
      <path class="cls-1" d="m156.17,92.93c.25-.11.56-.25.93-.42l-.17-2.14-.99-.26-.13-1.69,5.03,1.49.2,2.47-4.73,2.29-.14-1.74Zm1.95-.89c.46-.21.91-.42,1.37-.64l.42-.2c-.42-.13-1.06-.31-1.9-.54l.11,1.38Z"/>
      <path class="cls-1" d="m157.51,96.64c.19.11.42.22.67.33-.2.31-.36.67-.49,1.09-.13.41-.19.81-.21,1.17-.02.37,0,.64.06.79.06.16.12.24.2.24.27.01.43-.4.47-1.23.05-.92.18-1.58.39-1.98.21-.4.53-.59.96-.57.61.03,1.04.3,1.3.82.26.52.37,1.18.33,1.98-.02.47-.11.94-.25,1.43-.14.49-.33.92-.56,1.31-.29-.15-.64-.3-1.06-.47-.09-.03-.15-.06-.2-.08.2-.22.37-.56.51-1.01.15-.46.23-.86.25-1.22.02-.43,0-.72-.04-.87-.05-.15-.13-.23-.23-.24s-.2.09-.28.29c-.08.2-.12.49-.14.88-.05.95-.19,1.64-.43,2.06-.24.42-.58.62-1.03.6-.63-.03-1.07-.28-1.32-.76-.25-.47-.36-1.17-.31-2.1.03-.5.11-1,.24-1.51.14-.51.32-.97.55-1.37.22.16.43.3.62.41Z"/>
    </g>
    <g>
      <path class="cls-1" d="m68.32,156.05c.18-.14.36-.3.56-.49.21.31.48.6.81.87.33.28.67.49,1,.65.33.16.58.25.75.26.17,0,.26-.02.3-.09.12-.25-.2-.55-.95-.92-.83-.4-1.38-.77-1.67-1.13-.29-.35-.34-.72-.16-1.1.26-.55.69-.84,1.27-.88.58-.04,1.23.12,1.96.47.42.2.83.47,1.22.79.39.32.72.66.98,1.02-.25.21-.53.48-.84.8-.06.07-.11.12-.15.15-.13-.27-.37-.56-.73-.87-.36-.31-.7-.55-1.02-.7-.38-.19-.66-.29-.81-.3-.16-.02-.26.03-.31.12-.05.1,0,.22.16.37.16.15.41.31.76.48.86.41,1.43.82,1.73,1.2.3.38.34.78.15,1.18-.27.57-.68.87-1.21.92-.53.05-1.22-.13-2.06-.53-.45-.22-.88-.49-1.3-.81s-.77-.67-1.05-1.04c.24-.14.45-.28.62-.41Z"/>
      <path class="cls-1" d="m79.74,158.39c-.49-.21-.86-.36-1.1-.45l-.8,2.16c.25.09.62.21,1.13.37l-.46,1.26-3.68-1.35.46-1.26c.48.2.84.36,1.09.45l.8-2.16c-.26-.09-.63-.21-1.12-.36l.46-1.26,3.68,1.36-.46,1.26Z"/>
      <path class="cls-1" d="m87.55,159.23c-.23.73-.45,1.51-.68,2.35-.23.84-.42,1.63-.58,2.38l-2.33-.62-.63-3.98-.83,3.59-1.68-.45c.26-.83.49-1.62.68-2.35.2-.73.39-1.52.58-2.37l2.4.64.61,4.08.86-3.68,1.6.43Z"/>
      <path class="cls-1" d="m89.48,164.02c-.41-.5-.56-1.14-.44-1.94.12-.8.45-1.39,1-1.78.55-.39,1.32-.51,2.33-.36,1.4.21,2.27.84,2.6,1.87-.42.08-.92.21-1.5.41-.09-.27-.27-.48-.53-.65-.26-.16-.53-.26-.82-.31-.43-.06-.76,0-1.01.19-.24.19-.39.45-.44.78-.05.36.01.66.21.92.19.26.52.42.98.49.37.06.67.04.91-.05.24-.09.43-.26.57-.51.33.25.77.54,1.3.87-.3.51-.73.82-1.28.96-.55.14-1.14.16-1.75.06-1.01-.15-1.71-.48-2.12-.97Z"/>
      <path class="cls-1" d="m98.57,164.35c1.71.03,2.95.03,3.72,0-.03.18-.06.37-.07.57-.01.19-.02.44-.03.74l-5.24-.11c.05-.87.09-1.69.11-2.45.02-.76.01-1.58,0-2.45l5.24.11-.03,1.22-3.65-.08v.65c.2,0,.52.02.95.03.71.01,1.45.02,2.22,0l-.02,1.16c-.76-.04-1.5-.07-2.22-.09-.42,0-.74-.01-.96-.01v.7Z"/>
      <path class="cls-1" d="m112.65,163.1c-.04.24-.06.5-.06.76,0,.26.01.5.05.71l-4.77.72-.03-.14c-.06-.44,0-.83.21-1.19.21-.36.52-.71.94-1.05.12-.1.31-.23.58-.4.35-.21.61-.4.79-.55.18-.15.26-.29.25-.41-.02-.15-.1-.26-.24-.33-.14-.07-.34-.09-.6-.05-.29.04-.5.15-.62.32-.13.17-.17.37-.14.59.01.07.03.14.05.22-.57.01-1.12.05-1.65.1-.06-.38-.01-.73.14-1.07.15-.33.41-.62.79-.86.37-.24.84-.4,1.42-.49.53-.08.98-.07,1.36.02.38.09.66.24.86.43s.32.41.35.64c.04.27.02.5-.07.71-.09.21-.23.4-.43.59s-.47.39-.81.62c-.05.04-.13.08-.25.13-.12.05-.19.08-.22.1-.3.14-.54.26-.72.35-.18.09-.34.19-.49.31,1.43-.3,2.54-.55,3.32-.77Z"/>
      <path class="cls-1" d="m115.83,163.26c-.56-.31-.95-.84-1.16-1.6-.21-.76-.16-1.41.17-1.96.33-.55.95-.96,1.88-1.22.93-.26,1.67-.24,2.23.06.56.3.95.83,1.16,1.59.21.76.16,1.42-.16,1.97-.32.55-.95.96-1.87,1.22-.93.26-1.68.24-2.24-.06Zm2.69-1.68c.11-.3.12-.63.01-1-.1-.37-.28-.65-.53-.84-.25-.19-.58-.24-.97-.12-.41.12-.67.32-.79.62-.12.3-.12.63-.02,1,.1.37.28.65.53.84s.59.23,1,.12c.4-.11.65-.32.77-.61Z"/>
      <path class="cls-1" d="m125.14,159.46c.37-.16.64-.28.82-.36l.48,1.18-3.31,1.34-.48-1.18c.46-.17.8-.29,1.03-.39l-.87-2.16c-.02.39-.24.73-.66,1.01-.21-.49-.44-.92-.68-1.29.31-.18.52-.33.63-.45.1-.12.17-.24.21-.35.04-.11.06-.19.08-.23h0s1.36-.57,1.36-.57l1.4,3.44Z"/>
      <path class="cls-1" d="m130.3,156.99c.36-.19.62-.34.79-.44l.59,1.13-3.17,1.64-.58-1.13c.44-.21.77-.37.99-.48l-1.07-2.07c.02.39-.17.74-.56,1.07-.26-.46-.52-.87-.8-1.22.3-.21.49-.38.58-.51.09-.13.15-.26.18-.37.03-.12.05-.19.06-.24h0s1.3-.69,1.3-.69l1.71,3.3Z"/>
    </g>
    <path class="cls-1" d="m51.27,130.85c0,1.34-1.09,2.43-2.43,2.43s-2.43-1.09-2.43-2.43,1.09-2.43,2.43-2.43,2.43,1.09,2.43,2.43Z"/>
    <circle class="cls-1" cx="151.55" cy="130.85" r="2.43"/>
  </g>
</svg>