<?xml version="1.0" encoding="UTF-8"?>
<svg id="Capa_1" data-name="Capa 1" xmlns="http://www.w3.org/2000/svg" viewBox="0 0 200 200">
  <defs>
    <style>
      .cls-1 {
        fill: #fff;
      }
    </style>
  </defs>
  <path class="cls-1" d="m24.81,92.28h3.43v15.49h-3.43v-15.49Z"/>
  <path class="cls-1" d="m46.39,98.89v8.88h-3.43v-8.41c0-2.76-1.29-4.09-3.49-4.09-2.45,0-4.09,1.57-4.09,4.67v7.83h-3.43v-15.49h3.27v2c1.13-1.42,2.91-2.18,5.05-2.18,3.52,0,6.13,2.12,6.13,6.79Z"/>
  <path class="cls-1" d="m57.78,106.93c-.82.7-2.06,1.04-3.3,1.04-3.21,0-5.05-1.8-5.05-5.22v-13.9h3.43v3.54h3.93v2.9h-3.93v7.37c0,1.51.74,2.32,2.03,2.32.71,0,1.4-.2,1.92-.64l.96,2.58Z"/>
  <path class="cls-1" d="m70.67,103.21l1.81,2.23c-1.29,1.65-3.35,2.52-5.88,2.52-4.92,0-8.1-3.34-8.1-7.95s3.19-7.92,7.55-7.92c4.09,0,7.39,2.9,7.42,7.75l-11.24,2.32c.71,1.77,2.31,2.73,4.45,2.73,1.65,0,2.91-.55,3.98-1.68Zm-8.85-3.39v.03l8.3-1.68c-.47-1.89-2.01-3.16-4.07-3.16-2.5,0-4.23,1.86-4.23,4.82Z"/>
  <path class="cls-1" d="m84.84,92.1v3.45c-.3-.06-.55-.09-.8-.09-2.61,0-4.26,1.62-4.26,4.79v7.51h-3.43v-15.49h3.27v2.26c.99-1.62,2.77-2.44,5.22-2.44Z"/>
  <path class="cls-1" d="m101.55,92.28v15.49h-3.27v-2c-1.15,1.48-2.86,2.2-4.86,2.2-4.29,0-7.42-3.13-7.42-7.95s3.13-7.92,7.42-7.92c1.87,0,3.52.67,4.7,2.06v-1.89h3.43Zm-3.38,7.75c0-2.96-1.87-4.84-4.37-4.84s-4.34,1.89-4.34,4.84,1.87,4.84,4.34,4.84,4.37-1.89,4.37-4.84Z"/>
  <path class="cls-1" d="m104.03,100.02c0-4.64,3.3-7.92,7.94-7.92,2.86,0,5.14,1.25,6.26,3.6l-2.64,1.62c-.88-1.48-2.2-2.15-3.65-2.15-2.53,0-4.45,1.86-4.45,4.84s1.92,4.84,4.45,4.84c1.46,0,2.77-.67,3.65-2.15l2.64,1.62c-1.13,2.32-3.41,3.63-6.26,3.63-4.64,0-7.94-3.31-7.94-7.95Z"/>
  <path class="cls-1" d="m128.89,106.93c-.82.7-2.06,1.04-3.3,1.04-3.21,0-5.05-1.8-5.05-5.22v-13.9h3.43v3.54h3.93v2.9h-3.93v7.37c0,1.51.74,2.32,2.03,2.32.71,0,1.4-.2,1.92-.64l.96,2.58Z"/>
  <path class="cls-1" d="m145.51,92.28v15.49h-3.27v-1.97c-1.1,1.42-2.83,2.18-4.73,2.18-3.76,0-6.32-2.18-6.32-6.85v-8.85h3.43v8.36c0,2.81,1.26,4.15,3.43,4.15,2.39,0,4.01-1.57,4.01-4.67v-7.83h3.43Z"/>
  <path class="cls-1" d="m163.54,92.28v15.49h-3.27v-2c-1.15,1.48-2.86,2.2-4.86,2.2-4.29,0-7.42-3.13-7.42-7.95s3.13-7.92,7.42-7.92c1.87,0,3.52.67,4.7,2.06v-1.89h3.43Zm-3.38,7.75c0-2.96-1.87-4.84-4.37-4.84s-4.34,1.89-4.34,4.84,1.87,4.84,4.34,4.84,4.37-1.89,4.37-4.84Z"/>
  <path class="cls-1" d="m175.72,92.1v3.45c-.3-.06-.55-.09-.8-.09-2.61,0-4.26,1.62-4.26,4.79v7.51h-3.43v-15.49h3.27v2.26c.99-1.62,2.77-2.44,5.22-2.44Z"/>
  <circle class="cls-1" cx="26.53" cy="86.53" r="2.25"/>
  <circle class="cls-1" cx="26.53" cy="113.47" r="2.25"/>
</svg>