<?xml version="1.0" encoding="UTF-8"?>
<svg id="Capa_1" data-name="Capa 1" xmlns="http://www.w3.org/2000/svg" viewBox="0 0 200 200">
  <defs>
    <style>
      .cls-1 {
        fill: #fff;
      }
    </style>
  </defs>
  <path class="cls-1" d="m149.39,94.04h4.94v-3.77h-15.53v3.77h4.94c.52,0,.94.42.94.94v14.76h3.77v-14.76c0-.52.42-.94.94-.94Z"/>
  <path class="cls-1" d="m125.47,105.97h8.88v3.77h-13.59v-19.47h13.59v3.77h-8.88c-.52,0-.94.42-.94.94v2.2c0,.52.42.94.94.94h7.94v3.77h-7.94c-.52,0-.94.42-.94.94v2.2c0,.52.42.94.94.94Z"/>
  <path class="cls-1" d="m111.53,100.1c2.38-.72,3.88-3.08,3.51-5.55-.37-2.46-2.48-4.29-4.97-4.29h-9.81v19.47h3.77v-8.48c0-.52.42-.94.94-.94h.59c.35,0,.67.2.84.51,1.55,2.97,3.1,5.94,4.65,8.91h4.25c-1.44-2.77-2.89-5.53-4.33-8.3-.27-.52,0-1.17.56-1.34Z"/>
  <path class="cls-1" d="m81.92,103.67v6.06h-3.77v-19.47h3.77v6.06c0,.84,1.01,1.26,1.61.67,2.26-2.24,4.52-4.49,6.77-6.73h5.35c-3.04,3.02-6.08,6.04-9.12,9.07-.37.37-.37.97,0,1.34,3.04,3.02,6.08,6.04,9.12,9.07h-5.35c-2.26-2.24-4.52-4.49-6.77-6.73-.59-.59-1.61-.17-1.61.67Z"/>
  <path class="cls-1" d="m67.1,100.72v-10.45h3.77v19.47h-4.28c-2.49-3.66-4.98-7.32-7.47-10.98-.52-.77-1.72-.4-1.72.53v10.45h-3.77v-19.47h4.28c2.49,3.66,4.98,7.32,7.47,10.98.52.77,1.72.4,1.72-.53Z"/>
  <path class="cls-1" d="m10.54,103.01c2.26,2.24,4.52,4.49,6.77,6.73h5.35c-3.04-3.02-6.08-6.04-9.12-9.07-.37-.37-.37-.97,0-1.34,3.04-3.02,6.08-6.04,9.12-9.07h-5.35c-2.26,2.24-4.52,4.49-6.77,6.73-.59.59-1.61.17-1.61-.67v-6.06h-3.77v19.47h3.77v-6.06c0-.84,1.01-1.26,1.61-.67Z"/>
  <path class="cls-1" d="m187.06,93.55c-.6,0-1.18.24-1.61.67-.43.43-.67,1.01-.67,1.61,0,.6.24,1.19.67,1.61.43.43,1.01.67,1.61.67h1.73c1.6,0,3.14.64,4.28,1.77,1.13,1.13,1.77,2.67,1.77,4.28,0,1.6-.64,3.14-1.77,4.28-1.13,1.13-2.67,1.77-4.28,1.77h-7.78v-3.77h7.78c.6,0,1.18-.24,1.61-.67.43-.43.67-1.01.67-1.61,0-.6-.24-1.18-.67-1.61-.43-.43-1.01-.67-1.61-.67h-1.73c-1.6,0-3.14-.64-4.28-1.77-1.13-1.13-1.77-2.67-1.77-4.28,0-1.6.64-3.14,1.77-4.28,1.13-1.13,2.67-1.77,4.28-1.77h7.78v3.77h-7.78Z"/>
  <path class="cls-1" d="m159.49,90.27v12.04c0,4.36,3.54,7.9,7.9,7.9,4.36,0,7.9-3.54,7.9-7.9v-12.04h-3.77v12.04c0,2.28-1.85,4.13-4.13,4.13-2.28,0-4.13-1.85-4.13-4.13v-12.04h-3.77Z"/>
  <circle class="cls-1" cx="36.8" cy="100" r="10.21"/>
</svg>