<?xml version="1.0" encoding="UTF-8"?>
<svg id="Capa_1" data-name="Capa 1" xmlns="http://www.w3.org/2000/svg" viewBox="0 0 200 200">
  <defs>
    <style>
      .cls-1 {
        fill: #fff;
        fill-rule: evenodd;
      }
    </style>
  </defs>
  <path class="cls-1" d="m27.26,118.97v-50.26h35.57v50.26H27.26Zm34.29-1.28v-47.7H28.54v47.7h33.01,0Zm5.1,1.28v-50.26h35.57v50.26h-35.57Zm36.6-1.28l-.71-11.41-1.6-7.77v-28.51h-33.01v35.91l-3.05,5.6,3.05,1.87v4.32h35.32Zm2.78,1.28v-50.26h35.56v50.26h-35.56,0Zm34.29-1.28v-47.7h-33.01v47.7h33.01Zm5.09,1.28v-50.26h35.56v50.26h-35.56Zm34.29-1.28v-47.7h-33.01v47.7h33.01Z"/>
  <path class="cls-1" d="m151.61,117.75l1.6-5.14h14.4l-4.82,17.16c-1.92.76-8.31,1.52-12.86,1.52-6.84,0-16.77-4.55-12.69-17.98,4.88-16.06,13.36-17.58,20.2-17.58,9.99,0,13.55,6.45,11.76,11.65h-6.98c.11-.24.15-.58.23-.85,1.21-4.05-1.28-5.69-5.67-5.9-6.48-.31-9.99,4.82-12.19,12.47-2.38,8.26-.38,13.3,6.82,13.27,5.72-.02,5.42-1.2,5.42-1.2l2.36-7.43h-7.59,0Zm-124.96,12.69h-7.62l10.2-33.99h7.62s-10.06,33.29-10.21,33.99h0Zm5.95-18.98h0l14.89-15.01h9.36l-16.83,15.72,8.56,18.27h-8.3l-7.67-19.01v.03s0,0,0,0Zm21.85,18.97l10.25-33.99h8.66c7.84-.09,16.28-.21,14.34,10.26-1.01,5.48-5.81,10.31-16.66,10.3h-5.59s-4.01,13.43-4.01,13.43h-6.99Zm12.33-18.42c2.53,0,4.37.04,6.07,0,5.11-.09,6.67-1.86,7.82-5.32,2-6.01-3.12-5.38-10.78-5.37l-3.12,10.68h0Zm57.39-15.58h11.17l-8.47,33.97h-7.88l8.65-29.1-18.8,29.1h-6.62l-1.76-29.1-8.62,29.1h-6.39l10.41-33.97h11.05s1.69,17.44.39,29.39c0,0,3.29-10.56,16.86-29.39h0Z"/>
</svg>