<?xml version="1.0" encoding="UTF-8"?>
<svg id="Capa_1" data-name="Capa 1" xmlns="http://www.w3.org/2000/svg" viewBox="0 0 200 200">
  <defs>
    <style>
      .cls-1 {
        fill: #fff;
      }
    </style>
  </defs>
  <g>
    <rect class="cls-1" x="13.43" y="85.05" width="6.57" height="30.22"/>
    <rect class="cls-1" x="25.27" y="93.96" width="6.53" height="21.32"/>
    <path class="cls-1" d="m28.58,84.28c-1.02,0-1.89.36-2.62,1.09-.73.73-1.09,1.6-1.09,2.62s.36,1.85,1.09,2.58c.73.73,1.6,1.09,2.62,1.09s1.85-.36,2.58-1.09c.73-.73,1.09-1.58,1.09-2.58s-.36-1.89-1.07-2.62c-.71-.73-1.58-1.09-2.6-1.09Z"/>
    <path class="cls-1" d="m53.04,94.64c-1.32-.81-2.77-1.21-4.35-1.21-1.1,0-2.12.2-3.06.6-.94.4-1.67.98-2.18,1.73v-10.72h-6.33v30.22h6.33v-1.93c.51.75,1.24,1.33,2.18,1.73.94.4,1.96.6,3.06.6,1.58,0,3.04-.4,4.35-1.21,1.32-.81,2.37-2.05,3.16-3.73.79-1.68,1.19-3.74,1.19-6.19s-.4-4.51-1.19-6.19c-.79-1.68-1.85-2.92-3.16-3.73Zm-2.72,14.24c-.77.98-1.75,1.47-2.96,1.47s-2.16-.5-2.92-1.51c-.77-1.01-1.15-2.44-1.15-4.29s.38-3.18,1.13-4.23c.75-1.05,1.75-1.57,2.98-1.57s2.19.49,2.94,1.47c.75.98,1.13,2.42,1.13,4.33s-.38,3.35-1.15,4.33Z"/>
    <path class="cls-1" d="m70.64,93.55c-2.12,0-3.99.44-5.6,1.31-1.61.87-2.86,2.14-3.75,3.81-.89,1.67-1.33,3.65-1.33,5.96,0,3.47.98,6.18,2.94,8.14,1.96,1.96,4.62,2.94,7.98,2.94,2.34,0,4.36-.6,6.06-1.81,1.71-1.21,2.88-2.91,3.53-5.12l-5.92-.81c-.32.86-.81,1.52-1.45,1.97-.64.46-1.4.68-2.26.68-1.24,0-2.27-.41-3.1-1.23-.83-.82-1.3-1.99-1.41-3.53h14.31l.08-1.53c-.03-3.6-.95-6.3-2.78-8.1-1.83-1.8-4.26-2.7-7.29-2.7Zm-4.19,8.26c.21-1.29.68-2.22,1.39-2.8.71-.58,1.66-.87,2.84-.87,1.02,0,1.87.31,2.56.93.69.62,1.08,1.53,1.19,2.74h-7.98Z"/>
    <path class="cls-1" d="m90.67,96.55v-2.6h-5.81v21.32h6.13v-8.16c0-5.74,2.98-7.24,4.97-7.6.53-.05,1.1-.08,1.72-.08v-5.16c-3.41,0-5.6,1.01-7.01,2.28Z"/>
  </g>
  <g>
    <polygon class="cls-1" points="171.1 115.2 178.74 115.2 171.1 105.36 171.1 115.2"/>
    <path class="cls-1" d="m128.95,106.08v-.69l-4.37,1.33c-.78.19-1.38.44-1.8.77-.42.32-.63.81-.63,1.45s.22,1.16.67,1.53c.45.38,1.06.56,1.84.56,1.18,0,2.19-.39,3.03-1.17.84-.78,1.25-2.04,1.25-3.79Z"/>
    <path class="cls-1" d="m150.03,98.71c-.99,0-1.79.31-2.4.93-.6.62-.92,1.63-.95,3.02v12.54h6.53v-12.58c0-2.61-1.06-3.91-3.18-3.91Z"/>
    <polygon class="cls-1" points="171.1 85.3 171.1 102.98 178.31 93.96 185.93 93.96 177.35 103.91 186.51 115.2 186.57 115.2 186.57 85.3 171.1 85.3"/>
    <path class="cls-1" d="m126.65,115.03c-.16.06-.33.11-.5.17h3.61c-.25-.5-.4-1.17-.45-2.02-.67.81-1.56,1.42-2.66,1.85Z"/>
    <path class="cls-1" d="m102.6,108.46v-9.03h-4.92v15.76h8.32c-.67-.29-1.22-.7-1.75-1.25-1.1-1.15-1.65-2.98-1.65-5.48Z"/>
    <path class="cls-1" d="m97.68,85.3v8.97h1.08c2.12,0,3.83-1.72,3.83-3.83v-2.52l5.12-2.62h-10.04Z"/>
    <path class="cls-1" d="m108.61,85.3v8.97h4.84v5.16h-4.84v7.78c0,4.08,4.84,3.14,4.84,3.14v4.84h6.63c-.74-.26-1.4-.63-1.98-1.11-1.28-1.06-1.91-2.59-1.91-4.57,0-1.5.38-2.71,1.13-3.63.75-.91,1.64-1.58,2.66-2.01,1.02-.43,2.23-.81,3.63-1.13l5.36-1.29v-.73c0-1.88-1.05-2.82-3.14-2.82-1.16,0-2.04.29-2.66.87-.62.58-.95,1.55-1.01,2.92l-5.72-1.13c.35-2.39,1.32-4.16,2.9-5.3,1.58-1.14,3.84-1.71,6.77-1.71,2.71,0,4.75.42,6.13,1.25,1.37.83,2.24,1.78,2.62,2.84.38,1.06.56,2.2.56,3.4v8.82c0,1.48.03,2.61.08,3.38.05.71.17,1.64.35,1.94h4.53l.08-20.91,6.25.03v1.93c1.4-1.8,3.43-2.7,6.08-2.7,2.12,0,3.79.56,5,1.67,1.21,1.11,1.81,2.67,1.81,4.65v15.32h4.96v-27.26l5.14-2.64h-61.07Z"/>
  </g>
</svg>