<?xml version="1.0" encoding="utf-8"?>
<!-- Generator: Adobe Illustrator 23.0.3, SVG Export Plug-In . SVG Version: 6.00 Build 0)  -->
<svg version="1.1" id="Group_261" xmlns="http://www.w3.org/2000/svg" xmlns:xlink="http://www.w3.org/1999/xlink" x="0px" y="0px"
	 viewBox="0 0 59.2 74" style="enable-background:new 0 0 59.2 74;" xml:space="preserve">
<style type="text/css">
	.st0{fill:#D1D1D1;}
</style>
<g id="Capa_5_1_">
	<g>
		<g id="Group_260_8_">
			<path id="Path_97_8_" class="st0" d="M18,42.8c-0.2,0-0.4,0-0.6,0v1.7h0.5c0.6,0,1-0.3,1-0.9C19,43,18.6,42.8,18,42.8z"/>
			<path id="Path_98_8_" class="st0" d="M39.7,16.6h-2.5V26H40c2.4,0,4.2-1.6,4.2-4.7C44.2,17.9,42.3,16.6,39.7,16.6z"/>
			<path id="Path_99_8_" class="st0" d="M36.6,43.5c0-0.5-0.4-0.7-1-0.7c-0.2,0-0.4,0-0.5,0v1.4h0.5C36.2,44.3,36.6,43.9,36.6,43.5z
				"/>
			<path id="Path_100_8_" class="st0" d="M35.5,44.9H35v1.7c0.2,0,0.3,0,0.5,0c0.6,0,1.2-0.2,1.2-0.9C36.7,45.2,36.2,44.9,35.5,44.9
				z"/>
			<path id="Path_101_8_" class="st0" d="M11.9,42.9L11.9,42.9c-0.1,0.3-0.2,0.7-0.3,1l-0.4,1.3h1.3l-0.4-1.3
				C12,43.5,12,43.2,11.9,42.9z"/>
			<path id="Path_102_8_" class="st0" d="M26.2,42.8c-0.2,0-0.4,0-0.5,0v1.8c0.2,0,0.3,0,0.5,0c0.7,0,1.1-0.4,1.1-1
				C27.3,43.1,26.9,42.8,26.2,42.8z"/>
			<path id="Path_103_8_" class="st0" d="M50.7,42.9L50.7,42.9c-0.1,0.3-0.2,0.7-0.3,1L50,45.1h1.3l-0.4-1.3
				C50.8,43.5,50.8,43.2,50.7,42.9z"/>
			<path id="Path_104_8_" class="st0" d="M54.2,0H0v54.2c0,2.8,2.2,5,5,5l0,0h24.6V74l14.8-14.8h14.8V5C59.2,2.2,57,0,54.2,0z
				 M6.3,38.8L9.6,38V17l-3.3-0.9v-2.3h13.8v2.3L15.5,17v21.4H22l1.7-6.5h2.8v9.2H6.2L6.3,38.8L6.3,38.8z M38.2,28.7h-1V38l3.3,0.9
				v2.3H28v-2.3l3.3-0.9V17L28,16.1v-2.3h12.2c6.9,0,10.1,2.6,10.1,7.1c0,3.2-2,5.5-5.7,6.6c2.2,0.7,3.5,2.3,4.4,5.2
				c1.5,5.3,2.5,6,4,6.1v2.3c-1,0.3-2,0.5-3,0.5c-3.3,0-4.8-1.1-6.5-7.1C42.1,29.7,41.3,28.7,38.2,28.7z"/>
		</g>
	</g>
</g>
</svg>
