<?xml version="1.0" encoding="UTF-8"?>
<svg id="Capa_1" data-name="Capa 1" xmlns="http://www.w3.org/2000/svg" viewBox="0 0 200 200">
  <defs>
    <style>
      .cls-1, .cls-2 {
        fill: #fff;
      }

      .cls-2 {
        fill-rule: evenodd;
      }
    </style>
  </defs>
  <g>
    <g>
      <path class="cls-2" d="m34.55,114.9c-3.66,1.11-6.79,1.66-9.39,1.66-4.43,0-8.05-1.46-10.85-4.41-2.79-2.97-4.18-6.8-4.18-11.51s1.23-8.32,3.68-11.25c2.48-2.93,5.63-4.39,9.47-4.39s6.44,1.3,8.42,3.89c2,2.59,2.99,6.27,2.99,11.05l-.03,1.69H15.69c.8,7.17,4.29,10.75,10.49,10.75,2.26,0,5.06-.61,8.36-1.83v4.33Zm-18.61-17.36h13.26c0-5.62-2.08-8.42-6.25-8.42s-6.53,2.8-7.01,8.42Z"/>
      <path class="cls-2" d="m38.17,115.88v-30.18h5.45v5.67c2.88-4.22,6.41-6.33,10.58-6.33,2.6,0,4.68.84,6.23,2.5,1.55,1.65,2.32,3.87,2.32,6.67v21.67h-5.45v-19.9c0-2.23-.34-3.82-.99-4.77-.65-.96-1.73-1.45-3.25-1.45-3.34,0-6.48,2.2-9.44,6.59v19.53h-5.45Z"/>
    </g>
    <g>
      <path class="cls-2" d="m49.42,115.88v-30.18h5.45v5.67c2.65-4.22,6.07-6.33,10.25-6.33s6.76,2.11,8.22,6.33c2.58-4.24,5.95-6.36,10.08-6.36,2.66,0,4.71.79,6.17,2.35,1.46,1.56,2.19,3.74,2.19,6.56v21.95h-5.47v-21.09c0-3.44-1.36-5.17-4.08-5.17s-5.79,2.01-8.89,6.03v20.23h-5.48v-21.09c0-3.46-1.39-5.2-4.15-5.2s-5.69,2.02-8.83,6.06v20.23h-5.45Z"/>
      <path class="cls-2" d="m118.78,114.9c-3.65,1.11-6.78,1.66-9.38,1.66-4.43,0-8.04-1.46-10.86-4.41-2.79-2.97-4.18-6.8-4.18-11.51s1.23-8.32,3.69-11.25c2.47-2.93,5.63-4.39,9.47-4.39,3.64,0,6.44,1.3,8.42,3.89,1.99,2.59,2.98,6.27,2.98,11.05l-.03,1.69h-18.96c.8,7.17,4.29,10.75,10.49,10.75,2.26,0,5.06-.61,8.36-1.83v4.33Zm-18.6-17.36h13.26c0-5.62-2.08-8.42-6.26-8.42s-6.53,2.8-7,8.42Z"/>
      <path class="cls-2" d="m142.01,115.88v-5.67c-2.21,4.24-5.56,6.36-10.02,6.36-3.61,0-6.47-1.32-8.55-3.97-2.06-2.65-3.1-6.27-3.1-10.86,0-5.02,1.17-9.06,3.52-12.11,2.35-3.05,5.46-4.58,9.3-4.58,3.57,0,6.52,1.37,8.86,4.11v-17.14h5.48v43.87h-5.48Zm0-22.98c-2.82-2.5-5.5-3.75-8.03-3.75-5.23,0-7.84,4.01-7.84,12.03,0,7.06,2.32,10.59,6.98,10.59,3.03,0,5.99-1.66,8.89-4.97v-13.89Z"/>
      <path class="cls-2" d="m152.79,115.88v-30.18h5.45v30.18h-5.45Zm0-35.64v-5.47h5.45v5.47h-5.45Z"/>
      <path class="cls-2" d="m175.33,116.57c-4.3,0-7.73-1.42-10.29-4.27-2.57-2.87-3.85-6.7-3.85-11.5s1.28-8.69,3.85-11.5c2.58-2.83,6.07-4.25,10.49-4.25s7.9,1.42,10.46,4.25c2.59,2.81,3.88,6.63,3.88,11.45s-1.29,8.8-3.88,11.62c-2.58,2.82-6.13,4.22-10.66,4.22Zm.08-4.11c5.78,0,8.67-3.91,8.67-11.72s-2.85-11.58-8.55-11.58-8.53,3.88-8.53,11.64,2.81,11.67,8.41,11.67Z"/>
    </g>
  </g>
  <g>
    <g>
      <path class="cls-2" d="m51.65,126.35c-.6,0-1.11-.23-1.5-.67-.4-.45-.6-1.02-.6-1.71,0-.73.19-1.3.59-1.71.4-.41.95-.62,1.66-.62.35,0,.74.05,1.17.15v.68c-.45-.13-.83-.2-1.12-.2-.42,0-.75.16-1,.47-.26.31-.38.73-.38,1.25s.12.92.39,1.23c.26.31.59.47,1.01.47.38,0,.76-.1,1.15-.29v.71c-.52.16-.98.24-1.37.24Z"/>
      <path class="cls-2" d="m58.96,126.35c-.64,0-1.15-.21-1.53-.64-.39-.42-.58-1-.58-1.72s.19-1.29.58-1.71c.39-.43.9-.64,1.57-.64s1.19.21,1.56.64c.39.42.58.99.58,1.71s-.19,1.31-.58,1.73c-.38.42-.91.63-1.59.63Zm0-.61c.86,0,1.3-.58,1.3-1.75s-.43-1.73-1.28-1.73-1.28.58-1.28,1.73.42,1.75,1.25,1.75Z"/>
      <path class="cls-2" d="m65.37,126.25v-4.5h.82v.84c.39-.63.9-.95,1.53-.95s1.01.31,1.23.95c.38-.63.88-.95,1.51-.95.39,0,.7.12.91.35.22.24.33.56.33.98v3.28h-.82v-3.14c0-.52-.2-.77-.6-.77-.43,0-.87.3-1.33.9v3.02h-.83v-3.14c0-.53-.2-.78-.62-.78s-.85.3-1.31.9v3.02h-.82Z"/>
      <path class="cls-2" d="m79.06,126.25v-.85c-.44.63-.95.95-1.58.95-.39,0-.7-.12-.94-.37-.23-.26-.34-.59-.34-1v-3.23h.81v2.97c0,.34.05.58.14.72.11.14.27.22.5.22.5,0,.96-.33,1.41-.99v-2.91h.81v4.5h-.81Z"/>
      <path class="cls-2" d="m84.47,126.25v-4.5h.82v.84c.43-.63.95-.95,1.58-.95.39,0,.7.13.94.37.23.25.35.58.35,1v3.23h-.82v-2.96c0-.34-.05-.57-.15-.71-.09-.14-.26-.22-.48-.22-.49,0-.97.33-1.41.98v2.91h-.82Z"/>
      <path class="cls-2" d="m92.69,126.25v-4.5h.82v4.5h-.82Zm0-5.32v-.82h.82v.82h-.82Z"/>
      <path class="cls-2" d="m99.87,126.35c-.61,0-1.11-.23-1.51-.67-.4-.45-.6-1.02-.6-1.71,0-.73.2-1.3.59-1.71.4-.41.94-.62,1.66-.62.36,0,.74.05,1.17.15v.68c-.46-.13-.83-.2-1.12-.2-.42,0-.76.16-1.01.47-.25.31-.37.73-.37,1.25s.13.92.39,1.23c.26.31.59.47,1.01.47.37,0,.75-.1,1.15-.29v.71c-.53.16-.98.24-1.36.24Z"/>
      <path class="cls-2" d="m107.74,125.68c-.48.45-.96.67-1.41.67-.37,0-.68-.11-.93-.35-.24-.24-.36-.53-.36-.89,0-.49.2-.86.61-1.13.41-.26,1.01-.4,1.77-.4h.2v-.54c0-.53-.27-.79-.8-.79-.43,0-.9.13-1.39.4v-.67c.55-.23,1.06-.34,1.55-.34s.86.12,1.1.34c.24.23.36.58.36,1.06v2.04c0,.47.14.7.43.7.03,0,.08,0,.15-.01l.06.46c-.18.09-.39.13-.61.13-.38,0-.62-.23-.73-.67Zm-.12-.45v-1.17h-.28c-.45,0-.81.08-1.08.25-.27.17-.41.39-.41.67,0,.2.07.36.21.49.13.14.3.21.5.21.34,0,.69-.15,1.06-.45Z"/>
      <path class="cls-2" d="m114.82,126.35c-.6,0-1.11-.23-1.51-.67-.4-.45-.6-1.02-.6-1.71,0-.73.2-1.3.59-1.71.4-.41.95-.62,1.66-.62.35,0,.74.05,1.17.15v.68c-.46-.13-.83-.2-1.12-.2-.42,0-.75.16-1.01.47-.25.31-.38.73-.38,1.25s.14.92.4,1.23c.25.31.59.47,1.01.47.38,0,.75-.1,1.15-.29v.71c-.54.16-.99.24-1.37.24Z"/>
      <path class="cls-2" d="m120.38,126.25v-4.5h.81v4.5h-.81Zm0-5.32v-.82h.81v.82h-.81Z"/>
      <path class="cls-2" d="m133.96,126.25v-4.5h.82v.84c.43-.63.95-.95,1.57-.95.39,0,.7.13.93.37.23.25.35.58.35,1v3.23h-.82v-2.96c0-.34-.05-.57-.15-.71-.09-.14-.25-.22-.48-.22-.5,0-.97.33-1.41.98v2.91h-.82Z"/>
      <path class="cls-2" d="m150.72,126.25v-.85c-.33.63-.83.95-1.49.95-.54,0-.97-.19-1.28-.59-.31-.39-.46-.93-.46-1.62,0-.75.17-1.35.53-1.81.35-.46.82-.69,1.38-.69.54,0,.98.21,1.33.62v-2.56h.82v6.55h-.82Zm0-3.43c-.42-.37-.82-.56-1.19-.56-.79,0-1.17.6-1.17,1.8,0,1.06.35,1.58,1.04,1.58.45,0,.89-.25,1.33-.74v-2.08Z"/>
      <path class="cls-2" d="m156.13,126.25v-4.5h.83v4.5h-.83Zm0-5.32v-.82h.83v.82h-.83Z"/>
      <path class="cls-2" d="m161.57,127.74l.1-.71c.47.22.94.34,1.39.34.91,0,1.38-.49,1.38-1.46v-.71c-.3.63-.79.94-1.47.94-.54,0-.96-.19-1.28-.59-.32-.38-.48-.92-.48-1.59s.18-1.24.54-1.67c.37-.43.83-.65,1.4-.65.51,0,.94.21,1.3.62v-.51h.82v3.28c0,.7-.04,1.22-.11,1.56-.07.34-.21.62-.41.83-.36.38-.91.56-1.66.56-.52,0-1.02-.08-1.51-.24Zm2.87-3.05v-1.87c-.35-.37-.75-.56-1.17-.56-.38,0-.66.15-.88.45-.21.3-.32.71-.32,1.24,0,.99.35,1.49,1.04,1.49.48,0,.91-.25,1.33-.75Z"/>
      <path class="cls-2" d="m169.81,126.25v-4.5h.81v4.5h-.81Zm0-5.32v-.82h.81v.82h-.81Z"/>
      <path class="cls-2" d="m176.57,126.35c-.41,0-.73-.11-.96-.36-.23-.24-.34-.57-.34-.99v-2.64h-.56v-.61h.56v-.82l.82-.08v.9h1.17v.61h-1.17v2.5c0,.59.25.88.76.88.11,0,.23-.02.39-.06v.56c-.25.06-.47.11-.66.11Z"/>
      <path class="cls-2" d="m183.67,125.68c-.48.45-.95.67-1.41.67-.37,0-.68-.11-.92-.35-.24-.24-.37-.53-.37-.89,0-.49.2-.86.61-1.13.41-.26,1.01-.4,1.78-.4h.19v-.54c0-.53-.27-.79-.8-.79-.43,0-.89.13-1.39.4v-.67c.55-.23,1.06-.34,1.54-.34s.87.12,1.11.34c.24.23.36.58.36,1.06v2.04c0,.47.15.7.43.7.03,0,.08,0,.16-.01l.05.46c-.19.09-.38.13-.61.13-.38,0-.62-.23-.73-.67Zm-.11-.45v-1.17h-.27c-.45,0-.8.08-1.08.25-.29.17-.41.39-.41.67,0,.2.06.36.2.49.14.14.3.21.5.21.35,0,.7-.15,1.06-.45Z"/>
      <rect class="cls-1" x="189.01" y="119.7" width=".81" height="6.55"/>
    </g>
    <path class="cls-2" d="m128.57,122.28c-.38-.43-.91-.64-1.56-.64s-1.19.21-1.57.64c-.39.42-.58.99-.58,1.71s.19,1.3.58,1.72c.38.42.89.64,1.54.64s1.19-.21,1.59-.63c.38-.42.58-.99.58-1.73s-.19-1.29-.58-1.71Zm-1.58,3.46c-.83,0-1.25-.58-1.25-1.75s.41-1.73,1.27-1.73,1.27.58,1.27,1.73-.42,1.75-1.3,1.75Z"/>
    <polygon class="cls-2" points="129.71 119.61 128.68 121.03 127.92 120.74 128.94 119.32 129.71 119.61"/>
  </g>
</svg>