<?xml version="1.0" standalone="no"?>
<!DOCTYPE svg PUBLIC "-//W3C//DTD SVG 20010904//EN"
 "http://www.w3.org/TR/2001/REC-SVG-20010904/DTD/svg10.dtd">
<svg version="1.0" xmlns="http://www.w3.org/2000/svg"
 width="1200.000000pt" height="1930.000000pt" viewBox="0 0 1200.000000 1930.000000"
 preserveAspectRatio="xMidYMid meet">

<g transform="translate(0.000000,1930.000000) scale(0.100000,-0.100000)"
fill="#000000" stroke="none">
<path d="M5328 19110 c-2830 -3 -5149 -8 -5153 -12 -4 -4 13 -12 36 -18 53
-14 454 -164 1864 -695 594 -224 1163 -437 1265 -475 102 -38 354 -132 560
-210 982 -371 4699 -1768 4857 -1826 100 -36 226 -138 299 -240 93 -130 127
-242 126 -417 -1 -116 -12 -167 -64 -272 l-29 -59 36 -76 c63 -135 82 -304 51
-451 -40 -186 -189 -374 -370 -466 -53 -27 -288 -120 -831 -330 -1195 -461
-1642 -638 -1629 -645 5 -3 27 -11 49 -18 41 -13 208 -77 1395 -538 382 -149
763 -296 845 -327 201 -76 257 -107 340 -190 83 -82 135 -164 176 -275 26 -73
29 -92 29 -208 0 -143 -7 -175 -57 -283 l-35 -77 30 -63 c47 -99 63 -165 69
-279 9 -173 -39 -319 -150 -458 -56 -71 -145 -147 -218 -186 -26 -15 -625
-243 -1331 -507 -706 -264 -1609 -604 -2008 -754 -399 -151 -1193 -449 -1765
-664 -572 -214 -1161 -435 -1308 -491 -151 -57 -293 -104 -325 -108 -36 -5 89
-10 343 -15 507 -9 6535 -9 8138 0 l1207 6 0 5812 0 5812 -232 6 c-128 4 -420
6 -648 5 -228 -2 -2731 -5 -5562 -8z"/>
<path d="M178 16884 l-28 -15 0 -3954 c0 -3524 2 -3955 15 -3955 22 0 242 81
1115 410 426 160 926 348 1110 417 184 69 538 202 785 295 1042 392 2342 881
2369 891 22 7 25 12 14 18 -8 4 -228 87 -489 183 -1102 406 -1938 720 -1999
752 -121 64 -235 184 -305 321 -54 107 -70 180 -70 323 0 133 19 220 70 320
21 41 22 48 9 72 -8 15 -27 67 -44 116 -27 81 -30 103 -30 215 0 147 22 231
91 356 51 91 168 215 248 262 34 20 171 77 304 127 1360 509 2119 791 2152
802 22 7 44 16 49 20 20 19 -36 42 -1564 615 -459 172 -997 375 -1195 450
-198 75 -844 318 -1435 540 -591 222 -1091 410 -1110 418 -31 13 -38 13 -62 1z"/>
<path d="M1753 7483 c15 -2 37 -2 50 0 12 2 0 4 -28 4 -27 0 -38 -2 -22 -4z"/>
<path d="M220 4630 l0 -2200 5773 0 5774 0 6 563 c9 720 9 2144 0 3095 l-6
742 -5774 0 -5773 0 0 -2200z m10091 1687 c349 -92 575 -307 667 -635 25 -91
27 -110 27 -297 0 -164 -4 -212 -19 -270 -70 -261 -232 -466 -456 -580 -136
-69 -284 -105 -465 -112 -528 -22 -912 228 -1033 674 -24 90 -26 114 -26 288
0 175 2 198 27 289 15 55 40 129 57 164 106 227 336 412 592 476 117 29 180
35 358 32 148 -3 190 -7 271 -29z m-7304 -21 c9 -9 14 -865 8 -1298 l-7 -528
-194 0 -194 0 0 705 c0 463 -3 705 -10 705 -5 0 -10 8 -11 18 0 9 -30 -95 -68
-233 -37 -137 -128 -463 -202 -723 l-134 -472 -215 2 -214 3 -39 130 c-21 72
-116 402 -211 734 l-173 605 -7 -286 c-4 -158 -4 -437 0 -620 4 -183 3 -386
-1 -450 l-7 -118 -194 0 -194 0 0 915 0 915 313 0 314 0 181 -617 c99 -340
188 -645 198 -678 19 -71 29 -84 42 -59 5 11 64 208 131 439 154 528 261 886
271 905 7 13 50 15 311 12 167 -2 305 -4 306 -6z m1935 -68 c2 -40 1 -110 -1
-155 l-3 -83 -534 0 -534 0 0 -200 0 -200 493 0 492 0 -3 -155 -3 -155 -489 0
-490 0 0 -240 0 -240 561 0 c309 0 564 -2 567 -4 2 -3 1 -77 -3 -166 l-7 -160
-767 2 -766 3 -3 913 -2 912 744 0 744 0 4 -72z m1848 -88 l0 -160 -310 0
-310 0 0 -755 0 -755 -205 0 -205 0 -2 753 -3 752 -307 3 -308 2 0 160 0 160
825 0 825 0 0 -160z m1538 132 c168 -51 259 -121 318 -245 44 -93 64 -234 46
-327 -15 -84 -61 -178 -114 -236 -41 -45 -124 -94 -160 -94 -32 0 -19 -19 32
-45 151 -77 184 -158 201 -494 l9 -205 35 -62 c56 -100 69 -94 -195 -94 l-229
0 -21 68 c-17 53 -23 109 -30 262 -10 246 -28 303 -108 348 -59 33 -147 42
-409 42 l-243 0 0 -348 c0 -257 -3 -351 -12 -360 -9 -9 -70 -12 -215 -12
l-203 0 0 915 0 916 613 -3 c600 -4 613 -4 685 -26z m1642 -2011 c0 -4 -48
-59 -107 -120 -108 -111 -108 -111 -155 -111 -27 0 -48 2 -48 5 0 8 98 164
127 203 24 31 25 32 104 32 43 0 79 -4 79 -9z m-8363 -351 c120 -46 204 -132
239 -243 21 -67 29 -245 15 -320 -28 -151 -130 -267 -280 -319 -63 -22 -81
-23 -346 -23 l-280 0 -3 468 -2 468 297 -3 c287 -4 300 -5 360 -28z m1233 -50
l0 -81 -279 3 -279 3 -6 -44 c-7 -54 -8 -135 -1 -153 4 -10 55 -12 260 -10
l255 4 0 -81 0 -81 -257 -2 -258 -3 0 -120 0 -120 298 -3 297 -2 0 -85 0 -85
-404 0 -405 0 -3 463 c-2 254 -2 465 0 470 2 4 178 7 393 7 l389 0 0 -80z
m974 63 c10 -33 207 -688 210 -698 2 -5 8 6 13 25 6 19 45 152 87 295 43 143
86 290 97 328 l20 67 164 0 165 0 0 -470 0 -470 -100 0 -100 0 -2 355 c-2 277
-6 353 -15 347 -7 -4 -56 -161 -109 -347 -54 -187 -102 -343 -108 -347 -6 -4
-59 -8 -117 -8 l-106 0 -76 263 c-43 144 -94 314 -115 377 l-37 115 -3 -377
-2 -378 -100 0 -100 0 0 470 0 470 164 0 c148 0 165 -2 170 -17z m1776 -63 l0
-80 -285 0 -285 0 0 -100 0 -100 263 -2 262 -3 3 -77 3 -78 -266 0 -265 0 0
-125 0 -125 300 0 300 0 0 -85 0 -85 -410 0 -410 0 0 470 0 470 395 0 395 0 0
-80z m809 65 c145 -35 244 -123 285 -255 50 -158 42 -312 -24 -446 -54 -111
-172 -191 -310 -213 -36 -6 -176 -11 -312 -11 l-248 0 0 470 0 470 273 0 c207
0 287 -4 336 -15z m1291 -59 l0 -73 -37 -7 c-21 -3 -149 -6 -285 -6 l-248 0 0
-100 0 -100 254 0 c289 0 266 8 266 -96 l0 -64 -260 0 -260 0 0 -125 0 -125
300 0 301 0 -3 -82 -3 -83 -410 0 -410 0 -3 468 -2 467 400 0 400 0 0 -74z
m420 -311 l0 -385 270 0 270 0 0 -85 0 -85 -380 0 -380 0 0 470 0 470 110 0
110 0 0 -385z m880 0 l0 -385 265 0 265 0 0 -85 0 -85 -375 0 -375 0 0 470 0
470 110 0 110 0 0 -385z m890 -85 l0 -470 -110 0 -110 0 0 470 0 470 110 0
110 0 0 -470z m502 425 c18 -25 112 -164 208 -309 96 -145 183 -266 193 -269
16 -5 17 14 17 309 l0 314 105 0 105 0 0 -470 0 -470 -89 0 c-126 0 -147 6
-173 49 -49 81 -378 558 -397 575 l-21 19 0 -321 0 -322 -105 0 -105 0 0 470
0 470 115 0 115 0 32 -45z"/>
<path d="M9882 6019 c-134 -20 -251 -88 -330 -191 -75 -99 -103 -183 -122
-360 -37 -357 130 -645 407 -703 89 -19 261 -19 342 0 189 45 321 181 388 400
25 83 25 341 0 435 -58 217 -185 353 -377 406 -71 19 -227 26 -308 13z"/>
<path d="M7460 5745 l0 -247 313 5 c347 4 361 6 432 69 52 46 69 90 68 179 -2
104 -38 164 -128 213 -38 20 -55 21 -362 24 l-323 3 0 -246z"/>
<path d="M1170 3474 l0 -306 158 4 c157 3 159 3 208 33 37 24 56 45 79 90 28
55 30 66 30 169 0 142 -18 200 -81 255 -57 50 -103 61 -263 61 l-131 0 0 -306z"/>
<path d="M6010 3475 l0 -305 136 0 c160 0 209 10 263 56 60 52 76 104 76 249
0 112 -2 124 -28 178 -50 102 -112 126 -319 127 l-128 0 0 -305z"/>
<path d="M488 1727 c-149 -42 -264 -192 -321 -415 -19 -76 -21 -114 -22 -307
0 -196 3 -230 23 -310 34 -135 83 -228 161 -306 79 -79 147 -109 246 -109 137
0 255 79 320 215 42 87 84 237 68 242 -6 2 -48 22 -94 44 -45 22 -83 38 -84
37 -1 -2 -7 -30 -14 -63 -46 -214 -191 -299 -316 -184 -86 79 -116 195 -117
444 0 220 26 328 98 414 68 81 178 89 252 19 37 -36 82 -120 82 -155 0 -12 4
-24 8 -27 5 -3 48 10 98 27 103 37 101 33 58 159 -44 130 -109 209 -213 256
-65 30 -165 38 -233 19z"/>
<path d="M1271 1168 c-79 -299 -163 -616 -187 -705 l-42 -163 102 0 102 0 39
160 39 160 195 -2 194 -3 41 -157 40 -158 104 0 104 0 -7 28 c-12 52 -356
1317 -366 1350 l-11 32 -102 0 -102 0 -143 -542z m312 -51 l65 -257 -129 0
c-71 0 -129 3 -129 8 0 15 122 513 125 510 2 -2 33 -119 68 -261z"/>
<path d="M2920 1005 l0 -705 95 0 95 0 0 705 0 705 -95 0 -95 0 0 -705z"/>
<path d="M3300 1006 l0 -706 203 0 c224 0 298 11 369 53 89 52 158 166 199
330 30 116 38 422 15 565 -27 174 -102 338 -180 396 -80 61 -81 61 -353 64
l-253 4 0 -706z m446 454 c68 -26 116 -99 140 -209 20 -95 19 -398 -2 -498
-36 -177 -84 -213 -279 -213 l-115 0 0 463 c0 255 3 467 8 472 10 10 212 -2
248 -15z"/>
<path d="M4396 1148 c-82 -310 -166 -627 -187 -706 l-37 -142 102 0 102 0 39
160 39 160 195 -2 194 -3 41 -157 41 -158 102 0 c76 0 103 3 103 13 -1 6 -86
323 -189 702 l-188 690 -104 3 -104 3 -149 -563z m313 -13 c34 -132 64 -248
67 -257 5 -17 -5 -18 -125 -18 -72 0 -131 3 -131 8 -1 10 124 511 126 509 1
-1 30 -110 63 -242z"/>
<path d="M5240 1006 l0 -706 198 0 c284 0 350 16 438 107 97 100 153 282 161
528 11 328 -47 562 -171 687 -78 78 -98 83 -378 86 l-248 3 0 -705z m452 451
c52 -22 95 -79 120 -160 21 -66 23 -91 23 -292 0 -241 -11 -313 -60 -387 -40
-61 -72 -72 -217 -76 l-128 -4 0 473 0 472 114 -6 c63 -3 130 -12 148 -20z"/>
<path d="M6580 1006 l0 -706 203 0 c224 0 298 11 369 53 89 52 158 166 199
330 30 116 38 422 15 565 -27 174 -102 338 -180 396 -80 61 -81 61 -353 64
l-253 4 0 -706z m446 454 c68 -26 116 -99 140 -209 20 -95 19 -398 -2 -498
-36 -177 -84 -213 -279 -213 l-115 0 0 463 c0 255 3 467 8 472 10 10 212 -2
248 -15z"/>
<path d="M7550 1005 l0 -705 365 0 365 0 0 120 0 120 -270 0 -270 0 2 193 3
192 238 3 237 2 0 115 0 115 -240 0 -240 0 0 160 0 160 260 0 260 0 0 115 0
115 -355 0 -355 0 0 -705z"/>
<path d="M8724 1693 c8 -26 336 -1380 336 -1387 0 -3 47 -6 105 -6 58 0 105 2
105 4 0 3 74 310 165 683 90 373 167 688 170 701 6 23 5 23 -97 20 l-103 -3
-115 -513 c-74 -331 -117 -507 -122 -495 -5 10 -57 232 -118 493 -60 261 -112
485 -115 498 -5 21 -10 22 -111 22 -96 0 -105 -2 -100 -17z"/>
<path d="M9710 1005 l0 -705 95 0 95 0 0 705 0 705 -95 0 -95 0 0 -705z"/>
<path d="M10082 1008 l3 -703 230 0 c197 0 237 3 283 18 68 24 150 99 190 174
80 150 116 401 94 646 -21 234 -73 378 -173 479 -81 82 -107 88 -396 88 l-233
0 2 -702z m467 443 c49 -25 75 -58 100 -125 52 -140 55 -463 6 -634 -19 -65
-74 -128 -123 -142 -21 -5 -85 -10 -144 -10 l-108 0 0 472 0 471 115 -6 c86
-5 124 -11 154 -26z"/>
<path d="M11316 1658 c-23 -83 -356 -1345 -356 -1352 0 -3 45 -6 100 -6 l99 0
10 38 c5 20 19 75 31 122 12 47 26 102 31 123 l10 37 193 0 193 0 32 -122 c17
-68 36 -140 42 -160 l10 -38 106 0 c80 0 104 3 100 13 -2 6 -89 324 -193 705
l-188 692 -102 0 -103 0 -15 -52z m179 -525 c33 -131 61 -246 63 -255 3 -16
-8 -18 -128 -18 -102 0 -131 3 -127 13 2 6 31 121 63 254 33 134 61 243 64
243 3 0 32 -107 65 -237z"/>
<path d="M2110 1000 l0 -700 340 0 340 0 0 120 0 120 -240 0 -240 0 0 580 0
580 -100 0 -100 0 0 -700z"/>
</g>
</svg>
