<?xml version="1.0" encoding="UTF-8"?>
<svg id="Capa_1" data-name="Capa 1" xmlns="http://www.w3.org/2000/svg" viewBox="0 0 200 200">
  <defs>
    <style>
      .cls-1 {
        fill: #fff;
      }
    </style>
  </defs>
  <path class="cls-1" d="m55.44,98.63c3.29,0,6.13-1.18,8.45-3.5,2.31-2.3,3.48-5.16,3.48-8.45v-18.22s-4.91,0-4.91,0v18.22c0,1.98-.66,3.58-2.06,4.98-1.38,1.38-3,2.06-4.97,2.06-1.94,0-3.57-.68-4.92-2.06-1.4-1.37-2.06-3-2.06-4.98v-18.22s-4.93,0-4.93,0v18.22c0,3.3,1.19,6.15,3.52,8.45,2.31,2.32,5.14,3.5,8.4,3.5Z"/>
  <path class="cls-1" d="m8.77,78.63c0-1.53.52-2.79,1.61-3.88,1.08-1.09,2.37-1.63,3.93-1.63,1.52,0,2.78.54,3.86,1.63,1.1,1.09,1.62,2.35,1.62,3.88v20s4.9,0,4.9,0v-20c0-1.51.53-2.79,1.62-3.88,1.08-1.09,2.34-1.63,3.86-1.63,1.53,0,2.82.54,3.9,1.62,1.06,1.1,1.61,2.38,1.61,3.89v20s4.9,0,4.9,0v-20.04c0-2.83-1.03-5.28-3.06-7.31-2.01-2.03-4.51-3.06-7.36-3.06-3.28,0-5.96,1.24-7.97,3.69-1.97-2.45-4.63-3.69-7.91-3.69-2.86,0-5.32,1.03-7.37,3.06-2.02,2.03-3.04,4.48-3.04,7.31v20.04s4.91,0,4.91,0v-20Z"/>
  <path class="cls-1" d="m55.49,101.4c-3.3,0-6.14,1.15-8.46,3.47-2.3,2.33-3.48,5.18-3.48,8.45v18.46s4.9,0,4.9,0v-18.46c0-1.96.67-3.59,2.05-4.96,1.38-1.39,3.01-2.07,4.99-2.07,1.96,0,3.56.68,4.92,2.07,1.39,1.39,2.07,3.01,2.07,4.96v18.46s4.9,0,4.9,0v-18.46c0-3.27-1.18-6.12-3.49-8.45-2.33-2.32-5.15-3.47-8.4-3.47Z"/>
  <path class="cls-1" d="m8.77,111.8c0-1.54.52-2.81,1.61-3.89,1.08-1.09,2.37-1.62,3.93-1.62,1.52,0,2.78.54,3.86,1.62,1.1,1.08,1.62,2.35,1.62,3.89v19.98s4.9,0,4.9,0v-19.98c0-1.54.53-2.81,1.62-3.89,1.08-1.09,2.34-1.62,3.86-1.62s2.82.54,3.9,1.62c1.06,1.08,1.61,2.35,1.61,3.89v19.98s4.9,0,4.9,0v-20.02c0-2.83-1.03-5.29-3.06-7.33-2.01-2.01-4.51-3.03-7.36-3.03-3.28,0-5.96,1.23-7.97,3.67-1.97-2.46-4.63-3.67-7.91-3.67-2.86,0-5.32,1.02-7.37,3.03-2.02,2.04-3.04,4.49-3.04,7.33v20.02s4.91,0,4.91,0v-19.98Z"/>
  <path class="cls-1" d="m55.47,114.68c-2.1,0-3.8,1.7-3.8,3.8,0,2.09,1.7,3.8,3.8,3.8,2.09,0,3.79-1.71,3.79-3.8,0-2.1-1.7-3.8-3.79-3.8Z"/>
  <g>
    <path class="cls-1" d="m91.3,81.27l1.42-8.95c.14-.87.77-1.34,1.58-1.34.72,0,1.34.35,1.57,1.14l1.94,7.03c.03.14.06.18.14.18.09,0,.11-.05.15-.18l1.93-7c.21-.8.86-1.16,1.58-1.16.8,0,1.42.48,1.55,1.37l1.28,8.88h-1.55l-1.11-8.4c-.03-.21-.09-.35-.26-.35-.14,0-.23.11-.27.3l-2.08,7.23c-.17.6-.65.9-1.22.9-.54,0-1.05-.3-1.22-.87l-2.06-7.27c-.06-.21-.14-.3-.27-.3s-.24.11-.27.35l-1.25,8.43h-1.57Z"/>
    <path class="cls-1" d="m105.86,77.55c0-2.12,1.73-3.86,3.95-3.86s3.92,1.75,3.92,3.86-1.7,3.89-3.92,3.89-3.95-1.75-3.95-3.89Zm6.37.02c0-1.36-1.05-2.47-2.42-2.47s-2.45,1.11-2.45,2.47,1.07,2.45,2.45,2.45,2.42-1.11,2.42-2.45Z"/>
    <path class="cls-1" d="m115.39,77.58v-7.09h1.49v4.31c.6-.66,1.51-1.1,2.5-1.1,2.24,0,3.86,1.64,3.86,3.89,0,2.12-1.69,3.86-3.92,3.86s-3.93-1.67-3.93-3.86Zm6.36-.02c0-1.34-1.05-2.45-2.42-2.45s-2.44,1.11-2.44,2.45,1.05,2.47,2.44,2.47,2.42-1.11,2.42-2.47Z"/>
    <path class="cls-1" d="m124.99,71.43c0-.54.44-.99.98-.99s.96.45.96.99-.42.98-.96.98-.98-.44-.98-.98Zm1.73,2.44v7.38h-1.49v-7.38h1.49Z"/>
    <path class="cls-1" d="m130.94,70.49v10.77h-1.49v-10.77h1.49Z"/>
    <path class="cls-1" d="m133.42,71.43c0-.54.44-.99.98-.99s.96.45.96.99-.42.98-.96.98-.98-.44-.98-.98Zm1.73,2.44v7.38h-1.49v-7.38h1.49Z"/>
    <path class="cls-1" d="m137.11,77.55c0-2.11,1.69-3.86,3.93-3.86s3.93,1.66,3.93,3.86v3.7h-1.42v-1.3c-.56.9-1.54,1.48-2.74,1.48-2.14,0-3.7-1.75-3.7-3.89Zm6.37.02c0-1.36-1.05-2.47-2.44-2.47s-2.44,1.11-2.44,2.47,1.07,2.45,2.44,2.45,2.44-1.11,2.44-2.45Z"/>
    <path class="cls-1" d="m147.11,81.25v-4.4c0-1.79,1.02-3.13,2.95-3.13.47,0,.95.09,1.33.27v1.48c-.36-.21-.78-.32-1.19-.32-.99,0-1.6.68-1.6,1.76v4.34h-1.49Z"/>
    <path class="cls-1" d="m152.32,71.43c0-.54.44-.99.98-.99s.96.45.96.99-.42.98-.96.98-.98-.44-.98-.98Zm1.73,2.44v7.38h-1.49v-7.38h1.49Z"/>
    <path class="cls-1" d="m156.01,77.55c0-2.12,1.73-3.86,3.95-3.86s3.92,1.75,3.92,3.86-1.7,3.89-3.92,3.89-3.95-1.75-3.95-3.89Zm6.37.02c0-1.36-1.05-2.47-2.42-2.47s-2.45,1.11-2.45,2.47,1.07,2.45,2.45,2.45,2.42-1.11,2.42-2.45Z"/>
    <path class="cls-1" d="m91.07,92.64c0-2.24,1.63-3.89,3.86-3.89.99,0,1.9.44,2.5,1.1l.02-4.31h1.49v7.09c0,2.18-1.7,3.86-3.93,3.86s-3.93-1.73-3.93-3.86Zm6.37-.02c0-1.34-1.05-2.45-2.44-2.45s-2.44,1.11-2.44,2.45,1.07,2.47,2.44,2.47,2.44-1.11,2.44-2.47Z"/>
    <path class="cls-1" d="m101.13,86.49c0-.54.44-.99.98-.99s.96.45.96.99-.42.98-.96.98-.98-.44-.98-.98Zm1.73,2.44v7.38h-1.49v-7.38h1.49Z"/>
    <path class="cls-1" d="m104.94,94.84l1.14-.63c.38.74.98,1.01,1.79,1.01s1.49-.35,1.49-.99c0-1.55-4.23-.38-4.23-3.19,0-1.3,1.14-2.24,2.76-2.24,1.37,0,2.3.63,2.77,1.49l-1.14.65c-.32-.65-.92-.87-1.6-.87s-1.3.36-1.3.95c0,1.51,4.23.41,4.23,3.19,0,1.4-1.36,2.29-2.92,2.29-1.37,0-2.42-.54-3-1.64Z"/>
    <path class="cls-1" d="m112.19,92.58c0-2.12,1.52-3.86,3.73-3.86s3.61,1.61,3.61,3.67v.6h-5.9c.17,1.27,1.13,2.15,2.45,2.15.9,0,1.72-.39,2.15-1.2l1.14.59c-.65,1.26-1.84,1.94-3.28,1.94-2.24,0-3.92-1.63-3.92-3.9Zm5.86-.54c-.06-1.17-.92-1.97-2.14-1.97s-2.06.87-2.21,1.97h4.35Z"/>
    <path class="cls-1" d="m122.8,92.74v3.57h-1.49v-3.72c0-2.15,1.28-3.84,3.66-3.84s3.72,1.69,3.72,3.82v3.73h-1.49v-3.55c0-1.39-.75-2.58-2.23-2.58s-2.17,1.19-2.17,2.56Zm-.53-5.63c.05-.81.59-1.57,1.42-1.57.92,0,1.52.65,2.23.65.42,0,.65-.35.68-.72l1.08.27c-.05.84-.57,1.6-1.42,1.6-.96,0-1.52-.66-2.23-.66-.41,0-.63.36-.69.72l-1.07-.29Z"/>
    <path class="cls-1" d="m130.36,92.61c0-2.11,1.69-3.86,3.93-3.86s3.93,1.66,3.93,3.86v3.7h-1.42v-1.3c-.56.9-1.54,1.48-2.74,1.48-2.14,0-3.7-1.75-3.7-3.89Zm6.37.02c0-1.36-1.05-2.47-2.44-2.47s-2.44,1.11-2.44,2.47,1.07,2.45,2.44,2.45,2.44-1.11,2.44-2.45Z"/>
    <path class="cls-1" d="m139.9,92.64c0-2.24,1.63-3.89,3.86-3.89.99,0,1.9.44,2.5,1.1l.02-4.31h1.49v7.09c0,2.18-1.7,3.86-3.93,3.86s-3.93-1.73-3.93-3.86Zm6.37-.02c0-1.34-1.05-2.45-2.44-2.45s-2.44,1.11-2.44,2.45,1.07,2.47,2.44,2.47,2.44-1.11,2.44-2.47Z"/>
    <path class="cls-1" d="m149.43,92.61c0-2.12,1.73-3.86,3.95-3.86s3.92,1.75,3.92,3.86-1.7,3.89-3.92,3.89-3.95-1.75-3.95-3.89Zm6.37.02c0-1.36-1.05-2.47-2.42-2.47s-2.45,1.11-2.45,2.47,1.07,2.45,2.45,2.45,2.42-1.11,2.42-2.45Z"/>
    <path class="cls-1" d="m91.07,107.7c0-2.24,1.63-3.89,3.86-3.89.99,0,1.9.44,2.5,1.1l.02-4.31h1.49v7.09c0,2.18-1.7,3.86-3.93,3.86s-3.93-1.73-3.93-3.86Zm6.37-.02c0-1.34-1.05-2.45-2.44-2.45s-2.44,1.11-2.44,2.45,1.07,2.47,2.44,2.47,2.44-1.11,2.44-2.47Z"/>
    <path class="cls-1" d="m100.61,107.64c0-2.12,1.52-3.86,3.73-3.86s3.61,1.61,3.61,3.67v.6h-5.9c.17,1.27,1.13,2.15,2.45,2.15.9,0,1.72-.39,2.15-1.2l1.14.59c-.65,1.26-1.84,1.94-3.28,1.94-2.24,0-3.92-1.63-3.92-3.9Zm5.86-.54c-.06-1.17-.92-1.97-2.14-1.97s-2.06.87-2.21,1.97h4.35Z"/>
    <path class="cls-1" d="m109.39,109.9l1.14-.63c.38.74.98,1.01,1.79,1.01s1.49-.35,1.49-.99c0-1.55-4.23-.38-4.23-3.19,0-1.3,1.14-2.24,2.76-2.24,1.37,0,2.3.63,2.77,1.49l-1.14.65c-.32-.65-.92-.87-1.6-.87s-1.3.36-1.3.95c0,1.51,4.23.41,4.23,3.19,0,1.4-1.36,2.29-2.92,2.29-1.37,0-2.42-.54-3-1.64Z"/>
    <path class="cls-1" d="m116.63,107.7c0-2.24,1.63-3.89,3.86-3.89.99,0,1.9.44,2.5,1.1l.02-4.31h1.49v7.09c0,2.18-1.7,3.86-3.93,3.86s-3.93-1.73-3.93-3.86Zm6.37-.02c0-1.34-1.05-2.45-2.44-2.45s-2.44,1.11-2.44,2.45,1.07,2.47,2.44,2.47,2.44-1.11,2.44-2.47Z"/>
    <path class="cls-1" d="m126.16,107.64c0-2.12,1.52-3.86,3.73-3.86s3.61,1.61,3.61,3.67v.6h-5.9c.17,1.27,1.13,2.15,2.45,2.15.9,0,1.72-.39,2.15-1.2l1.14.59c-.65,1.26-1.84,1.94-3.28,1.94-2.24,0-3.92-1.63-3.92-3.9Zm5.86-.54c-.06-1.17-.92-1.97-2.14-1.97s-2.06.87-2.21,1.97h4.35Z"/>
    <path class="cls-1" d="m139.11,107.67c0-2.11,1.69-3.86,3.93-3.86s3.93,1.66,3.93,3.86v3.7h-1.42v-1.3c-.56.9-1.54,1.48-2.74,1.48-2.14,0-3.7-1.75-3.7-3.89Zm6.37.02c0-1.36-1.05-2.47-2.44-2.47s-2.44,1.11-2.44,2.47,1.07,2.45,2.44,2.45,2.44-1.11,2.44-2.45Z"/>
    <path class="cls-1" d="m148.65,107.7c0-2.24,1.63-3.89,3.86-3.89.99,0,1.9.44,2.5,1.1l.02-4.31h1.49v7.09c0,2.18-1.7,3.86-3.93,3.86s-3.93-1.73-3.93-3.86Zm6.37-.02c0-1.34-1.05-2.45-2.44-2.45s-2.44,1.11-2.44,2.45,1.07,2.47,2.44,2.47,2.44-1.11,2.44-2.47Z"/>
    <path class="cls-1" d="m158.18,107.64c0-2.12,1.52-3.86,3.73-3.86s3.61,1.61,3.61,3.67v.6h-5.9c.17,1.27,1.13,2.15,2.45,2.15.9,0,1.72-.39,2.15-1.2l1.14.59c-.65,1.26-1.84,1.94-3.28,1.94-2.24,0-3.92-1.63-3.92-3.9Zm5.86-.54c-.06-1.17-.92-1.97-2.14-1.97s-2.06.87-2.21,1.97h4.35Z"/>
    <path class="cls-1" d="m168.8,107.8v3.57h-1.49v-3.72c0-2.15,1.28-3.84,3.66-3.84s3.72,1.69,3.72,3.82v3.73h-1.49v-3.55c0-1.39-.75-2.58-2.23-2.58s-2.17,1.19-2.17,2.56Z"/>
    <path class="cls-1" d="m177.37,108.72v-3.43h-1.46v-1.3h1.46v-1.91h1.49v1.91h2.83v1.3h-2.83v3.39c0,.96.57,1.54,1.46,1.54.48,0,1.01-.18,1.37-.44v1.37c-.38.26-.96.42-1.51.42-1.84,0-2.82-1.16-2.82-2.85Z"/>
    <path class="cls-1" d="m183.6,111.37v-4.4c0-1.79,1.02-3.13,2.95-3.13.47,0,.95.09,1.33.27v1.48c-.36-.21-.78-.32-1.19-.32-.99,0-1.6.68-1.6,1.76v4.34h-1.49Z"/>
    <path class="cls-1" d="m188.29,107.67c0-2.12,1.73-3.86,3.95-3.86s3.92,1.75,3.92,3.86-1.7,3.89-3.92,3.89-3.95-1.75-3.95-3.89Zm6.37.02c0-1.36-1.05-2.47-2.42-2.47s-2.45,1.11-2.45,2.47,1.07,2.45,2.45,2.45,2.42-1.11,2.42-2.45Z"/>
    <path class="cls-1" d="m91.84,126.43v-10.77h1.49v4.22c.57-.62,1.46-1.01,2.45-1.01,2.17,0,3.39,1.45,3.39,3.7v3.86h-1.49v-3.7c0-1.31-.72-2.44-2.12-2.44-1.31,0-2.23,1.05-2.23,2.48v3.66h-1.49Z"/>
    <path class="cls-1" d="m100.83,122.73c0-2.11,1.69-3.86,3.93-3.86s3.93,1.66,3.93,3.86v3.7h-1.42v-1.3c-.56.9-1.54,1.48-2.74,1.48-2.14,0-3.7-1.75-3.7-3.89Zm6.37.02c0-1.36-1.05-2.47-2.44-2.47s-2.44,1.11-2.44,2.47,1.07,2.45,2.44,2.45,2.44-1.11,2.44-2.45Z"/>
    <path class="cls-1" d="m110.36,122.73c0-2.12,1.73-3.87,3.86-3.86,1.36,0,2.61.62,3.28,1.94l-1.23.69c-.44-.8-1.17-1.22-2.05-1.22-1.3,0-2.36,1.1-2.36,2.44s1.07,2.47,2.36,2.47c.87,0,1.61-.42,2.05-1.22l1.23.68c-.68,1.34-1.93,1.94-3.28,1.94-2.12.03-3.86-1.73-3.86-3.87Z"/>
    <path class="cls-1" d="m119.08,116.62c0-.54.44-.99.98-.99s.96.45.96.99-.42.98-.96.98-.98-.44-.98-.98Zm1.73,2.44v7.38h-1.49v-7.38h1.49Z"/>
    <path class="cls-1" d="m122.77,122.73c0-2.11,1.69-3.86,3.93-3.86s3.93,1.66,3.93,3.86v3.7h-1.42v-1.3c-.56.9-1.54,1.48-2.74,1.48-2.14,0-3.7-1.75-3.7-3.89Zm6.37.02c0-1.36-1.05-2.47-2.44-2.47s-2.44,1.11-2.44,2.47,1.07,2.45,2.44,2.45,2.44-1.11,2.44-2.45Z"/>
    <path class="cls-1" d="m136.6,122.73c0-2.11,1.69-3.86,3.93-3.86s3.93,1.66,3.93,3.86v3.7h-1.42v-1.3c-.56.9-1.54,1.48-2.74,1.48-2.14,0-3.7-1.75-3.7-3.89Zm6.37.02c0-1.36-1.05-2.47-2.44-2.47s-2.44,1.11-2.44,2.47,1.07,2.45,2.44,2.45,2.44-1.11,2.44-2.45Z"/>
    <path class="cls-1" d="m147.38,126.43v-6.08h-1.4v-1.3h1.4v-.77c0-1.57.98-2.74,2.83-2.74.5,0,.96.09,1.34.27v1.42c-.35-.21-.78-.33-1.2-.33-.92,0-1.48.41-1.48,1.39v.77h2.59v1.3h-2.59v6.08h-1.49Z"/>
    <path class="cls-1" d="m158.33,122.61v-3.55h1.49v3.73c0,2.14-1.3,3.83-3.61,3.83s-3.58-1.7-3.58-3.84v-3.72h1.49v3.57c0,1.36.74,2.55,2.09,2.55s2.12-1.19,2.12-2.56Z"/>
    <path class="cls-1" d="m161.43,122.7c0-2.12,1.52-3.86,3.73-3.86s3.61,1.61,3.61,3.67v.6h-5.9c.17,1.26,1.13,2.15,2.45,2.15.9,0,1.72-.39,2.15-1.2l1.14.59c-.65,1.26-1.84,1.94-3.28,1.94-2.24,0-3.92-1.63-3.92-3.9Zm5.86-.54c-.06-1.17-.92-1.97-2.14-1.97s-2.06.87-2.21,1.97h4.35Z"/>
    <path class="cls-1" d="m170.56,126.43v-4.4c0-1.79,1.02-3.13,2.95-3.13.47,0,.95.09,1.33.27v1.48c-.36-.21-.78-.32-1.19-.32-.99,0-1.6.68-1.6,1.76v4.34h-1.49Z"/>
    <path class="cls-1" d="m175.24,122.73c0-2.11,1.69-3.86,3.93-3.86s3.93,1.66,3.93,3.86v3.7h-1.42v-1.3c-.56.9-1.54,1.48-2.74,1.48-2.14,0-3.7-1.75-3.7-3.89Zm6.37.02c0-1.36-1.05-2.47-2.44-2.47s-2.44,1.11-2.44,2.47,1.07,2.45,2.44,2.45,2.44-1.11,2.44-2.45Z"/>
  </g>
</svg>