<?xml version="1.0" encoding="UTF-8"?>
<svg id="Capa_1" data-name="Capa 1" xmlns="http://www.w3.org/2000/svg" viewBox="0 0 200 200">
  <defs>
    <style>
      .cls-1 {
        fill: #fff;
      }
    </style>
  </defs>
  <path class="cls-1" d="m101.01,108.88s0,0,0,0v.74c-.71.58-1.64,1.03-2.51,1.03-1.42,0-3-.67-3-2.99,0-2.45,1.41-3.64,3.27-3.64.66,0,1.53.13,2.24.26v1.11s0,0,0,0v3.49Zm6.6,5.71v-14.93c0-5.42-2.83-7.59-8.61-7.59-3.46,0-6.07.88-7.87,1.75v5.05h1.99c1.11-.84,2.69-1.46,4.6-1.46,2.39,0,3.27.88,3.27,2.79v1.5c-1.1-.25-2.25-.42-3.71-.42-4.49,0-7.62,2.21-7.62,6.84,0,4.34,2.72,6.55,6.14,6.55,2.39,0,4.2-.67,5.56-2.38.37,1.46,1.1,2.29,2.65,2.29h3.6Z"/>
  <path class="cls-1" d="m32.54,95.2c0,3.09-.99,5.15-3.89,5.15h-1.97v-9.9h1.97c2.96,0,3.89,1.6,3.89,4.75m6.77-.04c0-6.6-3.2-9.74-10.61-9.74h-8.74v29.25h6.8v-9.9h1.55c7.37,0,11.01-3.09,11.01-9.61"/>
  <path class="cls-1" d="m74.57,98.85v-6.69c-.34-.12-.69-.08-1.13-.08-2.15,0-3.69,1.14-4.96,3.22v-1.47s0-1.75-1.67-1.75h-5.14v22.6h6.78v-15.29c1.12-.38,2.64-.62,4.93-.62l1.2.08Z"/>
  <path class="cls-1" d="m149.64,114.68v-27.54s0-1.71-1.64-1.71h-5.17v29.25h6.81Z"/>
  <path class="cls-1" d="m151.59,91.24h6.65v-4.1s0-1.71-1.64-1.71h-5.01"/>
  <path class="cls-1" d="m158.25,114.68v-19.43s0-1.71-1.64-1.71h-5.01v21.15h6.65Z"/>
  <path class="cls-1" d="m49.9,109.75c-2.1,0-3.52-1.88-3.52-6.22s1.42-6.39,3.52-6.39,3.49,2.01,3.49,6.39-1.42,6.22-3.49,6.22m0,4.93c5.62,0,9.96-4.22,9.96-11.23s-4.34-11.44-9.96-11.44-10,4.38-10,11.44,4.34,11.23,10,11.23"/>
  <path class="cls-1" d="m131.1,109.75c-2.1,0-3.52-1.88-3.52-6.22s1.42-6.39,3.52-6.39,3.49,2.01,3.49,6.39-1.42,6.22-3.49,6.22m0,4.93c5.62,0,9.97-4.22,9.97-11.23s-4.34-11.44-9.97-11.44-10,4.38-10,11.44,4.34,11.23,10,11.23"/>
  <path class="cls-1" d="m170.09,109.75c-2.1,0-3.52-1.88-3.52-6.22s1.43-6.39,3.52-6.39,3.49,2.01,3.49,6.39-1.42,6.22-3.49,6.22m0,4.93c5.62,0,9.96-4.22,9.96-11.23s-4.34-11.44-9.96-11.44-10,4.38-10,11.44,4.34,11.23,10,11.23"/>
  <path class="cls-1" d="m76.26,97.14h1.87v11.15c0,4.8,2.5,6.39,6.42,6.39,1.63,0,2.86-.29,3.73-.58v-4.34h-1.27c-1.71,0-2.36-.62-2.36-2.59v-10.02h3.36v-4.84h-3.36v-5.59h-6.52v5.59h-1.87v4.84Z"/>
  <path class="cls-1" d="m109.06,97.89h1.89v16.78h6.6v-16.78h3.11v-4.74h-3.11v-1.02c0-1.51.77-1.84,2.24-1.84h1.28v-4.97h-3.67c-4.18,0-6.45,2.11-6.45,6.52v1.31h-1.89v4.74Z"/>
</svg>