<?xml version="1.0" encoding="UTF-8"?>
<svg id="Capa_1" data-name="Capa 1" xmlns="http://www.w3.org/2000/svg" viewBox="0 0 200 200">
  <defs>
    <style>
      .cls-1 {
        fill: #fff;
      }
    </style>
  </defs>
  <g>
    <path class="cls-1" d="m28.64,125.52h4.15c1.35-.2,2.12-.25,3.53-.25,3.27,0,6.86,1.21,6.86,4.96,0,4.26-3.86,5.39-7.87,5.39-.54,0-1.24-.06-2.06-.14v7.98c0,.93.17,1.13,1.1,1.13h1.21v.73h-5.9v-.73h1.3v-17.24c0-.93-.17-1.13-1.1-1.13h-1.21v-.71Zm6.52,9.28c3.39,0,5.76-1.27,5.76-4.43,0-2.34-1.3-4.29-5.84-4.29-1.02,0-1.83.14-1.83.14v8.46c.68.08,1.27.11,1.92.11Z"/>
    <path class="cls-1" d="m57.53,125.26c6.04,0,9.79,4.49,9.79,9.9s-3.81,10.38-9.79,10.38-10.07-4.68-10.07-10.21,4.03-10.07,10.07-10.07Zm0,19.46c4.99,0,7.53-4.77,7.53-9.56s-2.54-9.08-7.53-9.08-7.81,4.37-7.81,9.11,2.79,9.53,7.81,9.53Z"/>
    <path class="cls-1" d="m70.6,125.52h4.15c1.35-.2,2.12-.25,3.53-.25,3.27,0,6.86,1.21,6.86,4.96,0,3.16-2.12,4.57-4.82,5.14l5.3,8.1c.51.76,1.07,1.13,2,1.13h.59v.73h-4.46v-.73l-5.87-8.97h-.62c-.54,0-1.24-.06-2.06-.14v7.98c0,.93.17,1.13,1.1,1.13h1.21v.73h-5.9v-.73h1.3v-17.24c0-.93-.17-1.13-1.1-1.13h-1.21v-.71Zm6.52,9.28c3.39,0,5.76-1.27,5.76-4.43,0-2.34-1.3-4.29-5.84-4.29-1.02,0-1.83.14-1.83.14v8.46c.68.08,1.27.11,1.92.11Z"/>
    <path class="cls-1" d="m90.46,125.52h16.31v4.99h-.73l-1.58-4.29h-4.71v17.24c0,.93.17,1.13,1.1,1.13h1.21v.73h-5.87v-.73h1.3v-18.36h-4.74l-1.55,4.29h-.73v-4.99Z"/>
    <path class="cls-1" d="m109.03,144.59l1.52-.59,6.12-16.7-.45-1.24,2.06-.82,6.77,18.22c.31.88.42,1.13,1.35,1.13h1.21v.73h-5.9v-.73h1.35l-1.58-4.26h-8.72l-1.16,3.1c-.06.17-.08.34-.08.48,0,.51.45.68,1.19.68h.85v.73h-4.54v-.73Zm12.21-4.96l-4.15-11.17-4.06,11.17h8.21Z"/>
    <path class="cls-1" d="m129.88,125.52h4.15c1.35-.2,2.4-.25,3.81-.25,7.25,0,11.65,4.15,11.65,10.04s-3.78,10.24-11.2,10.24c-1.95,0-2.85-.08-4.26-.23h-3.13v-.73h1.3v-17.24c0-.93-.17-1.13-1.1-1.13h-1.21v-.71Zm7.73,19.21c7.05,0,9.59-3.86,9.59-9.48s-4.18-9.17-10.47-9.17c-.62,0-1.49.06-2.26.14v17.24c0,1.04.56,1.27,3.13,1.27Z"/>
    <path class="cls-1" d="m152.77,144.59l1.52-.59,6.12-16.7-.45-1.24,2.06-.82,6.77,18.22c.31.88.42,1.13,1.35,1.13h1.21v.73h-5.9v-.73h1.35l-1.58-4.26h-8.72l-1.16,3.1c-.06.17-.08.34-.08.48,0,.51.45.68,1.19.68h.85v.73h-4.54v-.73Zm12.21-4.96l-4.15-11.17-4.06,11.17h8.21Z"/>
  </g>
  <g>
    <path class="cls-1" d="m61.6,155.84c1.11,0,1.6-.05,2.23-.11l.05.44v.11c.56-.42,1.25-.64,1.93-.64,2.09,0,3.46,1.48,3.46,3.57,0,1.96-1.39,3.58-3.46,3.58-.78,0-1.4-.23-1.93-.58v4.8l-.97.39-.19-.44v-10.07c0-.51-.09-.62-.61-.62h-.51v-.44Zm4.21,6.5c1.56,0,2.27-1.59,2.27-3.13,0-1.64-.81-2.96-2.52-2.96-.7,0-1.28.25-1.68.51v4.15c.34.83.98,1.43,1.93,1.43Z"/>
    <path class="cls-1" d="m74.55,155.64c1.75,0,2.57,1.09,2.57,2.15,0,.09,0,.17-.02.27l-.97.39h-3.8c-.03.25-.05.5-.05.76,0,1.51.87,2.98,2.42,2.98.93,0,1.56-.28,2.12-.86l.3.31c-.79.9-1.78,1.15-2.57,1.15-2.04,0-3.44-1.64-3.44-3.58,0-2.06,1.37-3.57,3.44-3.57Zm1.4,2.38c.02-.11.03-.25.03-.39,0-.78-.41-1.54-1.43-1.54-.97,0-1.81.59-2.12,1.93h3.52Z"/>
    <path class="cls-1" d="m78.89,151.32c.79,0,1.51-.03,2.09-.26l.19.44v10.16c0,.51.09.62.61.62h.54v.41h-3.02v-.41h.72v-9.91c0-.51-.09-.62-.61-.62h-.51v-.42Z"/>
    <path class="cls-1" d="m83.56,155.84c1.11,0,1.6-.05,2.23-.11l.05.44v4.1c0,1.73.81,1.92,1.68,1.92.56,0,1.03-.11,2.03-.5v-4.78c0-.51-.09-.62-.61-.62h-.51v-.44c1.11,0,1.6-.05,2.23-.11l.05.44v5.49c0,.51.09.62.61.62h.55v.41c-1.11,0-1.64.05-2.26.11l-.05-.44v-.22c-1.14.45-2.15.65-2.71.65-1.39,0-2.15-.59-2.15-2.45v-3.44c0-.51-.09-.62-.61-.62h-.51v-.44Z"/>
    <path class="cls-1" d="m96.84,155.64c.97,0,1.78.31,2.37.86l.31-.65h.41v11.17l-.97.39-.19-.44v-4.82c-.56.42-1.25.64-1.93.64-2.04,0-3.44-1.64-3.44-3.58,0-2.06,1.37-3.57,3.44-3.57Zm.25,6.55c.7,0,1.28-.25,1.68-.51v-4.27c-.3-.67-.9-1.31-1.93-1.31-1.54,0-2.26,1.43-2.26,3.12,0,1.45.83,2.98,2.51,2.98Z"/>
    <path class="cls-1" d="m102.33,155.84c1.11,0,1.6-.05,2.23-.11l.05.44v4.1c0,1.73.81,1.92,1.68,1.92.56,0,1.03-.11,2.03-.5v-4.78c0-.51-.09-.62-.61-.62h-.51v-.44c1.11,0,1.6-.05,2.23-.11l.05.44v5.49c0,.51.09.62.61.62h.55v.41c-1.11,0-1.64.05-2.26.11l-.05-.44v-.22c-1.14.45-2.15.65-2.71.65-1.39,0-2.15-.59-2.15-2.45v-3.44c0-.51-.09-.62-.61-.62h-.51v-.44Z"/>
    <path class="cls-1" d="m115.61,155.64c1.75,0,2.57,1.09,2.57,2.15,0,.09,0,.17-.02.27l-.97.39h-3.8c-.03.25-.05.5-.05.76,0,1.51.87,2.98,2.42,2.98.93,0,1.56-.28,2.12-.86l.3.31c-.79.9-1.78,1.15-2.57,1.15-2.04,0-3.44-1.64-3.44-3.58,0-2.06,1.37-3.57,3.44-3.57Zm1.4,2.38c.02-.11.03-.25.03-.39,0-.78-.41-1.54-1.43-1.54-.97,0-1.81.59-2.12,1.93h3.52Z"/>
    <path class="cls-1" d="m119.95,155.84c1.11,0,1.6-.05,2.23-.11l.05.44v.11c.56-.44,1.25-.64,1.93-.64.44,0,.61.19.61.42,0,.3-.06.55-.2.78l-1.28-.55c-.45.09-.76.27-1.06.47v4.89c0,.51.09.62.61.62h.54v.41h-3.02v-.41h.72v-5.38c0-.51-.09-.62-.61-.62h-.51v-.44Z"/>
    <path class="cls-1" d="m126.31,155.84c1.11,0,1.6-.05,2.23-.11l.05.44v5.49c0,.51.09.62.61.62h.54v.41h-3.02v-.41h.72v-5.38c0-.51-.09-.62-.61-.62h-.51v-.44Zm2.09-2.37c.44-.3.75-.5,1.04-.5.28,0,.48.31.48.76l-2.54.95-.23-.34,1.25-.87Z"/>
    <path class="cls-1" d="m135.82,159.28v-1.12c0-1.73-.75-1.92-1.62-1.92-.33,0-.65.03-1.09.16l-.55,1.39c-.36-.08-.76-.28-.76-.53,0-1.22,2.31-1.62,3.02-1.62,1.39,0,2.15.59,2.15,2.45v3.57c0,.51.09.62.61.62h.55v.41c-1.11,0-1.64.05-2.26.11l-.05-.44v-.22c-1.14.45-2.15.65-2.71.65-1.32,0-1.67-.69-1.67-1.37,0-1.54,2.37-2.07,4.38-2.14Zm-2.03,2.9c.56,0,1.03-.11,2.03-.5v-1.98c-1.11.03-3.26.2-3.26,1.59,0,.56.34.89,1.23.89Z"/>
  </g>
  <g>
    <g>
      <path class="cls-1" d="m74.83,81.03c-1.78-1.78-9.3-9.3-9.3-9.3,0,0,6.09-6.09,9.4-9.4,5.56-5.56,13.3-4.91,18.71.49,1.3,1.3,4.84,4.84,7.75,7.75l2.06-2.06s-4.88-4.88-7.75-7.75c-5.94-5.94-16.31-7.22-22.92-.61-4.06,4.06-11.52,11.52-11.52,11.52,0,0,9.22,9.22,11.4,11.4,2.18,2.18,5.88,3.58,5.88,3.58l2.29-2.29c-1.29-.29-3.77-1.11-6-3.33Z"/>
      <path class="cls-1" d="m95.82,63.69l-5.4,5.4s-1.96-1.96-2.81-2.81c-2-2-6.28-1.94-8.8.57-1.94,1.94-4.46,4.46-4.46,4.46,0,0,1.89,1.89,4.11,4.11,2.86,2.86,6.86,2.97,9.37.46,2.11-2.11,10.14-10.14,10.14-10.14l-2.16-2.04Zm-10.13,10.13c-1.34,1.34-3.54,1.11-4.83-.18-.98-.98-2.32-2.32-2.32-2.32l2.53-2.53c1.25-1.25,3.11-1.5,4.45-.16,1.34,1.34,2.77,2.59,2.77,2.59,0,0-1.25,1.25-2.59,2.59Z"/>
    </g>
    <g>
      <path class="cls-1" d="m109.56,97.14l-9.3,9.3s-6.09-6.09-9.4-9.4c-5.56-5.56-4.91-13.3.49-18.71,1.3-1.3,4.84-4.84,7.75-7.75l-2.06-2.06s-4.88,4.88-7.75,7.75c-5.94,5.94-7.22,16.31-.61,22.92,4.06,4.06,11.52,11.52,11.52,11.52,0,0,9.22-9.22,11.4-11.4s3.58-5.88,3.58-5.88l-2.29-2.29c-.29,1.29-1.11,3.77-3.33,6Z"/>
      <path class="cls-1" d="m92.22,76.15l5.4,5.4s-1.96,1.96-2.81,2.81c-2,2-1.94,6.28.57,8.8,1.94,1.94,4.46,4.46,4.46,4.46l4.11-4.11c2.86-2.86,2.97-6.86.46-9.37-2.11-2.11-10.14-10.14-10.14-10.14l-2.04,2.16Zm10.13,10.13c1.34,1.34,1.11,3.54-.18,4.83-.98.98-2.32,2.32-2.32,2.32l-2.53-2.53c-1.25-1.25-1.5-3.11-.16-4.45,1.34-1.34,2.59-2.77,2.59-2.77,0,0,1.25,1.25,2.59,2.59Z"/>
    </g>
    <g>
      <path class="cls-1" d="m125.64,62.35c1.78,1.78,9.3,9.3,9.3,9.3,0,0-6.09,6.09-9.4,9.4-5.56,5.56-13.3,4.91-18.71-.49-1.3-1.3-4.82-4.82-7.73-7.73l-2.06,2.06s4.86,4.86,7.72,7.72c5.94,5.94,16.31,7.22,22.92.61,4.06-4.06,11.52-11.52,11.52-11.52,0,0-9.22-9.22-11.4-11.4-2.18-2.18-5.88-3.58-5.88-3.58l-2.29,2.29c1.29.29,3.77,1.11,6,3.33Z"/>
      <path class="cls-1" d="m104.66,79.69l5.4-5.4s1.96,1.96,2.81,2.81c2,2,6.28,1.94,8.8-.57,1.94-1.94,4.46-4.46,4.46-4.46,0,0-1.89-1.89-4.11-4.11-2.86-2.86-6.86-2.97-9.37-.46-2.11,2.11-10.14,10.14-10.14,10.14l2.16,2.04Zm10.13-10.13c1.34-1.34,3.54-1.11,4.83.18l2.32,2.32s-1.27,1.27-2.53,2.53c-1.25,1.25-3.11,1.5-4.45.16s-2.77-2.59-2.77-2.59c0,0,1.25-1.25,2.59-2.59Z"/>
    </g>
    <g>
      <path class="cls-1" d="m90.82,46.17c1.78-1.78,9.3-9.3,9.3-9.3,0,0,6.09,6.09,9.4,9.4,5.56,5.56,4.91,13.3-.49,18.71-1.3,1.3-4.87,4.87-7.78,7.78l2.06,2.06s4.91-4.91,7.77-7.77c5.94-5.94,7.22-16.31.61-22.92-4.06-4.06-11.52-11.52-11.52-11.52l-11.4,11.4c-2.18,2.18-3.58,5.88-3.58,5.88l2.29,2.29c.29-1.29,1.11-3.77,3.33-6Z"/>
      <path class="cls-1" d="m108.16,67.16l-5.4-5.4s1.96-1.96,2.81-2.81c2-2,1.94-6.28-.57-8.8-1.94-1.94-4.46-4.46-4.46-4.46,0,0-1.89,1.89-4.11,4.11-2.86,2.86-2.97,6.86-.46,9.37l10.14,10.14,2.04-2.16Zm-10.13-10.13c-1.34-1.34-1.11-3.54.18-4.83.98-.98,2.32-2.32,2.32-2.32,0,0,1.27,1.27,2.53,2.53,1.25,1.25,1.5,3.11.16,4.45-1.34,1.34-2.59,2.77-2.59,2.77l-2.59-2.59Z"/>
    </g>
  </g>
</svg>