<?xml version="1.0" encoding="UTF-8"?>
<svg id="Capa_1" data-name="Capa 1" xmlns="http://www.w3.org/2000/svg" viewBox="0 0 200 200">
  <defs>
    <style>
      .cls-1 {
        fill: #fff;
      }
    </style>
  </defs>
  <path class="cls-1" d="m30.87,102v5.29h-3.06v-14.6h6.08c1.76,0,3.14.43,4.14,1.28,1.01.86,1.51,1.98,1.51,3.38s-.5,2.52-1.51,3.37c-1.01.85-2.39,1.27-4.14,1.27h-3.02Zm0-2.26h3.02c.85,0,1.5-.22,1.94-.67.44-.44.66-1.01.66-1.7s-.22-1.28-.66-1.74c-.44-.46-1.09-.69-1.95-.69h-3.02v4.79Z"/>
  <path class="cls-1" d="m44.87,101.46v5.83h-3.06v-14.6h5.76c1.74,0,3.1.38,4.09,1.14.98.76,1.47,1.82,1.47,3.17,0,.76-.21,1.4-.62,1.95-.41.54-1.02.98-1.81,1.31.9.25,1.55.68,1.95,1.27.4.6.59,1.33.59,2.21v1.07c0,.41.06.83.17,1.28.12.44.31.77.59.99v.21h-3.16c-.28-.21-.46-.57-.55-1.07-.08-.5-.13-.98-.13-1.42v-1.03c0-.73-.21-1.29-.62-1.7-.42-.41-1-.61-1.76-.61h-2.92Zm0-2.25h2.64c.86,0,1.5-.17,1.93-.52.42-.35.63-.86.63-1.54s-.21-1.2-.63-1.59c-.42-.39-1.05-.59-1.87-.59h-2.7v4.25Z"/>
  <path class="cls-1" d="m78.67,104.15h-5.36l-1.04,3.15h-3.1l5.26-14.6h3.14l5.23,14.6h-3.09l-1.04-3.15Zm-4.61-2.29h3.85l-1.89-5.73h-.06l-1.9,5.73Z"/>
  <polygon class="cls-1" points="96.58 107.3 93.52 107.3 87.36 97.32 87.29 97.33 87.29 107.3 84.23 107.3 84.23 92.7 87.29 92.7 93.46 102.67 93.52 102.66 93.52 92.7 96.58 92.7 96.58 107.3"/>
  <polygon class="cls-1" points="110 94.96 105.67 94.96 105.67 107.3 102.61 107.3 102.61 94.96 98.31 94.96 98.31 92.7 110 92.7 110 94.96"/>
  <rect class="cls-1" x="111.89" y="92.7" width="3.06" height="14.6"/>
  <path class="cls-1" d="m130.3,101.31c0,1.79-.59,3.27-1.78,4.44-1.19,1.17-2.73,1.75-4.62,1.75s-3.41-.58-4.59-1.75c-1.18-1.17-1.76-2.65-1.76-4.44v-2.62c0-1.78.59-3.26,1.76-4.44,1.17-1.17,2.7-1.76,4.58-1.76s3.44.59,4.63,1.76c1.19,1.17,1.78,2.65,1.78,4.44v2.62Zm-3.06-2.64c0-1.14-.3-2.07-.89-2.8-.59-.73-1.41-1.1-2.45-1.1s-1.85.36-2.42,1.09c-.57.73-.86,1.66-.86,2.81v2.65c0,1.16.29,2.1.87,2.83.58.73,1.39,1.1,2.42,1.1s1.87-.36,2.46-1.1c.59-.73.88-1.67.88-2.83v-2.65Z"/>
  <path class="cls-1" d="m144.98,101.32c0,.88-.15,1.7-.45,2.45-.3.75-.73,1.41-1.29,1.96l2.53,2.36-2,1.56-2.75-2.55c-.38.13-.77.23-1.17.3-.41.07-.83.1-1.26.1-1.88,0-3.41-.58-4.59-1.75-1.18-1.17-1.76-2.65-1.76-4.44v-2.62c0-1.78.59-3.26,1.76-4.44,1.17-1.17,2.7-1.76,4.58-1.76s3.44.59,4.63,1.76c1.19,1.17,1.78,2.65,1.78,4.44v2.63Zm-3.06-2.65c0-1.14-.3-2.07-.89-2.8-.59-.73-1.41-1.1-2.45-1.1s-1.85.36-2.42,1.09c-.57.73-.86,1.66-.86,2.81v2.65c0,1.16.29,2.1.87,2.83.58.73,1.39,1.1,2.42,1.1s1.87-.36,2.46-1.1c.59-.73.88-1.67.88-2.83v-2.65Z"/>
  <path class="cls-1" d="m159.81,92.7v9.68c0,1.64-.57,2.9-1.7,3.79-1.13.89-2.62,1.33-4.45,1.33s-3.3-.44-4.42-1.33c-1.12-.89-1.68-2.15-1.68-3.79v-9.68h3.07v9.68c0,.96.27,1.68.81,2.16.54.48,1.28.71,2.22.71s1.71-.24,2.26-.71c.55-.47.82-1.2.82-2.16v-9.68h3.07Z"/>
  <rect class="cls-1" x="162.68" y="92.7" width="3.06" height="14.6"/>
  <path class="cls-1" d="m176.99,104.15h-5.36l-1.04,3.15h-3.1l5.26-14.6h3.14l5.23,14.6h-3.09l-1.04-3.15Zm-4.61-2.29h3.85l-1.89-5.73h-.06l-1.9,5.73Z"/>
  <path class="cls-1" d="m68.3,101.31c0,1.79-.59,3.27-1.78,4.44-1.19,1.17-2.73,1.75-4.62,1.75s-3.41-.58-4.59-1.75c-1.18-1.17-1.76-2.65-1.76-4.44v-2.62c0-1.78.59-3.26,1.76-4.44,1.17-1.17,2.7-1.76,4.58-1.76s3.44.59,4.63,1.76c1.19,1.17,1.78,2.65,1.78,4.44v2.62Zm-3.06-2.64c0-1.14-.3-2.07-.89-2.8-.6-.73-1.41-1.1-2.46-1.1s-1.85.36-2.42,1.09c-.57.73-.86,1.66-.86,2.81v2.65c0,1.16.29,2.1.87,2.83.58.73,1.39,1.1,2.42,1.1s1.87-.36,2.45-1.1c.59-.73.88-1.67.88-2.83v-2.65Z"/>
  <path class="cls-1" d="m59,109.18c-3.4,6.48-10.13,10.6-17.52,10.6-10.91,0-19.78-8.87-19.78-19.78s8.87-19.78,19.78-19.78c7.43,0,14.23,4.2,17.6,10.77.9-.43,1.95-.57,2.93-.43-3.68-8-11.72-13.16-20.53-13.16-12.46,0-22.6,10.14-22.6,22.6s10.14,22.6,22.6,22.6c8.78,0,16.73-5.09,20.45-13-.23,0-2.25-.2-2.93-.42Z"/>
</svg>