<?xml version="1.0" encoding="UTF-8"?>
<svg id="Capa_1" data-name="Capa 1" xmlns="http://www.w3.org/2000/svg" viewBox="0 0 200 200">
  <defs>
    <style>
      .cls-1 {
        fill: #fff;
      }
    </style>
  </defs>
  <path class="cls-1" d="m25.03,145.69c0-5.11,3.94-9.12,9.25-9.12,3.58,0,5.82,1.55,7.37,3.71l-3.56,2.75c-1-1.25-2.18-2.03-3.86-2.03-2.46,0-4.19,2.08-4.19,4.68s1.73,4.68,4.19,4.68c1.83,0,2.91-.85,3.96-2.13l3.66,2.61c-1.65,2.28-3.89,3.96-7.77,3.96-5.01,0-9.05-3.83-9.05-9.12"/>
  <path class="cls-1" d="m53.37,147.55l-1.96-4.99-1.98,4.99h3.94Zm-4.26-10.75h4.69l7.47,17.66h-5.21l-1.28-3.13h-6.77l-1.25,3.13h-5.11l7.47-17.66Z"/>
  <polygon class="cls-1" points="62.75 136.93 67.29 136.93 74.51 146.19 74.51 136.93 79.32 136.93 79.32 154.46 75.06 154.46 67.56 144.84 67.56 154.46 62.75 154.46 62.75 136.93"/>
  <path class="cls-1" d="m92.42,147.55l-1.96-4.99-1.98,4.99h3.94Zm-4.26-10.75h4.69l7.47,17.66h-5.21l-1.28-3.13h-6.77l-1.25,3.13h-5.11l7.47-17.66Z"/>
  <polygon class="cls-1" points="101.58 136.93 106.44 136.93 106.44 150.2 114.94 150.2 114.94 154.46 101.58 154.46 101.58 136.93"/>
  <path class="cls-1" d="m131.93,145.34c1.66,0,2.61-.8,2.61-2.13s-1-2.08-2.63-2.08h-3.18v4.21h3.21Zm-8.07-8.42h8.3c2.68,0,4.54.7,5.72,1.88,1.03,1.03,1.55,2.38,1.55,4.16,0,2.68-1.43,4.46-3.61,5.39l4.19,6.11h-5.61l-3.53-5.31h-2.13v5.31h-4.86v-17.53Z"/>
  <path class="cls-1" d="m140.28,145.69c0-5.11,3.93-9.12,9.25-9.12,3.58,0,5.81,1.55,7.37,3.71l-3.56,2.75c-1-1.25-2.18-2.03-3.86-2.03-2.46,0-4.19,2.08-4.19,4.68s1.73,4.68,4.19,4.68c1.83,0,2.91-.85,3.96-2.13l3.66,2.61c-1.66,2.28-3.89,3.96-7.77,3.96-5.01,0-9.05-3.83-9.05-9.12"/>
  <polygon class="cls-1" points="170.16 136.93 170.16 146.19 162.94 136.93 158.4 136.93 158.4 154.46 163.21 154.46 163.21 144.84 170.71 154.46 174.97 154.46 174.97 136.93 170.16 136.93"/>
  <path class="cls-1" d="m125.72,97.61c-1.2,1.7-2.73,3.3-4.56,4.74-5.53,4.36-12.98,6.76-20.99,6.76s-15.46-2.4-20.99-6.76c-4.98-3.93-7.73-8.99-7.73-14.25s2.75-10.32,7.73-14.25c5.53-4.36,12.98-6.76,20.99-6.76s15.46,2.4,20.99,6.76c1.83,1.44,3.36,3.04,4.56,4.74l6.78-3.83c-6.1-9.17-18.28-15.42-32.32-15.42-20.14,0-36.48,12.88-36.48,28.77s16.33,28.77,36.48,28.77c14.04,0,26.23-6.26,32.32-15.42l-6.78-3.83Z"/>
  <path class="cls-1" d="m50.98,101.04v21.86h-18.54V53.29h15.65c11.02,0,21.34,5.04,27.64,13.46,1.95-1.39,4.09-2.61,6.38-3.64-7.66-10.49-20.39-16.83-34.02-16.83h-22.66v83.64h32.56v-10.22c10.36,8.43,25.1,13,41.98,10.72-23.56-.13-40.97-12.31-48.99-29.37"/>
  <path class="cls-1" d="m142.36,46.27v10.22c-10.35-8.43-25.1-13-41.98-10.72,23.56.13,40.97,12.31,48.99,29.37v-21.86h18.54v69.62h-15.65c-11.02,0-21.33-5.04-27.63-13.46-1.95,1.39-4.08,2.62-6.38,3.65,7.66,10.48,20.39,16.82,34.01,16.82h22.66V46.27h-32.56Z"/>
</svg>