<?xml version="1.0" encoding="UTF-8"?>
<svg id="Capa_1" data-name="Capa 1" xmlns="http://www.w3.org/2000/svg" viewBox="0 0 200 200">
  <defs>
    <style>
      .cls-1 {
        fill: #fff;
      }
    </style>
  </defs>
  <g>
    <path class="cls-1" d="m43.52,126.26h-1.58l-2.41-4.96v4.96h-1.82v-7.94h1.88l3.12,6.8,2.95-6.8h1.88v7.94h-1.81v-4.96l-2.21,4.96Z"/>
    <path class="cls-1" d="m61.36,119.34h-4.04v2.17h3.22v1.02h-3.22v2.68h4.22v1.03h-6.03v-7.94h5.85v1.03Z"/>
    <path class="cls-1" d="m71.7,118.32c.95,0,1.76.1,2.42.31.67.2,1.2.48,1.62.84.42.35.72.76.91,1.23.19.47.28.97.28,1.49,0,.36-.04.72-.12,1.07-.08.34-.21.66-.38.96-.17.3-.39.58-.68.83-.28.25-.61.47-1.01.65-.39.18-.85.32-1.37.42-.52.1-1.1.15-1.76.15h-2.53v-7.94h2.6Zm-.78,1.02v5.89h.55c.51,0,.98-.06,1.41-.19.43-.12.81-.32,1.12-.57.32-.25.56-.57.74-.96.18-.38.26-.84.26-1.35,0-.36-.06-.72-.18-1.06-.12-.34-.32-.64-.58-.9-.28-.27-.63-.48-1.06-.64-.44-.15-.97-.23-1.6-.23h-.68Z"/>
    <path class="cls-1" d="m90.62,119.34h-4.04v2.17h3.22v1.02h-3.22v2.68h4.21v1.03h-6.03v-7.94h5.86v1.03Z"/>
    <path class="cls-1" d="m104.63,126.26h-6.27v-7.94h1.81v6.91h4.46v1.03Z"/>
    <path class="cls-1" d="m118.13,126.26h-6.27v-7.94h1.81v6.91h4.46v1.03Z"/>
    <path class="cls-1" d="m124.91,117.24l2.26-2.18,1.24,1.06-2.79,1.66-.72-.54Zm.45,9.02v-7.94h1.82v7.94h-1.82Z"/>
    <path class="cls-1" d="m136.85,120.57v5.69h-1.82v-7.94h1.71l4.39,5.71v-5.71h1.81l.03,7.94h-1.71l-4.42-5.69Z"/>
  </g>
  <g>
    <path class="cls-1" d="m39.91,132.9c-.13.15-.28.29-.45.39-.18.11-.42.16-.74.16-.46,0-.82-.17-1.1-.51-.27-.34-.4-.78-.4-1.31,0-.5.13-.92.39-1.27.26-.35.64-.52,1.15-.52.21,0,.4.03.56.08.16.05.32.16.46.3l-.25.25c-.11-.1-.23-.19-.36-.24-.14-.05-.28-.08-.44-.08-.35,0-.61.14-.81.42-.19.28-.29.62-.29,1,0,.5.11.89.33,1.16.22.27.46.4.74.4s.47-.04.59-.12c.12-.08.23-.18.33-.32l.29.2Z"/>
    <path class="cls-1" d="m43.16,130.23h-1.55v1.18h1.24v.29h-1.24v1.39h1.63v.3h-2.03v-3.47h1.96v.31Z"/>
    <path class="cls-1" d="m44.97,130.55v2.85h-.39v-3.47s.39,0,.39,0l1.82,2.87v-2.87h.4v3.47h-.38l-1.83-2.85Z"/>
    <path class="cls-1" d="m51.06,130.25h-1.13v3.15h-.4v-3.15h-1.13v-.32h2.67v.32Z"/>
    <path class="cls-1" d="m52.66,133.4h-.4v-3.47h.99c.39,0,.68.09.88.26.2.18.3.42.3.73,0,.21-.08.41-.23.58-.15.17-.33.29-.53.34l1.02,1.56h-.47l-.95-1.49s-.23.01-.61.01v1.48Zm0-1.76h.38c.31,0,.55-.07.72-.2.17-.14.25-.31.25-.52,0-.24-.07-.41-.21-.52-.14-.11-.38-.17-.71-.17h-.44v1.41Z"/>
    <path class="cls-1" d="m57.44,133.45c-.52,0-.92-.17-1.19-.51-.28-.34-.42-.79-.42-1.35,0-.51.15-.93.47-1.26.31-.33.7-.5,1.17-.5.51,0,.9.17,1.18.5.28.33.41.78.41,1.33,0,.51-.15.93-.46,1.28-.31.34-.69.51-1.16.51Zm.02-.32c.3,0,.57-.14.82-.4.24-.27.36-.66.36-1.18,0-.34-.1-.65-.28-.95-.19-.3-.48-.45-.88-.45s-.68.13-.9.4c-.22.27-.32.62-.32,1.04,0,.5.11.87.34,1.14.23.26.52.4.87.4Z"/>
    <path class="cls-1" d="m62.92,129.93c.58,0,1.02.15,1.31.45.28.3.43.71.43,1.22,0,.58-.15,1.02-.45,1.33-.3.32-.74.47-1.3.47h-.76v-3.47h.78Zm-.39.29v2.89h.3c.43,0,.78-.13,1.02-.38.25-.26.37-.63.37-1.13,0-.44-.12-.78-.35-1.02-.23-.24-.58-.36-1.04-.36h-.31Z"/>
    <path class="cls-1" d="m68.05,130.23h-1.56v1.18h1.24v.29h-1.24v1.39h1.62v.3h-2.02v-3.47h1.96v.31Z"/>
    <path class="cls-1" d="m71.11,133.4v-3.47h.4v3.47h-.4Z"/>
    <path class="cls-1" d="m73.38,130.55v2.85h-.39v-3.47h.39l1.82,2.87v-2.87h.4v3.47h-.38l-1.84-2.85Z"/>
    <path class="cls-1" d="m77.47,130.55v2.85h-.4v-3.47s.4,0,.4,0l1.82,2.87v-2.87h.4v3.47h-.38l-1.84-2.85Z"/>
    <path class="cls-1" d="m82.74,133.45c-.51,0-.91-.17-1.2-.51-.28-.34-.42-.79-.42-1.35,0-.51.16-.93.47-1.26.32-.33.71-.5,1.17-.5.51,0,.9.17,1.18.5.28.33.42.78.42,1.33,0,.51-.16.93-.46,1.28-.3.34-.7.51-1.16.51Zm.02-.32c.31,0,.58-.14.82-.4.24-.27.36-.66.36-1.18,0-.34-.1-.65-.29-.95-.19-.3-.48-.45-.88-.45s-.68.13-.9.4c-.22.27-.33.62-.33,1.04,0,.5.12.87.35,1.14.23.26.52.4.87.4Z"/>
    <path class="cls-1" d="m87.83,129.93h.42l-1.2,3.47h-.38l-1.16-3.47h.43l.94,2.93.95-2.93Z"/>
    <path class="cls-1" d="m90.42,129.93h.39l1.22,3.47h-.44l-.39-1.18h-1.24l-.39,1.18h-.39l1.25-3.47Zm-.38,2.02h1.07l-.52-1.59-.55,1.59Z"/>
    <path class="cls-1" d="m95.86,132.9c-.12.15-.28.29-.45.39-.18.11-.42.16-.75.16-.46,0-.83-.17-1.09-.51-.27-.34-.41-.78-.41-1.31,0-.5.13-.92.39-1.27.26-.35.64-.52,1.15-.52.21,0,.4.03.56.08.16.05.32.16.46.3l-.25.25c-.11-.1-.23-.19-.36-.24-.13-.05-.27-.08-.43-.08-.34,0-.62.14-.81.42-.19.28-.29.62-.29,1,0,.5.11.89.33,1.16s.47.4.74.4.46-.04.59-.12c.12-.08.23-.18.33-.32l.29.2Z"/>
    <path class="cls-1" d="m97.16,133.4v-3.47h.4v3.47h-.4Z"/>
    <path class="cls-1" d="m100.6,133.45c-.52,0-.91-.17-1.2-.51-.28-.34-.42-.79-.42-1.35,0-.51.16-.93.47-1.26.32-.33.7-.5,1.17-.5.5,0,.9.17,1.17.5.28.33.42.78.42,1.33,0,.51-.15.93-.46,1.28-.3.34-.69.51-1.16.51Zm.02-.32c.3,0,.58-.14.82-.4.24-.27.36-.66.36-1.18,0-.34-.09-.65-.28-.95-.19-.3-.48-.45-.88-.45s-.69.13-.9.4c-.22.27-.33.62-.33,1.04,0,.5.12.87.35,1.14.23.26.52.4.87.4Zm-.31-3.58l.71-.76.27.27-.84.62-.14-.13Z"/>
    <path class="cls-1" d="m104.05,130.55v2.85h-.39v-3.47h.39l1.82,2.87v-2.87h.4v3.47h-.38l-1.83-2.85Z"/>
    <path class="cls-1" d="m110.23,133.4v-1.58l-1.08-1.89h.43l.85,1.56.85-1.56h.43l-1.08,1.85v1.62h-.4Z"/>
    <path class="cls-1" d="m115.01,130.55v2.85h-.39v-3.47s.39,0,.39,0l1.82,2.87v-2.87h.4v3.47h-.38l-1.83-2.85Z"/>
    <path class="cls-1" d="m120.66,130.23h-1.56v1.18h1.24v.29h-1.24v1.39h1.63v.3h-2.02v-3.47h1.95v.31Z"/>
    <path class="cls-1" d="m124.73,133.25c-.14.05-.3.09-.5.14-.21.04-.44.06-.72.06-.46,0-.83-.17-1.09-.51-.27-.34-.4-.78-.4-1.31,0-.5.13-.92.39-1.27.26-.35.62-.52,1.1-.52.26,0,.47.03.61.08.15.05.3.16.46.3l-.25.25c-.12-.11-.24-.19-.36-.24-.11-.05-.27-.07-.47-.07-.32,0-.57.14-.77.42-.19.28-.29.62-.29,1,0,.5.11.89.32,1.16.22.27.49.4.79.4.14,0,.28-.01.42-.03.13-.02.25-.05.36-.08v-1.3h.4v1.52Z"/>
    <path class="cls-1" d="m127.58,133.45c-.51,0-.91-.17-1.19-.51-.28-.34-.42-.79-.42-1.35,0-.51.15-.93.47-1.26.31-.33.7-.5,1.16-.5.51,0,.9.17,1.18.5.28.33.41.78.41,1.33,0,.51-.15.93-.46,1.28-.31.34-.69.51-1.16.51Zm.02-.32c.3,0,.58-.14.82-.4.24-.27.36-.66.36-1.18,0-.34-.1-.65-.28-.95-.19-.3-.48-.45-.88-.45s-.68.13-.9.4c-.22.27-.33.62-.33,1.04,0,.5.12.87.35,1.14.23.26.52.4.87.4Z"/>
    <path class="cls-1" d="m133.29,132.9c-.13.15-.28.29-.45.39-.17.11-.43.16-.75.16-.46,0-.82-.17-1.09-.51-.27-.34-.41-.78-.41-1.31,0-.5.13-.92.39-1.27.26-.35.64-.52,1.15-.52.21,0,.4.03.56.08.17.05.32.16.47.3l-.25.25c-.11-.1-.23-.19-.36-.24-.13-.05-.28-.08-.43-.08-.35,0-.62.14-.81.42-.19.28-.29.62-.29,1,0,.5.11.89.33,1.16.22.27.46.4.74.4s.47-.04.58-.12c.13-.08.23-.18.34-.32l.29.2Z"/>
    <path class="cls-1" d="m134.59,133.4v-3.47h.4v3.47h-.4Z"/>
    <path class="cls-1" d="m138.03,133.45c-.51,0-.91-.17-1.19-.51-.28-.34-.43-.79-.43-1.35,0-.51.16-.93.48-1.26.31-.33.71-.5,1.17-.5.5,0,.9.17,1.17.5.28.33.42.78.42,1.33,0,.51-.16.93-.46,1.28-.31.34-.69.51-1.16.51Zm.03-.32c.3,0,.57-.14.82-.4.24-.27.36-.66.36-1.18,0-.34-.09-.65-.28-.95-.19-.3-.48-.45-.88-.45s-.69.13-.9.4c-.22.27-.32.62-.32,1.04,0,.5.11.87.34,1.14.23.26.52.4.87.4Z"/>
    <path class="cls-1" d="m141.21,132.69c.11.12.24.22.4.31.16.09.35.14.56.14.24,0,.43-.06.57-.16.14-.11.21-.26.21-.46,0-.19-.06-.34-.19-.43-.14-.09-.33-.19-.59-.28l-.2-.08c-.28-.09-.51-.22-.7-.38-.19-.16-.29-.37-.29-.63s.11-.48.32-.64c.22-.16.49-.24.82-.24.25,0,.47.03.63.11.17.07.32.18.46.31l-.23.25c-.1-.09-.22-.17-.36-.24-.13-.07-.3-.1-.5-.1-.21,0-.39.05-.53.14-.14.09-.21.22-.21.37,0,.18.08.33.23.43.16.1.33.18.49.25l.35.14c.36.13.6.26.73.4.13.15.19.34.19.58,0,.31-.12.55-.35.72-.24.17-.52.26-.86.26-.14,0-.27,0-.38-.03-.11-.02-.22-.04-.32-.09-.11-.04-.2-.09-.29-.15-.09-.06-.18-.14-.27-.23l.31-.26Z"/>
  </g>
  <path class="cls-1" d="m37.6,87v25.06h6.63v-25.06c0-2.82,1.38-4.13,4.35-4.13h7.23v-6.33h-7.23c-7.29,0-10.98,3.52-10.98,10.46Zm106.19,4.11v-4.11c0-6.94-3.71-10.46-11.03-10.46h-27.53v-9.93l-6.63-.05v9.98h-12.33v25.19c0,2.73-1.38,4-4.36,4h-12.35c-2.97,0-4.35-1.31-4.35-4.13v-25.06h-6.63v25.06c0,6.94,3.69,10.46,10.97,10.46h12.36c7.32,0,11.03-3.48,11.03-10.34v-18.85h5.66v29.19h6.63v-29.19h27.53c2.97,0,4.36,1.31,4.36,4.13v4.11h-16.66c-7.32,0-11.03,3.27-11.03,9.74v1.35c0,6.54,3.72,9.86,11.03,9.86h12.29c7.33,0,11.04-3.52,11.04-10.46v-4.15h18.46l6.8-6.33h-25.26Zm-6.67,10.49c0,2.82-1.39,4.13-4.36,4.13h-12.3c-2.97,0-4.36-1.12-4.36-3.53v-1.35c0-2.32,1.39-3.4,4.36-3.4h16.66v4.15Z"/>
  <path class="cls-1" d="m157.91,73.63l.87.25c-.53,1.24-1.14,2.15-1.85,2.72-.7.57-1.42.86-2.15.86-.61,0-1.09-.16-1.43-.47-.34-.32-.51-.74-.51-1.28,0-.47.16-1.24.48-2.28.46-1.56.73-2.53.81-2.89.08-.36.12-.66.12-.88,0-.26-.06-.45-.19-.59-.13-.14-.29-.21-.48-.21-.35,0-.73.14-1.12.41-.66.45-1.28,1.12-1.87,2.03-.59.9-1.02,1.83-1.31,2.79l-.94,3.16-2.84.11,2.22-7.88c.02-.08.03-.17.03-.24,0-.2-.08-.35-.23-.46-.15-.11-.44-.16-.85-.16h-.57l.16-.93,4.64-.2-.83,3.3c1.59-2.28,3.13-3.42,4.64-3.42.68,0,1.24.2,1.68.61.43.4.65.91.65,1.52,0,.49-.1,1.08-.3,1.79l-.98,3.47c-.18.54-.27.89-.27,1.04,0,.1.03.18.08.23.05.06.13.08.23.08.24,0,.5-.14.77-.41.46-.47.9-1.15,1.33-2.06Z"/>
</svg>