<?xml version="1.0" standalone="no"?>
<!DOCTYPE svg PUBLIC "-//W3C//DTD SVG 20010904//EN"
 "http://www.w3.org/TR/2001/REC-SVG-20010904/DTD/svg10.dtd">
<svg version="1.0" xmlns="http://www.w3.org/2000/svg"
 width="1400.000000pt" height="486.000000pt" viewBox="0 0 1400.000000 486.000000"
 preserveAspectRatio="xMidYMid meet">

<g transform="translate(0.000000,486.000000) scale(0.100000,-0.100000)"
fill="#000000" stroke="none">
<path d="M10733 4844 c-10 -25 7 -160 28 -228 27 -89 89 -178 157 -227 82 -58
304 -168 1032 -509 355 -166 840 -396 1078 -511 238 -115 438 -209 443 -209 5
0 9 3 9 8 -1 6 -470 301 -1489 935 -441 275 -1234 757 -1245 757 -4 0 -9 -7
-13 -16z"/>
<path d="M10630 4065 c0 -42 29 -144 58 -203 37 -76 126 -162 219 -210 68 -35
205 -74 1068 -302 545 -144 1166 -309 1380 -367 457 -124 435 -118 435 -104 0
6 -2 11 -4 11 -2 0 -208 79 -457 176 -1115 432 -2646 1018 -2671 1022 -25 4
-28 1 -28 -23z"/>
<path d="M806 3749 c-398 -35 -675 -220 -772 -515 -27 -82 -29 -100 -28 -234
0 -130 3 -154 28 -227 64 -195 212 -342 446 -443 104 -46 142 -57 510 -155
321 -85 388 -112 453 -185 54 -60 77 -122 77 -205 0 -98 -23 -160 -84 -221
-45 -44 -66 -56 -137 -80 l-84 -28 -560 -7 c-308 -3 -561 -7 -562 -8 -2 0 -3
-100 -3 -221 l0 -220 561 0 c610 0 691 5 846 56 219 71 389 207 471 374 61
124 73 182 74 340 0 167 -20 266 -74 379 -56 117 -141 200 -275 268 -120 61
-171 78 -583 192 -179 49 -349 98 -378 109 -155 59 -231 187 -203 341 15 82
29 107 84 158 79 73 98 76 547 83 416 7 460 11 556 56 135 63 224 208 224 364
l0 40 -522 -1 c-288 -1 -563 -5 -612 -10z"/>
<path d="M2560 2724 c0 -625 4 -1066 10 -1107 46 -319 287 -540 680 -624 97
-21 143 -25 300 -26 216 -1 315 14 486 72 160 53 251 109 360 216 77 75 98
104 132 175 69 146 67 112 67 1055 0 939 0 943 -61 1065 -60 120 -153 180
-308 200 -39 5 -81 10 -93 10 l-23 0 -2 -1013 -3 -1012 -33 -67 c-56 -114
-164 -189 -320 -224 -104 -23 -321 -15 -413 15 -92 29 -179 90 -222 154 -66
98 -64 71 -72 958 -4 486 -10 826 -17 859 -23 121 -96 224 -195 273 -57 28
-114 43 -205 52 l-68 7 0 -1038z"/>
<path d="M6140 3753 c-226 -21 -403 -85 -549 -197 -198 -153 -316 -403 -341
-728 -5 -68 -10 -507 -10 -975 l0 -853 245 0 245 0 0 913 c0 1002 -1 985 61
1114 38 80 122 169 195 206 99 50 147 59 374 67 248 9 322 24 409 80 96 62
142 153 157 308 l7 72 -379 -2 c-209 0 -395 -3 -414 -5z"/>
<path d="M8046 3749 c-155 -16 -328 -73 -470 -154 -439 -250 -682 -766 -652
-1380 20 -406 134 -713 350 -941 210 -223 458 -324 793 -324 235 0 395 43 561
149 73 47 190 158 238 226 l21 30 12 -54 c42 -197 186 -300 419 -301 l62 0 0
1380 0 1380 -627 -1 c-346 -1 -664 -5 -707 -10z m812 -1101 c-4 -648 -4 -665
-26 -743 -57 -207 -177 -363 -342 -444 -105 -51 -195 -71 -325 -71 -123 0
-218 20 -310 63 -267 128 -398 406 -398 847 -1 567 211 916 603 995 46 9 173
13 433 14 l368 1 -3 -662z"/>
<path d="M10850 3229 c0 -12 14 -51 32 -88 44 -90 150 -197 241 -241 85 -42
-17 -33 1482 -130 671 -44 1261 -83 1310 -86 64 -5 87 -3 80 4 -9 10 -3083
562 -3127 562 -12 0 -18 -7 -18 -21z"/>
<path d="M12135 2523 c-357 -2 -633 -7 -638 -12 -15 -15 42 -107 104 -166 67
-64 147 -104 221 -112 37 -3 349 37 1048 136 547 78 998 141 1003 141 4 0 7 5
7 10 0 7 -191 9 -557 8 -307 -2 -841 -4 -1188 -5z"/>
<path d="M13590 2304 c-69 -19 -334 -88 -590 -154 -582 -149 -938 -245 -947
-253 -11 -12 81 -151 117 -175 29 -20 44 -23 86 -19 51 5 342 124 1039 422
402 172 445 192 445 205 0 14 -8 13 -150 -26z"/>
<path d="M13240 1873 c-184 -113 -459 -278 -610 -367 l-275 -162 3 -64 c7
-137 34 -176 104 -147 34 14 208 157 826 675 269 226 321 274 295 271 -5 0
-159 -93 -343 -206z"/>
<path d="M13090 1372 c-152 -126 -687 -588 -697 -602 -6 -9 -18 -43 -27 -76
-8 -32 -27 -92 -41 -133 -14 -43 -21 -79 -16 -84 11 -11 841 900 841 924 0 16
-14 9 -60 -29z"/>
<path d="M12080 919 c-101 -41 -457 -128 -750 -183 -401 -75 -651 -107 -1015
-131 -132 -9 -243 -19 -248 -24 -11 -11 63 -76 123 -106 92 -47 167 -58 355
-52 137 4 199 12 320 37 292 60 608 157 870 267 157 66 385 181 385 194 0 11
-8 11 -40 -2z"/>
<path d="M12070 709 c-309 -191 -825 -376 -1340 -479 -132 -27 -185 -42 -185
-51 0 -8 23 -26 50 -41 147 -79 440 -56 714 56 319 131 622 315 777 472 93 95
88 107 -16 43z"/>
<path d="M11990 370 c-140 -114 -296 -201 -499 -280 -52 -19 -96 -41 -98 -47
-14 -40 186 -53 287 -19 177 60 284 150 363 303 46 89 55 113 40 113 -5 -1
-46 -32 -93 -70z"/>
</g>
</svg>
