<?xml version="1.0" encoding="UTF-8"?>
<svg id="Capa_1" data-name="Capa 1" xmlns="http://www.w3.org/2000/svg" viewBox="0 0 200 200">
  <defs>
    <style>
      .cls-1 {
        fill: #fff;
      }

      .cls-2 {
        fill: none;
      }
    </style>
  </defs>
  <path class="cls-1" d="m143.58,52.9c0-4.07-3.3-7.38-7.38-7.38H56.42s.02,79.77.02,79.77c0,4.07,3.3,7.38,7.38,7.38h36.19v21.8l21.79-21.82h21.79s0-79.75,0-79.75Z"/>
  <polygon class="cls-2" points="65.66 108.76 65.66 105.44 70.49 104.12 70.49 73.28 65.66 71.96 65.66 68.64 85.97 68.64 85.97 71.96 79.27 73.28 79.27 104.81 88.8 104.81 91.24 95.22 95.32 95.22 95.32 108.76 65.66 108.76"/>
  <path class="cls-2" d="m111.17,90.46v13.67l4.83,1.32v3.32h-18.43v-3.32l4.83-1.32v-30.84l-4.83-1.32v-3.32h17.99c10.22,0,14.79,3.76,14.79,10.41,0,4.7-2.88,8.15-8.4,9.65,3.2,1.07,5.2,3.45,6.46,7.71,2.26,7.84,3.64,8.9,5.89,9.03v3.32c-1.13.38-2.95.69-4.39.69-4.83,0-7.08-1.63-9.53-10.41-1.94-7.02-3.2-8.59-7.77-8.59h-1.44Zm4.07-4.01c3.51,0,6.21-2.32,6.21-6.96s-2.76-6.83-6.58-6.83h-3.7v13.79h4.07Z"/>
</svg>