<?xml version="1.0" encoding="UTF-8"?>
<svg id="Capa_1" data-name="Capa 1" xmlns="http://www.w3.org/2000/svg" viewBox="0 0 200 200">
  <defs>
    <style>
      .cls-1 {
        fill: #fff;
      }
    </style>
  </defs>
  <polygon class="cls-1" points="89.89 83.69 107.4 83.7 107.39 87.82 96.75 87.82 96.75 93.65 104.64 93.65 104.64 97.09 96.75 97.08 96.74 112.19 107.38 112.2 107.38 115.97 89.87 115.96 89.89 83.69"/>
  <polygon class="cls-1" points="55.9 83.67 77.53 83.68 77.53 88.15 70.66 88.14 70.64 115.95 63.09 115.94 63.11 87.79 55.9 87.79 55.9 83.67"/>
  <polygon class="cls-1" points="29.82 83.65 37.02 83.65 37 112.15 46.96 112.16 46.96 115.93 29.79 115.92 29.82 83.65"/>
  <polygon class="cls-1" points="9.22 83.64 26.72 83.65 26.72 87.77 16.42 87.76 16.42 93.25 23.97 93.26 23.97 97.04 16.42 97.03 16.41 112.13 26.7 112.14 26.7 115.92 9.2 115.9 9.22 83.64"/>
  <polygon class="cls-1" points="115.61 115.98 110.81 115.98 110.83 83.71 115.64 83.71 123.52 99.51 129.37 83.72 136.58 83.72 136.56 115.99 129.01 115.99 129.01 98.83 122.83 115.98 121.8 115.98 115.63 99.85 115.61 115.98"/>
  <rect class="cls-1" x="79.92" y="83.69" width="6.86" height="32.27"/>
  <path class="cls-1" d="m153.4,83.73h-14.07s-.02,32.26-.02,32.26h7.55s0-11.67,0-11.67h7.21c3.28-.06,7.75-4.16,7.9-9.95-.14-5.68-3.47-10.66-8.58-10.65m-1.72,15.79h-4.81v-11.33h4.47c2.15.02,4.04,2.77,4.11,5.49-.09,2.95-1.62,5.88-3.78,5.83"/>
  <path class="cls-1" d="m177.43,83.75c-7.44-.17-13.46,7.13-13.4,16.12-.07,9.02,5.93,16.33,13.38,16.49,7.39-.15,13.41-7.45,13.4-16.47.02-9-5.99-16.31-13.37-16.14m-.02,29.87c-2.45.09-4.41-6.1-4.46-13.74.06-7.62,2.02-13.8,4.47-13.72,2.4-.07,4.35,6.11,4.45,13.73-.11,7.64-2.07,13.82-4.47,13.73"/>
</svg>