<?xml version="1.0" encoding="UTF-8"?>
<svg id="Capa_1" data-name="Capa 1" xmlns="http://www.w3.org/2000/svg" viewBox="0 0 200 200">
  <defs>
    <style>
      .cls-1 {
        fill: #fff;
      }

      .cls-2 {
        fill: #705ea6;
        font-family: Supply-Regular, Supply;
        font-size: 20.89px;
      }
    </style>
  </defs>
  <g>
    <g>
      <g>
        <path class="cls-1" d="m10.31,113.14c0-5.96,4.15-10.22,9.98-10.22s9.98,4.26,9.98,10.22-4.15,10.22-9.98,10.22-9.98-4.26-9.98-10.22Zm16.17-.03c0-4.05-2.46-6.87-6.19-6.87s-6.19,2.82-6.19,6.87,2.46,6.9,6.19,6.9,6.19-2.8,6.19-6.9Z"/>
        <path class="cls-1" d="m50.15,122.94v-16.36h-7.45v16.36h-3.71v-19.6h14.87v19.6h-3.71Z"/>
        <path class="cls-1" d="m81.9,112.33h10.19c.08.24.13.68.13,1.54-.03,5.54-3.61,9.48-9.51,9.48s-9.98-4.26-9.98-10.22,4.18-10.22,9.98-10.22c3.5,0,6.32,1.54,8,4.05l-2.51,2.09c-1.18-1.8-3.19-2.87-5.49-2.87-3.71,0-6.22,2.85-6.22,6.92s2.48,6.92,6.22,6.92c3.24,0,5.28-1.78,5.8-4.47h-6.61v-3.24Z"/>
        <path class="cls-1" d="m126.3,119.67h3.42v-13.09h-3.29v-3.24h10.32v3.24h-3.32v13.09h3.45v3.27h-10.58v-3.27Z"/>
        <path class="cls-1" d="m155.64,122.94l-5.67-16.38h-.81v16.38h-3.61v-19.6h7.21l5.51,16.33h.84v-16.33h3.58v19.6h-7.05Z"/>
        <path class="cls-1" d="m179.37,112.33h10.19c.08.24.13.68.13,1.54-.03,5.54-3.61,9.48-9.51,9.48s-9.98-4.26-9.98-10.22,4.18-10.22,9.98-10.22c3.5,0,6.32,1.54,8,4.05l-2.51,2.09c-1.18-1.8-3.19-2.87-5.49-2.87-3.71,0-6.22,2.85-6.22,6.92s2.48,6.92,6.22,6.92c3.24,0,5.28-1.78,5.8-4.47h-6.61v-3.24Z"/>
        <polygon class="cls-1" points="112.01 113.14 112.01 119.67 103.31 119.67 103.31 113.14 99.6 113.14 99.6 122.94 115.72 122.94 115.72 113.14 112.01 113.14"/>
        <polygon class="cls-1" points="106.93 113.14 106.93 106.61 115.63 106.61 115.63 113.14 119.34 113.14 119.34 103.34 103.22 103.34 103.22 113.14 106.93 113.14"/>
      </g>
      <circle class="cls-1" cx="63.54" cy="113.95" r="2.41"/>
    </g>
    <g>
      <path class="cls-1" d="m11.07,135.31c.22-.4.53-.72.93-.94.4-.23.85-.34,1.35-.34.62,0,1.15.16,1.59.49.44.33.73.77.88,1.34h-1.4c-.1-.22-.25-.38-.44-.5-.19-.11-.41-.17-.65-.17-.39,0-.71.14-.95.41-.24.27-.36.64-.36,1.09s.12.82.36,1.09c.24.27.56.41.95.41.24,0,.46-.06.65-.17.19-.11.34-.28.44-.5h1.4c-.15.56-.44,1.01-.88,1.33-.44.32-.97.49-1.59.49-.5,0-.96-.11-1.35-.34-.4-.23-.71-.54-.93-.94s-.33-.86-.33-1.37.11-.97.33-1.38Z"/>
      <path class="cls-1" d="m17.88,135.1v1.05h1.7v.98h-1.7v1.14h1.92v1.02h-3.19v-5.21h3.19v1.02h-1.92Z"/>
      <path class="cls-1" d="m25.28,139.29h-1.27l-2.12-3.21v3.21h-1.27v-5.21h1.27l2.12,3.23v-3.23h1.27v5.21Z"/>
      <path class="cls-1" d="m29.95,134.08v1.02h-1.38v4.19h-1.27v-4.19h-1.38v-1.02h4.03Z"/>
      <path class="cls-1" d="m33.24,139.29l-1.08-1.97h-.3v1.97h-1.27v-5.21h2.13c.41,0,.76.07,1.05.22.29.14.51.34.65.59.14.25.22.53.22.83,0,.35-.1.66-.29.93-.2.27-.48.47-.86.58l1.2,2.06h-1.43Zm-1.39-2.86h.79c.23,0,.41-.06.52-.17.12-.11.17-.27.17-.48s-.06-.35-.17-.47c-.12-.11-.29-.17-.52-.17h-.79v1.29Z"/>
      <path class="cls-1" d="m36.54,139.01c-.41-.23-.73-.55-.97-.95-.24-.41-.36-.87-.36-1.38s.12-.97.36-1.37c.24-.41.56-.72.97-.95.41-.23.86-.34,1.35-.34s.94.11,1.35.34c.41.23.73.54.96.95.23.41.35.86.35,1.37s-.12.97-.36,1.38-.56.73-.96.95c-.41.23-.85.34-1.34.34s-.94-.11-1.35-.34Zm2.35-1.23c.25-.28.37-.64.37-1.1s-.12-.83-.37-1.1c-.25-.27-.58-.41-1-.41s-.76.14-1.01.41c-.25.27-.37.64-.37,1.11s.12.83.37,1.1c.25.27.58.41,1.01.41s.75-.14,1-.42Z"/>
      <path class="cls-1" d="m46.22,134.41c.41.22.73.52.95.92.23.39.34.85.34,1.36s-.11.96-.34,1.36c-.23.4-.54.7-.96.92-.41.22-.89.33-1.44.33h-1.95v-5.21h1.95c.55,0,1.03.11,1.44.33Zm-.4,3.39c.27-.26.4-.63.4-1.11s-.13-.85-.4-1.12-.64-.4-1.12-.4h-.6v3.03h.6c.48,0,.85-.13,1.12-.39Z"/>
      <path class="cls-1" d="m49.5,135.1v1.05h1.7v.98h-1.7v1.14h1.92v1.02h-3.19v-5.21h3.19v1.02h-1.92Z"/>
      <path class="cls-1" d="m55.08,135.1v1.05h1.7v.98h-1.7v1.14h1.92v1.02h-3.19v-5.21h3.19v1.02h-1.92Z"/>
      <path class="cls-1" d="m63.73,134.08v5.21h-1.27v-3.12l-1.17,3.12h-1.02l-1.17-3.13v3.13h-1.27v-5.21h1.5l1.46,3.61,1.45-3.61h1.49Z"/>
      <path class="cls-1" d="m68.4,136.59c-.14.25-.35.45-.64.6-.29.15-.64.23-1.07.23h-.79v1.87h-1.27v-5.21h2.06c.42,0,.77.07,1.05.22.29.14.5.34.65.59.14.25.22.54.22.87,0,.3-.07.58-.21.83Zm-1.26-.35c.12-.11.18-.27.18-.48s-.06-.37-.18-.48c-.12-.11-.3-.17-.54-.17h-.69v1.31h.69c.24,0,.42-.06.54-.17Z"/>
      <path class="cls-1" d="m71.93,139.29l-1.08-1.97h-.3v1.97h-1.27v-5.21h2.13c.41,0,.76.07,1.05.22.29.14.51.34.65.59.14.25.22.53.22.83,0,.35-.1.66-.29.93-.2.27-.48.47-.86.58l1.2,2.06h-1.43Zm-1.39-2.86h.79c.23,0,.41-.06.52-.17.12-.11.17-.27.17-.48s-.06-.35-.17-.47c-.12-.11-.29-.17-.52-.17h-.79v1.29Z"/>
      <path class="cls-1" d="m75.38,135.1v1.05h1.7v.98h-1.7v1.14h1.92v1.02h-3.19v-5.21h3.19v1.02h-1.92Z"/>
      <path class="cls-1" d="m82.79,139.29h-1.27l-2.12-3.21v3.21h-1.27v-5.21h1.27l2.12,3.23v-3.23h1.27v5.21Z"/>
      <path class="cls-1" d="m87.1,134.41c.41.22.73.52.95.92.23.39.34.85.34,1.36s-.11.96-.34,1.36c-.23.4-.54.7-.96.92-.41.22-.89.33-1.44.33h-1.95v-5.21h1.95c.55,0,1.03.11,1.44.33Zm-.4,3.39c.27-.26.4-.63.4-1.11s-.13-.85-.4-1.12-.64-.4-1.12-.4h-.6v3.03h.6c.48,0,.85-.13,1.12-.39Z"/>
      <path class="cls-1" d="m90.37,134.08v5.21h-1.27v-5.21h1.27Z"/>
      <path class="cls-1" d="m97.19,134.08v5.21h-1.27v-3.12l-1.17,3.12h-1.02l-1.17-3.13v3.13h-1.27v-5.21h1.5l1.46,3.61,1.45-3.61h1.49Z"/>
      <path class="cls-1" d="m99.37,134.08v5.21h-1.27v-5.21h1.27Z"/>
      <path class="cls-1" d="m101.56,135.1v1.05h1.7v.98h-1.7v1.14h1.92v1.02h-3.19v-5.21h3.19v1.02h-1.92Z"/>
      <path class="cls-1" d="m108.97,139.29h-1.27l-2.12-3.21v3.21h-1.27v-5.21h1.27l2.12,3.23v-3.23h1.27v5.21Z"/>
      <path class="cls-1" d="m113.63,134.08v1.02h-1.38v4.19h-1.27v-4.19h-1.38v-1.02h4.03Z"/>
      <path class="cls-1" d="m115.39,139.01c-.41-.23-.73-.55-.97-.95s-.36-.87-.36-1.38.12-.97.36-1.37c.24-.41.56-.72.97-.95.41-.23.86-.34,1.35-.34s.94.11,1.35.34c.41.23.73.54.96.95.23.41.35.86.35,1.37s-.12.97-.36,1.38-.56.73-.96.95c-.41.23-.85.34-1.34.34s-.94-.11-1.35-.34Zm2.34-1.23c.25-.28.37-.64.37-1.1s-.13-.83-.37-1.1c-.25-.27-.58-.41-1-.41s-.76.14-1.01.41c-.25.27-.37.64-.37,1.11s.12.83.37,1.1c.25.27.59.41,1.01.41s.75-.14,1-.42Z"/>
      <path class="cls-1" d="m125.07,134.41c.41.22.73.52.95.92.23.39.34.85.34,1.36s-.11.96-.34,1.36c-.23.4-.54.7-.96.92-.41.22-.89.33-1.44.33h-1.95v-5.21h1.95c.55,0,1.03.11,1.44.33Zm-.4,3.39c.27-.26.4-.63.4-1.11s-.13-.85-.4-1.12-.64-.4-1.12-.4h-.6v3.03h.6c.48,0,.85-.13,1.12-.39Z"/>
      <path class="cls-1" d="m128.34,135.1v1.05h1.7v.98h-1.7v1.14h1.92v1.02h-3.19v-5.21h3.19v1.02h-1.92Z"/>
      <path class="cls-1" d="m133.93,134.08v5.21h-1.27v-5.21h1.27Z"/>
      <path class="cls-1" d="m140.75,134.08v5.21h-1.27v-3.12l-1.17,3.12h-1.02l-1.17-3.13v3.13h-1.27v-5.21h1.5l1.46,3.61,1.45-3.61h1.49Z"/>
      <path class="cls-1" d="m145.43,136.59c-.14.25-.35.45-.64.6-.29.15-.64.23-1.07.23h-.79v1.87h-1.27v-5.21h2.06c.42,0,.77.07,1.05.22.29.14.5.34.65.59.14.25.22.54.22.87,0,.3-.07.58-.21.83Zm-1.26-.35c.12-.11.18-.27.18-.48s-.06-.37-.18-.48c-.12-.11-.3-.17-.54-.17h-.69v1.31h.69c.24,0,.42-.06.54-.17Z"/>
      <path class="cls-1" d="m149.54,138.37h-1.94l-.31.92h-1.33l1.88-5.21h1.47l1.88,5.21h-1.34l-.31-.92Zm-.33-.98l-.65-1.91-.64,1.91h1.28Z"/>
      <path class="cls-1" d="m151.88,135.31c.22-.4.53-.72.93-.94.4-.23.85-.34,1.35-.34.62,0,1.15.16,1.59.49.44.33.73.77.88,1.34h-1.4c-.1-.22-.25-.38-.44-.5-.19-.11-.41-.17-.65-.17-.39,0-.71.14-.95.41-.24.27-.36.64-.36,1.09s.12.82.36,1.09c.24.27.56.41.95.41.24,0,.46-.06.65-.17.19-.11.34-.28.44-.5h1.4c-.15.56-.44,1.01-.88,1.33-.44.32-.97.49-1.59.49-.5,0-.96-.11-1.35-.34-.4-.23-.71-.54-.93-.94-.22-.4-.33-.86-.33-1.37s.11-.97.33-1.38Z"/>
      <path class="cls-1" d="m161.17,134.08v1.02h-1.38v4.19h-1.27v-4.19h-1.38v-1.02h4.03Z"/>
      <path class="cls-1" d="m162.92,139.01c-.41-.23-.73-.55-.97-.95s-.36-.87-.36-1.38.12-.97.36-1.37c.24-.41.56-.72.97-.95.41-.23.86-.34,1.35-.34s.94.11,1.35.34c.41.23.73.54.96.95.23.41.35.86.35,1.37s-.12.97-.36,1.38-.56.73-.96.95c-.41.23-.85.34-1.34.34s-.94-.11-1.35-.34Zm2.34-1.23c.25-.28.37-.64.37-1.1s-.13-.83-.37-1.1c-.25-.27-.58-.41-1-.41s-.76.14-1.01.41c-.25.27-.37.64-.37,1.11s.12.83.37,1.1c.25.27.59.41,1.01.41s.75-.14,1-.42Z"/>
      <path class="cls-1" d="m170.48,135.1v1.05h1.7v.98h-1.7v1.14h1.92v1.02h-3.19v-5.21h3.19v1.02h-1.92Z"/>
      <path class="cls-1" d="m176.47,138.37h-1.94l-.31.92h-1.33l1.88-5.21h1.47l1.88,5.21h-1.34l-.31-.92Zm-.33-.98l-.65-1.91-.64,1.91h1.28Z"/>
      <path class="cls-1" d="m182.08,134.08v1.02h-2.12v1.1h1.59v.99h-1.59v2.11h-1.27v-5.21h3.39Z"/>
      <path class="cls-1" d="m184.02,134.08v5.21h-1.27v-5.21h1.27Z"/>
      <path class="cls-1" d="m188.69,134.08v1.02h-1.38v4.19h-1.27v-4.19h-1.38v-1.02h4.03Z"/>
    </g>
  </g>
  <text class="cls-2" transform="translate(24.81 75.87)"><tspan x="0" y="0" xml:space="preserve">  Organiza: </tspan></text>
</svg>