<?xml version="1.0" encoding="UTF-8"?>
<svg id="Capa_1" data-name="Capa 1" xmlns="http://www.w3.org/2000/svg" viewBox="0 0 200 200">
  <defs>
    <style>
      .cls-1 {
        fill: #fff;
      }
    </style>
  </defs>
  <g>
    <path class="cls-1" d="m161.03,118.11c.06-.12.01-.18-.06-.2-3.21,1.28-10.22,2.55-14.59,3.21-3.78.57-7.02.66-8.83.79l-.82.07c-.1.02-.15.08-.17.15-.02.07.03.12.08.16.33.37,1.4,1.36,3.52,1.67,2.44.34,6.07-.3,10.6-1.61,3.8-1.09,8.14-2.96,10.27-4.24Z"/>
    <path class="cls-1" d="m161.36,120.01c-2.03,1.39-4.79,2.73-8.09,3.87-3.35,1.16-6.95,2.15-10.87,2.8-.07.02-.14.07-.16.15,0,.05.02.11.05.14.64.51,1.48.81,2.5.92,1.26.14,2.79-.03,4.54-.49,1.56-.41,3.04-1.1,4.73-1.91,1.6-.78,3.13-1.68,4.43-2.61,1.33-.95,2.33-1.88,2.96-2.69,0-.11-.03-.16-.09-.18Z"/>
    <path class="cls-1" d="m144.89,84.1c.81.87,1.86,1.5,3.15,1.9l.1.03c.36.1,21.74,5.72,27.4,7.25,2.48.67,4.44,1.2,5.36,1.46.1,0,.15-.03.16-.09,0-.04-.03-.09-.08-.11-3.58-1.44-25.61-9.89-33.91-13.06l-3.49-1.35c-.12-.01-.18,0-.22.04-.03.04-.04.1-.04.13.03.3.21,1.89.92,2.97.2.32.43.59.66.83Z"/>
    <path class="cls-1" d="m145.81,75.69c.43.53.83.87,1.62,1.34.26.16.52.33.82.47l1.97,1c1.12.57,17.63,8.26,20.04,9.46,2.86,1.4,5.71,2.75,6.95,3.37.12.02.18-.01.15-.16-3.07-1.92-14.89-9.35-23.32-14.56l-6.05-3.66-1.11-.68-2.06-1.24c-.11-.04-.17-.03-.21,0-.07.02-.08.08-.08.12-.02.28-.05,1.83.43,3.02.22.52.5,1.07.84,1.52Z"/>
    <path class="cls-1" d="m160.69,123.71s-.07,0-.1.02c-2.73,2.69-6.77,4.21-8.11,4.62-.08,0-.13.07-.14.14,0,.07.05.14.11.17.21.1,1.83.98,4.91-.58,1.75-.88,2.64-2.31,3.43-4.21.03-.11-.04-.16-.09-.16Z"/>
    <path class="cls-1" d="m180.35,101.08c-1.37.39-6.61,1.74-11.24,2.92-4,1.03-8.5,2.26-8.5,2.26-.47.12-.3.31-.25.38.12.19.38.6.68,1.1.72,1.2,1.7,1.05,2.57.74.16-.06,16.13-6.71,16.85-7.2.12-.07.04-.13.04-.17-.01-.05-.1-.03-.14-.03Z"/>
    <path class="cls-1" d="m173.34,112.15l-.1.04c-2.11,1.75-5.32,4.56-8.65,7.4-.32.25-.44.72-.57,1.3-.21.95-.7,2.18-.7,2.18-.09.28.04.4.31.12,2.57-2.76,8.25-9.05,9.79-10.84.03-.12-.01-.18-.08-.19Z"/>
    <path class="cls-1" d="m183.45,96.82c-2.84-.52-37.33-6.64-37.36-6.64-.06,0-.13.03-.19.08-.02.07,0,.13,0,.2.56,1.78,1.91,3.57,4.23,4.29.27.08.5.11.75.14,0,0,29.25,1.92,32.51,2.14.08,0,.14-.03.14-.09s-.04-.11-.1-.12Z"/>
    <path class="cls-1" d="m182.01,98.79c-1.03.03-3.14.04-5.77.05-3.04.01-6.79.03-10.29.03-4.7.01-12.17.06-12.17.06-.05,0-.11.03-.14.08-.04.05-.04.1,0,.15.1.32.53,1.11,1,1.61.94.97,1.96,1.49,3.02,1.6.13.01.25.01.38.01s.25-.02.4-.04c.14-.02,22.38-3.15,23.58-3.34.06-.01.09-.05.11-.1,0-.06-.05-.12-.11-.12Z"/>
    <path class="cls-1" d="m178.57,104.18c-1.53.94-5.52,3.38-8.92,5.43-1.91,1.16-4.32,2.5-5.56,3.28-.15.09-.26.09-.19.47,0,0,.06.37.1.81.13,1.85.88,1.64,2,.79l.13-.11c3.84-3.16,10.97-9.16,12.53-10.47.04-.14,0-.18-.07-.2Z"/>
  </g>
  <path class="cls-1" d="m114.22,84.16c-7.64.01-14.83,5.64-15.15,16.61-.28,9.97,4.92,16.96,13.7,16.96,7.22,0,9.76-5.04,9.76-5.04.41,3.37,2.24,4.4,5.86,4.4v-32.93h-14.18Zm7.97,19.4c0,4.56-2.61,8.9-8.29,8.9-5.08,0-8.71-3.41-8.48-11.62.23-7.88,4.02-11.34,9.03-11.34.39,0,.76-.02,1.12-.05h0s6.62,0,6.62,0v14.11Z"/>
  <path class="cls-1" d="m65.52,84.16l.02,22.83c0,3.33-2.75,5-6.39,5-3.83,0-6.33-1.67-6.33-5l-.05-17.08c0-4.87-3.05-5.75-5.74-5.75v24.24c0,6.12,5.5,9.12,11.93,9.12s12.34-3,12.34-9.12v-17.74c0-4.79-1.81-6.49-5.78-6.49Z"/>
  <path class="cls-1" d="m33.41,98.91l-7.03-1.93c-1.93-.53-3.7-1.37-3.7-3.74s1.49-3.66,4.61-3.66h6.25c2.77,0,6.06-.92,6.06-5.42h-11.77c-7.25.02-11.4,3.68-11.4,8.92,0,4.88,3.1,7.63,8.63,9.1l6.12,1.62c2.53.68,3.43,2.26,3.43,3.89,0,2.47-1.56,3.97-5.36,3.99l-11.75.09v5.32h11.95c7.25,0,11.4-3.89,11.4-9.01s-2.03-7.69-7.45-9.17Z"/>
  <path class="cls-1" d="m91.08,84.16c-7.12,0-12.03,4.12-12.03,12.59v20.33h5.74v-20.53c0-4.36,2.35-6.98,6.79-6.98h1.7c5.03,0,5.85-2.6,5.85-5.42h-8.05Z"/>
</svg>