<?xml version="1.0" encoding="UTF-8"?>
<svg id="Capa_1" data-name="Capa 1" xmlns="http://www.w3.org/2000/svg" viewBox="0 0 200 200">
  <defs>
    <style>
      .cls-1 {
        fill: #fff;
      }

      .cls-2 {
        fill: #705ea6;
        font-family: Supply-Regular, Supply;
        font-size: 20.89px;
      }
    </style>
  </defs>
  <g>
    <g>
      <path class="cls-1" d="m15.27,132.13h3.76v.57h-1.57v3.94h-.65v-3.94h-1.54v-.57Z"/>
      <path class="cls-1" d="m24.24,132.14h.64v4.5h-.64v-1.96h-2.53v1.96h-.64v-4.5h.64v1.95h2.53v-1.95Z"/>
      <path class="cls-1" d="m27.29,132.14h2.55v.57h-1.91v1.37h1.84v.58h-1.84v1.4h1.97v.57h-2.61v-4.5Z"/>
      <path class="cls-1" d="m36.05,132.11h.45l2.02,4.53h-.66l-.6-1.33h-1.92l-.56,1.33h-.66l1.93-4.53Zm.95,2.62l-.73-1.63-.67,1.63h1.4Z"/>
      <path class="cls-1" d="m40.45,136.64v-4.5h1.13c.46,0,.82.11,1.08.34s.4.53.4.92c0,.26-.07.49-.2.68s-.32.33-.56.43c.14.09.28.22.42.39s.33.45.58.85c.16.26.28.45.38.58l.24.32h-.77l-.2-.3s-.02-.03-.04-.06l-.13-.18-.2-.33-.22-.35c-.13-.18-.26-.33-.37-.44-.11-.11-.21-.19-.3-.24-.09-.05-.24-.07-.45-.07h-.17v1.96h-.64Zm.84-3.96h-.19v1.42h.25c.33,0,.55-.03.67-.08s.22-.14.28-.25c.07-.11.1-.24.1-.39s-.04-.27-.11-.39c-.08-.11-.18-.2-.32-.24s-.36-.07-.68-.07Z"/>
      <path class="cls-1" d="m44.86,132.13h3.76v.57h-1.57v3.94h-.65v-3.94h-1.54v-.57Z"/>
      <path class="cls-1" d="m54.69,132.11h.45l2.02,4.53h-.66l-.6-1.33h-1.92l-.56,1.33h-.66l1.93-4.53Zm.95,2.62l-.73-1.63-.67,1.63h1.4Z"/>
      <path class="cls-1" d="m62.65,132.14h.61v4.5h-.55l-3.01-3.47v3.47h-.61v-4.5h.52l3.04,3.5v-3.5Z"/>
      <path class="cls-1" d="m65.66,136.64v-4.5h1.52c.61,0,1.1.09,1.45.28.36.18.64.45.85.81s.32.75.32,1.17c0,.3-.06.59-.17.86s-.28.52-.5.73c-.22.21-.47.38-.76.49-.17.07-.33.11-.47.13-.14.02-.41.03-.81.03h-1.43Zm1.45-3.92h-.81v3.35h.83c.32,0,.57-.02.75-.07s.33-.1.45-.17c.12-.07.23-.15.33-.25.32-.32.48-.73.48-1.22s-.16-.88-.49-1.18c-.12-.11-.26-.21-.41-.28s-.3-.12-.44-.15-.36-.04-.67-.04Z"/>
      <path class="cls-1" d="m76.39,134.76l-.49-.3c-.31-.19-.53-.37-.66-.55-.13-.18-.2-.39-.2-.63,0-.35.12-.64.37-.86.25-.22.57-.33.96-.33s.72.11,1.04.32v.73c-.32-.31-.67-.47-1.05-.47-.21,0-.38.05-.52.15s-.2.22-.2.37c0,.14.05.26.15.38.1.12.26.24.48.37l.49.29c.55.33.82.75.82,1.25,0,.36-.12.65-.36.88s-.56.34-.94.34c-.44,0-.85-.14-1.22-.41v-.82c.35.44.75.66,1.21.66.2,0,.37-.06.5-.17s.2-.25.2-.42c0-.27-.2-.53-.59-.78Z"/>
      <path class="cls-1" d="m83.6,135.6v.71c-.47.26-1.02.39-1.64.39-.5,0-.93-.1-1.28-.3s-.63-.48-.83-.84-.31-.74-.31-1.15c0-.66.23-1.21.7-1.65s1.04-.67,1.73-.67c.47,0,1,.12,1.58.37v.69c-.53-.3-1.04-.45-1.54-.45s-.94.16-1.28.49c-.34.33-.51.73-.51,1.22s.17.9.5,1.22.76.48,1.29.48,1.08-.17,1.6-.5Z"/>
      <path class="cls-1" d="m85.82,132.14h.64v4.5h-.64v-4.5Z"/>
      <path class="cls-1" d="m88.89,132.14h2.55v.57h-1.91v1.37h1.84v.58h-1.84v1.4h1.97v.57h-2.61v-4.5Z"/>
      <path class="cls-1" d="m97.19,132.14h.61v4.5h-.55l-3.01-3.47v3.47h-.61v-4.5h.52l3.04,3.5v-3.5Z"/>
      <path class="cls-1" d="m104.06,135.6v.71c-.47.26-1.02.39-1.64.39-.5,0-.93-.1-1.28-.3-.35-.2-.63-.48-.83-.84s-.31-.74-.31-1.15c0-.66.23-1.21.7-1.65s1.04-.67,1.73-.67c.47,0,1,.12,1.58.37v.69c-.53-.3-1.04-.45-1.54-.45s-.94.16-1.28.49c-.34.33-.51.73-.51,1.22s.17.9.5,1.22c.34.32.76.48,1.29.48s1.08-.17,1.6-.5Z"/>
      <path class="cls-1" d="m106.28,132.14h2.55v.57h-1.91v1.37h1.84v.58h-1.84v1.4h1.97v.57h-2.61v-4.5Z"/>
      <path class="cls-1" d="m116.46,132.08c.7,0,1.28.22,1.74.66s.69.99.69,1.66-.23,1.21-.7,1.65c-.47.43-1.06.65-1.77.65s-1.24-.22-1.7-.65c-.45-.44-.68-.98-.68-1.64s.23-1.23.68-1.67c.46-.44,1.03-.66,1.73-.66Zm.03.61c-.52,0-.94.16-1.27.48-.33.32-.5.73-.5,1.23s.17.89.5,1.21c.33.32.75.48,1.25.48s.92-.16,1.26-.49.5-.74.5-1.23-.17-.88-.5-1.2c-.34-.33-.75-.49-1.24-.49Z"/>
      <path class="cls-1" d="m121.12,132.14h2.4v.57h-1.76v1.26h1.76v.57h-1.76v2.1h-.64v-4.5Z"/>
      <path class="cls-1" d="m128.89,132.14h.64v4.5h-.64v-4.5Z"/>
      <path class="cls-1" d="m135.54,132.14h.6v4.5h-.65v-3.5l-1.38,1.74h-.12l-1.4-1.74v3.5h-.64v-4.5h.61l1.5,1.85,1.49-1.85Z"/>
      <path class="cls-1" d="m139.97,132.11h.45l2.02,4.53h-.66l-.6-1.33h-1.92l-.56,1.33h-.66l1.93-4.53Zm.95,2.62l-.73-1.63-.67,1.63h1.4Z"/>
      <path class="cls-1" d="m146.52,134.43h1.51v1.91c-.55.24-1.1.36-1.65.36-.75,0-1.34-.22-1.79-.65-.45-.44-.67-.97-.67-1.61,0-.67.23-1.23.69-1.68.46-.45,1.04-.67,1.74-.67.25,0,.49.03.72.08.23.06.52.16.86.3v.66c-.54-.31-1.07-.47-1.6-.47-.49,0-.91.17-1.24.5s-.51.75-.51,1.23.17.93.51,1.25.77.49,1.3.49c.26,0,.57-.06.93-.18l.06-.02v-.94h-.87v-.57Z"/>
      <path class="cls-1" d="m150.4,132.14h.64v4.5h-.64v-4.5Z"/>
      <path class="cls-1" d="m157.05,132.14h.61v4.5h-.55l-3.01-3.47v3.47h-.61v-4.5h.52l3.04,3.5v-3.5Z"/>
      <path class="cls-1" d="m161.48,132.11h.45l2.02,4.53h-.66l-.6-1.33h-1.92l-.56,1.33h-.66l1.93-4.53Zm.95,2.62l-.73-1.63-.67,1.63h1.4Z"/>
      <path class="cls-1" d="m164.82,132.13h3.76v.57h-1.57v3.94h-.65v-3.94h-1.54v-.57Z"/>
      <path class="cls-1" d="m170.62,132.14h.64v4.5h-.64v-4.5Z"/>
      <path class="cls-1" d="m175.9,132.08c.7,0,1.28.22,1.74.66s.69.99.69,1.66-.23,1.21-.7,1.65c-.47.43-1.06.65-1.77.65s-1.24-.22-1.7-.65c-.45-.44-.68-.98-.68-1.64s.23-1.23.68-1.67c.46-.44,1.03-.66,1.73-.66Zm.03.61c-.52,0-.94.16-1.27.48-.33.32-.5.73-.5,1.23s.17.89.5,1.21c.33.32.75.48,1.25.48s.92-.16,1.26-.49.5-.74.5-1.23-.17-.88-.5-1.2c-.34-.33-.75-.49-1.24-.49Z"/>
      <path class="cls-1" d="m184.12,132.14h.61v4.5h-.55l-3.01-3.47v3.47h-.61v-4.5h.52l3.04,3.5v-3.5Z"/>
    </g>
    <g>
      <path class="cls-1" d="m56.25,113.74h6.64v8.6c-2.36,1.03-4.71,1.54-7.03,1.54-3.18,0-5.72-.93-7.61-2.78-1.9-1.85-2.85-4.14-2.85-6.86,0-2.87.98-5.25,2.95-7.15,1.97-1.9,4.44-2.86,7.4-2.86,1.08,0,2.11.12,3.08.35.97.23,2.2.66,3.68,1.28v2.8c-2.29-1.33-4.56-1.99-6.81-1.99-2.1,0-3.86.71-5.3,2.14-1.44,1.43-2.16,3.18-2.16,5.26s.72,3.96,2.16,5.34c1.44,1.38,3.29,2.07,5.55,2.07,1.1,0,2.41-.25,3.94-.76l.26-.08v-4.41h-3.9v-2.5Z"/>
      <path class="cls-1" d="m172.68,104.48h11.96v2.44h-9.21v5.85h9v2.46h-9v5.99h9.31v2.44h-12.06v-19.18Z"/>
      <path class="cls-1" d="m31.49,112.41c.09.48.14.98.14,1.51,0,2.1-.68,3.84-2.04,5.22-.42.42-.89.78-1.4,1.07-.51.29-1.15.53-1.91.72-.76.19-1.83.28-3.21.28h-5.06v-14.31h4.97c1.32,0,2.28.05,2.88.15.11.02.22.04.33.07l-2.67-2.67c-.08,0-.16,0-.25,0h-8.02v19.21h7.62c1.71,0,2.86-.05,3.47-.14.61-.1,1.27-.29,2-.57,1.24-.47,2.33-1.16,3.26-2.08.92-.89,1.62-1.92,2.12-3.1.33-.79.55-1.61.65-2.45l-2.9-2.9Z"/>
      <path class="cls-1" d="m33.16,104.45l7,7v-5.47c0-.85-.69-1.53-1.53-1.53h-5.47Z"/>
      <path class="cls-1" d="m85.24,123.66h3.05l-4.88-7.62c2.39-.77,4.13-3.01,4.13-5.66,0-3.28-2.66-5.94-5.94-5.94h-8.07v19.21h2.75v-7.33h4.27l4.7,7.33Zm-8.97-16.63h5.17c1.85,0,3.35,1.5,3.35,3.35s-1.5,3.35-3.35,3.35h-5.17v-6.71Z"/>
      <path class="cls-1" d="m137.96,104.45v11.26c0,3-2.43,5.43-5.43,5.43s-5.43-2.43-5.43-5.43v-11.26h-2.75v11.26c0,4.51,3.66,8.18,8.18,8.18s8.18-3.66,8.18-8.18v-11.26h-2.75Z"/>
      <path class="cls-1" d="m105.66,104.2c-5.43,0-9.84,4.41-9.84,9.84s4.41,9.84,9.84,9.84,9.84-4.41,9.84-9.84-4.41-9.84-9.84-9.84Zm0,16.93c-3.92,0-7.09-3.18-7.09-7.09s3.18-7.09,7.09-7.09,7.09,3.18,7.09,7.09-3.18,7.09-7.09,7.09Z"/>
      <path class="cls-1" d="m157.53,104.45h-7.09v19.21h2.75v-5.03h4.35c3.92,0,7.09-3.18,7.09-7.09s-3.18-7.09-7.09-7.09Zm0,11.6h-4.35v-9.01h4.35c2.49,0,4.51,2.02,4.51,4.51s-2.02,4.51-4.51,4.51Z"/>
    </g>
  </g>
  <text class="cls-2" transform="translate(24.82 75.87)"><tspan x="0" y="0" xml:space="preserve">  Organiza: </tspan></text>
</svg>