<?xml version="1.0" encoding="UTF-8"?>
<svg id="Capa_1" data-name="Capa 1" xmlns="http://www.w3.org/2000/svg" viewBox="0 0 200 200">
  <defs>
    <style>
      .cls-1 {
        fill: #fff;
      }

      .cls-2 {
        fill: #010101;
      }
    </style>
  </defs>
  <g>
    <path class="cls-1" d="m36.14,113.88c2.9,2.33,7.16,3.5,12.76,3.5h-17.12v-13.79c0,4.52,1.45,7.95,4.35,10.28Zm10.21-3.95c1.66,1.5,4.13,2.25,7.41,2.25s6.13-.83,8.1-2.49c1.97-1.66,2.96-3.94,2.96-6.86v-30.59h-20.95v30.97c0,2.98.83,5.22,2.48,6.72Zm11.12,6.1c-2.65.9-5.5,1.35-8.57,1.35h15.97l.03-5.39c-2.3,1.79-4.78,3.14-7.43,4.04Zm27.54-16.05c1.09.99,2.91,1.48,5.45,1.48,3.69,0,6.64-1.07,8.84-3.2,2.2-2.13,3.3-5.01,3.3-8.63,0-4.18-1.44-7.44-4.31-9.76-2.88-2.33-6.91-3.49-12.1-3.49h-2.8v18.56c0,2.37.54,4.05,1.64,5.05Zm24.33.52c-4.4,3.12-9.91,4.67-16.53,4.67-1.8,0-3.49-.09-5.05-.29-1.57-.19-3.03-.49-4.39-.9v13.4h32.57v-28.71c0,4.77-2.2,8.71-6.61,11.82Zm-20.76-28.25c8.61,0,15.33,1.45,20.14,4.35,4.81,2.9,7.22,6.93,7.22,12.08v-16.43h-27.36Zm59.7,30.53c0-3.38-1.26-6-3.78-7.82-2.52-1.83-6.12-2.75-10.79-2.75h-5.22v21.05h4.5c5.1,0,8.92-.87,11.47-2.62,2.55-1.75,3.82-4.37,3.82-7.86Zm-8.59-24.86c-1.8-.98-4.44-1.47-7.92-1.47h-3.28v11.54h4.05c3.18,0,5.61-.5,7.31-1.5,1.69-1,2.54-2.43,2.54-4.29s-.9-3.32-2.7-4.29Zm-4.41-5.67c6.34,0,11.09.77,14.25,2.33,3.17,1.55,4.75,3.86,4.75,6.94,0,1.98-1.01,3.7-3.04,5.14-2.03,1.44-4.83,2.42-8.4,2.94,5.73.43,10.21,1.81,13.44,4.13,3.23,2.32,4.84,5.34,4.84,9.05v-30.53h-25.84Zm19.62,41.11c-4.15,2.69-9.58,4.03-16.29,4.03h22.51v-14.61c0,4.36-2.07,7.89-6.21,10.58Z"/>
    <g>
      <g>
        <path class="cls-2" d="m34.14,127.75c-.4,0-.75-.07-1.04-.2-.3-.13-.54-.31-.73-.53-.19-.22-.34-.48-.43-.76-.09-.29-.14-.59-.14-.89v-3.81h.85v3.76c0,.2.03.41.08.61.05.2.14.38.25.54.12.16.27.29.46.38.19.1.43.15.71.15s.52-.05.71-.15c.19-.1.35-.22.47-.38.12-.16.2-.34.25-.54.05-.2.08-.41.08-.61v-3.76h.85v3.81c0,.31-.05.61-.14.89-.09.29-.24.54-.43.76-.19.22-.44.4-.73.53-.3.13-.64.2-1.04.2Z"/>
        <path class="cls-2" d="m38.6,123.55c.01.1.02.22.03.35,0,.13,0,.23,0,.32h.03c.05-.11.12-.21.21-.3.09-.09.19-.18.3-.25.11-.07.24-.13.38-.17.14-.04.28-.06.43-.06.26,0,.49.04.67.13.19.09.34.21.47.35.13.15.22.32.28.52.06.2.09.41.09.64v2.51h-.8v-2.25c0-.17-.01-.32-.04-.47-.03-.15-.07-.28-.14-.39-.07-.11-.16-.21-.28-.27-.12-.07-.27-.1-.46-.1-.32,0-.58.12-.78.36-.2.24-.3.57-.3.97v2.15h-.8v-3.18c0-.11,0-.25,0-.42,0-.17-.01-.32-.03-.45h.76Z"/>
        <path class="cls-2" d="m43.78,122.09c0,.15-.05.27-.16.37s-.23.15-.38.15-.27-.05-.37-.15c-.1-.1-.15-.22-.15-.36s.05-.27.15-.37c.1-.1.23-.15.37-.15s.27.05.38.15.16.22.16.37Zm-.13,5.51h-.8v-4.05h.8v4.05Z"/>
        <path class="cls-2" d="m46.96,127.6h-.87l-1.65-4.05h.89l1.19,3.19h.02l1.2-3.19h.85l-1.62,4.05Z"/>
        <path class="cls-2" d="m53.15,125.54v.14s0,.09,0,.14h-3.22c0,.17.04.33.12.48s.17.28.29.39c.12.11.26.2.41.26s.32.09.5.09c.27,0,.51-.06.71-.18s.36-.26.47-.44l.56.45c-.22.29-.47.5-.76.63-.29.14-.62.2-.98.2-.31,0-.59-.05-.85-.15-.26-.1-.49-.25-.67-.43-.19-.18-.34-.41-.44-.67-.11-.26-.16-.55-.16-.87s.05-.6.16-.87.25-.49.44-.68c.19-.19.41-.33.67-.44.26-.11.53-.16.83-.16s.57.05.81.15c.24.1.45.24.62.42.17.18.3.4.39.66.09.26.14.55.14.88Zm-.82-.32c0-.16-.03-.31-.08-.45-.05-.14-.12-.26-.21-.36-.09-.1-.21-.18-.35-.24-.14-.06-.3-.09-.49-.09-.17,0-.33.03-.48.09-.15.06-.28.14-.39.24s-.2.22-.27.36c-.07.14-.11.29-.12.45h2.41Z"/>
        <path class="cls-2" d="m54.25,124c0-.17-.01-.32-.03-.45h.76c.01.1.02.22.03.35,0,.13,0,.24,0,.33h.03c.11-.24.28-.43.5-.58.22-.15.47-.22.74-.22.13,0,.23.01.32.03l-.03.74c-.11-.03-.24-.04-.37-.04-.19,0-.36.04-.5.11-.14.07-.26.17-.35.29s-.16.26-.21.41c-.05.16-.07.32-.07.49v2.13h-.8v-3.18c0-.11,0-.25,0-.42Z"/>
        <path class="cls-2" d="m59.54,124.57c-.09-.15-.22-.27-.38-.36-.17-.09-.35-.14-.56-.14-.09,0-.18,0-.27.03-.09.02-.17.05-.24.09-.07.04-.13.1-.17.16s-.06.15-.06.24c0,.17.08.3.23.38.15.08.38.16.69.23.19.05.37.1.54.16.17.06.31.14.43.24.12.09.22.21.29.34.07.13.1.28.1.46,0,.24-.05.44-.14.61-.09.17-.21.3-.36.41s-.32.18-.52.23c-.19.05-.39.07-.6.07-.31,0-.61-.06-.9-.18-.29-.12-.54-.3-.73-.55l.57-.49c.11.16.26.29.45.4.19.11.4.16.63.16.1,0,.2,0,.29-.03.09-.02.18-.05.26-.1.08-.05.14-.11.18-.18.05-.07.07-.17.07-.28,0-.19-.09-.33-.27-.42-.18-.09-.44-.18-.79-.26-.14-.03-.27-.08-.41-.12-.14-.05-.27-.12-.38-.2-.11-.09-.21-.19-.28-.32-.07-.13-.11-.29-.11-.47,0-.22.04-.4.13-.56.09-.16.2-.28.35-.38.14-.1.3-.17.49-.22.18-.05.37-.07.56-.07.29,0,.57.06.84.17.27.11.48.28.63.5l-.56.47Z"/>
        <path class="cls-2" d="m62.08,122.09c0,.15-.05.27-.16.37s-.23.15-.38.15-.27-.05-.37-.15c-.1-.1-.15-.22-.15-.36s.05-.27.15-.37c.1-.1.23-.15.37-.15s.27.05.38.15.16.22.16.37Zm-.13,5.51h-.8v-4.05h.8v4.05Z"/>
        <path class="cls-2" d="m66.58,126.96c-.15.25-.36.43-.63.56s-.54.19-.83.19c-.31,0-.6-.06-.85-.17-.25-.11-.46-.26-.64-.46-.18-.19-.31-.42-.41-.68-.1-.26-.15-.54-.15-.84s.05-.57.15-.83c.1-.26.23-.49.41-.68.18-.19.39-.34.64-.45.25-.11.53-.16.83-.16.33,0,.62.07.86.21.24.14.44.31.58.51h.02v-3.02h.8v6.46h-.78v-.64h-.02Zm-2.67-1.39c0,.19.03.37.09.55.06.18.14.33.26.47.11.14.25.25.42.33.17.08.36.12.58.12.21,0,.39-.04.56-.12.17-.08.31-.19.43-.32.12-.13.21-.29.28-.46.07-.18.1-.36.1-.55s-.03-.38-.1-.55c-.07-.18-.16-.33-.28-.47-.12-.14-.26-.24-.43-.32-.17-.08-.35-.12-.56-.12-.22,0-.42.04-.58.12-.17.08-.3.19-.42.32-.11.14-.2.29-.26.47-.06.18-.09.36-.09.55Z"/>
        <path class="cls-2" d="m71.3,124.98c0-.3-.09-.53-.27-.67-.18-.15-.42-.22-.73-.22-.23,0-.44.04-.65.13-.2.09-.37.2-.51.34l-.43-.51c.2-.19.44-.34.73-.44.29-.11.6-.16.93-.16.29,0,.54.04.76.12.21.08.39.2.53.34s.24.31.31.5.1.4.1.62v1.77c0,.14,0,.28.01.43,0,.15.02.27.05.37h-.73c-.05-.19-.07-.39-.07-.58h-.03c-.15.22-.33.38-.56.5-.22.12-.49.18-.8.18-.16,0-.33-.02-.5-.06-.17-.04-.33-.11-.47-.21-.14-.1-.26-.22-.35-.38-.09-.16-.14-.36-.14-.59,0-.31.08-.55.25-.73.17-.18.38-.32.65-.41.27-.09.57-.16.91-.18.34-.03.67-.04,1.02-.04v-.11Zm-.2.69c-.2,0-.41,0-.62.03-.21.02-.41.05-.58.1-.17.05-.32.13-.43.23s-.17.24-.17.41c0,.12.02.22.07.3.05.08.11.15.19.2.08.05.17.09.26.11.1.02.2.03.3.03.38,0,.66-.11.87-.34.2-.22.3-.51.3-.85v-.21h-.2Z"/>
        <path class="cls-2" d="m76.64,126.96c-.15.25-.36.43-.63.56s-.54.19-.83.19c-.31,0-.6-.06-.85-.17-.25-.11-.46-.26-.64-.46-.18-.19-.31-.42-.41-.68-.1-.26-.15-.54-.15-.84s.05-.57.15-.83c.1-.26.23-.49.41-.68.18-.19.39-.34.64-.45.25-.11.53-.16.83-.16.33,0,.62.07.86.21.24.14.44.31.58.51h.02v-3.02h.8v6.46h-.78v-.64h-.02Zm-2.67-1.39c0,.19.03.37.09.55.06.18.14.33.26.47.11.14.25.25.42.33.17.08.36.12.58.12.21,0,.39-.04.56-.12.17-.08.31-.19.43-.32.12-.13.21-.29.28-.46.07-.18.1-.36.1-.55s-.03-.38-.1-.55c-.07-.18-.16-.33-.28-.47-.12-.14-.26-.24-.43-.32-.17-.08-.35-.12-.56-.12-.22,0-.42.04-.58.12-.17.08-.3.19-.42.32-.11.14-.2.29-.26.47-.06.18-.09.36-.09.55Z"/>
        <path class="cls-2" d="m81.01,121.55h1.85c.32,0,.62.03.89.1.27.07.5.17.68.3.19.14.33.31.44.52.1.21.15.46.15.76s-.06.56-.17.78c-.11.22-.26.39-.46.53s-.43.24-.7.3c-.27.07-.56.1-.88.1h-.96v2.66h-.85v-6.05Zm.85,2.67h.9c.2,0,.39-.02.57-.06.17-.04.32-.09.45-.17s.22-.18.29-.3c.07-.13.1-.28.1-.46s-.04-.33-.11-.46c-.07-.12-.17-.22-.29-.3-.12-.08-.27-.13-.44-.16s-.36-.05-.56-.05h-.91v1.96Z"/>
        <path class="cls-2" d="m89.6,125.57c0,.31-.06.6-.17.86-.11.26-.26.49-.46.68s-.43.34-.7.44c-.27.11-.56.16-.86.16s-.6-.05-.86-.16c-.27-.11-.5-.25-.69-.44-.19-.19-.35-.42-.46-.68-.11-.26-.17-.55-.17-.86s.06-.6.17-.86c.11-.26.26-.48.46-.67.19-.19.42-.33.69-.44s.56-.16.86-.16.6.05.86.16.5.25.7.44c.2.19.35.41.46.67.11.26.17.55.17.86Zm-.84,0c0-.19-.03-.38-.09-.55-.06-.18-.15-.33-.26-.46-.11-.13-.26-.24-.42-.32-.17-.08-.36-.12-.58-.12s-.41.04-.58.12c-.17.08-.31.19-.42.32-.11.13-.2.29-.26.46-.06.18-.09.36-.09.55s.03.38.09.55c.06.18.15.33.26.47.11.14.26.24.42.32s.36.12.58.12.41-.04.58-.12c.17-.08.31-.19.42-.32.11-.14.2-.29.26-.47.06-.18.09-.36.09-.55Z"/>
        <path class="cls-2" d="m91.44,123.55c.01.1.02.22.03.35,0,.13,0,.23,0,.32h.03c.05-.11.12-.21.21-.3.09-.09.19-.18.3-.25.11-.07.24-.13.38-.17.14-.04.28-.06.43-.06.26,0,.49.04.67.13.19.09.34.21.47.35.13.15.22.32.28.52.06.2.09.41.09.64v2.51h-.8v-2.25c0-.17-.01-.32-.04-.47-.03-.15-.07-.28-.14-.39-.07-.11-.16-.21-.28-.27-.12-.07-.27-.1-.46-.1-.32,0-.58.12-.78.36-.2.24-.3.57-.3.97v2.15h-.8v-3.18c0-.11,0-.25,0-.42,0-.17-.01-.32-.03-.45h.76Z"/>
        <path class="cls-2" d="m97.66,124.21h-1.08v2.1c0,.24.05.42.14.52.09.1.24.16.44.16.07,0,.15,0,.24-.02.09-.02.16-.04.23-.07l.03.66c-.1.03-.2.06-.32.08-.12.02-.24.03-.36.03-.38,0-.67-.11-.88-.32-.2-.21-.3-.53-.3-.95v-2.2h-.78v-.66h.78v-1.16h.79v1.16h1.08v.66Z"/>
        <path class="cls-2" d="m99.43,122.09c0,.15-.05.27-.16.37-.1.1-.23.15-.38.15s-.27-.05-.37-.15-.15-.22-.15-.36.05-.27.15-.37.23-.15.37-.15.27.05.38.15c.1.1.16.22.16.37Zm-.13,5.51h-.8v-4.05h.8v4.05Z"/>
        <path class="cls-2" d="m102.61,124.21h-.94v3.39h-.8v-3.39h-.8v-.66h.8v-.85c0-.24.03-.46.08-.66.05-.2.14-.38.26-.53.12-.15.28-.26.47-.35s.42-.13.7-.13c.19,0,.36.02.5.06l-.09.69c-.06-.02-.13-.03-.19-.04s-.13-.02-.21-.02c-.15,0-.28.03-.37.08-.09.05-.17.13-.22.22-.05.09-.09.2-.1.31-.02.12-.03.24-.03.36v.85h.94v.66Zm1.73-2.12c0,.15-.05.27-.16.37-.1.1-.23.15-.38.15s-.27-.05-.37-.15-.15-.22-.15-.36.05-.27.15-.37.23-.15.37-.15.27.05.38.15c.1.1.16.22.16.37Zm-.13,5.51h-.8v-4.05h.8v4.05Z"/>
        <path class="cls-2" d="m108.44,124.57c-.09-.13-.21-.24-.38-.33-.17-.09-.35-.13-.55-.13-.21,0-.4.04-.56.12-.16.08-.3.19-.41.32-.11.13-.2.29-.26.47-.06.18-.09.36-.09.56s.03.38.09.56c.06.18.15.33.26.47.11.13.25.24.42.32.16.08.35.12.56.12s.39-.04.56-.12c.17-.08.31-.19.41-.32l.54.49c-.17.2-.38.35-.64.47-.26.11-.55.17-.87.17s-.6-.05-.87-.15-.49-.25-.69-.43c-.19-.18-.35-.41-.46-.67-.11-.26-.17-.56-.17-.88s.05-.61.16-.87c.11-.26.26-.49.45-.67.19-.19.42-.33.69-.44.26-.1.55-.15.86-.15.28,0,.57.06.85.17.28.11.51.28.67.5l-.58.47Z"/>
        <path class="cls-2" d="m110.77,122.09c0,.15-.05.27-.16.37-.1.1-.23.15-.38.15s-.27-.05-.37-.15-.15-.22-.15-.36.05-.27.15-.37.23-.15.37-.15.27.05.38.15c.1.1.16.22.16.37Zm-.13,5.51h-.8v-4.05h.8v4.05Z"/>
        <path class="cls-2" d="m114.56,124.98c0-.3-.09-.53-.27-.67-.18-.15-.42-.22-.73-.22-.23,0-.44.04-.64.13-.2.09-.37.2-.51.34l-.43-.51c.2-.19.44-.34.73-.44s.6-.16.93-.16c.29,0,.54.04.76.12.21.08.39.2.53.34.14.14.24.31.31.5.07.19.1.4.1.62v1.77c0,.14,0,.28.01.43s.02.27.05.37h-.73c-.05-.19-.07-.39-.07-.58h-.03c-.15.22-.33.38-.56.5-.23.12-.49.18-.8.18-.16,0-.33-.02-.5-.06-.17-.04-.33-.11-.47-.21-.14-.1-.26-.22-.35-.38-.09-.16-.14-.36-.14-.59,0-.31.08-.55.25-.73.17-.18.38-.32.65-.41.27-.09.57-.16.91-.18s.67-.04,1.02-.04v-.11Zm-.2.69c-.2,0-.41,0-.62.03-.21.02-.41.05-.58.1-.17.05-.32.13-.43.23-.11.1-.17.24-.17.41,0,.12.02.22.07.3.05.08.11.15.19.2.08.05.17.09.26.11.1.02.2.03.3.03.38,0,.66-.11.87-.34.2-.22.3-.51.3-.85v-.21h-.2Z"/>
        <path class="cls-2" d="m118.85,121.55h2.08c.23,0,.46.03.68.08.23.05.43.14.61.26.18.12.32.28.44.47.11.19.17.44.17.73,0,.34-.1.62-.29.85-.19.23-.45.38-.77.47v.02c.19.02.37.07.54.15.17.08.31.18.43.3.12.13.21.27.28.44.07.17.1.36.1.57,0,.29-.06.54-.18.76-.12.22-.28.39-.49.53-.21.14-.45.25-.72.32s-.57.11-.88.11h-1.99v-6.05Zm.85,2.55h1.1c.16,0,.31-.02.46-.06.15-.04.27-.09.38-.17s.19-.17.26-.29.09-.26.09-.42c0-.32-.12-.56-.36-.7-.24-.14-.56-.21-.97-.21h-.97v1.85Zm0,2.78h1.06c.18,0,.35-.02.53-.05s.34-.09.49-.17c.15-.08.26-.19.35-.32.09-.13.13-.3.13-.51,0-.36-.12-.62-.37-.78-.24-.16-.6-.24-1.06-.24h-1.14v2.06Z"/>
        <path class="cls-2" d="m128.39,125.57c0,.31-.06.6-.17.86-.11.26-.26.49-.46.68-.2.19-.43.34-.7.44-.27.11-.56.16-.86.16s-.6-.05-.86-.16c-.27-.11-.5-.25-.69-.44s-.35-.42-.46-.68c-.11-.26-.17-.55-.17-.86s.06-.6.17-.86c.11-.26.26-.48.46-.67.19-.19.42-.33.69-.44.27-.11.56-.16.86-.16s.6.05.86.16c.27.11.5.25.7.44.2.19.35.41.46.67.11.26.17.55.17.86Zm-.84,0c0-.19-.03-.38-.09-.55-.06-.18-.15-.33-.26-.46-.11-.13-.26-.24-.42-.32-.17-.08-.36-.12-.58-.12s-.41.04-.58.12c-.17.08-.31.19-.42.32-.11.13-.2.29-.26.46-.06.18-.09.36-.09.55s.03.38.09.55c.06.18.15.33.26.47.11.14.26.24.42.32.17.08.36.12.58.12s.41-.04.58-.12c.17-.08.31-.19.42-.32.11-.14.2-.29.26-.47.06-.18.09-.36.09-.55Z"/>
        <path class="cls-2" d="m130.32,127.6h-.8v-6.46h.8v6.46Z"/>
        <path class="cls-2" d="m132.66,122.09c0,.15-.05.27-.16.37-.1.1-.23.15-.38.15s-.27-.05-.37-.15-.15-.22-.15-.36.05-.27.15-.37.23-.15.37-.15.27.05.38.15c.1.1.16.22.16.37Zm-.13,5.51h-.8v-4.05h.8v4.05Z"/>
        <path class="cls-2" d="m135.84,127.6h-.87l-1.65-4.05h.89l1.19,3.19h.02l1.2-3.19h.85l-1.62,4.05Z"/>
        <path class="cls-2" d="m140.76,124.98c0-.3-.09-.53-.27-.67-.18-.15-.42-.22-.73-.22-.23,0-.44.04-.64.13-.2.09-.37.2-.51.34l-.43-.51c.2-.19.44-.34.73-.44s.6-.16.93-.16c.29,0,.54.04.76.12.21.08.39.2.53.34.14.14.24.31.31.5.07.19.1.4.1.62v1.77c0,.14,0,.28.01.43s.02.27.05.37h-.73c-.05-.19-.07-.39-.07-.58h-.03c-.15.22-.33.38-.56.5-.23.12-.49.18-.8.18-.16,0-.33-.02-.5-.06-.17-.04-.33-.11-.47-.21-.14-.1-.26-.22-.35-.38-.09-.16-.14-.36-.14-.59,0-.31.08-.55.25-.73.17-.18.38-.32.65-.41.27-.09.57-.16.91-.18s.67-.04,1.02-.04v-.11Zm-.2.69c-.2,0-.41,0-.62.03-.21.02-.41.05-.58.1-.17.05-.32.13-.43.23-.11.1-.17.24-.17.41,0,.12.02.22.07.3.05.08.11.15.19.2.08.05.17.09.26.11.1.02.2.03.3.03.38,0,.66-.11.87-.34.2-.22.3-.51.3-.85v-.21h-.2Z"/>
        <path class="cls-2" d="m142.86,124c0-.17-.01-.32-.03-.45h.76c.01.1.02.22.03.35,0,.13,0,.24,0,.33h.03c.11-.24.28-.43.5-.58.22-.15.47-.22.74-.22.13,0,.23.01.32.03l-.03.74c-.11-.03-.24-.04-.37-.04-.19,0-.36.04-.5.11-.14.07-.26.17-.35.29-.09.12-.16.26-.21.41-.05.16-.07.32-.07.49v2.13h-.8v-3.18c0-.11,0-.25,0-.42Z"/>
        <path class="cls-2" d="m146.9,122.09c0,.15-.05.27-.16.37-.1.1-.23.15-.38.15s-.27-.05-.37-.15-.15-.22-.15-.36.05-.27.15-.37.23-.15.37-.15.27.05.38.15c.1.1.16.22.16.37Zm-.13,5.51h-.8v-4.05h.8v4.05Z"/>
        <path class="cls-2" d="m150.7,124.98c0-.3-.09-.53-.27-.67-.18-.15-.42-.22-.73-.22-.23,0-.44.04-.64.13-.2.09-.37.2-.51.34l-.43-.51c.2-.19.44-.34.73-.44s.6-.16.93-.16c.29,0,.54.04.76.12.21.08.39.2.53.34.14.14.24.31.31.5.07.19.1.4.1.62v1.77c0,.14,0,.28.01.43s.02.27.05.37h-.73c-.05-.19-.07-.39-.07-.58h-.03c-.15.22-.33.38-.56.5-.23.12-.49.18-.8.18-.16,0-.33-.02-.5-.06-.17-.04-.33-.11-.47-.21-.14-.1-.26-.22-.35-.38-.09-.16-.14-.36-.14-.59,0-.31.08-.55.25-.73.17-.18.38-.32.65-.41.27-.09.57-.16.91-.18s.67-.04,1.02-.04v-.11Zm-.2.69c-.2,0-.41,0-.62.03-.21.02-.41.05-.58.1-.17.05-.32.13-.43.23-.11.1-.17.24-.17.41,0,.12.02.22.07.3.05.08.11.15.19.2.08.05.17.09.26.11.1.02.2.03.3.03.38,0,.66-.11.87-.34.2-.22.3-.51.3-.85v-.21h-.2Z"/>
        <path class="cls-2" d="m153.53,123.55c.01.1.02.22.03.35,0,.13,0,.23,0,.32h.03c.05-.11.12-.21.21-.3.09-.09.19-.18.3-.25.11-.07.24-.13.38-.17.14-.04.28-.06.43-.06.26,0,.49.04.67.13.19.09.34.21.47.35.13.15.22.32.28.52s.09.41.09.64v2.51h-.8v-2.25c0-.17-.01-.32-.04-.47-.03-.15-.07-.28-.14-.39-.07-.11-.16-.21-.28-.27-.12-.07-.27-.1-.46-.1-.32,0-.58.12-.78.36s-.3.57-.3.97v2.15h-.8v-3.18c0-.11,0-.25,0-.42,0-.17-.01-.32-.03-.45h.76Z"/>
        <path class="cls-2" d="m160.3,124.98c0-.3-.09-.53-.27-.67-.18-.15-.42-.22-.73-.22-.23,0-.44.04-.64.13-.2.09-.37.2-.51.34l-.43-.51c.2-.19.44-.34.73-.44s.6-.16.93-.16c.29,0,.54.04.76.12.21.08.39.2.53.34.14.14.24.31.31.5.07.19.1.4.1.62v1.77c0,.14,0,.28.01.43s.02.27.05.37h-.73c-.05-.19-.07-.39-.07-.58h-.03c-.15.22-.33.38-.56.5-.23.12-.49.18-.8.18-.16,0-.33-.02-.5-.06-.17-.04-.33-.11-.47-.21-.14-.1-.26-.22-.35-.38-.09-.16-.14-.36-.14-.59,0-.31.08-.55.25-.73.17-.18.38-.32.65-.41.27-.09.57-.16.91-.18s.67-.04,1.02-.04v-.11Zm-.2.69c-.2,0-.41,0-.62.03-.21.02-.41.05-.58.1-.17.05-.32.13-.43.23-.11.1-.17.24-.17.41,0,.12.02.22.07.3.05.08.11.15.19.2.08.05.17.09.26.11.1.02.2.03.3.03.38,0,.66-.11.87-.34.2-.22.3-.51.3-.85v-.21h-.2Z"/>
      </g>
      <g>
        <path class="cls-1" d="m34.14,127.75c-.4,0-.75-.07-1.04-.2-.3-.13-.54-.31-.73-.53-.19-.22-.34-.48-.43-.76-.09-.29-.14-.59-.14-.89v-3.81h.85v3.76c0,.2.03.41.08.61.05.2.14.38.25.54.12.16.27.29.46.38.19.1.43.15.71.15s.52-.05.71-.15c.19-.1.35-.22.47-.38.12-.16.2-.34.25-.54.05-.2.08-.41.08-.61v-3.76h.85v3.81c0,.31-.05.61-.14.89-.09.29-.24.54-.43.76-.19.22-.44.4-.73.53-.3.13-.64.2-1.04.2Z"/>
        <path class="cls-1" d="m38.6,123.55c.01.1.02.22.03.35,0,.13,0,.23,0,.32h.03c.05-.11.12-.21.21-.3.09-.09.19-.18.3-.25.11-.07.24-.13.38-.17.14-.04.28-.06.43-.06.26,0,.49.04.67.13.19.09.34.21.47.35.13.15.22.32.28.52.06.2.09.41.09.64v2.51h-.8v-2.25c0-.17-.01-.32-.04-.47-.03-.15-.07-.28-.14-.39-.07-.11-.16-.21-.28-.27-.12-.07-.27-.1-.46-.1-.32,0-.58.12-.78.36-.2.24-.3.57-.3.97v2.15h-.8v-3.18c0-.11,0-.25,0-.42,0-.17-.01-.32-.03-.45h.76Z"/>
        <path class="cls-1" d="m43.78,122.09c0,.15-.05.27-.16.37s-.23.15-.38.15-.27-.05-.37-.15c-.1-.1-.15-.22-.15-.36s.05-.27.15-.37c.1-.1.23-.15.37-.15s.27.05.38.15.16.22.16.37Zm-.13,5.51h-.8v-4.05h.8v4.05Z"/>
        <path class="cls-1" d="m46.96,127.6h-.87l-1.65-4.05h.89l1.19,3.19h.02l1.2-3.19h.85l-1.62,4.05Z"/>
        <path class="cls-1" d="m53.15,125.54v.14s0,.09,0,.14h-3.22c0,.17.04.33.12.48s.17.28.29.39c.12.11.26.2.41.26s.32.09.5.09c.27,0,.51-.06.71-.18s.36-.26.47-.44l.56.45c-.22.29-.47.5-.76.63-.29.14-.62.2-.98.2-.31,0-.59-.05-.85-.15-.26-.1-.49-.25-.67-.43-.19-.18-.34-.41-.44-.67-.11-.26-.16-.55-.16-.87s.05-.6.16-.87.25-.49.44-.68c.19-.19.41-.33.67-.44.26-.11.53-.16.83-.16s.57.05.81.15c.24.1.45.24.62.42.17.18.3.4.39.66.09.26.14.55.14.88Zm-.82-.32c0-.16-.03-.31-.08-.45-.05-.14-.12-.26-.21-.36-.09-.1-.21-.18-.35-.24-.14-.06-.3-.09-.49-.09-.17,0-.33.03-.48.09-.15.06-.28.14-.39.24s-.2.22-.27.36c-.07.14-.11.29-.12.45h2.41Z"/>
        <path class="cls-1" d="m54.25,124c0-.17-.01-.32-.03-.45h.76c.01.1.02.22.03.35,0,.13,0,.24,0,.33h.03c.11-.24.28-.43.5-.58.22-.15.47-.22.74-.22.13,0,.23.01.32.03l-.03.74c-.11-.03-.24-.04-.37-.04-.19,0-.36.04-.5.11-.14.07-.26.17-.35.29s-.16.26-.21.41c-.05.16-.07.32-.07.49v2.13h-.8v-3.18c0-.11,0-.25,0-.42Z"/>
        <path class="cls-1" d="m59.54,124.57c-.09-.15-.22-.27-.38-.36-.17-.09-.35-.14-.56-.14-.09,0-.18,0-.27.03-.09.02-.17.05-.24.09-.07.04-.13.1-.17.16s-.06.15-.06.24c0,.17.08.3.23.38.15.08.38.16.69.23.19.05.37.1.54.16.17.06.31.14.43.24.12.09.22.21.29.34.07.13.1.28.1.46,0,.24-.05.44-.14.61-.09.17-.21.3-.36.41s-.32.18-.52.23c-.19.05-.39.07-.6.07-.31,0-.61-.06-.9-.18-.29-.12-.54-.3-.73-.55l.57-.49c.11.16.26.29.45.4.19.11.4.16.63.16.1,0,.2,0,.29-.03.09-.02.18-.05.26-.1.08-.05.14-.11.18-.18.05-.07.07-.17.07-.28,0-.19-.09-.33-.27-.42-.18-.09-.44-.18-.79-.26-.14-.03-.27-.08-.41-.12-.14-.05-.27-.12-.38-.2-.11-.09-.21-.19-.28-.32-.07-.13-.11-.29-.11-.47,0-.22.04-.4.13-.56.09-.16.2-.28.35-.38.14-.1.3-.17.49-.22.18-.05.37-.07.56-.07.29,0,.57.06.84.17.27.11.48.28.63.5l-.56.47Z"/>
        <path class="cls-1" d="m62.08,122.09c0,.15-.05.27-.16.37s-.23.15-.38.15-.27-.05-.37-.15c-.1-.1-.15-.22-.15-.36s.05-.27.15-.37c.1-.1.23-.15.37-.15s.27.05.38.15.16.22.16.37Zm-.13,5.51h-.8v-4.05h.8v4.05Z"/>
        <path class="cls-1" d="m66.58,126.96c-.15.25-.36.43-.63.56s-.54.19-.83.19c-.31,0-.6-.06-.85-.17-.25-.11-.46-.26-.64-.46-.18-.19-.31-.42-.41-.68-.1-.26-.15-.54-.15-.84s.05-.57.15-.83c.1-.26.23-.49.41-.68.18-.19.39-.34.64-.45.25-.11.53-.16.83-.16.33,0,.62.07.86.21.24.14.44.31.58.51h.02v-3.02h.8v6.46h-.78v-.64h-.02Zm-2.67-1.39c0,.19.03.37.09.55.06.18.14.33.26.47.11.14.25.25.42.33.17.08.36.12.58.12.21,0,.39-.04.56-.12.17-.08.31-.19.43-.32.12-.13.21-.29.28-.46.07-.18.1-.36.1-.55s-.03-.38-.1-.55c-.07-.18-.16-.33-.28-.47-.12-.14-.26-.24-.43-.32-.17-.08-.35-.12-.56-.12-.22,0-.42.04-.58.12-.17.08-.3.19-.42.32-.11.14-.2.29-.26.47-.06.18-.09.36-.09.55Z"/>
        <path class="cls-1" d="m71.3,124.98c0-.3-.09-.53-.27-.67-.18-.15-.42-.22-.73-.22-.23,0-.44.04-.65.13-.2.09-.37.2-.51.34l-.43-.51c.2-.19.44-.34.73-.44.29-.11.6-.16.93-.16.29,0,.54.04.76.12.21.08.39.2.53.34s.24.31.31.5.1.4.1.62v1.77c0,.14,0,.28.01.43,0,.15.02.27.05.37h-.73c-.05-.19-.07-.39-.07-.58h-.03c-.15.22-.33.38-.56.5-.22.12-.49.18-.8.18-.16,0-.33-.02-.5-.06-.17-.04-.33-.11-.47-.21-.14-.1-.26-.22-.35-.38-.09-.16-.14-.36-.14-.59,0-.31.08-.55.25-.73.17-.18.38-.32.65-.41.27-.09.57-.16.91-.18.34-.03.67-.04,1.02-.04v-.11Zm-.2.69c-.2,0-.41,0-.62.03-.21.02-.41.05-.58.1-.17.05-.32.13-.43.23s-.17.24-.17.41c0,.12.02.22.07.3.05.08.11.15.19.2.08.05.17.09.26.11.1.02.2.03.3.03.38,0,.66-.11.87-.34.2-.22.3-.51.3-.85v-.21h-.2Z"/>
        <path class="cls-1" d="m76.64,126.96c-.15.25-.36.43-.63.56s-.54.19-.83.19c-.31,0-.6-.06-.85-.17-.25-.11-.46-.26-.64-.46-.18-.19-.31-.42-.41-.68-.1-.26-.15-.54-.15-.84s.05-.57.15-.83c.1-.26.23-.49.41-.68.18-.19.39-.34.64-.45.25-.11.53-.16.83-.16.33,0,.62.07.86.21.24.14.44.31.58.51h.02v-3.02h.8v6.46h-.78v-.64h-.02Zm-2.67-1.39c0,.19.03.37.09.55.06.18.14.33.26.47.11.14.25.25.42.33.17.08.36.12.58.12.21,0,.39-.04.56-.12.17-.08.31-.19.43-.32.12-.13.21-.29.28-.46.07-.18.1-.36.1-.55s-.03-.38-.1-.55c-.07-.18-.16-.33-.28-.47-.12-.14-.26-.24-.43-.32-.17-.08-.35-.12-.56-.12-.22,0-.42.04-.58.12-.17.08-.3.19-.42.32-.11.14-.2.29-.26.47-.06.18-.09.36-.09.55Z"/>
        <path class="cls-1" d="m81.01,121.55h1.85c.32,0,.62.03.89.1.27.07.5.17.68.3.19.14.33.31.44.52.1.21.15.46.15.76s-.06.56-.17.78c-.11.22-.26.39-.46.53s-.43.24-.7.3c-.27.07-.56.1-.88.1h-.96v2.66h-.85v-6.05Zm.85,2.67h.9c.2,0,.39-.02.57-.06.17-.04.32-.09.45-.17s.22-.18.29-.3c.07-.13.1-.28.1-.46s-.04-.33-.11-.46c-.07-.12-.17-.22-.29-.3-.12-.08-.27-.13-.44-.16s-.36-.05-.56-.05h-.91v1.96Z"/>
        <path class="cls-1" d="m89.6,125.57c0,.31-.06.6-.17.86-.11.26-.26.49-.46.68s-.43.34-.7.44c-.27.11-.56.16-.86.16s-.6-.05-.86-.16c-.27-.11-.5-.25-.69-.44-.19-.19-.35-.42-.46-.68-.11-.26-.17-.55-.17-.86s.06-.6.17-.86c.11-.26.26-.48.46-.67.19-.19.42-.33.69-.44s.56-.16.86-.16.6.05.86.16.5.25.7.44c.2.19.35.41.46.67.11.26.17.55.17.86Zm-.84,0c0-.19-.03-.38-.09-.55-.06-.18-.15-.33-.26-.46-.11-.13-.26-.24-.42-.32-.17-.08-.36-.12-.58-.12s-.41.04-.58.12c-.17.08-.31.19-.42.32-.11.13-.2.29-.26.46-.06.18-.09.36-.09.55s.03.38.09.55c.06.18.15.33.26.47.11.14.26.24.42.32s.36.12.58.12.41-.04.58-.12c.17-.08.31-.19.42-.32.11-.14.2-.29.26-.47.06-.18.09-.36.09-.55Z"/>
        <path class="cls-1" d="m91.44,123.55c.01.1.02.22.03.35,0,.13,0,.23,0,.32h.03c.05-.11.12-.21.21-.3.09-.09.19-.18.3-.25.11-.07.24-.13.38-.17.14-.04.28-.06.43-.06.26,0,.49.04.67.13.19.09.34.21.47.35.13.15.22.32.28.52.06.2.09.41.09.64v2.51h-.8v-2.25c0-.17-.01-.32-.04-.47-.03-.15-.07-.28-.14-.39-.07-.11-.16-.21-.28-.27-.12-.07-.27-.1-.46-.1-.32,0-.58.12-.78.36-.2.24-.3.57-.3.97v2.15h-.8v-3.18c0-.11,0-.25,0-.42,0-.17-.01-.32-.03-.45h.76Z"/>
        <path class="cls-1" d="m97.66,124.21h-1.08v2.1c0,.24.05.42.14.52.09.1.24.16.44.16.07,0,.15,0,.24-.02.09-.02.16-.04.23-.07l.03.66c-.1.03-.2.06-.32.08-.12.02-.24.03-.36.03-.38,0-.67-.11-.88-.32-.2-.21-.3-.53-.3-.95v-2.2h-.78v-.66h.78v-1.16h.79v1.16h1.08v.66Z"/>
        <path class="cls-1" d="m99.43,122.09c0,.15-.05.27-.16.37-.1.1-.23.15-.38.15s-.27-.05-.37-.15-.15-.22-.15-.36.05-.27.15-.37.23-.15.37-.15.27.05.38.15c.1.1.16.22.16.37Zm-.13,5.51h-.8v-4.05h.8v4.05Z"/>
        <path class="cls-1" d="m102.61,124.21h-.94v3.39h-.8v-3.39h-.8v-.66h.8v-.85c0-.24.03-.46.08-.66.05-.2.14-.38.26-.53.12-.15.28-.26.47-.35s.42-.13.7-.13c.19,0,.36.02.5.06l-.09.69c-.06-.02-.13-.03-.19-.04s-.13-.02-.21-.02c-.15,0-.28.03-.37.08-.09.05-.17.13-.22.22-.05.09-.09.2-.1.31-.02.12-.03.24-.03.36v.85h.94v.66Zm1.73-2.12c0,.15-.05.27-.16.37-.1.1-.23.15-.38.15s-.27-.05-.37-.15-.15-.22-.15-.36.05-.27.15-.37.23-.15.37-.15.27.05.38.15c.1.1.16.22.16.37Zm-.13,5.51h-.8v-4.05h.8v4.05Z"/>
        <path class="cls-1" d="m108.44,124.57c-.09-.13-.21-.24-.38-.33-.17-.09-.35-.13-.55-.13-.21,0-.4.04-.56.12-.16.08-.3.19-.41.32-.11.13-.2.29-.26.47-.06.18-.09.36-.09.56s.03.38.09.56c.06.18.15.33.26.47.11.13.25.24.42.32.16.08.35.12.56.12s.39-.04.56-.12c.17-.08.31-.19.41-.32l.54.49c-.17.2-.38.35-.64.47-.26.11-.55.17-.87.17s-.6-.05-.87-.15-.49-.25-.69-.43c-.19-.18-.35-.41-.46-.67-.11-.26-.17-.56-.17-.88s.05-.61.16-.87c.11-.26.26-.49.45-.67.19-.19.42-.33.69-.44.26-.1.55-.15.86-.15.28,0,.57.06.85.17.28.11.51.28.67.5l-.58.47Z"/>
        <path class="cls-1" d="m110.77,122.09c0,.15-.05.27-.16.37-.1.1-.23.15-.38.15s-.27-.05-.37-.15-.15-.22-.15-.36.05-.27.15-.37.23-.15.37-.15.27.05.38.15c.1.1.16.22.16.37Zm-.13,5.51h-.8v-4.05h.8v4.05Z"/>
        <path class="cls-1" d="m114.56,124.98c0-.3-.09-.53-.27-.67-.18-.15-.42-.22-.73-.22-.23,0-.44.04-.64.13-.2.09-.37.2-.51.34l-.43-.51c.2-.19.44-.34.73-.44s.6-.16.93-.16c.29,0,.54.04.76.12.21.08.39.2.53.34.14.14.24.31.31.5.07.19.1.4.1.62v1.77c0,.14,0,.28.01.43s.02.27.05.37h-.73c-.05-.19-.07-.39-.07-.58h-.03c-.15.22-.33.38-.56.5-.23.12-.49.18-.8.18-.16,0-.33-.02-.5-.06-.17-.04-.33-.11-.47-.21-.14-.1-.26-.22-.35-.38-.09-.16-.14-.36-.14-.59,0-.31.08-.55.25-.73.17-.18.38-.32.65-.41.27-.09.57-.16.91-.18s.67-.04,1.02-.04v-.11Zm-.2.69c-.2,0-.41,0-.62.03-.21.02-.41.05-.58.1-.17.05-.32.13-.43.23-.11.1-.17.24-.17.41,0,.12.02.22.07.3.05.08.11.15.19.2.08.05.17.09.26.11.1.02.2.03.3.03.38,0,.66-.11.87-.34.2-.22.3-.51.3-.85v-.21h-.2Z"/>
        <path class="cls-1" d="m118.85,121.55h2.08c.23,0,.46.03.68.08.23.05.43.14.61.26.18.12.32.28.44.47.11.19.17.44.17.73,0,.34-.1.62-.29.85-.19.23-.45.38-.77.47v.02c.19.02.37.07.54.15.17.08.31.18.43.3.12.13.21.27.28.44.07.17.1.36.1.57,0,.29-.06.54-.18.76-.12.22-.28.39-.49.53-.21.14-.45.25-.72.32s-.57.11-.88.11h-1.99v-6.05Zm.85,2.55h1.1c.16,0,.31-.02.46-.06.15-.04.27-.09.38-.17s.19-.17.26-.29.09-.26.09-.42c0-.32-.12-.56-.36-.7-.24-.14-.56-.21-.97-.21h-.97v1.85Zm0,2.78h1.06c.18,0,.35-.02.53-.05s.34-.09.49-.17c.15-.08.26-.19.35-.32.09-.13.13-.3.13-.51,0-.36-.12-.62-.37-.78-.24-.16-.6-.24-1.06-.24h-1.14v2.06Z"/>
        <path class="cls-1" d="m128.39,125.57c0,.31-.06.6-.17.86-.11.26-.26.49-.46.68-.2.19-.43.34-.7.44-.27.11-.56.16-.86.16s-.6-.05-.86-.16c-.27-.11-.5-.25-.69-.44s-.35-.42-.46-.68c-.11-.26-.17-.55-.17-.86s.06-.6.17-.86c.11-.26.26-.48.46-.67.19-.19.42-.33.69-.44.27-.11.56-.16.86-.16s.6.05.86.16c.27.11.5.25.7.44.2.19.35.41.46.67.11.26.17.55.17.86Zm-.84,0c0-.19-.03-.38-.09-.55-.06-.18-.15-.33-.26-.46-.11-.13-.26-.24-.42-.32-.17-.08-.36-.12-.58-.12s-.41.04-.58.12c-.17.08-.31.19-.42.32-.11.13-.2.29-.26.46-.06.18-.09.36-.09.55s.03.38.09.55c.06.18.15.33.26.47.11.14.26.24.42.32.17.08.36.12.58.12s.41-.04.58-.12c.17-.08.31-.19.42-.32.11-.14.2-.29.26-.47.06-.18.09-.36.09-.55Z"/>
        <path class="cls-1" d="m130.32,127.6h-.8v-6.46h.8v6.46Z"/>
        <path class="cls-1" d="m132.66,122.09c0,.15-.05.27-.16.37-.1.1-.23.15-.38.15s-.27-.05-.37-.15-.15-.22-.15-.36.05-.27.15-.37.23-.15.37-.15.27.05.38.15c.1.1.16.22.16.37Zm-.13,5.51h-.8v-4.05h.8v4.05Z"/>
        <path class="cls-1" d="m135.84,127.6h-.87l-1.65-4.05h.89l1.19,3.19h.02l1.2-3.19h.85l-1.62,4.05Z"/>
        <path class="cls-1" d="m140.76,124.98c0-.3-.09-.53-.27-.67-.18-.15-.42-.22-.73-.22-.23,0-.44.04-.64.13-.2.09-.37.2-.51.34l-.43-.51c.2-.19.44-.34.73-.44s.6-.16.93-.16c.29,0,.54.04.76.12.21.08.39.2.53.34.14.14.24.31.31.5.07.19.1.4.1.62v1.77c0,.14,0,.28.01.43s.02.27.05.37h-.73c-.05-.19-.07-.39-.07-.58h-.03c-.15.22-.33.38-.56.5-.23.12-.49.18-.8.18-.16,0-.33-.02-.5-.06-.17-.04-.33-.11-.47-.21-.14-.1-.26-.22-.35-.38-.09-.16-.14-.36-.14-.59,0-.31.08-.55.25-.73.17-.18.38-.32.65-.41.27-.09.57-.16.91-.18s.67-.04,1.02-.04v-.11Zm-.2.69c-.2,0-.41,0-.62.03-.21.02-.41.05-.58.1-.17.05-.32.13-.43.23-.11.1-.17.24-.17.41,0,.12.02.22.07.3.05.08.11.15.19.2.08.05.17.09.26.11.1.02.2.03.3.03.38,0,.66-.11.87-.34.2-.22.3-.51.3-.85v-.21h-.2Z"/>
        <path class="cls-1" d="m142.86,124c0-.17-.01-.32-.03-.45h.76c.01.1.02.22.03.35,0,.13,0,.24,0,.33h.03c.11-.24.28-.43.5-.58.22-.15.47-.22.74-.22.13,0,.23.01.32.03l-.03.74c-.11-.03-.24-.04-.37-.04-.19,0-.36.04-.5.11-.14.07-.26.17-.35.29-.09.12-.16.26-.21.41-.05.16-.07.32-.07.49v2.13h-.8v-3.18c0-.11,0-.25,0-.42Z"/>
        <path class="cls-1" d="m146.9,122.09c0,.15-.05.27-.16.37-.1.1-.23.15-.38.15s-.27-.05-.37-.15-.15-.22-.15-.36.05-.27.15-.37.23-.15.37-.15.27.05.38.15c.1.1.16.22.16.37Zm-.13,5.51h-.8v-4.05h.8v4.05Z"/>
        <path class="cls-1" d="m150.7,124.98c0-.3-.09-.53-.27-.67-.18-.15-.42-.22-.73-.22-.23,0-.44.04-.64.13-.2.09-.37.2-.51.34l-.43-.51c.2-.19.44-.34.73-.44s.6-.16.93-.16c.29,0,.54.04.76.12.21.08.39.2.53.34.14.14.24.31.31.5.07.19.1.4.1.62v1.77c0,.14,0,.28.01.43s.02.27.05.37h-.73c-.05-.19-.07-.39-.07-.58h-.03c-.15.22-.33.38-.56.5-.23.12-.49.18-.8.18-.16,0-.33-.02-.5-.06-.17-.04-.33-.11-.47-.21-.14-.1-.26-.22-.35-.38-.09-.16-.14-.36-.14-.59,0-.31.08-.55.25-.73.17-.18.38-.32.65-.41.27-.09.57-.16.91-.18s.67-.04,1.02-.04v-.11Zm-.2.69c-.2,0-.41,0-.62.03-.21.02-.41.05-.58.1-.17.05-.32.13-.43.23-.11.1-.17.24-.17.41,0,.12.02.22.07.3.05.08.11.15.19.2.08.05.17.09.26.11.1.02.2.03.3.03.38,0,.66-.11.87-.34.2-.22.3-.51.3-.85v-.21h-.2Z"/>
        <path class="cls-1" d="m153.53,123.55c.01.1.02.22.03.35,0,.13,0,.23,0,.32h.03c.05-.11.12-.21.21-.3.09-.09.19-.18.3-.25.11-.07.24-.13.38-.17.14-.04.28-.06.43-.06.26,0,.49.04.67.13.19.09.34.21.47.35.13.15.22.32.28.52s.09.41.09.64v2.51h-.8v-2.25c0-.17-.01-.32-.04-.47-.03-.15-.07-.28-.14-.39-.07-.11-.16-.21-.28-.27-.12-.07-.27-.1-.46-.1-.32,0-.58.12-.78.36s-.3.57-.3.97v2.15h-.8v-3.18c0-.11,0-.25,0-.42,0-.17-.01-.32-.03-.45h.76Z"/>
        <path class="cls-1" d="m160.3,124.98c0-.3-.09-.53-.27-.67-.18-.15-.42-.22-.73-.22-.23,0-.44.04-.64.13-.2.09-.37.2-.51.34l-.43-.51c.2-.19.44-.34.73-.44s.6-.16.93-.16c.29,0,.54.04.76.12.21.08.39.2.53.34.14.14.24.31.31.5.07.19.1.4.1.62v1.77c0,.14,0,.28.01.43s.02.27.05.37h-.73c-.05-.19-.07-.39-.07-.58h-.03c-.15.22-.33.38-.56.5-.23.12-.49.18-.8.18-.16,0-.33-.02-.5-.06-.17-.04-.33-.11-.47-.21-.14-.1-.26-.22-.35-.38-.09-.16-.14-.36-.14-.59,0-.31.08-.55.25-.73.17-.18.38-.32.65-.41.27-.09.57-.16.91-.18s.67-.04,1.02-.04v-.11Zm-.2.69c-.2,0-.41,0-.62.03-.21.02-.41.05-.58.1-.17.05-.32.13-.43.23-.11.1-.17.24-.17.41,0,.12.02.22.07.3.05.08.11.15.19.2.08.05.17.09.26.11.1.02.2.03.3.03.38,0,.66-.11.87-.34.2-.22.3-.51.3-.85v-.21h-.2Z"/>
      </g>
    </g>
  </g>
  <g>
    <path class="cls-1" d="m163.5,117.38v-.4s3.25-.88,3.25-.88h0s-3.25-.89-3.25-.89v-.36s3.74,1.06,3.74,1.06v.41s-3.74,1.06-3.74,1.06Z"/>
    <path class="cls-1" d="m163.55,114.35v-.37s.56,0,.56,0v.37s-.56,0-.56,0Zm1.01,0v-.37s2.66,0,2.66,0v.37s-2.66,0-2.66,0Z"/>
    <path class="cls-1" d="m168.01,113.29l-.29-.13c.12-.21.19-.45.19-.71,0-.4-.2-.65-.62-.65h-.61,0c.36.16.5.48.5.75,0,.49-.33.75-.76.75h-1.11c-.53,0-.81-.41-.81-.81,0-.26.14-.61.47-.73h0s-.41-.02-.41-.02v-.31s2.66,0,2.66,0c.63,0,.98.38.98,1,0,.32-.07.64-.2.85Zm-1.92-1.48h-.61c-.42,0-.71.33-.71.62,0,.3.2.51.58.51h1.01c.31,0,.52-.14.52-.51,0-.32-.31-.63-.79-.63Z"/>
    <path class="cls-1" d="m163.55,110.68v-.37s.56,0,.56,0v.37s-.56,0-.56,0Zm1.01,0v-.37s2.66,0,2.66,0v.37s-2.66,0-2.66,0Z"/>
    <path class="cls-1" d="m166.71,109.54h-3.2s0-.37,0-.37h3.14c.17,0,.3-.08.3-.31,0-.07-.01-.16-.02-.23h.29c.04.12.05.24.05.35,0,.35-.19.55-.55.55Z"/>
    <path class="cls-1" d="m166.53,108.25c-.62,0-.85-.54-.85-.98v-.51h-.46c-.31,0-.45.21-.45.52,0,.28.14.55.42.55h.15s0,.33,0,.33h-.16c-.45,0-.68-.41-.68-.92,0-.47.21-.85.71-.85h1.34c.2,0,.54-.02.67-.03v.34s-.42.02-.42.02h0c.38.18.48.55.48.79,0,.39-.25.73-.76.73Zm-.18-1.48h-.41v.45c0,.31.1.66.54.66.36,0,.53-.22.53-.48,0-.34-.28-.63-.66-.63Z"/>
    <path class="cls-1" d="m166.52,105.76h-1.18c-.54,0-.84-.38-.84-.8,0-.28.15-.57.44-.69h0s-1.45,0-1.45,0v-.37s3.73,0,3.73,0v.33s-.48.01-.48.01v.02c.39.18.54.49.54.77,0,.49-.35.74-.77.74Zm-.32-1.5h-.66c-.42,0-.76.32-.76.64,0,.27.15.5.58.5h1.12c.32,0,.52-.15.52-.5s-.31-.64-.8-.64Z"/>
    <path class="cls-1" d="m166.53,103.27c-.62,0-.85-.54-.85-.98v-.51h-.46c-.31,0-.45.21-.45.52,0,.28.14.55.42.55h.15s0,.33,0,.33h-.16c-.45,0-.68-.41-.68-.92,0-.47.21-.85.71-.85h1.34c.2,0,.54-.02.67-.03v.34s-.42.02-.42.02h0c.38.18.48.55.48.79,0,.39-.25.73-.76.73Zm-.18-1.48h-.41v.45c0,.31.1.66.54.66.36,0,.53-.22.53-.48,0-.34-.28-.63-.66-.63Z"/>
    <path class="cls-1" d="m163.5,99.72v-.5s1.89-.9,1.89-.9h0s-1.89-.9-1.89-.9v-.48s3.73,0,3.73,0v.36s-3.19,0-3.19,0h0s1.9.89,1.9.89v.28s-1.89.89-1.89.89v.02h3.19s0,.35,0,.35h-3.73Z"/>
    <path class="cls-1" d="m163.55,96.15v-.37s.56,0,.56,0v.37s-.56,0-.56,0Zm1.01,0v-.37s2.66,0,2.66,0v.37s-2.66,0-2.66,0Z"/>
    <path class="cls-1" d="m164.57,95.01v-.35s.45,0,.45,0h0c-.35-.18-.51-.5-.51-.84,0-.4.3-.67.68-.67h2.04s0,.37,0,.37h-1.94c-.36,0-.49.17-.49.46,0,.32.32.66.72.66h1.71s0,.37,0,.37h-2.66Z"/>
    <path class="cls-1" d="m166.33,92.51h-.81c-.65,0-1.01-.42-1.01-.97s.36-.9.94-.9h.52s0,1.49,0,1.49h.37c.45,0,.65-.23.65-.67,0-.3-.11-.5-.19-.65l.25-.14c.19.24.26.53.26.84,0,.58-.29.99-.96.99Zm-.63-1.52h-.29c-.31,0-.63.14-.63.58,0,.4.32.57.63.57h.29v-1.14Z"/>
    <path class="cls-1" d="m166.52,90.1h-1.18c-.54,0-.84-.38-.84-.8,0-.28.15-.57.44-.69h0s-1.45,0-1.45,0v-.37s3.73,0,3.73,0v.33s-.48.01-.48.01v.02c.39.18.54.49.54.77,0,.49-.35.74-.77.74Zm-.32-1.5h-.66c-.42,0-.76.32-.76.64,0,.27.15.5.58.5h1.12c.32,0,.52-.15.52-.5s-.31-.64-.8-.64Z"/>
    <path class="cls-1" d="m166.61,87.48h-2.04s0-.37,0-.37h1.93c.35,0,.49-.16.49-.46,0-.34-.32-.66-.73-.66h-1.7s0-.37,0-.37h2.66s0,.33,0,.33l-.45.02h0c.32.15.52.48.52.82,0,.4-.28.68-.68.68Z"/>
    <path class="cls-1" d="m166.35,84.97h-.89c-.62,0-.95-.39-.95-.92,0-.58.31-.88.75-.88h.14s0,.34,0,.34h-.13c-.19,0-.47.12-.47.54s.29.56.64.56h.92c.38,0,.64-.16.64-.58s-.28-.52-.49-.52h-.12s0-.34,0-.34h.15c.43,0,.75.29.75.88s-.32.93-.94.93Z"/>
    <path class="cls-1" d="m166.53,82.67c-.62,0-.85-.54-.85-.98v-.51h-.46c-.31,0-.45.21-.45.52,0,.28.14.55.42.55h.15s0,.33,0,.33h-.16c-.45,0-.68-.41-.68-.92,0-.47.21-.85.71-.85h1.34c.2,0,.54-.02.67-.03v.34s-.42.02-.42.02h0c.38.18.48.55.48.79,0,.39-.25.73-.76.73Zm-.18-1.48h-.41v.45c0,.31.1.66.54.66.36,0,.53-.22.53-.48,0-.34-.28-.63-.66-.63Z"/>
    <path class="cls-1" d="m166.35,80.18h-.89c-.62,0-.95-.39-.95-.92,0-.58.31-.88.75-.88h.14s0,.34,0,.34h-.13c-.19,0-.47.12-.47.54,0,.41.29.56.64.56h.92c.38,0,.64-.16.64-.58,0-.43-.28-.52-.49-.52h-.12s0-.34,0-.34h.15c.43,0,.75.29.75.88,0,.57-.32.93-.94.93Z"/>
    <path class="cls-1" d="m163.55,77.74v-.37s.56,0,.56,0v.37s-.56,0-.56,0Zm1.01,0v-.37s2.66,0,2.66,0v.37s-2.66,0-2.66,0Z"/>
    <path class="cls-1" d="m166.33,76.7h-.86c-.62,0-.97-.4-.97-.95s.32-.96.95-.96h.86c.65,0,.97.4.97.95,0,.57-.32.96-.96.96Zm-.01-1.54h-.89c-.36,0-.64.17-.64.59s.3.58.67.58h.87c.41,0,.66-.17.66-.6s-.29-.58-.67-.58Zm-2.87.31v-.39s.76.56.76.56v.29s-.76-.46-.76-.46Z"/>
    <path class="cls-1" d="m164.57,74.12v-.35s.45,0,.45,0h0c-.35-.18-.51-.5-.51-.84,0-.4.3-.67.68-.67h2.04s0,.37,0,.37h-1.94c-.36,0-.49.17-.49.46,0,.32.32.66.72.66h1.71s0,.37,0,.37h-2.66Z"/>
  </g>
</svg>