<?xml version="1.0" encoding="UTF-8"?>
<svg id="Capa_1" data-name="Capa 1" xmlns="http://www.w3.org/2000/svg" viewBox="0 0 200 200">
  <defs>
    <style>
      .cls-1 {
        fill: #fff;
      }
    </style>
  </defs>
  <g>
    <g>
      <path class="cls-1" d="m53.87,92.37v8.21h-29.53v-6.52l6.29-7.18h-4.25v-5.98h9.4l4.13-4.71-15.03-.06v-8.21l28.39.06v6.52l-6.05,6.94h4.13v5.98h-9.34l-4.31,4.95h16.17Z"/>
      <path class="cls-1" d="m83.17,88.87l5.99,5.43c-3.77,4.47-8.75,6.64-14.85,6.64-10.48,0-17.49-6.58-17.49-16.54s6.53-16.78,16.89-16.84c9.7-.06,16.11,5.92,16.35,15.57l-21.68,5.25c1.2,2.84,3.59,4.47,6.71,4.47,2.87,0,5.69-1.39,8.09-3.98Zm-15.63-6.4l12.04-3.02c-.78-2.9-2.76-4.29-5.39-4.29-3.83,0-6.29,2.6-6.65,7.3Z"/>
      <path class="cls-1" d="m114.02,98.89c-2.34,1.39-5.57,2.17-8.63,2.17-6.41,0-10.9-3.98-10.9-10.93v-29.7h10.54v9.06h8.45v7.12h-8.45v11.83c0,2.66,1.2,3.92,3.17,3.92,1.14,0,2.4-.36,3.77-1.09l2.04,7.61Z"/>
      <path class="cls-1" d="m138.04,98.89c-2.34,1.39-5.57,2.17-8.63,2.17-6.41,0-10.9-3.98-10.9-10.93v-29.7h10.54v9.06h8.45v7.12h-8.45v11.83c0,2.66,1.2,3.92,3.17,3.92,1.14,0,2.4-.36,3.77-1.09l2.04,7.61Z"/>
      <path class="cls-1" d="m175.66,67.92v32.66h-10.66v-4.11c-2.22,2.9-5.51,4.53-9.52,4.53-9.1,0-15.09-6.76-15.09-16.9s5.87-16.54,14.8-16.54c4.13-.06,7.55,1.63,9.82,4.59v-4.23h10.66Zm-10.66,17.57v-2.17c-.42-4.29-3.06-7.06-6.89-7.06-4.19,0-7.01,3.32-7.01,8.15s2.82,8.15,7.01,8.15c3.83,0,6.47-2.84,6.89-7.06Z"/>
    </g>
    <g>
      <path class="cls-1" d="m48.55,106.24l-6.31,16.12h-1.01l-6.31-16.12h1.31l5.53,14.38,5.51-14.38h1.28Z"/>
      <path class="cls-1" d="m54.56,106.24h10.42v1.09h-9.25v6.29h8.24v1.11h-8.24v6.54h9.25v1.09h-10.42v-16.12Z"/>
      <path class="cls-1" d="m82.21,106.24v16.12h-1.33l-8.31-14.17v14.17h-1.17v-16.12h1.31l8.35,14.17v-14.17h1.15Z"/>
      <path class="cls-1" d="m93.87,107.32h-5.74v-1.09h12.67v1.09h-5.74v15.03h-1.19v-15.03Z"/>
      <path class="cls-1" d="m106.42,116.53v-10.29h1.15v10.17c0,3.31,1.49,4.97,4.43,4.97s4.47-1.69,4.47-5.04v-10.1h1.17v10.17c0,4-2,6.13-5.65,6.13s-5.58-2.1-5.58-6.01Z"/>
      <path class="cls-1" d="m134.21,122.35l-4.2-7.33c-.25.02-.6.02-1.12.02h-2.66v7.31h-1.17v-16.12h4.31c3.37,0,5.21,1.55,5.21,4.39,0,2.24-1.15,3.72-3.4,4.23l4.38,7.49h-1.35Zm-4.96-8.42c2.73,0,4.15-1.13,4.15-3.28s-1.42-3.33-4.15-3.33h-3.03v6.61h3.03Z"/>
      <path class="cls-1" d="m141.76,106.24h10.42v1.09h-9.25v6.29h8.24v1.11h-8.24v6.54h9.25v1.09h-10.42v-16.12Z"/>
      <path class="cls-1" d="m157.16,118.19l1.15-.28c.34,2.2,2,3.56,4.27,3.56,2.43,0,3.83-1.39,3.83-3.21,0-2.03-1.42-2.91-4.04-3.93-2.87-1.09-4.29-2.13-4.29-4.32,0-2.34,1.79-3.95,4.43-3.95,1.95,0,3.46.88,4.38,2.52l-.96.62c-.76-1.34-1.95-2.08-3.44-2.08-1.93,0-3.26,1.27-3.26,2.84,0,1.76,1.42,2.52,3.81,3.45,3.12,1.2,4.57,2.36,4.57,4.74,0,2.64-1.9,4.39-5.05,4.39-2.85,0-4.96-1.71-5.39-4.35Z"/>
    </g>
  </g>
  <g>
    <path class="cls-1" d="m55.55,135.47l.11.49h.03l.11-.48,1.65-6.13h1.18l-2.43,7.94h-1.08l-2.42-7.94h1.18l1.65,6.12Z"/>
    <path class="cls-1" d="m61.29,137.41c-.73,0-1.31-.27-1.73-.81-.42-.54-.62-1.24-.62-2.1v-.26c0-.87.21-1.58.62-2.13.41-.55.96-.83,1.63-.83s1.18.24,1.54.71c.35.48.53,1.12.53,1.92v.62h-3.2c0,.6.11,1.09.32,1.47.22.37.55.56,1,.56.31,0,.58-.05.81-.14.23-.1.44-.24.63-.42l.36.69c-.2.2-.46.37-.78.51-.32.14-.69.21-1.1.21Zm-.1-5.28c-.32,0-.57.15-.76.44-.19.3-.31.69-.35,1.18h2.09v-.13c0-.44-.08-.8-.24-1.08-.16-.28-.4-.41-.73-.41Z"/>
    <path class="cls-1" d="m65.26,131.39l.07.88c.17-.31.38-.56.63-.73s.54-.26.87-.26c.52,0,.93.19,1.22.58.29.39.44.99.44,1.8v3.63h-1.11v-3.63c0-.56-.08-.95-.23-1.18-.15-.23-.39-.34-.7-.34-.25,0-.47.07-.65.2-.18.13-.33.32-.44.55v4.4h-1.11v-5.9h1.01Z"/>
    <path class="cls-1" d="m71.18,129.92v1.47h.92v.79h-.92v3.51c0,.31.05.52.14.65.09.13.22.19.37.19.06,0,.12,0,.17-.02.05-.01.12-.03.19-.05l.11.76c-.11.05-.22.09-.35.12-.13.03-.26.05-.4.05-.43,0-.76-.14-.99-.41-.24-.27-.35-.71-.35-1.3v-3.51h-.78v-.79h.78v-1.47h1.11Z"/>
    <path class="cls-1" d="m76.28,136.43c-.16.31-.36.55-.61.72s-.53.25-.86.25c-.54,0-.97-.21-1.27-.63-.31-.42-.46-1.07-.46-1.95v-3.44h1.11v3.45c0,.63.07,1.08.22,1.33.15.25.37.38.67.38.27,0,.5-.06.7-.19s.34-.31.45-.55v-4.43h1.11v5.9h-.94l-.11-.86Z"/>
    <path class="cls-1" d="m81.14,132.31l-.48-.03c-.23,0-.43.07-.58.21-.15.14-.27.34-.36.59v4.21h-1.11v-5.9h1.02l.08.87c.13-.31.3-.55.5-.72s.44-.26.7-.26c.07,0,.13,0,.19.02.06.01.11.03.16.05l-.13.97Z"/>
    <path class="cls-1" d="m84.07,137.41c-.73,0-1.31-.27-1.73-.81-.42-.54-.62-1.24-.62-2.1v-.26c0-.87.21-1.58.62-2.13.41-.55.96-.83,1.63-.83s1.18.24,1.54.71c.35.48.53,1.12.53,1.92v.62h-3.2c0,.6.11,1.09.32,1.47.22.37.55.56,1,.56.31,0,.58-.05.81-.14.23-.1.44-.24.63-.42l.36.69c-.2.2-.46.37-.78.51-.32.14-.69.21-1.1.21Zm-.1-5.28c-.32,0-.57.15-.76.44-.19.3-.31.69-.35,1.18h2.09v-.13c0-.44-.08-.8-.24-1.08-.16-.28-.4-.41-.73-.41Z"/>
    <path class="cls-1" d="m94.58,134.9v.03c.03.78-.19,1.39-.64,1.82-.45.43-1.07.65-1.86.65s-1.46-.26-1.95-.78c-.48-.52-.73-1.25-.73-2.2v-2.2c0-.94.24-1.67.71-2.2.48-.53,1.12-.79,1.92-.79s1.44.21,1.9.63c.45.42.67,1.03.66,1.84v.03h-1.07c0-.57-.12-.99-.37-1.25s-.62-.4-1.11-.4-.86.18-1.13.55-.4.89-.4,1.57v2.22c0,.69.14,1.22.41,1.59.27.37.66.55,1.16.55s.84-.13,1.08-.4c.24-.26.36-.69.36-1.27h1.06Z"/>
    <path class="cls-1" d="m98.73,137.29c-.05-.18-.08-.34-.11-.48-.03-.14-.04-.28-.05-.42-.16.29-.36.53-.62.72-.26.19-.55.29-.88.29-.53,0-.93-.16-1.21-.47-.28-.31-.42-.74-.42-1.28s.2-.99.59-1.31c.39-.32.94-.48,1.63-.48h.91v-.61c0-.36-.08-.64-.24-.84s-.39-.3-.69-.3c-.27,0-.48.09-.64.26-.16.17-.24.4-.24.67h-1.06s-.01-.03-.01-.03c-.02-.46.16-.86.53-1.21.38-.35.87-.52,1.48-.52s1.06.17,1.42.52c.36.34.55.83.55,1.47v2.74c0,.23.01.44.04.66s.07.42.14.63h-1.12Zm-1.43-.74c.3,0,.57-.09.8-.28s.39-.41.46-.68v-1.05h-.92c-.34,0-.61.11-.8.32s-.29.48-.29.78c0,.27.07.49.2.66s.32.25.56.25Z"/>
    <path class="cls-1" d="m105.37,134.53c0,.87-.17,1.57-.52,2.1-.35.52-.83.79-1.45.79-.29,0-.55-.06-.77-.17-.22-.11-.41-.28-.57-.5v2.83h-1.11v-8.17h.94l.1.71c.16-.27.36-.47.59-.61.23-.14.5-.21.81-.21.63,0,1.11.29,1.46.86.35.57.52,1.33.52,2.28v.11Zm-1.11-.11c0-.67-.1-1.21-.29-1.64-.19-.42-.49-.63-.88-.63-.25,0-.46.07-.63.2-.17.14-.31.32-.41.55v2.97c.1.22.24.39.41.51.17.12.38.18.63.18.39,0,.68-.19.87-.56s.29-.87.29-1.48v-.11Z"/>
    <path class="cls-1" d="m107.63,129.84h-1.11v-1.06h1.11v1.06Zm0,7.45h-1.11v-5.9h1.11v5.9Z"/>
    <path class="cls-1" d="m110.41,129.92v1.47h.92v.79h-.92v3.51c0,.31.05.52.14.65.09.13.22.19.37.19.06,0,.12,0,.17-.02.05-.01.12-.03.19-.05l.11.76c-.11.05-.22.09-.35.12-.13.03-.26.05-.4.05-.43,0-.76-.14-.99-.41-.24-.27-.35-.71-.35-1.3v-3.51h-.78v-.79h.78v-1.47h1.11Z"/>
    <path class="cls-1" d="m115.4,137.29c-.05-.18-.08-.34-.11-.48-.03-.14-.04-.28-.05-.42-.16.29-.36.53-.62.72-.26.19-.55.29-.88.29-.53,0-.93-.16-1.21-.47-.28-.31-.42-.74-.42-1.28s.2-.99.59-1.31c.39-.32.94-.48,1.63-.48h.91v-.61c0-.36-.08-.64-.24-.84s-.39-.3-.69-.3c-.27,0-.48.09-.64.26-.16.17-.24.4-.24.67h-1.06s-.01-.03-.01-.03c-.02-.46.16-.86.54-1.21.38-.35.87-.52,1.48-.52s1.06.17,1.42.52c.36.34.55.83.55,1.47v2.74c0,.23.01.44.04.66.03.21.07.42.14.63h-1.12Zm-1.43-.74c.3,0,.57-.09.8-.28.23-.19.39-.41.46-.68v-1.05h-.92c-.34,0-.61.11-.8.32-.19.22-.29.48-.29.78,0,.27.07.49.2.66.13.16.32.25.56.25Z"/>
    <path class="cls-1" d="m118.79,137.29h-1.11v-8.51h1.11v8.51Z"/>
    <path class="cls-1" d="m128.05,137.29h-1.11v-3.5h-3.11v3.5h-1.11v-7.94h1.11v3.6h3.11v-3.6h1.11v7.94Z"/>
    <path class="cls-1" d="m132.62,136.43c-.16.31-.36.55-.61.72-.25.17-.54.25-.86.25-.54,0-.97-.21-1.27-.63-.31-.42-.46-1.07-.46-1.95v-3.44h1.11v3.45c0,.63.07,1.08.22,1.33.15.25.37.38.67.38.27,0,.5-.06.7-.19.19-.13.34-.31.45-.55v-4.43h1.11v5.9h-.94l-.11-.86Z"/>
    <path class="cls-1" d="m139.38,134.53c0,.87-.17,1.57-.52,2.1s-.83.79-1.46.79c-.32,0-.6-.07-.84-.22s-.44-.35-.59-.63l-.12.73h-.91v-8.51h1.11v3.25c.16-.24.35-.42.57-.55.22-.13.48-.19.77-.19.63,0,1.12.28,1.47.85s.52,1.33.52,2.28v.11Zm-1.11-.11c0-.68-.09-1.23-.27-1.65-.18-.41-.47-.62-.87-.62-.26,0-.48.07-.65.22-.17.15-.31.35-.41.61v2.79c.1.25.24.44.41.58.18.14.4.2.66.2.4,0,.68-.18.87-.54.18-.36.27-.86.27-1.48v-.11Z"/>
  </g>
</svg>