<?xml version="1.0" standalone="no"?>
<!DOCTYPE svg PUBLIC "-//W3C//DTD SVG 20010904//EN"
 "http://www.w3.org/TR/2001/REC-SVG-20010904/DTD/svg10.dtd">
<svg version="1.0" xmlns="http://www.w3.org/2000/svg"
 width="944.000000pt" height="696.000000pt" viewBox="0 0 944.000000 696.000000"
 preserveAspectRatio="xMidYMid meet">

<g transform="translate(0.000000,696.000000) scale(0.100000,-0.100000)"
fill="#000000" stroke="none">
<path d="M520 6272 c0 -522 3 -691 12 -700 17 -17 4329 -17 4346 0 9 9 12 178
12 700 l0 688 -2185 0 -2185 0 0 -688z"/>
<path d="M2420 5120 c-123 -17 -256 -42 -315 -60 -286 -86 -454 -155 -640
-265 -88 -52 -239 -153 -270 -182 -11 -10 -52 -44 -91 -75 -152 -124 -403
-410 -500 -572 -64 -107 -96 -165 -140 -256 -79 -165 -93 -200 -147 -375 -84
-272 -118 -585 -98 -897 18 -282 90 -585 191 -813 147 -330 299 -553 545 -801
249 -250 472 -400 826 -557 120 -54 380 -125 594 -164 144 -25 596 -25 740 0
215 39 447 103 595 163 99 41 330 164 419 223 427 283 755 674 949 1132 84
197 150 431 173 606 6 48 15 117 20 153 4 36 8 139 8 230 0 91 -4 194 -8 230
-5 36 -14 105 -20 153 -31 237 -131 544 -257 785 -123 234 -244 400 -444 605
-324 334 -700 550 -1180 680 -274 74 -660 97 -950 57z"/>
<path d="M5590 5061 c-14 -27 -14 -4855 0 -4882 10 -18 28 -19 630 -19 484 0
621 3 627 13 4 6 10 237 13 511 3 330 9 501 15 503 6 2 47 -27 91 -64 45 -38
130 -108 190 -157 60 -50 159 -131 219 -181 61 -50 153 -126 205 -169 52 -43
106 -88 120 -100 34 -29 277 -228 364 -298 l71 -58 653 0 652 0 0 2445 0 2445
-607 -2 -608 -3 -3 -485 c-1 -266 -6 -488 -11 -493 -8 -8 -59 32 -241 187 -14
11 -108 91 -210 176 -102 85 -232 194 -290 243 -124 105 -171 144 -265 222
-117 98 -149 128 -167 157 l-18 28 -710 0 c-691 0 -710 0 -720 -19z"/>
</g>
</svg>
