<?xml version="1.0" standalone="no"?>
<!DOCTYPE svg PUBLIC "-//W3C//DTD SVG 20010904//EN"
 "http://www.w3.org/TR/2001/REC-SVG-20010904/DTD/svg10.dtd">
<svg version="1.0" xmlns="http://www.w3.org/2000/svg"
 width="4400.000000pt" height="522.000000pt" viewBox="0 0 4400.000000 522.000000"
 preserveAspectRatio="xMidYMid meet">

<g transform="translate(0.000000,522.000000) scale(0.100000,-0.100000)"
fill="#000000" stroke="none">
<path d="M23155 5194 c-172 -27 -209 -35 -360 -76 -464 -128 -912 -411 -1224
-773 -188 -217 -342 -463 -436 -695 -14 -36 -30 -74 -35 -85 -11 -22 -59 -179
-83 -265 -88 -328 -104 -737 -42 -1085 23 -132 31 -168 42 -205 56 -180 79
-250 91 -280 8 -19 18 -44 22 -55 40 -104 139 -287 235 -435 306 -468 811
-850 1350 -1018 317 -99 614 -133 982 -113 283 16 662 120 935 257 551 277
962 712 1218 1289 45 100 102 277 133 410 66 281 86 528 62 785 -16 179 -32
289 -59 395 -8 33 -20 80 -26 105 -5 25 -14 54 -19 65 -4 11 -16 45 -25 75
-54 174 -175 417 -297 595 -256 376 -582 663 -979 859 -470 233 -1011 325
-1485 250z m580 -714 c526 -71 997 -367 1296 -815 68 -101 189 -343 189 -377
0 -8 4 -18 9 -23 4 -6 14 -30 20 -55 7 -25 19 -70 27 -100 94 -356 65 -804
-73 -1130 -186 -439 -484 -762 -892 -965 -548 -273 -1215 -252 -1736 54 -312
184 -568 457 -722 771 -66 135 -83 174 -83 193 0 9 -4 18 -9 21 -5 3 -12 22
-16 42 -3 20 -10 44 -15 53 -10 19 -32 121 -55 252 -19 111 -17 426 4 544 20
114 56 258 81 320 4 11 15 40 25 65 30 76 125 261 173 335 135 209 360 426
584 563 210 129 483 223 734 254 116 15 343 14 459 -2z"/>
<path d="M10210 5194 c-370 -38 -698 -132 -990 -285 -494 -260 -898 -671
-1132 -1154 -21 -44 -43 -88 -48 -97 -6 -10 -10 -23 -10 -29 0 -6 -6 -25 -14
-42 -166 -384 -221 -1003 -132 -1477 20 -103 34 -168 46 -204 28 -90 74 -225
87 -256 8 -19 18 -44 23 -55 133 -315 371 -631 665 -883 377 -323 838 -514
1411 -586 146 -18 235 -21 516 -19 429 3 841 71 1283 214 122 39 323 113 390
143 17 8 40 17 52 20 11 4 24 14 27 23 4 8 6 508 6 1110 0 803 -3 1099 -11
1109 -16 19 -1688 21 -1707 2 -19 -19 -17 -621 2 -637 10 -8 146 -11 495 -11
265 1 486 -2 491 -5 6 -4 10 -205 10 -565 0 -522 -1 -560 -17 -569 -35 -18
-321 -100 -473 -134 -225 -52 -342 -68 -547 -74 -467 -14 -884 96 -1225 324
-226 151 -430 363 -565 588 -13 22 -109 217 -123 250 -23 55 -70 209 -83 275
-8 41 -21 100 -27 130 -6 30 -14 150 -17 265 -5 199 2 322 27 465 9 53 13 70
47 190 134 477 518 925 989 1156 198 96 387 149 639 179 421 49 951 -38 1449
-240 135 -54 458 -211 508 -246 16 -12 29 -15 33 -9 6 9 9 720 3 725 -15 15
-452 181 -638 242 -476 156 -975 214 -1440 167z"/>
<path d="M20 5131 c-14 -27 -14 -4909 0 -4946 l10 -26 1322 4 c1486 5 1477 4
1753 77 322 85 663 244 896 417 355 262 651 633 808 1008 18 44 37 89 42 100
18 42 67 203 83 275 10 41 24 101 32 132 8 32 14 84 14 115 l0 58 -363 363
c-199 199 -366 362 -371 362 -4 0 -5 -33 -2 -72 15 -169 18 -447 7 -553 -19
-172 -73 -403 -112 -477 -5 -10 -9 -23 -9 -28 0 -14 -86 -191 -124 -255 -56
-94 -169 -239 -260 -333 -241 -250 -550 -412 -941 -492 -245 -50 -342 -55
-1230 -55 l-830 0 0 1850 0 1850 690 3 c795 4 1158 -8 1368 -44 28 -5 37 -3
37 7 0 8 -150 163 -333 346 l-332 333 -1072 0 c-1050 0 -1073 0 -1083 -19z"/>
<path d="M15155 5138 c-3 -7 -4 -1129 -3 -2493 l3 -2480 344 -3 c234 -1 348 1
355 8 8 8 13 306 16 948 l5 937 549 0 549 0 58 -90 c31 -49 83 -130 114 -180
31 -49 82 -130 115 -180 32 -49 77 -119 100 -155 22 -36 67 -105 100 -155 32
-49 88 -137 125 -195 36 -58 89 -139 116 -180 27 -41 52 -82 57 -90 4 -8 37
-60 73 -115 56 -85 232 -360 264 -412 6 -9 28 -44 51 -77 l40 -61 385 -3 c211
-1 390 0 397 3 15 6 -2 39 -88 170 -32 50 -82 126 -110 170 -28 44 -80 125
-115 180 -35 55 -87 136 -116 180 -28 44 -77 121 -109 170 -49 75 -99 154
-155 244 -6 9 -33 50 -60 91 -27 41 -54 83 -60 92 -30 52 -154 246 -250 393
-134 206 -166 258 -163 272 2 8 39 29 83 47 396 161 709 476 860 866 9 25 21
53 26 63 6 10 14 37 19 60 5 23 14 62 20 87 6 25 15 65 21 90 16 69 22 344 10
445 -13 117 -53 298 -70 320 -5 5 -11 23 -15 40 -11 46 -79 185 -134 273 -223
359 -564 598 -1002 704 l-95 22 -1153 4 c-932 2 -1153 0 -1157 -10z m2223
-684 c510 -105 811 -631 645 -1129 -88 -265 -313 -474 -600 -557 -78 -23 -80
-23 -813 -23 l-735 0 -3 850 c-1 468 0 856 3 863 3 9 156 12 715 12 610 0 722
-2 788 -16z"/>
<path d="M28355 5138 c-3 -7 -4 -722 -2 -1588 3 -1688 1 -1586 51 -1810 21
-96 29 -123 71 -240 60 -165 132 -308 230 -455 267 -397 656 -691 1114 -841
118 -38 311 -80 423 -92 112 -11 413 -7 511 7 486 68 924 290 1257 637 97 101
218 257 279 360 23 38 46 76 51 84 6 8 14 24 19 35 5 11 25 53 44 93 20 40 45
100 57 135 11 34 24 71 29 82 17 40 66 225 75 285 3 19 11 55 18 80 16 65 24
3206 7 3226 -16 19 -678 21 -697 2 -9 -9 -12 -362 -13 -1522 0 -831 -4 -1533
-9 -1561 -5 -27 -13 -77 -18 -110 -6 -33 -14 -71 -20 -85 -5 -14 -17 -50 -27
-80 -33 -107 -89 -219 -171 -340 -204 -304 -506 -507 -880 -590 -131 -29 -393
-32 -529 -6 -403 77 -741 311 -955 661 -91 149 -154 322 -187 515 -15 84 -17
268 -22 1610 l-6 1515 -348 3 c-274 2 -349 0 -352 -10z"/>
<path d="M35125 5138 c-3 -7 -4 -1129 -3 -2493 l3 -2480 351 -3 352 -2 6 22
c3 13 6 305 6 651 0 345 1 628 3 629 1 1 317 5 702 8 771 7 739 4 974 76 469
143 878 494 1103 945 32 64 58 123 58 131 0 8 4 18 8 24 9 9 39 101 60 179 46
175 78 428 68 544 -22 255 -56 414 -128 601 -242 624 -791 1063 -1450 1160
-125 19 -193 20 -1121 20 -781 0 -989 -3 -992 -12z m2068 -689 c215 -43 435
-160 586 -310 233 -232 350 -509 351 -828 0 -217 -46 -393 -153 -580 -154
-268 -394 -457 -689 -542 -160 -46 -233 -50 -863 -47 l-580 3 -3 1150 c-1 633
0 1156 3 1163 3 9 138 12 626 12 588 0 626 -1 722 -21z"/>
<path d="M40900 2650 l0 -2490 1550 0 1550 0 0 320 0 320 -1189 0 c-1075 0
-1189 2 -1195 16 -3 9 -6 350 -6 759 0 663 2 745 16 759 14 14 133 16 1164 16
1126 0 1150 0 1160 19 6 12 10 129 10 309 0 233 -3 292 -14 301 -10 8 -324 12
-1165 14 -1011 2 -1153 4 -1161 17 -14 21 -13 1445 0 1471 10 19 34 19 1195
19 l1185 0 0 320 0 320 -1550 0 -1550 0 0 -2490z"/>
<path d="M4680 5127 c0 -2 405 -410 900 -906 786 -789 900 -899 905 -879 3 13
4 347 3 743 -4 762 -1 726 -51 834 -20 45 -102 135 -147 163 -80 48 -74 48
-867 48 -409 0 -743 -2 -743 -3z"/>
</g>
</svg>
