<?xml version="1.0" standalone="no"?>
<!DOCTYPE svg PUBLIC "-//W3C//DTD SVG 20010904//EN"
 "http://www.w3.org/TR/2001/REC-SVG-20010904/DTD/svg10.dtd">
<svg version="1.0" xmlns="http://www.w3.org/2000/svg"
 width="658.000000pt" height="522.000000pt" viewBox="0 0 658.000000 522.000000"
 preserveAspectRatio="xMidYMid meet">

<g transform="translate(0.000000,522.000000) scale(0.100000,-0.100000)"
fill="#000000" stroke="none">
<path d="M35 5128 c-3 -7 -4 -1124 -3 -2483 l3 -2470 1305 1 c1179 0 1319 2
1450 18 217 26 357 61 590 146 416 153 755 389 1051 730 146 169 293 409 375
610 19 47 39 94 43 105 12 27 35 99 54 165 42 147 47 168 47 188 0 12 7 47 15
79 29 112 54 78 -347 480 -200 200 -366 359 -371 354 -5 -5 -1 -52 8 -106 34
-198 5 -630 -55 -819 -15 -48 -51 -157 -67 -201 -19 -53 -83 -179 -134 -262
-140 -229 -371 -462 -584 -589 -226 -135 -515 -223 -850 -261 -141 -16 -256
-18 -990 -18 l-830 0 0 1860 0 1860 775 0 c799 0 1025 -5 1193 -26 53 -7 100
-9 104 -5 4 4 -140 153 -319 331 l-327 325 -1066 0 c-843 0 -1067 -3 -1070
-12z"/>
<path d="M4690 5122 c0 -4 403 -410 895 -902 l895 -895 -3 745 c-2 556 -6 756
-15 788 -25 89 -112 192 -192 229 -95 45 -62 43 -841 43 -407 0 -739 -3 -739
-8z"/>
</g>
</svg>
