<?xml version="1.0" standalone="no"?>
<!DOCTYPE svg PUBLIC "-//W3C//DTD SVG 20010904//EN"
 "http://www.w3.org/TR/2001/REC-SVG-20010904/DTD/svg10.dtd">
<svg version="1.0" xmlns="http://www.w3.org/2000/svg"
 width="894.000000pt" height="154.000000pt" viewBox="0 0 894.000000 154.000000"
 preserveAspectRatio="xMidYMid meet">

<g transform="translate(0.000000,154.000000) scale(0.100000,-0.100000)"
fill="#000000" stroke="none">
<path d="M365 1250 c-22 -11 -43 -19 -47 -20 -19 -1 -103 -68 -143 -113 -62
-72 -84 -117 -106 -221 -24 -111 -24 -151 0 -262 22 -100 42 -143 98 -212 49
-60 71 -80 110 -97 17 -8 34 -19 37 -24 4 -5 21 -12 39 -16 17 -4 51 -13 75
-21 66 -22 168 -18 253 10 103 33 131 50 197 114 69 68 81 86 118 177 27 65
29 79 28 205 0 103 -4 143 -16 170 -9 19 -19 46 -23 58 -9 31 -58 104 -96 141
-30 30 -114 91 -127 91 -4 1 -25 9 -47 20 -33 16 -62 19 -175 19 -113 0 -142
-3 -175 -19z m288 -164 c68 -31 118 -79 153 -145 26 -51 28 -63 28 -170 0
-106 -2 -121 -27 -173 -31 -66 -66 -105 -122 -139 -36 -21 -52 -24 -146 -24
-99 0 -108 2 -145 28 -107 73 -154 166 -154 300 0 64 6 100 23 145 22 59 99
162 121 162 6 1 29 9 51 20 58 28 152 27 218 -4z"/>
<path d="M3450 1257 c-14 -8 -40 -19 -58 -25 -95 -33 -250 -216 -252 -297 0
-11 -7 -42 -15 -69 -19 -63 -19 -139 0 -202 8 -27 15 -58 15 -69 1 -47 79
-172 140 -225 45 -39 137 -90 161 -90 9 0 33 -7 54 -16 69 -28 297 -1 346 42
8 8 20 14 26 14 19 0 119 105 146 154 52 93 85 289 53 315 -9 8 -85 11 -252 9
l-239 -3 0 -75 0 -75 150 -3 c99 -2 152 -6 156 -14 13 -20 -42 -109 -91 -147
-90 -71 -265 -74 -354 -6 -102 78 -160 247 -126 375 45 174 144 260 300 260
85 0 152 -27 219 -88 28 -26 49 -38 60 -35 26 10 75 53 89 80 11 20 10 27 -7
49 -11 14 -37 38 -58 55 -21 16 -43 32 -48 37 -6 5 -37 20 -69 35 -54 25 -68
27 -190 27 -89 0 -139 -4 -156 -13z"/>
<path d="M8205 1244 c-33 -14 -67 -32 -76 -40 -8 -8 -19 -14 -23 -14 -4 0 -32
-25 -61 -55 -91 -93 -140 -222 -140 -370 0 -101 14 -160 58 -255 95 -202 350
-307 577 -236 42 13 94 35 115 48 53 34 126 113 153 166 26 50 45 170 40 252
l-3 55 -240 0 -240 0 0 -75 0 -75 148 -3 c123 -2 149 -5 154 -18 7 -19 -32
-90 -68 -124 -52 -47 -58 -50 -130 -65 -166 -35 -298 38 -357 198 -47 126 -16
296 71 390 23 25 53 48 67 52 14 4 34 14 45 21 12 9 48 14 96 14 92 0 166 -29
227 -90 44 -45 56 -44 109 1 56 47 58 63 17 109 -44 49 -101 88 -171 118 -45
19 -69 22 -180 22 -115 -1 -134 -4 -188 -26z"/>
<path d="M1465 1248 c-3 -7 -4 -227 -3 -488 l3 -475 88 -3 c48 -1 88 -1 89 0
1 2 5 183 8 403 l5 400 164 5 c155 5 164 4 177 -15 12 -16 14 -89 14 -398 -1
-207 2 -382 5 -387 8 -13 162 -13 170 0 8 13 8 948 0 960 -10 16 -714 13 -720
-2z"/>
<path d="M4620 1241 c-6 -12 -10 -109 -10 -245 0 -256 7 -240 -93 -236 -29 2
-58 2 -65 1 -10 -1 -12 -52 -10 -238 l3 -238 384 -3 c301 -2 386 1 393 10 4 7
8 115 8 241 l0 227 71 0 c116 0 109 -16 109 248 0 164 -3 231 -12 240 -9 9
-109 12 -390 12 -363 0 -378 -1 -388 -19z m589 -155 c8 -9 11 -63 9 -167 l-3
-154 -75 -3 c-41 -2 -80 -8 -87 -14 -10 -8 -13 -49 -13 -153 0 -121 -2 -144
-16 -149 -9 -3 -98 -6 -199 -6 -143 0 -185 3 -194 14 -8 9 -11 60 -9 157 l3
144 80 5 80 5 5 152 c3 84 10 157 15 162 6 6 87 12 195 14 102 1 188 3 191 5
4 1 12 -4 18 -12z"/>
<path d="M5760 1234 c-6 -14 -10 -43 -10 -65 0 -56 26 -79 89 -79 84 0 81 11
81 -330 0 -342 7 -320 -94 -320 -83 0 -86 -3 -86 -74 0 -35 5 -67 12 -74 9 -9
78 -12 249 -12 131 0 244 3 253 6 12 5 16 21 16 74 0 78 -2 80 -88 80 -31 0
-63 4 -70 9 -19 12 -19 620 0 632 7 5 36 9 64 9 65 0 84 19 84 84 0 90 11 86
-256 86 l-234 0 -10 -26z"/>
<path d="M6700 1241 c-6 -13 -10 -182 -10 -479 0 -383 2 -462 14 -471 9 -7 42
-11 88 -9 l73 3 3 396 c2 333 5 399 17 409 12 10 19 3 40 -45 14 -32 25 -65
25 -74 1 -9 9 -34 20 -56 11 -22 20 -49 20 -60 0 -11 7 -33 15 -49 9 -16 20
-46 25 -65 10 -41 35 -115 62 -183 10 -26 18 -55 18 -65 0 -10 6 -27 14 -38 7
-11 17 -35 21 -54 4 -18 16 -53 27 -77 l19 -44 172 2 172 3 3 465 c1 256 0
475 -3 488 -5 20 -11 22 -80 22 -112 0 -106 26 -105 -415 0 -203 1 -376 0
-382 0 -7 -9 -13 -19 -13 -19 0 -31 18 -31 48 0 9 -7 30 -15 45 -8 15 -17 45
-21 65 -4 20 -13 46 -20 57 -7 11 -16 38 -20 60 -4 22 -13 49 -19 60 -7 11
-16 38 -20 59 -3 21 -12 48 -20 60 -7 12 -16 38 -19 58 -4 20 -13 50 -21 65
-8 15 -15 37 -15 48 0 11 -9 40 -20 64 -11 24 -20 52 -20 62 0 10 -9 28 -20
39 -18 18 -33 20 -180 20 -147 0 -160 -1 -170 -19z"/>
<path d="M2581 808 c-25 -27 -31 -41 -30 -78 1 -60 8 -74 48 -105 62 -45 123
-27 171 51 28 44 21 87 -19 132 -27 29 -36 32 -85 32 -49 0 -58 -3 -85 -32z"/>
</g>
</svg>
